<svg width="94" height="94" viewBox="0 0 94 94" fill="none" xmlns="http://www.w3.org/2000/svg">
<rect width="94" height="94" rx="47" fill="#F9DC64"/>
<path d="M77.049 43.8694C77.0146 43.764 77.0043 43.6522 77.0189 43.5422C76.9963 42.0443 76.8751 40.5495 76.6558 39.0675C76.3841 37.11 76.0673 35.1582 75.7655 33.2042C75.4849 31.4694 75.292 29.7217 75.1874 27.9675C75.1874 27.5247 75.1874 27.0818 75.1874 26.639C75.1945 26.5456 75.1712 26.4525 75.1209 26.3735C75.0707 26.2946 74.9963 26.2339 74.9087 26.2008C74.733 26.1279 74.585 26.2008 74.4462 26.3048C74.4173 26.3273 74.3909 26.3528 74.3676 26.3811C74.0855 26.7084 73.7248 26.9361 73.3721 27.1732C73.0957 27.3582 72.8136 27.5374 72.5211 27.6958C71.2839 28.3641 70.1034 29.1214 68.9263 29.8927C67.3931 30.8905 65.8183 31.8236 64.2632 32.7891C62.5993 33.8216 60.8834 34.772 59.3341 35.9803C59.193 36.096 59.0647 36.0497 58.9872 35.874C58.8935 35.6728 58.8172 35.4635 58.7108 35.2692C58.0657 34.0841 57.3893 32.9163 56.6597 31.7808C55.1565 29.4498 53.6395 27.1304 52.1353 24.8005C50.831 22.7817 49.5568 20.7444 48.4896 18.5869C48.4508 18.5037 48.4015 18.426 48.3428 18.3556C48.3008 18.306 48.2477 18.2671 48.1879 18.2418C48.128 18.2166 48.0631 18.2059 47.9983 18.2105C47.9335 18.2151 47.8707 18.235 47.8151 18.2684C47.7594 18.3019 47.7124 18.348 47.6779 18.403C47.631 18.4827 47.5949 18.5682 47.5704 18.6574C47.4297 19.0973 47.2355 19.5182 46.9922 19.9108C46.687 20.4172 46.3725 20.919 46.0453 21.4139C45.6047 22.0753 45.1376 22.7216 44.7595 23.4211C43.6877 25.4064 42.4933 27.32 41.3035 29.2359C39.9981 31.3403 38.6823 33.4389 37.5029 35.6196C37.3179 35.9607 37.119 36.2948 37.0404 36.681C37.0362 36.699 37.0292 36.7161 37.0196 36.7319C36.9849 36.7943 36.9641 36.873 36.8728 36.8741C36.7814 36.8753 36.7409 36.8024 36.719 36.7365C36.5143 36.1179 36.1663 35.5699 35.8749 34.9929C34.8667 32.9972 33.8592 31.0007 32.8525 29.0035C32.7548 28.7845 32.6003 28.5957 32.405 28.4566C31.6567 27.9403 30.8634 27.4926 30.0347 27.1188C28.6923 26.5268 27.2817 26.1603 25.8618 25.8192C24.7483 25.5521 23.6302 25.2989 22.5422 24.9381C20.9049 24.3959 19.4203 23.5992 18.2016 22.3551C18.1633 22.3152 18.1215 22.2788 18.0767 22.2464C17.996 22.1827 17.8948 22.1505 17.7921 22.1558C17.6894 22.1612 17.5921 22.2036 17.5183 22.2753C17.3696 22.4164 17.2641 22.5968 17.2142 22.7956C17.0699 23.2356 16.9919 23.6947 16.9829 24.1577C16.9829 25.7649 16.9124 27.3709 16.9471 28.9804C16.9864 30.7911 17.0384 32.6018 17.1136 34.4148C17.176 35.8724 17.2531 37.3304 17.3448 38.7889C17.4003 39.7139 17.4882 40.6308 17.5553 41.5535C17.5736 41.8122 17.6691 42.0595 17.8293 42.2634C18.0744 42.5871 18.2988 42.9271 18.5231 43.2647C18.9139 43.8486 19.2781 44.4499 19.7175 44.9991C20.4471 45.909 21.1131 46.8641 21.7802 47.8192C23.2937 49.9871 24.8038 52.1574 26.4272 54.2456C27.188 55.2223 27.9507 56.1977 28.7154 57.1721C28.7385 57.201 28.7617 57.2299 28.7825 57.26C28.8028 57.2856 28.8167 57.3156 28.8232 57.3476C28.8296 57.3797 28.8284 57.4128 28.8196 57.4442C28.8108 57.4757 28.7947 57.5046 28.7725 57.5287C28.7504 57.5527 28.7229 57.5712 28.6923 57.5825C28.6266 57.6151 28.559 57.6437 28.4899 57.6681C28.1107 57.8161 27.7314 57.9595 27.3545 58.111C26.7857 58.3289 26.2689 58.6637 25.8375 59.0938C24.9033 60.0176 24.0764 61.0439 23.3724 62.1532C22.961 62.7907 22.6308 63.477 22.3896 64.1963C22.1757 64.8715 22.0427 65.5549 22.1872 66.2695C22.2206 66.4803 22.3065 66.6794 22.437 66.8483C22.5676 67.0172 22.7385 67.1506 22.9342 67.2361C23.1038 67.3086 23.2771 67.3723 23.4533 67.4269C23.5932 67.4743 23.7377 67.5066 23.8765 67.5564C23.983 67.5905 24.0777 67.6542 24.1495 67.7399C24.2213 67.8256 24.2674 67.93 24.2823 68.0408C24.2985 68.1322 24.302 68.2247 24.3124 68.3172C24.428 69.3451 24.5379 70.3741 24.6662 71.4009C24.7162 71.8043 24.7908 72.2044 24.8894 72.5988C24.9947 73.0702 25.2071 73.5112 25.51 73.8875C25.8129 74.2638 26.1984 74.5654 26.6365 74.7691C26.9857 74.9379 27.3495 75.0749 27.7233 75.1784C28.5327 75.4096 29.3513 75.5148 30.1746 75.6316C31.1167 75.7707 32.0778 75.5752 32.8906 75.0789C33.2884 74.8477 33.6746 74.591 34.0619 74.3401C34.3568 74.1493 34.64 73.9423 34.936 73.7515C35.3022 73.4995 35.7024 73.3009 36.1247 73.1619C36.7444 72.9734 37.3295 73.0243 37.859 73.4405C38.0036 73.5561 38.1435 73.6718 38.2845 73.7955C38.7748 74.2094 39.3159 74.5043 39.9646 74.5864C40.4271 74.6453 40.8768 74.7332 41.3336 74.8061C43.0517 75.0778 44.7769 75.2605 46.5217 75.2119C47.3714 75.1827 48.2165 75.0735 49.0457 74.8858C50.0892 74.6776 51.0255 74.1071 51.6889 73.2752C51.9445 72.9584 52.2139 72.6531 52.4775 72.3432C52.7026 72.0731 52.9619 71.8333 53.2487 71.6298C53.4484 71.4789 53.6763 71.3694 53.919 71.3078C54.1616 71.2463 54.4141 71.2339 54.6617 71.2714C54.8929 71.3095 55.1369 71.3442 55.3728 71.387C55.8783 71.4991 56.3951 71.5526 56.9129 71.5466C57.302 71.5297 57.6817 71.422 58.0217 71.2321C58.2014 71.1371 58.3595 71.0058 58.4858 70.8466C58.6122 70.6874 58.7042 70.5037 58.7559 70.3071C58.8168 70.0743 58.8452 69.8342 58.8403 69.5937C58.8403 69.2792 58.8288 68.9647 58.8484 68.6513C58.8727 68.2813 59.0381 68.1218 59.4092 68.0963C59.7601 68.0709 60.1128 68.0895 60.4591 68.1518C60.895 68.2351 61.3309 68.3172 61.7703 68.3761C62.5012 68.4889 63.2463 68.4701 63.9706 68.3206C64.3481 68.2298 64.7159 68.1028 65.0691 67.9414C66.6277 67.258 68.2291 67.0892 69.8895 67.5124C70.4977 67.6674 71.1047 67.8246 71.6978 68.0327C72.0609 68.1611 72.276 68.0455 72.3465 67.6731C72.3888 67.4756 72.4483 67.2821 72.5246 67.095C72.9858 65.9245 73.2929 64.699 73.438 63.4494C73.564 62.2469 73.438 61.0941 72.9177 59.9887C72.5246 59.1481 71.9152 58.6417 70.9717 58.5526C70.4017 58.4983 69.834 58.4162 69.2686 58.3306C68.9032 58.2751 68.5436 58.1861 68.1805 58.1179C68.1073 58.1064 68.0383 58.0764 67.98 58.0306C67.9217 57.9849 67.8761 57.925 67.8475 57.8566C67.8244 57.8057 67.8082 57.7525 67.7874 57.7016C67.5885 57.2299 67.2417 56.972 66.7213 56.9559C66.5744 56.9496 66.4282 56.931 66.2843 56.9004C66.2568 56.8949 66.2315 56.8818 66.2112 56.8626C66.1909 56.8434 66.1765 56.8188 66.1696 56.7917C66.1627 56.7646 66.1636 56.7361 66.1722 56.7095C66.1809 56.6828 66.1969 56.6592 66.2184 56.6414C66.4716 56.3985 66.7318 56.165 66.963 55.899C67.9701 54.7428 68.976 53.5808 70.0005 52.4384C71.4203 50.8555 72.8668 49.2957 74.2786 47.7093C75.1516 46.7288 75.9875 45.716 76.842 44.7193C77.0594 44.4672 77.2317 44.2198 77.049 43.8694ZM73.497 29.5076C73.5213 29.4787 73.5976 29.4822 73.6473 29.4903C73.6716 29.4903 73.697 29.54 73.7086 29.5712C73.7167 29.6154 73.7198 29.6604 73.7178 29.7054C73.675 29.9366 73.6207 30.1887 73.5825 30.4442C73.4091 31.6005 73.2634 32.7498 73.0449 33.8945C72.8703 34.801 72.713 35.7109 72.5616 36.622C72.4459 37.2961 72.3558 37.9737 72.2598 38.6501C71.9129 41.0308 71.4793 43.3907 70.796 45.6975C70.7335 45.9102 70.6884 46.1276 70.6318 46.3415C70.5751 46.5554 70.5162 46.6097 70.2745 46.5727C69.6964 46.4825 69.1067 46.39 68.5251 46.2883C67.2683 46.0686 66.0241 45.7934 64.795 45.4535C64.5996 45.3991 64.3973 45.3702 64.2007 45.3217C64.1731 45.3163 64.1473 45.3041 64.1257 45.2861C64.104 45.2682 64.0873 45.245 64.0769 45.2189C64.0665 45.1928 64.0629 45.1644 64.0664 45.1365C64.0698 45.1086 64.0802 45.082 64.0967 45.0592C64.8413 44.0452 65.4448 42.941 66.1155 41.8784C67.2717 40.0492 68.4199 38.2188 69.538 36.3688C70.6561 34.5188 71.7129 32.6688 72.7917 30.8188C72.9859 30.4847 73.1455 30.1251 73.3235 29.7782C73.3721 29.6824 73.4303 29.5918 73.497 29.5076ZM69.8825 47.574C68.6534 48.906 67.5527 50.349 66.3444 51.6961C63.7405 54.6029 61.1609 57.5305 58.5686 60.4454C58.3429 60.7144 58.134 60.9971 57.9431 61.2918C57.924 61.3236 57.894 61.3473 57.8587 61.3586C57.8234 61.3699 57.7851 61.3679 57.7512 61.3531C57.7068 61.3208 57.673 61.2762 57.654 61.2247C57.6408 61.1901 57.6356 61.153 57.639 61.116C57.6147 59.9471 57.3476 58.8035 57.217 57.6473C57.1615 57.1513 57.0852 56.6575 57.0193 56.1627C57.0095 56.033 57.051 55.9047 57.1349 55.8054C57.9362 54.7405 58.653 53.6189 59.3942 52.5135C59.9816 51.6394 60.5389 50.7456 61.1089 49.86C61.5795 49.1292 62.0524 48.4008 62.5149 47.6631C62.8294 47.1636 63.1254 46.6502 63.433 46.1461C63.5336 45.9819 63.6284 45.9426 63.8053 46.0177C64.8008 46.4363 65.8623 46.6097 66.904 46.8525C67.5515 47.004 68.2094 47.1092 68.8697 47.2179C69.1599 47.2665 69.457 47.27 69.7507 47.2989C69.8212 47.307 69.9045 47.3255 69.9161 47.4145C69.9218 47.442 69.9219 47.4703 69.9161 47.4978C69.9103 47.5253 69.8989 47.5512 69.8825 47.574ZM59.7734 36.6556C62.3542 34.8981 65.061 33.3406 67.7111 31.6953C68.5898 31.1495 69.4547 30.583 70.315 30.0095C70.7463 29.7227 71.1798 29.4417 71.6331 29.2001C72.0927 28.962 72.532 28.6867 72.9466 28.3768C73.002 28.3274 73.0659 28.2882 73.1351 28.2612C73.1867 28.2478 73.2415 28.254 73.2888 28.2785C73.3813 28.3283 73.3258 28.4046 73.3039 28.4705C73.2969 28.488 73.2867 28.5041 73.2738 28.5179C72.4448 29.4984 71.8956 30.6569 71.2434 31.7485C70.2768 33.3672 69.3576 35.0102 68.3771 36.6174C67.0312 38.8247 65.6472 41.0112 64.2782 43.2011C64.0171 43.582 63.7907 43.9857 63.6018 44.4071C63.5861 44.442 63.5615 44.4721 63.5304 44.4944C63.4994 44.5168 63.463 44.5305 63.4249 44.5343C63.3856 44.503 63.3243 44.4776 63.3093 44.4325C62.7138 43.0994 61.9287 41.8656 61.265 40.5672C60.7192 39.4988 60.1481 38.4431 59.6728 37.3401C59.6509 37.2892 59.6243 37.2406 59.6023 37.1898C59.467 36.8834 59.4844 36.8521 59.7734 36.6556ZM58.7398 37.8234C58.7523 37.7997 58.7699 37.779 58.7912 37.7629C58.8126 37.7467 58.8373 37.7354 58.8635 37.7297C58.8895 37.7317 58.9147 37.7395 58.9373 37.7525C58.9599 37.7655 58.9793 37.7834 58.9941 37.8049C59.0306 37.8686 59.0568 37.9377 59.0716 38.0095C59.1713 38.3463 59.305 38.6721 59.4705 38.982C60.4452 40.9129 61.4731 42.8149 62.5184 44.7089C62.6167 44.8869 62.7288 45.0557 62.8363 45.2292C62.8689 45.2743 62.8873 45.3281 62.8892 45.3837C62.891 45.4393 62.8763 45.4942 62.8468 45.5414C62.6214 45.965 62.3732 46.3761 62.1033 46.7728C61.6928 47.3405 61.3182 47.9371 60.947 48.5337C59.9249 50.1825 58.8554 51.8025 57.7558 53.4004C57.541 53.7016 57.3478 54.0177 57.1777 54.3462C57.1302 54.4454 57.0717 54.5389 57.0031 54.6249C56.9776 54.6561 56.9048 54.6595 56.8551 54.6549C56.8285 54.6549 56.7915 54.6133 56.7811 54.5832C56.7656 54.529 56.754 54.4738 56.7464 54.4179C56.9187 53.3692 56.5429 52.4719 56.1902 51.5828C55.6607 50.2485 54.8825 49.0587 53.9667 47.9579C53.7783 47.7267 53.7609 47.6689 53.8928 47.4723C54.3969 46.7173 54.8004 45.9056 55.2271 45.1078C56.3336 43.0369 57.3546 40.9233 58.3744 38.8085C58.4841 38.5946 58.5702 38.3693 58.6311 38.1367C58.6566 38.0289 58.693 37.9239 58.7398 37.8234ZM35.0158 56.0008C35.861 53.8363 37.0346 51.8499 38.3042 49.9166C39.4408 48.1822 40.6167 46.4791 41.7417 44.7447C42.2956 43.8937 42.7974 43.0103 43.3188 42.1362C43.4966 41.8331 43.6412 41.5117 43.7501 41.1777C43.7898 41.0549 43.8373 40.9348 43.8923 40.8181C43.9059 40.7835 43.9319 40.7552 43.9654 40.7389C43.9988 40.7226 44.0371 40.7195 44.0727 40.7302C44.0995 40.7377 44.1231 40.7537 44.14 40.7758C44.1569 40.7979 44.1662 40.8249 44.1664 40.8528C44.1736 40.9149 44.1771 40.9775 44.1768 41.0401C44.0138 42.1801 44.1502 43.289 44.1675 44.3932C44.2067 45.8899 44.1146 47.3872 43.8923 48.8679C43.7212 49.9471 43.552 51.0239 43.3848 52.0985C43.3524 52.3043 43.3027 52.4939 43.1257 52.6292C42.5777 53.0477 42.1545 53.59 41.7082 54.1069C40.5959 55.3938 39.5379 56.7258 38.4823 58.0589C37.9088 58.7843 37.3306 59.5042 36.7479 60.2188C36.5854 60.4201 36.449 60.6412 36.342 60.8767C36.3027 60.9623 36.2414 61.0467 36.1351 61.027C36.0896 61.0158 36.0497 60.9886 36.0228 60.9504C35.9958 60.9121 35.9835 60.8655 35.9882 60.8189C35.9882 60.257 35.7928 59.7309 35.6876 59.1886C35.5103 58.3573 35.2766 57.5391 34.9881 56.7396C34.9022 56.4989 34.9122 56.2344 35.0158 56.0008ZM34.3845 55.4342C34.3777 55.4706 34.359 55.5038 34.3314 55.5285C34.3038 55.5531 34.2688 55.568 34.2319 55.5707C34.1947 55.5718 34.1579 55.5625 34.1258 55.5436C34.0937 55.5248 34.0675 55.4973 34.0503 55.4643C32.9265 53.7704 31.6592 52.1771 30.5203 50.4924C29.6809 49.2541 28.868 47.9972 28.0471 46.745C27.4389 45.82 26.796 44.9147 26.1404 44.0197C26.0085 43.8417 25.8568 43.6792 25.6883 43.5353C25.6624 43.515 25.6422 43.4882 25.6298 43.4577C25.6174 43.4272 25.6132 43.394 25.6177 43.3614C25.6221 43.3287 25.635 43.2978 25.6552 43.2717C25.6753 43.2456 25.7019 43.2253 25.7323 43.2127C26.6515 42.7571 27.447 42.1223 28.2286 41.4783C29.0103 40.8343 29.793 40.1255 30.4463 39.3161C30.6093 39.1149 30.7839 38.923 30.9562 38.731C31.1296 38.5149 31.2774 38.2793 31.3968 38.0292C31.4881 37.8627 31.65 37.8604 31.7436 38.0292C32.0234 38.575 32.405 39.0525 32.7415 39.5612C34.4828 42.1986 36.0946 44.9147 37.6787 47.655C37.807 47.8781 37.9515 48.0944 38.0857 48.314C38.1238 48.3765 38.1539 48.4435 38.177 48.4875C38.1681 48.588 38.1277 48.6831 38.0614 48.7592C37.0308 50.2253 36.1035 51.7615 35.2864 53.3565C34.9337 54.0248 34.5441 54.6827 34.3845 55.4342ZM36.6126 61.9428C36.8083 61.6077 37.0237 61.2845 37.2578 60.975C38.4869 59.4256 39.7298 57.8866 40.967 56.3419C41.7521 55.3602 42.5765 54.4121 43.4218 53.4813C43.4575 53.4401 43.4961 53.4014 43.5374 53.3657C43.5783 53.3274 43.6313 53.3046 43.6872 53.3012C43.7432 53.2978 43.7986 53.3141 43.8438 53.3472C43.8888 53.3815 43.9302 53.4203 43.9675 53.4628C44.7769 54.2953 45.5978 55.1244 46.4072 55.9626C47.4085 57.0033 48.3878 58.0578 49.4736 59.0105C50.0991 59.5609 50.7385 60.0939 51.5039 60.4443C51.5907 60.4847 51.6774 60.5321 51.7017 60.6258C51.7653 60.8755 51.9156 61.0883 51.9329 61.36C52.011 62.1694 52.1533 62.9713 52.3584 63.7581C52.4648 64.2082 52.5669 64.6584 52.6648 65.1086C52.7134 65.3283 52.6648 65.4184 52.4683 65.4994C51.6145 65.8477 50.7202 66.0866 49.8066 66.2105C49.0176 66.312 48.2208 66.3379 47.427 66.288C46.0395 66.2186 44.6636 66.0891 43.2876 65.9191C41.7845 65.733 40.2814 65.5075 38.7991 65.2115C38.2383 65.0959 37.6787 64.9802 37.1202 64.8565C36.8808 64.8045 36.8138 64.7409 36.7988 64.4784C36.753 63.888 36.6507 63.3034 36.4935 62.7325C36.4556 62.6 36.4466 62.4609 36.4671 62.3247C36.4877 62.1884 36.5373 62.0582 36.6126 61.9428ZM52.4359 58.955C52.3307 59.1493 52.2624 59.362 52.1723 59.5644C52.0902 59.7482 51.9838 59.7864 51.8254 59.68C51.173 59.2595 50.5521 58.7923 49.9673 58.2821C49.0423 57.4542 48.1924 56.5546 47.3333 55.6632C46.5509 54.8507 45.7643 54.0413 44.9734 53.235C44.7676 53.0258 44.5329 52.8419 44.3074 52.6511C44.2563 52.6108 44.2176 52.5568 44.1957 52.4955C44.1739 52.4341 44.1697 52.3679 44.1837 52.3043C44.3074 51.6105 44.4369 50.9249 44.5549 50.2323C44.8717 48.3719 45.0902 46.5034 45.0313 44.6094C44.9931 43.3537 44.9734 42.0969 44.9584 40.8412C44.9584 40.4862 44.8786 40.1475 44.8428 39.8006C44.8358 39.7324 44.8428 39.6503 44.9353 39.6225C44.9711 39.6225 45.0174 39.6144 45.0393 39.6329C45.1104 39.691 45.1758 39.7557 45.2348 39.826C45.7681 40.4872 46.3552 41.1033 46.9899 41.6679C47.6825 42.2801 48.3344 42.9367 48.9417 43.6335C49.4851 44.2383 50.0494 44.8233 50.6021 45.4188C51.534 46.4213 52.4602 47.4272 53.3146 48.4967C53.9698 49.3225 54.5524 50.2034 55.0559 51.1295C55.3681 51.6995 55.5497 52.3228 55.7705 52.9298C55.7919 52.9909 55.7969 53.0566 55.7851 53.1202C55.7734 53.1839 55.7452 53.2434 55.7034 53.2929C54.4524 55.0931 53.4753 57.0449 52.4359 58.955ZM53.8072 41.8564C53.5887 42.3524 53.5297 42.8889 53.4175 43.4104C53.2822 44.0405 53.1458 44.6707 52.9735 45.2939C52.8894 45.5771 52.8401 45.8695 52.8267 46.1646C52.8311 46.2109 52.819 46.2573 52.7925 46.2955C52.7661 46.3338 52.727 46.3616 52.6822 46.3739C52.6453 46.3797 52.6075 46.3742 52.5739 46.3581C52.5402 46.342 52.5122 46.3161 52.4937 46.2837C51.7606 45.2569 50.7905 44.4441 49.9754 43.4913C49.8325 43.3477 49.6804 43.2137 49.5198 43.0901C49.4898 43.0686 49.4662 43.0395 49.4513 43.0057C49.4365 42.9719 49.431 42.9348 49.4354 42.8982C49.4493 42.8045 49.5302 42.7825 49.5973 42.7756C50.2806 42.6993 50.9281 42.4796 51.5814 42.2865C52.2347 42.0934 52.9412 41.9396 53.5621 41.5928C53.5874 41.575 53.6172 41.5647 53.6482 41.5628C53.6791 41.561 53.7099 41.5678 53.7372 41.5824C53.7645 41.597 53.7872 41.6189 53.8028 41.6456C53.8184 41.6723 53.8264 41.7029 53.8257 41.7338C53.8268 41.7754 53.8205 41.8169 53.8072 41.8564ZM54.494 42.5212C54.5749 42.1235 54.6582 41.7257 54.7172 41.3257C54.7421 41.1231 54.8404 40.9368 54.9935 40.8019C55.2837 40.5452 55.5716 40.2827 55.8699 40.0388C56.2423 39.7358 56.6319 39.4606 56.973 39.1138C57.0431 39.0543 57.1209 39.0046 57.2043 38.9658C57.2493 38.9415 57.3592 39.0467 57.3395 39.1612C57.3129 39.2266 57.2808 39.2896 57.2436 39.3496C56.8828 39.8665 56.625 40.4377 56.3509 41.0019C55.9636 41.7986 55.5416 42.579 55.1531 43.3722C54.7773 44.133 54.4165 44.9008 54.0477 45.6639C53.9922 45.7795 53.9321 45.8952 53.8696 46.0108C53.8544 46.045 53.8264 46.0718 53.7915 46.0854C53.7567 46.0991 53.7178 46.0984 53.6835 46.0836C53.6532 46.0626 53.6308 46.0321 53.6197 45.997C53.6086 45.9618 53.6095 45.924 53.6222 45.8894C53.6399 45.7993 53.6647 45.7108 53.6962 45.6246C54.0569 44.6175 54.2824 43.57 54.494 42.5212ZM52.8637 60.0199C53.5447 58.6879 54.2512 57.3698 55.0039 56.0771C55.2664 55.6537 55.4982 55.212 55.6977 54.7555C55.7261 54.6674 55.779 54.5892 55.8503 54.53C55.8834 54.5158 55.9205 54.5139 55.9549 54.5247C55.9893 54.5355 56.0186 54.5584 56.0376 54.589C56.1 54.7717 56.0376 54.9567 56.0376 55.1394C56.0549 55.3602 56.0619 55.5822 56.0908 55.8019C56.255 57.009 56.4226 58.2162 56.5938 59.4233C56.6955 60.1355 56.7949 60.8489 56.9152 61.5589C56.9405 61.6659 56.9344 61.778 56.8974 61.8816C56.8605 61.9852 56.7944 62.0759 56.7071 62.1428C56.3186 62.4897 55.9116 62.8042 55.493 63.1083C55.2086 63.3141 54.9276 63.5245 54.6443 63.7315C54.3451 63.9502 54.0787 64.2107 53.8534 64.505C53.7841 64.5923 53.7067 64.6728 53.6222 64.7455C53.6008 64.7631 53.5752 64.7748 53.5479 64.7794C53.5206 64.784 53.4926 64.7814 53.4666 64.7718C53.4407 64.7622 53.4176 64.746 53.3999 64.7248C53.3822 64.7035 53.3703 64.678 53.3655 64.6507C53.2325 63.476 52.8729 62.3382 52.7527 61.1623C52.733 60.9611 52.74 60.7565 52.7249 60.5541C52.7188 60.3664 52.7669 60.1809 52.8637 60.0199ZM49.3799 22.0105C49.6112 22.0313 49.6482 22.2418 49.7268 22.3944C50.809 24.4826 52.1329 26.4181 53.4615 28.3525C53.8893 28.9769 54.2708 29.6314 54.6802 30.2696C55.6537 31.7959 56.625 33.3233 57.5164 34.8946C57.7878 35.3772 58.0576 35.8616 58.3258 36.348C58.3588 36.4178 58.3852 36.4906 58.4044 36.5654C58.3942 36.7099 58.3327 36.8461 58.231 36.9493C57.9494 37.2923 57.6328 37.605 57.2863 37.8824C56.847 38.22 56.4018 38.5507 55.9555 38.879C55.5982 39.1415 55.219 39.3762 54.9461 39.7381C54.9112 39.7804 54.8651 39.8121 54.8131 39.8295C54.7781 39.8419 54.7397 39.8401 54.706 39.8246C54.6723 39.809 54.646 39.7809 54.6328 39.7462C54.6178 39.7126 54.6092 39.6766 54.6073 39.6399C54.5044 38.4189 54.1679 37.2464 53.865 36.067C53.4233 34.35 52.8718 32.6654 52.2867 30.9923C51.7144 29.3527 51.223 27.6889 50.742 26.0204C50.3989 24.8339 49.9703 23.6739 49.4597 22.5493C49.3811 22.3851 49.1903 22.2186 49.3799 22.0105ZM47.8629 28.0519C47.9288 26.7974 47.9959 25.5429 48.0849 24.2895C48.1369 23.5518 48.2005 22.8164 48.1566 22.0753C48.1527 22.0202 48.157 21.9649 48.1693 21.9111C48.1832 21.859 48.2052 21.7954 48.2722 21.7954C48.3242 21.7982 48.3739 21.8172 48.4144 21.8498C48.4532 21.8889 48.48 21.9382 48.4919 21.992C48.7232 22.9089 49.1209 23.7669 49.3996 24.6664C49.8308 26.0609 50.2436 27.4599 50.6853 28.8497C51.105 30.1702 51.5479 31.4825 51.9838 32.796C52.736 35.0188 53.3325 37.2914 53.769 39.5971C53.8164 39.8503 53.8847 40.0989 53.9459 40.351C53.9899 40.5417 53.9459 40.6319 53.7644 40.6909C52.3966 41.1407 51.031 41.5997 49.625 41.92C49.3221 41.9894 49.0238 42.201 48.7174 42.1038C48.4399 42.016 48.2861 41.7153 48.0641 41.5257C47.7288 41.2355 47.4062 40.9302 47.0767 40.6342C46.9472 40.5186 46.8454 40.3937 46.909 40.0769C47.072 38.2177 47.2258 36.2278 47.4235 34.2436C47.6293 32.1832 47.7531 30.1181 47.8629 28.0519ZM38.2834 35.9688C39.9993 32.8376 41.9741 29.8626 43.8068 26.802C44.3572 25.8828 44.8809 24.952 45.407 24.0131C45.6969 23.4967 46.011 22.9956 46.3494 22.51C46.6538 22.0912 46.9226 21.6475 47.153 21.1838C47.1834 21.1163 47.2186 21.051 47.2582 20.9884C47.2975 20.9283 47.3438 20.8612 47.4305 20.8728C47.5577 20.897 47.5299 21.0057 47.538 21.0647C47.4802 21.4197 47.4039 21.7457 47.3784 22.0753C47.2998 23.1078 47.2351 24.1403 47.1726 25.174C47.0709 26.8529 46.961 28.5271 46.8789 30.2118C46.7691 32.4468 46.4904 34.668 46.3216 36.8984C46.2638 37.6708 46.11 38.4385 46.1829 39.2201C46.191 39.308 46.1944 39.4144 46.0869 39.4514C45.9586 39.5 45.8776 39.419 45.814 39.3242C45.5423 38.9172 45.1515 38.6305 44.7965 38.3055C44.4786 38.0153 44.1779 38.0928 44.0195 38.4905C43.8079 39.0224 43.6067 39.5578 43.4009 40.0919C43.3952 40.1093 43.394 40.129 43.3882 40.1463C43.2969 40.3903 43.1639 40.44 42.9778 40.2746C42.7531 40.0825 42.5176 39.9034 42.2724 39.7381C40.9855 38.8363 39.694 37.9402 38.4788 36.94C37.9758 36.5353 37.9689 36.5423 38.2834 35.9688ZM37.9064 37.5644C37.9423 37.5806 38.0082 37.5875 38.0406 37.6245C38.6568 38.331 39.4697 38.7923 40.2062 39.3462C40.8271 39.8087 41.4688 40.2504 42.1059 40.6944C42.2875 40.8204 42.4852 40.9256 42.6725 41.0412C42.8413 41.1476 42.8598 41.2366 42.7581 41.4101C42.4852 41.8726 42.2123 42.3351 41.9394 42.7976C41.6781 43.2427 41.3613 43.6613 41.1775 44.1481C41.1654 44.1834 41.1429 44.2142 41.113 44.2365C41.0831 44.2588 41.0471 44.2715 41.0098 44.273C40.9729 44.2696 40.9377 44.2557 40.9084 44.233C40.8791 44.2102 40.8569 44.1796 40.8445 44.1446C40.0166 42.3651 38.9447 40.721 38.0278 38.99C37.9106 38.803 37.844 38.5886 37.8348 38.368C37.8199 38.1479 37.7937 37.9286 37.7561 37.7112C37.7492 37.6245 37.8047 37.5725 37.9064 37.5644ZM32.0928 36.9088C32.2859 36.3041 32.294 35.6716 32.368 35.0507C32.4767 34.1523 32.5553 33.2504 32.6305 32.3497C32.6594 32.0028 32.6409 31.649 32.6467 31.2987C32.6467 31.1703 32.6559 31.042 32.6686 30.9148C32.6756 30.8489 32.738 30.8396 32.8097 30.8292C32.8432 30.8524 32.9045 30.872 32.9253 30.9136C32.9805 31.0098 33.024 31.1123 33.0548 31.2189C33.1778 31.6059 33.3373 31.9802 33.5312 32.337C35.2424 35.7352 37.0531 39.0779 38.9367 42.3825C39.3032 43.0242 39.6547 43.6729 40.012 44.3192C40.0386 44.3678 40.0675 44.4152 40.0894 44.466C40.1947 44.6973 40.4675 44.8661 40.4363 45.139C40.4051 45.4119 40.1565 45.5633 40.0235 45.7842C39.6639 46.3843 39.1957 46.9161 38.8985 47.559C38.8199 47.7267 38.6233 47.7313 38.5574 47.5706C38.1805 46.6618 37.6174 45.857 37.126 45.013C36.0102 43.0982 34.8551 41.2077 33.6341 39.3577C33.1774 38.664 32.6906 37.991 32.2096 37.3135C32.1217 37.184 32.0419 37.0637 32.0928 36.9065V36.9088ZM20.1615 24.8641C20.2771 24.7844 20.3754 24.8503 20.4644 24.9115C21.4079 25.5718 22.4994 25.8597 23.5863 26.1441C24.8582 26.4736 26.13 26.7754 27.4019 27.1073C28.9252 27.4991 30.374 28.1381 31.6904 28.9989C31.8997 29.1365 32.0373 29.2683 31.9795 29.5285C31.9656 29.6001 31.9668 29.6753 31.9598 29.7493C31.902 30.3378 31.8835 30.9287 31.8593 31.5195C31.8408 31.982 31.7748 32.4376 31.7274 32.8966C31.6326 33.8158 31.5343 34.7339 31.4418 35.652C31.4257 35.8173 31.4349 35.985 31.4245 36.1503C31.4245 36.2208 31.4245 36.3018 31.3355 36.3365C31.2924 36.3526 31.2454 36.355 31.2009 36.3434C31.1564 36.3318 31.1166 36.3068 31.0869 36.2717C30.9632 36.1561 30.8394 36.0497 30.7111 35.9445C30.3954 35.6889 30.0636 35.4542 29.8162 35.1247C29.8051 35.1097 29.7919 35.0964 29.7768 35.0854C29.0311 34.5616 28.4934 33.8135 27.7835 33.2493C27.6815 33.1694 27.586 33.0817 27.4979 32.9868C26.0826 31.4282 24.6685 29.8684 23.2556 28.3075C22.7476 27.7455 22.2431 27.1805 21.7421 26.6124C21.29 26.0991 20.7999 25.6206 20.2759 25.1809C20.1141 25.048 20.0794 24.9196 20.1615 24.8641ZM18.3184 24.286C18.3518 24.2728 18.3891 24.2728 18.4225 24.286C18.4724 24.3093 18.5166 24.3432 18.552 24.3855C19.2839 25.3648 20.1927 26.1857 21.0032 27.0969C22.2558 28.5044 23.515 29.9058 24.7807 31.301C26.1243 32.7764 27.499 34.2228 28.9964 35.5467C29.5907 36.0717 30.1584 36.629 30.8302 37.0626C30.9643 37.1481 30.9724 37.2603 30.8753 37.3956C30.1307 38.4537 29.268 39.4235 28.3038 40.2862C27.5735 40.9391 26.7955 41.5366 25.9762 42.0738C25.7589 42.2137 25.5565 42.3744 25.3426 42.5189C25.2855 42.5507 25.225 42.5759 25.1622 42.5941C25.1226 42.584 25.0857 42.5655 25.0539 42.5397C25.0222 42.514 24.9964 42.4816 24.9784 42.4449C24.7182 41.9154 24.4373 41.395 24.1979 40.8562C23.3365 38.9137 22.5965 36.925 21.875 34.9281C20.8344 32.0468 19.8851 29.1319 18.9358 26.2181C18.7751 25.688 18.5745 25.1708 18.3358 24.671C18.2949 24.5888 18.2631 24.5023 18.2409 24.4132C18.2359 24.3857 18.241 24.3574 18.2552 24.3334C18.2694 24.3094 18.2919 24.2913 18.3184 24.2825V24.286ZM18.3404 40.936C18.2594 39.4606 18.16 37.9853 18.0872 36.5099C17.9947 34.6661 17.9145 32.8207 17.8467 30.9738C17.8027 29.7377 17.7958 28.4994 17.7727 27.2622C17.7796 26.819 17.7553 26.3758 17.6998 25.936C17.6901 25.8903 17.6969 25.8426 17.7192 25.8015C17.7414 25.7603 17.7776 25.7285 17.8212 25.7117C17.8559 25.7198 17.9091 25.7117 17.9218 25.7383C17.9736 25.813 18.0127 25.8959 18.0374 25.9834C18.3034 27.2911 18.7878 28.5271 19.2018 29.799C20.0112 32.2549 20.8413 34.7015 21.7536 37.1215C22.3217 38.6247 22.933 40.1097 23.5874 41.5766C23.7474 41.9306 23.9439 42.267 24.1737 42.5802C24.1969 42.6095 24.2096 42.6457 24.2096 42.6831C24.2096 42.7205 24.1969 42.7568 24.1737 42.786C24.1487 42.8135 24.1158 42.8325 24.0795 42.8404C24.0432 42.8483 24.0054 42.8446 23.9713 42.83C22.8151 42.4426 21.5952 42.2935 20.4332 41.9223C19.8354 41.7315 19.2399 41.535 18.6422 41.3442C18.5523 41.3213 18.4732 41.2681 18.4181 41.1934C18.3631 41.1188 18.3356 41.0274 18.3404 40.9349V40.936ZM27.5279 54.2433C26.0688 52.4049 24.7055 50.4947 23.3654 48.5707C22.3607 47.1312 21.3744 45.6801 20.2806 44.3042C20.0993 44.0704 19.931 43.8268 19.7764 43.5746C19.5793 43.2616 19.3553 42.9664 19.107 42.6924C19.063 42.6341 19.0283 42.5693 19.0041 42.5004C18.9786 42.4403 19.0607 42.3501 19.1313 42.3559C19.1679 42.353 19.2047 42.3569 19.2399 42.3675C19.9441 42.7629 20.7327 42.897 21.5016 43.0855C22.5237 43.3352 23.547 43.5838 24.5876 43.7503C24.6778 43.764 24.7643 43.7957 24.842 43.8436C24.9197 43.8915 24.9869 43.9545 25.0397 44.029C25.6617 44.8095 26.241 45.6211 26.7972 46.4502C27.5592 47.5856 28.3072 48.7303 29.0634 49.868C30.5064 52.0395 32.0373 54.1462 33.6214 56.2159C33.9901 56.6952 34.2672 57.2385 34.4388 57.8184C34.7915 58.9689 35.0008 60.1517 35.291 61.3149C35.3974 61.745 35.4621 62.1856 35.6379 62.5972C35.6629 62.6774 35.6818 62.7593 35.6945 62.8423C35.6544 62.8743 35.6114 62.9025 35.5662 62.9267C35.5314 62.9389 35.4935 62.9389 35.4587 62.9267C34.8192 62.7244 34.1544 62.6781 33.493 62.6018C33.3929 62.5979 33.2954 62.5681 33.2103 62.5152C33.1252 62.4623 33.0552 62.3881 33.0074 62.3C32.1055 60.7715 31.1169 59.2938 30.1596 57.8069C29.3571 56.5639 28.4472 55.4007 27.5279 54.2421V54.2433ZM24.7668 67.147C24.7587 67.1135 24.8212 67.0314 24.8605 67.0314C25.0998 66.984 25.1865 66.8268 25.2258 66.6036C25.2753 66.3678 25.3742 66.1451 25.5161 65.9503C25.7832 65.5526 26.0572 65.1595 26.3254 64.7617C26.4492 64.579 26.5683 64.3917 26.6862 64.2044C26.7362 64.1258 26.7556 64.0315 26.7405 63.9396C26.7327 63.8844 26.7094 63.8326 26.6734 63.79C26.6374 63.7475 26.5902 63.716 26.537 63.6991C26.4924 63.6867 26.445 63.688 26.4011 63.7029C26.3572 63.7177 26.3187 63.7454 26.2907 63.7824C26.2523 63.8215 26.2206 63.8669 26.1971 63.9165C25.989 64.3559 25.6618 64.7108 25.3669 65.0889C25.2201 65.2774 25.0686 65.4647 24.9322 65.667C24.7078 65.9931 24.5575 66.3411 24.6015 66.7539C24.62 66.9285 24.5148 66.9852 24.3598 66.8961C24.1181 66.7627 23.8577 66.666 23.5874 66.6094C23.0914 66.4822 22.9897 66.34 22.9688 65.8359C22.9688 65.7804 22.9688 65.7202 22.9688 65.711C22.9688 65.3275 23.0317 64.9467 23.155 64.5836C23.3536 63.9683 23.6253 63.379 23.9644 62.8285C24.3737 62.1486 24.7946 61.4768 25.3519 60.8975C25.5161 60.7252 25.6363 60.5125 25.7855 60.3194C25.8035 60.2995 25.8255 60.2835 25.8499 60.2724C25.8744 60.2612 25.9008 60.2552 25.9277 60.2546C25.965 60.2561 26.0003 60.2715 26.0267 60.2979C26.053 60.3242 26.0685 60.3596 26.0699 60.3969C26.1092 60.9877 26.4168 61.4791 26.6538 61.9983C26.8492 62.4365 27.062 62.8655 27.1417 63.3465C27.2039 63.6921 27.209 64.0456 27.1568 64.3929C27.0677 64.9571 26.9752 65.5225 26.8827 66.0868C26.8596 66.2325 26.8041 66.2521 26.6573 66.1689C26.374 66.0116 26.3301 66.0047 26.1497 66.2325C25.8294 66.6348 25.4559 67.0002 25.2513 67.487C25.2143 67.5737 25.1357 67.6697 25.0432 67.6142C24.872 67.5113 24.8073 67.3263 24.7668 67.1459V67.147ZM26.8261 66.6325C26.8053 66.7655 26.781 66.8915 26.7671 67.0199C26.7532 67.1482 26.6885 67.2719 26.5428 67.2916C26.3532 67.317 26.2676 67.4511 26.1705 67.5876C26.0549 67.7506 25.9508 67.9345 25.7739 68.0374C25.759 68.0454 25.7423 68.0495 25.7253 68.0495C25.7084 68.0495 25.6917 68.0454 25.6768 68.0374C25.6631 68.026 25.6522 68.0116 25.645 67.9954C25.6378 67.9792 25.6344 67.9615 25.6352 67.9437C25.6521 67.8554 25.6809 67.7699 25.7207 67.6893C25.9585 67.2742 26.2412 66.8865 26.5636 66.5331C26.6099 66.481 26.6608 66.4175 26.7463 66.4498C26.8319 66.4822 26.8226 66.5666 26.8261 66.6314V66.6325ZM25.0802 68.3761C25.0761 68.3392 25.0805 68.3018 25.0931 68.2669C25.1057 68.2319 25.1261 68.2003 25.1527 68.1744C25.1794 68.1486 25.2116 68.1291 25.2469 68.1176C25.2822 68.1061 25.3197 68.1027 25.3565 68.1079C25.4559 68.1079 25.5461 68.19 25.5357 68.2721C25.5114 68.4559 25.3553 68.619 25.2201 68.5866C25.1148 68.5623 25.0813 68.4733 25.0802 68.375V68.3761ZM38.2614 72.4346C38.2577 72.4671 38.2459 72.4981 38.227 72.5248C38.2081 72.5515 38.1828 72.5729 38.1534 72.5872C38.124 72.6015 38.0914 72.6082 38.0588 72.6066C38.0261 72.6049 37.9944 72.5951 37.9666 72.578C37.866 72.5329 37.7735 72.4681 37.6706 72.4288C37.2867 72.282 36.897 72.1767 36.4808 72.2704C36.4268 72.2833 36.3719 72.2922 36.3166 72.297C36.1605 72.3086 36.0599 72.1999 36.1062 72.0588C36.2495 71.6206 36.401 71.1847 36.549 70.7476C36.5965 70.6276 36.6351 70.5044 36.6646 70.3788C36.6727 70.3318 36.6648 70.2835 36.6422 70.2416C36.6195 70.1996 36.5835 70.1665 36.5398 70.1475C36.4986 70.1256 36.4512 70.1186 36.4054 70.1277C36.3597 70.1368 36.3185 70.1613 36.2888 70.1972C36.2236 70.2638 36.1718 70.3423 36.1362 70.4285C35.9751 70.8409 35.819 71.256 35.6679 71.6738C35.6252 71.7894 35.6055 71.9235 35.5766 72.038C35.6019 72.1313 35.6224 72.2258 35.6379 72.3213C35.6552 72.467 35.5916 72.5525 35.4402 72.6115C35.2887 72.6705 35.1557 72.5791 35.1835 72.4334C35.2552 72.053 35.3407 71.6749 35.4251 71.2968C35.4494 71.1893 35.498 71.0875 35.5199 70.98C35.5318 70.9349 35.5284 70.8872 35.5105 70.8441C35.4925 70.8011 35.4609 70.7651 35.4205 70.7418C35.3728 70.7124 35.3163 70.7006 35.2607 70.7084C35.2052 70.7162 35.1542 70.7431 35.1164 70.7846C35.0514 70.849 35.0034 70.9284 34.9765 71.0159C34.8447 71.439 34.7256 71.8657 34.5984 72.2877C34.5709 72.3954 34.5866 72.5096 34.6423 72.6057C34.7672 72.8716 34.7672 72.8786 34.5152 73.0127C34.2918 73.1434 34.0862 73.3023 33.9035 73.4856C33.8326 73.5439 33.7549 73.5936 33.6723 73.6336C33.6121 73.666 33.5173 73.585 33.5289 73.518C33.5313 73.4634 33.5438 73.4096 33.5659 73.3596C33.8538 72.8971 33.937 72.3548 34.196 71.8842C34.2042 71.8678 34.2111 71.8508 34.2168 71.8333C34.2851 71.6506 34.2492 71.505 34.1232 71.4495C34.0531 71.423 33.9756 71.4237 33.9061 71.4515C33.8365 71.4793 33.7799 71.5322 33.7474 71.5998C33.661 71.7416 33.5838 71.8887 33.5162 72.0403C33.3207 72.4577 33.1346 72.8809 32.938 73.296C32.8945 73.3665 32.8777 73.4503 32.8907 73.5322C32.9036 73.6141 32.9454 73.6886 33.0086 73.7423C33.1855 73.9261 33.1681 73.9874 32.9427 74.0892C32.6063 74.2427 32.2813 74.42 31.9703 74.6199C31.8915 74.6668 31.8082 74.7055 31.7217 74.7355C31.6994 74.7396 31.6765 74.7387 31.6545 74.7329C31.6326 74.7271 31.6123 74.7165 31.5949 74.702C31.5776 74.6874 31.5637 74.6691 31.5542 74.6486C31.5447 74.628 31.5399 74.6055 31.5401 74.5829C31.5442 74.5465 31.5539 74.511 31.569 74.4777C31.7539 74.1566 31.8767 73.8036 31.9309 73.437C31.9969 73.1686 32.098 72.9101 32.2316 72.6681C32.2672 72.612 32.2792 72.544 32.2649 72.479C32.2506 72.414 32.2112 72.3573 32.1553 72.3213C32.0931 72.2809 32.019 72.2629 31.9452 72.2702C31.8714 72.2776 31.8024 72.3099 31.7494 72.3617C31.6501 72.473 31.5823 72.6087 31.5528 72.7549C31.3887 73.4185 31.0233 74.0163 30.9088 74.6962C30.9067 74.7197 30.8995 74.7425 30.8877 74.7629C30.876 74.7834 30.8599 74.8011 30.8407 74.8148C30.8215 74.8285 30.7996 74.8379 30.7764 74.8424C30.7533 74.8469 30.7294 74.8463 30.7065 74.8407C30.274 74.7251 29.8289 74.7251 29.3883 74.695C29.3608 74.6923 29.3343 74.6829 29.3112 74.6677C29.2881 74.6525 29.269 74.6319 29.2555 74.6077C29.2421 74.5835 29.2348 74.5564 29.2342 74.5287C29.2335 74.501 29.2396 74.4736 29.2519 74.4488C29.6716 73.725 29.7965 72.8763 30.2359 72.1617C30.2627 72.1135 30.2811 72.0611 30.2902 72.0068C30.2942 71.9324 30.2726 71.859 30.2291 71.7986C30.1855 71.7383 30.1227 71.6946 30.0509 71.6749C29.9966 71.661 29.9392 71.6655 29.8877 71.6876C29.8363 71.7098 29.7936 71.7485 29.7664 71.7975C29.7213 71.8767 29.6826 71.9595 29.6508 72.0449C29.4542 72.4831 29.2692 72.9271 29.0565 73.3573C28.9188 73.6587 28.798 73.9675 28.6946 74.2823C28.616 74.4973 28.5501 74.5135 28.3119 74.4522C28.0737 74.391 27.8494 74.3366 27.6181 74.2707C27.5749 74.2545 27.5395 74.2223 27.5193 74.1808C27.4991 74.1393 27.4955 74.0916 27.5094 74.0476C27.5145 74.0295 27.5214 74.0121 27.5303 73.9955C27.9257 73.4266 28.1211 72.7676 28.3697 72.1316C28.5188 71.7536 28.6668 71.3755 28.8079 70.9939C28.8468 70.8915 28.8705 70.784 28.8784 70.6748C28.8784 70.6102 28.855 70.5479 28.8124 70.4994C28.7699 70.4509 28.7112 70.4196 28.6472 70.4111C28.5927 70.3984 28.5355 70.4038 28.4844 70.4266C28.4332 70.4493 28.3909 70.4882 28.3639 70.5372C28.3206 70.6186 28.2868 70.7047 28.2633 70.7939C28.0866 71.3969 27.8507 71.9809 27.5592 72.5375C27.357 72.9115 27.1827 73.2999 27.0377 73.6995C26.9672 73.9192 26.8226 73.9597 26.6665 73.8151C26.0387 73.2312 25.5577 72.5687 25.5623 71.6634C25.5623 71.1396 25.4074 70.6424 25.3415 70.1302C25.3276 70.0145 25.3022 69.9116 25.2906 69.8018C25.2724 69.7293 25.2781 69.6529 25.3069 69.584C25.3356 69.515 25.3859 69.4572 25.4502 69.4191C25.5597 69.3512 25.6416 69.2468 25.6814 69.1242C25.8745 68.6351 26.2711 68.2779 26.5313 67.8316C26.5472 67.809 26.5701 67.7925 26.5965 67.7845C26.6229 67.7766 26.6512 67.7777 26.6769 67.7876C26.704 67.7944 26.7278 67.8108 26.7437 67.8338C26.7597 67.8568 26.7667 67.8847 26.7637 67.9125C26.7711 68.283 26.8653 68.6465 27.0388 68.9739C27.191 69.2948 27.4591 69.546 27.7893 69.6769C27.9931 69.7639 28.2029 69.8362 28.4171 69.8931C28.8714 70.0005 29.2683 70.2755 29.5282 70.6632C29.79 71.0232 30.1191 71.3291 30.4972 71.5639C30.8052 71.769 31.1678 71.8766 31.5378 71.8726C32.2042 71.8753 32.8602 71.7086 33.4445 71.3882C34.2434 70.9627 34.9904 70.4493 35.7963 70.0365C36.1724 69.8436 36.5662 69.6871 36.9722 69.5694C37.2903 69.4638 37.6326 69.4541 37.9562 69.5416C38.343 69.6669 38.7164 69.8304 39.0708 70.0296C39.198 70.099 39.228 70.2134 39.1251 70.2967C38.9378 70.447 38.8684 70.654 38.7968 70.8632C38.6141 71.3859 38.3412 71.8761 38.2591 72.4334L38.2614 72.4346ZM68.7691 66.4972C68.1412 66.3307 67.518 66.4972 66.8936 66.518C66.7088 66.5268 66.5263 66.5619 66.3513 66.6221C66.0345 66.7215 65.7119 66.8025 65.3917 66.8927C65.0885 66.9762 64.7971 67.0978 64.5245 67.2546C64.1884 67.4533 63.8048 67.5571 63.4145 67.5552C63.2114 67.5538 63.0083 67.5635 62.8063 67.5841C62.3636 67.6297 61.9162 67.5905 61.4882 67.4685C61.2714 67.4238 61.052 67.3925 60.8314 67.3748C60.6568 67.3494 60.6002 67.2835 60.6672 67.1239C60.7084 67.051 60.7219 66.9657 60.7051 66.8837C60.6883 66.8016 60.6424 66.7284 60.5759 66.6776C60.3005 66.4262 60.0953 66.1074 59.9804 65.7526C59.9299 65.6342 59.8621 65.5239 59.7792 65.4254C59.7434 65.3824 59.6972 65.3492 59.645 65.3289C59.5928 65.3087 59.5364 65.3021 59.4809 65.3098C59.43 65.3108 59.3802 65.3247 59.3361 65.35C59.292 65.3754 59.255 65.4114 59.2285 65.4549C59.202 65.4983 59.1869 65.5477 59.1845 65.5985C59.1822 65.6494 59.1926 65.7 59.215 65.7457C59.3799 66.1186 59.6115 66.4583 59.8983 66.7481C59.9527 66.7979 60.0139 66.8441 60.0637 66.895C60.1527 66.9829 60.3134 67.0557 60.2568 67.2002C60.1781 67.3945 60.0012 67.2881 59.874 67.2546C59.2427 67.0892 58.7536 67.3702 58.3085 67.7552C58.0772 67.961 58.0067 68.2605 57.9836 68.5646C57.979 68.7675 57.9848 68.9705 58.0009 69.1728C58.0146 69.3571 58.0184 69.542 58.0125 69.7266C57.9743 70.2238 57.7812 70.4713 57.306 70.6019C56.9298 70.7054 56.5371 70.7344 56.1497 70.6875C55.7485 70.6412 55.3542 70.5418 54.9577 70.4562C54.7553 70.4135 54.7426 70.3822 54.738 70.1452C54.738 69.7983 54.7241 69.4445 54.7102 69.0953C54.7107 69.0539 54.703 69.0127 54.6875 68.9743C54.6721 68.9358 54.6492 68.9007 54.6202 68.8711C54.5912 68.8415 54.5567 68.8178 54.5186 68.8016C54.4804 68.7853 54.4395 68.7767 54.398 68.7762C54.356 68.7767 54.3145 68.786 54.2763 68.8037C54.2381 68.8214 54.2041 68.847 54.1766 68.8788C54.149 68.9106 54.1285 68.9479 54.1165 68.9882C54.1044 69.0286 54.1011 69.071 54.1067 69.1127C54.146 69.4595 54.0731 69.8134 54.1575 70.1602C54.2026 70.3464 54.1575 70.4192 53.9887 70.4424C53.214 70.551 52.6209 70.9858 52.104 71.5258C51.6566 71.9883 51.1918 72.4508 50.8414 72.9954C50.8019 73.0581 50.7532 73.1147 50.6969 73.163C50.6414 73.2104 50.5674 73.2532 50.5003 73.1931C50.4678 73.1525 50.4488 73.1028 50.446 73.0509C50.445 73.0138 50.4538 72.9771 50.4714 72.9445C50.6865 72.4288 50.5604 71.883 50.6113 71.3535C50.615 71.3223 50.6123 71.2906 50.6033 71.2605C50.5944 71.2304 50.5794 71.2024 50.5592 71.1783C50.5391 71.1542 50.5143 71.1344 50.4863 71.1202C50.4582 71.106 50.4276 71.0976 50.3962 71.0956C50.331 71.094 50.2674 71.1157 50.2167 71.1568C50.166 71.1979 50.1317 71.2558 50.1199 71.32C50.0956 71.4278 50.0817 71.5378 50.0783 71.6483C50.0698 72.0372 50.0048 72.4229 49.8852 72.793C49.795 73.0578 49.817 73.2555 50.1026 73.3804C50.1286 73.3912 50.1505 73.4101 50.165 73.4343C50.1796 73.4585 50.1859 73.4867 50.1832 73.5148C50.1805 73.5429 50.1688 73.5694 50.1499 73.5904C50.1311 73.6113 50.1059 73.6257 50.0783 73.6313C49.4227 73.8706 48.7995 74.2094 48.0687 74.2152C47.7415 74.2152 47.4166 74.3308 47.0894 74.3829C47.0622 74.3889 47.0339 74.3873 47.0076 74.3783C46.9813 74.3693 46.9579 74.3533 46.9401 74.3319C46.9223 74.3105 46.9108 74.2846 46.9067 74.2571C46.9027 74.2296 46.9062 74.2015 46.9171 74.1759C47.0616 73.8441 47.0674 73.496 47.0882 73.1445C47.1119 72.9061 47.1505 72.6694 47.2038 72.4357C47.2286 72.3471 47.2483 72.2572 47.2628 72.1663C47.2627 72.1014 47.2409 72.0384 47.2009 71.9873C47.1609 71.9362 47.1049 71.8999 47.042 71.8842C46.9796 71.8648 46.9123 71.8684 46.8524 71.8945C46.7925 71.9207 46.7441 71.9675 46.7159 72.0264C46.6741 72.1081 46.6475 72.1966 46.6373 72.2877C46.604 72.6394 46.5405 72.9876 46.4477 73.3284C46.3737 73.6348 46.3182 73.9423 46.4592 74.2534C46.4653 74.2713 46.4669 74.2904 46.4639 74.309C46.4608 74.3277 46.4533 74.3453 46.4419 74.3603C46.4305 74.3754 46.4156 74.3874 46.3984 74.3954C46.3813 74.4034 46.3625 74.407 46.3436 74.406C46.0545 74.3875 45.7192 74.5216 45.4868 74.3343C45.2775 74.1701 45.3955 73.8475 45.3712 73.5955C45.3358 73.3005 45.3654 73.0013 45.4579 72.719C45.4866 72.6317 45.5044 72.5413 45.5111 72.4496C45.5174 72.3845 45.4996 72.3193 45.461 72.2664C45.4224 72.2136 45.3658 72.1767 45.3018 72.1629C45.2394 72.1463 45.1733 72.1503 45.1133 72.1743C45.0533 72.1982 45.0027 72.2408 44.9688 72.2958C44.9318 72.3798 44.905 72.4679 44.889 72.5583C44.8393 72.8312 44.7954 73.104 44.7491 73.3769C44.703 73.6325 44.7249 73.8957 44.8127 74.14C44.824 74.1707 44.827 74.2038 44.8212 74.2359C44.8155 74.2681 44.8013 74.2981 44.7801 74.323C44.7589 74.3478 44.7315 74.3666 44.7006 74.3773C44.6698 74.388 44.6366 74.3903 44.6046 74.384C44.4774 74.3667 44.3525 74.3297 44.2242 74.3123C43.9877 74.2701 43.7485 74.245 43.5085 74.2372C42.9909 74.257 42.4736 74.1909 41.9776 74.0418C41.7463 73.9666 41.4989 74.0059 41.2619 73.977C41.1312 73.9608 41.0503 73.8487 41.115 73.7458C41.3058 73.4336 41.337 73.0821 41.3833 72.7352C41.4133 72.504 41.5348 72.3201 41.6076 72.112C41.6334 72.0508 41.6367 71.9824 41.6171 71.9189C41.5974 71.8555 41.556 71.801 41.5001 71.7651C41.438 71.7241 41.3629 71.7077 41.2894 71.719C41.2158 71.7303 41.1492 71.7686 41.1023 71.8264C41.0553 71.8839 41.0196 71.9499 40.9971 72.0206C40.8815 72.541 40.6306 73.0277 40.5912 73.5712C40.5751 73.8024 40.4976 73.8452 40.2617 73.792C40.0628 73.7481 39.8663 73.6949 39.6674 73.6567C39.3611 73.5813 39.0768 73.4352 38.8372 73.2301C38.7768 73.1878 38.7314 73.1273 38.7077 73.0574C38.684 72.9875 38.6832 72.9119 38.7054 72.8416C38.8015 72.3522 38.9424 71.8726 39.1263 71.409C39.2517 71.1412 39.346 70.86 39.4073 70.5707C39.4408 70.3707 39.5356 70.3395 39.7206 70.4551C39.9414 70.5915 40.1634 70.7256 40.3704 70.8806C40.9867 71.3431 41.7047 71.5119 42.4459 71.5651C43.1834 71.6189 43.9238 71.6189 44.6613 71.5651C46.2091 71.4446 47.7465 71.2151 49.262 70.8783C49.4423 70.839 49.6204 70.7915 49.8008 70.7511C50.1516 70.6929 50.4752 70.5258 50.7258 70.2735C50.7871 70.2076 50.8611 70.1325 50.957 70.1799C51.09 70.2435 51.0565 70.3695 51.0264 70.4713C50.9235 70.8112 50.9177 71.165 50.8807 71.5119C50.8619 71.6216 50.8751 71.7344 50.9189 71.8368C50.937 71.8794 50.967 71.9158 51.0054 71.9417C51.0438 71.9675 51.0888 71.9817 51.1351 71.9825C51.1806 71.9869 51.2265 71.9785 51.2674 71.958C51.3083 71.9376 51.3426 71.906 51.3663 71.8669C51.4027 71.8028 51.4256 71.732 51.4334 71.6587C51.4496 71.4437 51.5328 71.3119 51.7722 71.3119C51.8959 71.3119 51.9583 71.1962 51.9768 71.0806C51.9907 70.9893 51.9849 70.8956 51.9988 70.8054C52.0196 70.6678 52.089 70.6343 52.2301 70.684C52.2648 70.6956 52.2937 70.7256 52.3283 70.736C52.5145 70.7915 52.6001 70.7673 52.6752 70.58C52.7365 70.4343 52.7735 70.3117 52.9724 70.3314C53.2221 70.3545 53.3586 70.1891 53.3967 69.9764C53.4626 69.6156 53.5008 69.248 53.532 68.8814C53.5353 68.8255 53.5172 68.7705 53.4813 68.7275C53.4454 68.6845 53.3945 68.6568 53.3389 68.6502C53.2763 68.6301 53.2084 68.6352 53.1495 68.6644C53.0906 68.6935 53.0453 68.7444 53.0233 68.8063C52.9879 68.9868 52.9647 69.1695 52.9539 69.3532C52.9629 69.5195 52.9227 69.6848 52.8382 69.8284C52.7932 69.8885 52.733 69.944 52.659 69.8978C52.6215 69.8594 52.6004 69.808 52.6001 69.7544C52.6048 69.643 52.6426 69.5355 52.7087 69.4457C52.7502 69.3852 52.7807 69.3179 52.7989 69.2468C52.8034 69.2003 52.7928 69.1536 52.7686 69.1136C52.7445 69.0736 52.7081 69.0425 52.6648 69.0248C52.6324 69.0068 52.5951 68.9995 52.5583 69.0041C52.5215 69.0086 52.4871 69.0248 52.4602 69.0502C52.4185 69.0861 52.3653 69.1231 52.3445 69.1659C52.3096 69.2789 52.25 69.3828 52.17 69.4699C52.09 69.5571 51.9916 69.6254 51.882 69.67C51.7178 69.7417 51.7398 69.9556 51.6855 70.1105C51.6798 70.1378 51.6666 70.1629 51.6474 70.1831C51.6282 70.2032 51.6038 70.2176 51.5768 70.2246C51.5499 70.2316 51.5215 70.2308 51.4949 70.2225C51.4684 70.2142 51.4446 70.1987 51.4265 70.1776C51.3694 70.1309 51.315 70.0811 51.2634 70.0284C51.1663 69.9278 51.164 69.8515 51.2634 69.7394C51.5178 69.4468 51.7791 69.1612 52.0347 68.8675C52.2234 68.6368 52.4692 68.4596 52.7478 68.3535C53.0263 68.2474 53.3278 68.2161 53.6222 68.2628C53.7505 68.279 53.88 68.2802 54.0095 68.2871C54.6744 68.3912 55.2941 68.2247 55.8988 67.9726C56.0018 67.9313 56.1022 67.8838 56.1995 67.8304C56.5313 67.6373 56.5995 67.4361 56.4527 67.0915C56.3937 66.9563 56.3151 66.8291 56.2631 66.6915C56.1081 66.2822 56.1879 66.0255 56.5648 65.7989C56.9447 65.567 57.3629 65.4049 57.7997 65.3202C58.2888 65.2277 58.7814 65.1433 59.2739 65.0658C59.4551 65.0301 59.6401 65.0184 59.8243 65.0311C60.2476 65.072 60.6741 65.0666 61.0962 65.0149C61.4456 64.976 61.7979 64.9706 62.1484 64.9987C62.3142 65.0043 62.4802 65.0001 62.6456 64.986C62.7612 64.986 62.8676 64.9421 62.9705 65.0034C63.0861 65.075 63.0237 65.2022 63.0468 65.3028C63.1508 65.7522 63.2565 66.2012 63.3636 66.6499C63.3941 66.8147 63.4797 66.9643 63.6064 67.0742C63.6547 67.1176 63.7112 67.1508 63.7726 67.1718C63.834 67.1929 63.899 67.2014 63.9637 67.1968C64.1441 67.1806 64.277 66.9528 64.151 66.8372C63.8585 66.5689 63.8145 66.2348 63.8296 65.8752C63.827 65.6151 63.7464 65.3617 63.5983 65.1479C63.5151 65.0057 63.5891 64.8843 63.7556 64.8866C64.7338 64.8993 65.6437 64.5917 66.5572 64.3085C66.7283 64.2553 66.8266 64.3004 66.8196 64.4657C66.7977 65.0022 67.1087 65.4531 67.1954 65.9619C67.2058 66.0243 67.2763 66.0775 67.3295 66.1319C67.3637 66.1637 67.4065 66.1848 67.4526 66.1924C67.4986 66.2 67.5459 66.1938 67.5885 66.1746C67.6411 66.1555 67.6865 66.1208 67.7188 66.0751C67.751 66.0295 67.7685 65.975 67.7689 65.9191C67.7668 65.864 67.7555 65.8097 67.7354 65.7584C67.6436 65.4774 67.5794 65.1881 67.5434 64.8947C67.5051 64.6757 67.4177 64.4682 67.2879 64.2876C67.2743 64.2684 67.2659 64.2459 67.2636 64.2224C67.2613 64.1989 67.2653 64.1753 67.275 64.1538C67.2847 64.1323 67.2998 64.1137 67.3189 64.0998C67.338 64.086 67.3604 64.0774 67.3839 64.0749C67.747 64.0125 68.1007 63.9037 68.4361 63.7511C68.5575 63.6956 68.6893 63.7962 68.6523 63.9084C68.4072 64.6449 68.6927 65.3294 68.8535 66.0266C68.8743 66.1157 68.9194 66.1989 68.9425 66.2868C68.9772 66.4013 68.8847 66.5273 68.7691 66.4972ZM72.6598 62.8342C72.5754 63.5858 72.5118 64.3374 72.343 65.082C72.2909 65.2977 72.2193 65.5082 72.1291 65.711C71.9666 66.0632 71.8324 66.4278 71.7279 66.8013C71.647 67.1031 71.5845 67.1274 71.3001 67.0245C70.7829 66.8255 70.2437 66.6893 69.6941 66.6186C69.3923 66.5863 69.3923 66.5793 69.4108 66.2348C69.432 66.1062 69.4176 65.9742 69.3692 65.8532C69.2325 65.3335 69.1855 64.7942 69.2304 64.2587C69.2586 64.1317 69.2431 63.9989 69.1865 63.8818C69.1402 63.8066 69.0489 63.7384 69.0813 63.639C69.1229 63.5118 69.2535 63.5095 69.3576 63.4968C69.8594 63.4355 70.2918 63.1591 70.7786 63.047C71.3186 62.9233 71.8458 62.7521 72.38 62.6053C72.4144 62.5899 72.4524 62.5843 72.4897 62.5892C72.527 62.5941 72.5623 62.6092 72.5915 62.633C72.6208 62.6567 72.6429 62.6881 72.6553 62.7236C72.6678 62.7591 72.6702 62.7974 72.6622 62.8342H72.6598ZM66.6693 57.7872C66.7441 57.7926 66.816 57.8185 66.8771 57.8619C66.9383 57.9053 66.9864 57.9647 67.0162 58.0335C67.0345 58.066 67.0488 58.1005 67.059 58.1364C67.1896 58.6266 67.5527 58.8301 68.0117 58.955C68.7124 59.123 69.4235 59.2435 70.1404 59.3158C70.4699 59.3574 70.7983 59.4094 71.1278 59.4591C71.2922 59.4843 71.4494 59.5441 71.5889 59.6346C71.7285 59.7251 71.8472 59.8442 71.9372 59.9841C72.1319 60.2318 72.275 60.5161 72.3581 60.82C72.4193 61.1068 72.5639 61.3727 72.5639 61.6734C72.3407 61.922 72.0147 61.8399 71.7406 61.9231C70.2568 62.3756 68.7702 62.8181 67.281 63.2505C66.2519 63.5465 65.2298 63.8702 64.166 64.0298C63.4515 64.1373 62.73 64.1339 62.0108 64.1755C61.8639 64.1847 61.7159 64.1755 61.5679 64.1755V64.2044C61.0499 64.2044 60.5273 64.1963 60.0151 64.2044C58.9965 64.2201 57.985 64.3757 57.0088 64.6669C56.6332 64.7722 56.2804 64.9463 55.9682 65.1803C55.3751 65.6428 55.2143 66.2394 55.4999 66.947C55.5207 66.9991 55.5462 67.0488 55.5612 67.1008C55.5711 67.137 55.5684 67.1756 55.5534 67.21C55.5385 67.2445 55.5123 67.2728 55.4791 67.2904C55.316 67.3797 55.1319 67.4236 54.9461 67.4176C54.5576 67.4245 54.1691 67.4176 53.7818 67.4234C53.5413 67.4234 53.2996 67.4153 53.0614 67.4315C52.5389 67.4516 52.0433 67.6684 51.6739 68.0385C51.4161 68.3021 51.1732 68.582 50.9397 68.8675C50.1303 69.8538 50.0459 69.811 49.0793 70.0319C47.5297 70.3864 45.9547 70.6183 44.3687 70.7256C43.6309 70.7893 42.8882 70.7707 42.1545 70.6701C41.7891 70.615 41.4347 70.5022 41.1046 70.336C40.628 70.0904 40.1701 69.8103 39.7345 69.4977C39.185 69.12 38.5608 68.8649 37.9041 68.7496C37.468 68.6679 37.019 68.6877 36.5918 68.8074C36.076 68.9537 35.5819 69.1675 35.1222 69.4434C34.7221 69.6746 34.3313 69.9232 33.9313 70.1533C33.5959 70.3475 33.256 70.536 32.9103 70.7106C32.583 70.8849 32.2248 70.9937 31.8558 71.0309C31.3274 71.0737 30.8695 70.9338 30.5145 70.5164C30.311 70.277 30.0994 70.0458 29.8902 69.8111C29.5916 69.4774 29.2035 69.2366 28.7721 69.1173C28.631 69.0768 28.4899 69.0294 28.3466 68.9924C27.8274 68.8595 27.5811 68.5033 27.543 67.9911C27.5011 67.5668 27.5186 67.1387 27.595 66.7192C27.7106 66.1585 27.8262 65.5965 27.9141 65.0311C28.0145 64.5044 28.0464 63.9669 28.0089 63.432C27.9695 62.99 27.8574 62.5575 27.6771 62.1521C27.4655 61.6791 27.2458 61.2109 27.0308 60.7414C26.8842 60.442 26.7914 60.1191 26.7567 59.7875C26.7232 59.3817 26.7567 59.3077 27.1221 59.1435C27.543 58.955 27.9742 58.7897 28.4009 58.6139C28.6642 58.527 28.9124 58.3994 29.1363 58.2358C29.2877 58.1075 29.4011 58.1422 29.4982 58.3168C30.0393 59.2845 30.6914 60.1841 31.2707 61.1299C31.6558 61.7601 32.0581 62.3798 32.4351 63.0158C32.4959 63.1289 32.5847 63.2245 32.693 63.2935C32.8013 63.3625 32.9255 63.4027 33.0537 63.41C33.9162 63.5095 34.7753 63.6332 35.6367 63.743C35.7018 63.743 35.7645 63.7678 35.8119 63.8126C35.8592 63.8573 35.8875 63.9185 35.8911 63.9835C35.9258 64.2772 35.9593 64.5709 35.9952 64.8646C36.0059 64.9932 36.0245 65.121 36.0507 65.2473C36.0666 65.3199 36.1039 65.386 36.1576 65.4373C36.2114 65.4886 36.2792 65.5227 36.3524 65.5352C38.0535 65.9638 39.777 66.2977 41.5151 66.5354C42.5777 66.6776 43.6391 66.8302 44.7052 66.9389C45.6973 67.0407 46.6951 67.0881 47.6918 67.1355C48.5224 67.1729 49.3546 67.1249 50.1754 66.9921C51.2336 66.8161 52.2641 66.502 53.2406 66.0579C53.3935 65.9913 53.5344 65.9003 53.658 65.7885C54.0118 65.4639 54.3676 65.1409 54.7253 64.8195C54.9311 64.6345 55.1369 64.4495 55.3542 64.2784C56.0064 63.7639 56.7313 63.3407 57.3106 62.7336C57.3492 62.6935 57.3961 62.6623 57.4481 62.6423C57.5 62.6223 57.5557 62.614 57.6113 62.618C58.342 62.6446 59.0369 62.4319 59.7399 62.285C60.318 62.1636 60.8869 62.0006 61.4616 61.863C61.6602 61.8164 61.8378 61.7054 61.9668 61.5473C63.0826 60.2639 64.2042 58.9874 65.32 57.7028C65.3666 57.6324 65.4363 57.5804 65.5171 57.5557C65.5979 57.531 65.6848 57.5352 65.7628 57.5675C66.0497 57.6936 66.3566 57.768 66.6693 57.7872ZM74.955 45.7622C73.4033 47.2954 71.9858 48.9558 70.5173 50.5664C69.0732 52.1493 67.6729 53.7739 66.2531 55.3799C64.7962 57.0279 63.3389 58.6752 61.8813 60.3217C61.8291 60.374 61.7808 60.43 61.7368 60.4894C61.4754 60.9091 61.095 61.116 60.6094 61.1912C60.0974 61.272 59.597 61.414 59.119 61.6144C59.0695 61.6386 59.0156 61.6527 58.9606 61.656C58.8901 61.656 58.7883 61.656 58.7571 61.6098C58.697 61.5277 58.7571 61.4363 58.8218 61.3681C60.1735 60.0754 61.3309 58.607 62.5762 57.2195C64.5638 55.0053 66.5259 52.7679 68.4916 50.534C69.3333 49.5767 70.1277 48.5788 70.9047 47.5683C71.0154 47.4204 71.1634 47.3047 71.3336 47.233C71.8747 47.0017 72.4136 46.7554 72.9524 46.5126C73.5452 46.2532 74.1119 45.938 74.6451 45.5714C74.748 45.4986 74.8486 45.4038 74.992 45.4269C75.0203 45.4288 75.0468 45.4411 75.0667 45.4614C75.0865 45.4816 75.0982 45.5084 75.0995 45.5367C75.0781 45.6267 75.0273 45.7069 74.955 45.7645V45.7622ZM75.9378 43.9469C75.0429 44.4649 74.1456 44.9783 73.2114 45.4246C72.7292 45.6558 72.2297 45.8524 71.7927 46.1692C71.7639 46.1927 71.728 46.2055 71.6909 46.2055C71.6538 46.2055 71.6179 46.1927 71.5892 46.1692C71.5597 46.1462 71.5389 46.1139 71.5303 46.0775C71.5217 46.0412 71.5257 46.0029 71.5417 45.9692C72.0112 44.8939 72.1985 43.7399 72.4494 42.608C72.7003 41.476 72.8888 40.3232 73.046 39.1704C73.3039 37.2869 73.6103 35.4103 73.9872 33.5464C74.1708 32.5674 74.2818 31.5761 74.3191 30.5806C74.3272 30.435 74.311 30.2823 74.3896 30.1494C74.3996 30.1355 74.4126 30.1241 74.4276 30.1159C74.4426 30.1077 74.4593 30.103 74.4763 30.102C74.4933 30.1028 74.5098 30.1074 74.5248 30.1154C74.5398 30.1234 74.5529 30.1346 74.563 30.1482C74.5946 30.2143 74.6157 30.2849 74.6255 30.3575C74.644 30.5228 74.659 30.6882 74.6625 30.8547C74.6879 32.0595 74.8822 33.2435 75.0718 34.4286C75.3319 36.0474 75.606 37.6661 75.8164 39.3011C75.969 40.492 76.0812 41.6864 76.139 42.8855C76.1483 43.089 76.1506 43.2925 76.1691 43.4948C76.185 43.5851 76.171 43.678 76.1293 43.7596C76.0876 43.8412 76.0203 43.907 75.9378 43.9469Z" fill="black"/>
<path d="M66.6201 62.9753C66.7136 62.98 66.8053 62.949 66.8768 62.8886C67.1693 62.6458 67.5208 62.5325 67.8758 62.4261C68.6378 62.2029 69.4043 61.9937 70.1628 61.7589C70.7097 61.5901 71.2497 61.3993 71.7816 61.2028C72.0868 61.0872 72.1204 60.8039 71.8521 60.6073C71.7019 60.4996 71.5373 60.4135 71.363 60.3518C70.6462 60.1065 69.8925 59.9861 69.1349 59.9956C69.0795 59.9955 69.0242 60.0029 68.9708 60.0176C68.91 60.0402 68.8575 60.0807 68.8204 60.1337C68.7832 60.1868 68.763 60.25 68.7626 60.3148C68.7649 60.3793 68.7902 60.4408 68.8339 60.4883C68.8775 60.5358 68.9368 60.5661 69.0008 60.5738C69.1465 60.5865 69.2945 60.5738 69.4413 60.5738V60.5437C69.9038 60.5888 70.3606 60.6316 70.8196 60.6802C70.8732 60.693 70.9241 60.7153 70.9699 60.7461C70.984 60.757 70.9956 60.7708 71.0039 60.7867C71.0121 60.8025 71.0167 60.82 71.0175 60.8378C71.0183 60.8557 71.0152 60.8735 71.0083 60.89C71.0015 60.9065 70.9911 60.9213 70.978 60.9334C70.8156 61.0209 70.6377 61.0759 70.4542 61.0952C69.4533 61.2717 68.4681 61.528 67.5081 61.8618C67.2283 61.9543 66.9589 62.0792 66.6895 62.1972C66.5508 62.2524 66.4336 62.3509 66.3553 62.4781C66.3274 62.527 66.3124 62.5821 66.3116 62.6383C66.3107 62.6946 66.3242 62.7501 66.3506 62.7997C66.377 62.8494 66.4156 62.8915 66.4627 62.9222C66.5099 62.9529 66.564 62.9712 66.6201 62.9753Z" fill="black"/>
<path d="M44.3275 69.4331C44.2119 69.3672 44.0859 69.336 43.9806 69.2631C43.6969 69.0538 43.3631 68.923 43.0127 68.8838C42.6624 68.8447 42.3079 68.8985 41.9849 69.0399C41.8357 69.0921 41.6773 69.1128 41.5197 69.1007C41.3621 69.0885 41.2087 69.0438 41.0692 68.9694C40.8012 68.844 40.5502 68.6851 40.3222 68.4965C40.1372 68.3439 39.9499 68.1936 39.7557 68.0537C39.4889 67.8561 39.1624 67.7561 38.8307 67.7704C38.5503 67.777 38.272 67.8201 38.0028 67.8987C37.9304 67.9168 37.8668 67.9599 37.8232 68.0205C37.7796 68.081 37.7588 68.155 37.7646 68.2294C37.7842 68.3012 37.8252 68.3653 37.8823 68.413C37.9393 68.4608 38.0096 68.4899 38.0837 68.4965C38.1387 68.4984 38.1938 68.4945 38.2479 68.4849C38.3023 68.4769 38.3555 68.4572 38.4098 68.4456C38.6261 68.3924 38.8521 68.3932 39.0681 68.4478C39.284 68.5025 39.4832 68.6093 39.6482 68.759C39.8145 68.9053 39.9915 69.039 40.1777 69.159C40.8715 69.6065 41.6092 69.8528 42.4278 69.4863C42.4788 69.4647 42.5319 69.4484 42.5862 69.4377C42.7204 69.4013 42.8606 69.3929 42.9982 69.4127C43.1358 69.4326 43.2679 69.4805 43.3863 69.5533C43.5274 69.6412 43.6684 69.7291 43.8107 69.8135C43.8881 69.8639 43.9693 69.9083 44.0535 69.9465C44.1224 69.9755 44.1997 69.9779 44.2703 69.9534C44.341 69.9288 44.4001 69.879 44.4362 69.8135C44.455 69.7816 44.4671 69.7462 44.4718 69.7095C44.4765 69.6728 44.4737 69.6355 44.4635 69.6C44.4533 69.5644 44.436 69.5312 44.4127 69.5025C44.3893 69.4739 44.3603 69.4502 44.3275 69.4331Z" fill="black"/>
<path d="M31.1485 69.3821C30.723 69.2006 30.5391 68.8121 30.3044 68.4571C30.1954 68.2866 30.072 68.1257 29.9356 67.9761C29.576 67.5957 29.4418 67.5761 28.9701 67.7946C28.9538 67.8034 28.938 67.813 28.9227 67.8235C28.8859 67.8519 28.8413 67.8685 28.7949 67.8711C28.7485 67.8738 28.7024 67.8625 28.6625 67.8385C28.6261 67.8098 28.6001 67.77 28.5884 67.7251C28.5767 67.6802 28.58 67.6328 28.5978 67.5899C28.6579 67.3772 28.7042 67.1598 28.7758 66.9505C28.7965 66.8994 28.8059 66.8444 28.8033 66.7893C28.8008 66.7342 28.7864 66.6803 28.7612 66.6312C28.736 66.5822 28.7005 66.5391 28.6571 66.5051C28.6137 66.471 28.5635 66.4466 28.5099 66.4337C28.3133 66.4036 28.1445 66.5343 28.1041 66.7921C28.0578 67.0823 28.0347 67.3772 28 67.6871C28 67.7819 28 67.8929 28.0185 68.0016C28.0867 68.5369 28.4937 68.6652 28.9042 68.4548C29.0025 68.4051 29.0961 68.3473 29.1944 68.2952C29.2501 68.2626 29.3156 68.2508 29.3791 68.2621C29.4427 68.2733 29.5002 68.3068 29.5413 68.3565C29.6252 68.4541 29.7025 68.5573 29.7725 68.6652C29.909 68.863 30.0408 69.0641 30.1772 69.2607C30.3042 69.4445 30.4604 69.6062 30.6397 69.7394C30.7134 69.7937 30.7943 69.8373 30.8802 69.8689C30.9506 69.894 31.0277 69.8919 31.0966 69.863C31.1655 69.8341 31.2211 69.7806 31.2525 69.7128C31.2674 69.6842 31.2765 69.6531 31.2793 69.621C31.2822 69.5889 31.2786 69.5566 31.269 69.5259C31.2593 69.4952 31.2437 69.4667 31.223 69.442C31.2023 69.4173 31.177 69.397 31.1485 69.3821Z" fill="black"/>
<path d="M28.763 63.7605C28.785 63.8877 28.816 64.0133 28.8555 64.1362C28.8802 64.2068 28.9315 64.265 28.9984 64.2984C29.0653 64.3319 29.1426 64.338 29.2139 64.3154C29.2814 64.2917 29.3384 64.245 29.3749 64.1835C29.4115 64.122 29.4253 64.0496 29.4139 63.979C29.4019 63.9204 29.3869 63.8625 29.3688 63.8055C29.2462 63.3997 29.1459 62.9875 29.0682 62.5707C28.9769 62.1567 28.867 61.7463 28.7595 61.337C28.6069 60.7519 28.2716 60.2663 27.9108 59.7968C27.7512 59.5887 27.5431 59.5517 27.3789 59.672C27.2148 59.7922 27.209 60.0084 27.3593 60.2108C27.3703 60.2254 27.3823 60.2393 27.3951 60.2524C27.8912 60.7542 28.1432 61.3844 28.3456 62.0423C28.5202 62.6065 28.6473 63.1823 28.763 63.7605Z" fill="black"/>
<path d="M45.7858 65.6614C45.822 65.6691 45.8588 65.6734 45.8957 65.6741C46.4877 65.6417 47.0751 65.7215 47.5538 65.7342C48.1458 65.7342 48.6256 65.7469 49.1055 65.7342C49.7516 65.7262 50.3959 65.6612 51.0306 65.54C51.3222 65.4888 51.6036 65.3912 51.8643 65.2509C52.2308 65.0358 52.3129 64.7687 52.0655 64.423C51.8515 64.1 51.6812 63.7501 51.559 63.3824C51.5184 63.2602 51.4625 63.1436 51.3925 63.0355C51.3587 62.9847 51.3121 62.9438 51.2575 62.9168C51.2028 62.8897 51.142 62.8776 51.0811 62.8816C51.0203 62.8856 50.9615 62.9055 50.9108 62.9395C50.8602 62.9734 50.8193 63.0201 50.7924 63.0748C50.7629 63.1219 50.7433 63.1744 50.7348 63.2293C50.7262 63.2841 50.7289 63.3402 50.7427 63.3939C50.7816 63.5732 50.8563 63.7427 50.9624 63.8923C51.1243 64.1166 51.2831 64.3425 51.4388 64.5699C51.4546 64.5926 51.4651 64.6186 51.4693 64.646C51.4736 64.6734 51.4715 64.7014 51.4632 64.7279C51.4549 64.7543 51.4407 64.7785 51.4217 64.7986C51.4026 64.8187 51.3792 64.8342 51.3532 64.8439C51.2689 64.8814 51.1809 64.91 51.0907 64.9294C50.7647 64.9907 50.4386 65.0589 50.1102 65.0994C49.1736 65.2033 48.2299 65.2292 47.289 65.1769C46.8831 65.1584 46.4796 65.1329 46.0726 65.1179C45.9628 65.1122 45.8528 65.1212 45.7454 65.1445C45.6833 65.164 45.6304 65.2053 45.5964 65.2608C45.5624 65.3162 45.5496 65.3821 45.5604 65.4463C45.5697 65.5017 45.5967 65.5525 45.6374 65.5913C45.678 65.6301 45.7301 65.6546 45.7858 65.6614Z" fill="black"/>
<path d="M46.9025 43.3779C46.9482 42.9943 46.966 42.6079 46.9556 42.2217C46.9561 42.1474 46.9378 42.0742 46.9025 42.0089C46.8671 41.9436 46.8158 41.8883 46.7533 41.8482C46.7146 41.8233 46.6705 41.8079 46.6248 41.8031C46.579 41.7983 46.5327 41.8043 46.4897 41.8206C46.4467 41.8369 46.408 41.8631 46.3769 41.897C46.3458 41.9309 46.323 41.9716 46.3105 42.0158C46.2985 42.0697 46.2935 42.1249 46.2954 42.18C46.3451 43.149 46.1578 44.0925 45.9925 45.0383C45.7612 46.3842 45.4479 47.7185 45.4421 49.0146C45.4097 49.4447 45.3866 49.7951 45.3554 50.1443C45.3397 50.2538 45.348 50.3655 45.3797 50.4715C45.3983 50.5336 45.4372 50.5877 45.4903 50.6251C45.5434 50.6624 45.6074 50.6808 45.6722 50.6773C45.7367 50.6741 45.7983 50.6497 45.8474 50.6079C45.8966 50.5661 45.9305 50.5092 45.9439 50.4461C45.948 50.391 45.948 50.3358 45.9439 50.2807C45.9301 48.9316 46.0713 47.5854 46.3648 46.2685C46.6027 45.3168 46.7822 44.3515 46.9025 43.3779Z" fill="black"/>
<path d="M48.0998 46.7958C48.3681 46.0333 48.542 45.2407 48.6178 44.4359C48.6178 44.2047 48.6282 44.089 48.6178 43.9815C48.609 43.8887 48.5638 43.8031 48.4921 43.7435C48.4203 43.6839 48.3279 43.6552 48.2351 43.6635C48.0709 43.6751 47.9552 43.8034 47.9576 44.0104C47.9682 44.361 47.9422 44.7117 47.8801 45.0568C47.7807 45.5459 47.6697 46.0304 47.5251 46.5079C47.3078 47.2317 47.0962 47.9579 46.8742 48.6817C46.6672 49.3569 46.6337 50.0588 46.5273 50.7514C46.5163 50.8244 46.521 50.8989 46.5412 50.9699C46.5567 51.0239 46.5882 51.0721 46.6315 51.1079C46.6748 51.1438 46.728 51.1658 46.784 51.1711C46.8394 51.1799 46.8961 51.169 46.9443 51.1403C46.9925 51.1115 47.0291 51.0668 47.0476 51.0138C47.0894 50.892 47.1124 50.7645 47.1158 50.6357C47.1343 49.7385 47.3887 48.8898 47.6592 48.0469C47.7968 47.6237 47.9564 47.2155 48.0998 46.7958Z" fill="black"/>
<path d="M50.5406 47.019C50.351 46.9762 50.1845 47.1022 50.114 47.3589C50.0434 47.6156 49.9879 47.8989 49.9105 48.1683C49.6792 48.9661 49.4352 49.7616 49.2017 50.5582C48.9626 51.4326 48.7769 52.3207 48.6455 53.2176C48.646 53.2541 48.6498 53.2905 48.6571 53.3263C48.6747 53.3887 48.7118 53.4439 48.763 53.4838C48.8141 53.5237 48.8767 53.5463 48.9415 53.5483C48.9976 53.549 49.0524 53.5318 49.098 53.4992C49.1435 53.4665 49.1774 53.4201 49.1947 53.3668C49.2254 53.2611 49.2455 53.1526 49.2549 53.043C49.2884 52.806 49.308 52.5655 49.3508 52.3308C49.4879 51.6242 49.6765 50.9286 49.9151 50.2495C50.2169 49.3569 50.4932 48.4585 50.78 47.5601C50.8632 47.2849 50.7568 47.0687 50.5406 47.019Z" fill="black"/>
<path d="M49.6803 46.6363C49.7281 46.4966 49.7481 46.3489 49.7393 46.2015C49.7312 46.1371 49.7041 46.0765 49.6615 46.0275C49.6189 45.9785 49.5627 45.9433 49.5 45.9263C49.4288 45.9058 49.3528 45.9097 49.284 45.9373C49.2153 45.965 49.1578 46.0148 49.1207 46.079C49.0855 46.1431 49.0627 46.2133 49.0536 46.2859C48.9912 46.8236 48.8004 47.3266 48.6143 47.8238C48.383 48.462 48.1425 49.0956 47.9147 49.7431C47.7515 50.2572 47.6427 50.7869 47.5898 51.3237C47.5928 51.3921 47.6009 51.4601 47.6141 51.5272C47.6333 51.5788 47.667 51.6237 47.7113 51.6564C47.7555 51.6892 47.8084 51.7083 47.8633 51.7115C47.9182 51.7147 47.9729 51.7018 48.0207 51.6744C48.0684 51.647 48.1071 51.6063 48.1321 51.5573C48.1648 51.4718 48.1794 51.3804 48.1749 51.289C48.161 50.8762 48.2732 50.4866 48.3865 50.0969C48.5456 49.5865 48.7435 49.0891 48.9785 48.6088C49.2755 47.9755 49.5105 47.3149 49.6803 46.6363Z" fill="black"/>
<path d="M52.3307 48.4402C52.3481 48.3593 52.3382 48.275 52.3026 48.2003C52.2671 48.1256 52.2078 48.0648 52.1341 48.0274C52.0585 47.9914 51.9722 47.9853 51.8922 48.0101C51.8123 48.035 51.7447 48.089 51.7028 48.1615C51.6524 48.2592 51.6091 48.3605 51.5733 48.4644C51.0553 49.7363 50.7639 51.0614 50.498 52.3957C50.4275 52.7564 50.3824 53.123 50.335 53.4432C50.335 53.6745 50.4506 53.8237 50.6171 53.8352C50.7836 53.8468 50.9085 53.7138 50.9281 53.5149C50.9374 53.4236 50.9281 53.3311 50.9281 53.2398C50.9512 53.0201 50.9697 52.7992 51.0137 52.5842C51.2792 51.1904 51.7061 49.8323 52.2856 48.5373C52.3027 48.5059 52.3178 48.4735 52.3307 48.4402Z" fill="black"/>
<path d="M53.546 50.1675C53.354 50.0796 53.1297 50.208 53.0395 50.4623C53.0153 50.5317 53.0048 50.6046 52.9852 50.6762C52.9542 50.8193 52.9156 50.9605 52.8696 51.0994C52.6611 51.6509 52.487 52.2146 52.3481 52.7876C52.2671 53.1078 52.2209 53.4374 52.1631 53.7426C52.17 53.8386 52.17 53.9126 52.1816 53.9854C52.1936 54.0488 52.2268 54.1062 52.2758 54.1483C52.3247 54.1903 52.3865 54.2144 52.451 54.2167C52.5157 54.2173 52.5787 54.1956 52.6293 54.1551C52.6799 54.1147 52.7149 54.058 52.7285 53.9947C52.7414 53.9409 52.748 53.8858 52.7482 53.8305C52.7482 53.2084 52.9366 52.6315 53.1725 52.0695C53.3575 51.629 53.4939 51.1688 53.7506 50.7583C53.8963 50.5305 53.7934 50.2831 53.546 50.1675Z" fill="black"/>
<path d="M54.4477 51.3364C54.406 51.3321 54.3639 51.3361 54.3238 51.3483C54.2837 51.3604 54.2465 51.3804 54.2142 51.4071C54.1819 51.4338 54.1553 51.4666 54.1358 51.5037C54.1163 51.5408 54.1044 51.5814 54.1008 51.6231C54.0303 52.0856 53.8522 52.5088 53.7112 52.9459C53.6198 53.2269 53.5181 53.5044 53.4418 53.7888C53.3654 54.0732 53.3157 54.3669 53.2718 54.5704C53.2718 54.6941 53.2718 54.73 53.2718 54.767C53.2684 54.8416 53.293 54.9148 53.3407 54.9723C53.3883 55.0298 53.4557 55.0675 53.5296 55.078C53.6036 55.0796 53.6758 55.0546 53.7329 55.0075C53.7899 54.9604 53.8282 54.8943 53.8407 54.8213C53.8502 54.7859 53.8553 54.7494 53.8557 54.7126C53.8407 54.1599 54.0546 53.672 54.2662 53.1771C54.4119 52.8387 54.5487 52.4965 54.6766 52.1504C54.7282 52.0121 54.7605 51.8674 54.7726 51.7203C54.7785 51.6267 54.7479 51.5345 54.6874 51.463C54.6268 51.3914 54.5409 51.3461 54.4477 51.3364Z" fill="black"/>
<path d="M29.7696 46.767C29.477 46.2767 29.1914 45.783 28.8954 45.2939C28.5407 44.6889 28.1024 44.137 27.5935 43.6544C27.4958 43.5454 27.3781 43.4563 27.2466 43.3919C27.1761 43.3692 27.1002 43.3701 27.0302 43.3945C26.9603 43.4189 26.9003 43.4655 26.8593 43.5272C26.8171 43.5768 26.793 43.6394 26.7911 43.7046C26.7892 43.7697 26.8096 43.8336 26.8489 43.8856C26.916 43.9728 26.9963 44.0489 27.0871 44.1111C27.3293 44.2801 27.5406 44.4898 27.7114 44.7308C27.8791 44.9505 28.0398 45.1748 28.2017 45.3991C28.9371 46.4155 29.558 47.5047 30.2124 48.5719C30.2795 48.6806 30.3176 48.8101 30.4298 48.8876C30.4717 48.9236 30.5233 48.9466 30.5781 48.9538C30.633 48.961 30.6887 48.952 30.7385 48.928C30.7876 48.9048 30.8288 48.8676 30.8569 48.8212C30.8851 48.7747 30.899 48.721 30.8969 48.6667C30.8882 48.5534 30.8423 48.446 30.7663 48.3615C30.3812 47.855 30.091 47.3047 29.7696 46.767Z" fill="black"/>
<path d="M30.2402 45.7472C30.2881 45.8254 30.3461 45.8969 30.4125 45.96C30.4622 46.0011 30.5234 46.026 30.5877 46.0311C30.6521 46.0363 30.7164 46.0216 30.7721 45.9889C30.8244 45.95 30.8616 45.8942 30.8774 45.831C30.8932 45.7677 30.8867 45.701 30.8588 45.642C30.8156 45.5615 30.7665 45.4842 30.712 45.4108C30.5802 45.2107 30.4368 45.0188 30.3177 44.8118C30.0448 44.3331 29.7766 43.851 29.5187 43.3631C29.3129 42.9746 29.0666 42.6057 28.9082 42.1906C28.8835 42.1185 28.8383 42.0551 28.7781 42.0083C28.718 41.9615 28.6454 41.9332 28.5694 41.927C28.5201 41.9404 28.4722 41.9582 28.4261 41.9802C28.1833 42.1224 28.1474 42.2982 28.3209 42.5861C28.9568 43.6421 29.5966 44.6958 30.2402 45.7472Z" fill="black"/>
<path d="M30.4269 41.6842C30.3881 41.5612 30.3417 41.4407 30.2881 41.3235C30.222 41.1907 30.1446 41.0638 30.0569 40.9442C29.9043 40.7384 29.71 40.6945 29.5308 40.8147C29.3516 40.935 29.3377 41.15 29.4753 41.35C29.486 41.3653 29.4985 41.3792 29.5123 41.3917C29.7435 41.6333 29.8881 41.9363 30.0488 42.2253C30.139 42.3861 30.2269 42.5491 30.3298 42.7006C30.3835 42.7749 30.453 42.8365 30.5333 42.8809C30.5756 42.8984 30.6214 42.9058 30.6671 42.9026C30.7128 42.8994 30.7572 42.8857 30.7967 42.8625C30.8362 42.8393 30.8698 42.8073 30.8949 42.769C30.92 42.7307 30.936 42.6871 30.9414 42.6416C30.9382 42.5862 30.924 42.532 30.8995 42.4822C30.8751 42.4323 30.841 42.3879 30.7992 42.3514C30.6226 42.1626 30.4948 41.9336 30.4269 41.6842Z" fill="black"/>
<path d="M31.5236 39.6538C31.4839 39.571 31.4303 39.4955 31.3652 39.4307C31.3038 39.3745 31.2242 39.3423 31.141 39.34C31.0578 39.3376 30.9765 39.3653 30.912 39.4179C30.8743 39.4448 30.8426 39.4791 30.8188 39.5188C30.7949 39.5584 30.7795 39.6026 30.7734 39.6484C30.7674 39.6943 30.7708 39.7409 30.7835 39.7854C30.7962 39.8299 30.8179 39.8713 30.8472 39.907C31.0637 40.1567 31.2601 40.4231 31.4346 40.7037C31.4722 40.7514 31.5239 40.786 31.5823 40.8028C31.6407 40.8196 31.7028 40.8176 31.76 40.7972C31.8173 40.7768 31.8666 40.7389 31.9012 40.6889C31.9357 40.639 31.9537 40.5794 31.9526 40.5187C31.9445 40.4719 31.9293 40.4267 31.9075 40.3846C31.759 40.1524 31.6305 39.9079 31.5236 39.6538Z" fill="black"/>
<path d="M48.3088 40.5604C48.3342 40.5523 48.4048 40.5338 48.4741 40.5118C48.6325 40.4621 48.7875 40.4019 48.9482 40.3615C49.8582 40.1302 50.7728 39.9221 51.7001 39.7695C52.01 39.7186 52.3187 39.6862 52.6251 39.6539C52.7089 39.6548 52.7902 39.6253 52.854 39.5709C52.9178 39.5164 52.9597 39.4408 52.972 39.3579C53.0147 39.0977 52.8089 38.9046 52.5268 38.952C52.1464 39.0156 51.7637 39.0792 51.3867 39.1636C50.3276 39.3949 49.2986 39.7568 48.2302 39.9579C48.1943 39.9668 48.1595 39.9792 48.1261 39.9949C48.065 40.0169 48.0134 40.0593 47.9799 40.1149C47.9464 40.1705 47.9331 40.2359 47.9423 40.3002C47.9573 40.3829 48.004 40.4564 48.0725 40.505C48.141 40.5536 48.2258 40.5735 48.3088 40.5604Z" fill="black"/>
<path d="M49.3177 37.7794C49.3707 37.7632 49.4228 37.7443 49.4738 37.7227C49.8572 37.5874 50.253 37.4902 50.6555 37.4325C51.0579 37.3747 51.4649 37.3226 51.8615 37.2567C51.9076 37.2523 51.9523 37.2384 51.9928 37.2159C52.0334 37.1935 52.0688 37.1629 52.097 37.1261C52.1252 37.0894 52.1456 37.0472 52.1568 37.0022C52.1679 36.9573 52.1698 36.9105 52.1621 36.8648C52.144 36.7832 52.0979 36.7105 52.0318 36.6593C51.9657 36.6082 51.8837 36.5819 51.8002 36.585C51.7632 36.585 51.7262 36.585 51.6846 36.5919C50.8255 36.733 50.0034 37.0151 49.1605 37.2197C49.1191 37.2269 49.0798 37.2433 49.0455 37.2675C49.0112 37.2918 48.9827 37.3234 48.9621 37.36C48.9415 37.3967 48.9293 37.4374 48.9264 37.4794C48.9236 37.5213 48.93 37.5633 48.9454 37.6024C48.9756 37.672 49.0299 37.7282 49.0984 37.7607C49.1668 37.7933 49.2448 37.7999 49.3177 37.7794Z" fill="black"/>
<path d="M49.8516 34.7143C49.8063 34.7467 49.773 34.7932 49.7569 34.8465C49.7407 34.8999 49.7428 34.9571 49.7626 35.0091C49.7804 35.0618 49.8132 35.1081 49.8569 35.1424C49.9007 35.1767 49.9535 35.1975 50.0089 35.2022C50.0636 35.2079 50.119 35.2012 50.1708 35.1826C50.4842 35.0728 50.8124 35.0112 51.1443 34.9999C51.236 34.9941 51.3261 34.9738 51.4114 34.9398C51.4915 34.9151 51.5588 34.8603 51.5994 34.787C51.6399 34.7137 51.6505 34.6276 51.6288 34.5466C51.6072 34.463 51.5564 34.3897 51.4856 34.3401C51.4148 34.2905 51.3286 34.2678 51.2426 34.2761L51.1015 34.3096C50.7258 34.3975 50.38 34.5883 49.9904 34.6287C49.9372 34.644 49.8892 34.6736 49.8516 34.7143Z" fill="black"/>
<path d="M49.3131 32.4919C49.2705 32.5268 49.2401 32.5746 49.2266 32.6281C49.2131 32.6816 49.2171 32.738 49.238 32.789C49.2587 32.8399 49.2932 32.8839 49.3375 32.9164C49.3818 32.9489 49.4342 32.9684 49.4889 32.9729C49.5254 32.9779 49.5625 32.9747 49.5976 32.9636C49.8933 32.8675 50.2005 32.8111 50.511 32.796C50.5469 32.7918 50.5818 32.7812 50.6139 32.7647C50.6908 32.7338 50.7541 32.6763 50.7923 32.6027C50.8305 32.5291 50.8411 32.4442 50.8221 32.3635C50.7839 32.2178 50.6579 32.1219 50.4544 32.1138C50.3966 32.1182 50.3394 32.1274 50.2832 32.1415C50.0034 32.2248 49.7259 32.3115 49.4484 32.4017C49.3968 32.4206 49.3505 32.4515 49.3131 32.4919Z" fill="black"/>
<path d="M49.2837 31.0004C49.3829 31.044 49.4853 31.0799 49.5901 31.1079C49.6525 31.1201 49.7167 31.1193 49.7788 31.1056C49.8408 31.0919 49.8994 31.0655 49.9508 31.0281C50.0076 30.9825 50.0492 30.9206 50.0698 30.8508C50.0905 30.7809 50.0893 30.7065 50.0664 30.6373C50.0538 30.574 50.021 30.5165 49.9728 30.4735C49.9246 30.4305 49.8637 30.4044 49.7993 30.3991C49.5985 30.385 49.4001 30.4502 49.2467 30.5806C49.2165 30.6081 49.1931 30.6421 49.1783 30.6801C49.1635 30.7181 49.1576 30.759 49.1612 30.7997C49.1648 30.8403 49.1777 30.8795 49.1989 30.9143C49.2202 30.9492 49.2492 30.9786 49.2837 31.0004Z" fill="black"/>
<path d="M67.333 47.8551C67.1868 47.8683 67.0395 47.8663 66.8936 47.8493C65.8854 47.6273 64.8714 47.4204 63.9741 46.8665C63.9433 46.8465 63.9108 46.8291 63.877 46.8145C63.8001 46.781 63.7138 46.7765 63.6338 46.8018C63.5539 46.8271 63.4859 46.8805 63.4422 46.9521C63.4132 46.9884 63.3917 47.0303 63.3791 47.0751C63.3665 47.1199 63.3631 47.1668 63.369 47.213C63.375 47.2592 63.3901 47.3037 63.4136 47.3439C63.4372 47.3841 63.4685 47.4191 63.5058 47.447C63.6099 47.5223 63.7224 47.5852 63.8412 47.6343C64.4807 47.921 65.1448 48.1497 65.8253 48.3176C66.3036 48.4519 66.7938 48.5394 67.2891 48.5789C67.3091 48.58 67.3292 48.58 67.3492 48.5789C67.5955 48.5708 67.7608 48.4344 67.7712 48.232C67.784 47.9996 67.6128 47.8551 67.333 47.8551Z" fill="black"/>
<path d="M64.9379 49.1801C64.302 48.8879 63.6653 48.5981 63.0278 48.3106C62.9612 48.2819 62.8885 48.27 62.8162 48.2759C62.7348 48.2934 62.6607 48.3355 62.604 48.3965C62.5474 48.4575 62.5108 48.5345 62.4994 48.617C62.4892 48.6904 62.5028 48.7651 62.5382 48.8303C62.5735 48.8954 62.6288 48.9475 62.6959 48.9789C62.7465 49.0011 62.7982 49.0204 62.8509 49.0367C63.4575 49.2506 64.0447 49.516 64.6061 49.8299C64.6997 49.8899 64.8095 49.9193 64.9206 49.9143C65.0075 49.9059 65.0884 49.866 65.1481 49.8021C65.2077 49.7382 65.2419 49.6548 65.2443 49.5674C65.2524 49.3743 65.1125 49.2599 64.9379 49.1801Z" fill="black"/>
<path d="M62.9881 50.2264C62.6574 50.1165 62.314 50.0391 62.0226 49.8321C61.9777 49.8096 61.9292 49.7951 61.8792 49.7893C61.8036 49.7946 61.731 49.8211 61.6697 49.8656C61.6083 49.9102 61.5608 49.9711 61.5324 50.0414C61.4984 50.1075 61.4885 50.1835 61.5046 50.2561C61.5206 50.3287 61.5615 50.3935 61.6202 50.4391C61.693 50.4947 61.7732 50.5398 61.8584 50.5733C62.2504 50.727 62.6678 50.8184 63.0355 51.0358C63.1123 51.0695 63.1991 51.0723 63.2779 51.0436C63.3567 51.015 63.4214 50.9571 63.4587 50.882C63.4971 50.8081 63.5103 50.7238 63.4963 50.6417C63.4823 50.5597 63.4419 50.4845 63.3812 50.4276C63.2656 50.3339 63.1317 50.2653 62.9881 50.2264Z" fill="black"/>
<path d="M61.5247 52.0175C61.2915 51.8751 61.0679 51.7175 60.8553 51.5457C60.8049 51.506 60.7417 51.4862 60.6776 51.4903C60.6136 51.4943 60.5533 51.5219 60.5084 51.5677C60.4598 51.6023 60.4199 51.6477 60.3918 51.7004C60.3638 51.7531 60.3484 51.8116 60.3468 51.8712C60.3452 51.9309 60.3576 51.9901 60.3828 52.0442C60.408 52.0982 60.4455 52.1457 60.4922 52.1828C60.7214 52.3627 60.9659 52.5221 61.223 52.6592C61.4542 52.7818 61.7271 52.5875 61.7144 52.2961C61.7091 52.2374 61.6889 52.181 61.6557 52.1322C61.6225 52.0835 61.5774 52.044 61.5247 52.0175Z" fill="black"/>
<path d="M60.407 44.1643C60.732 44.7424 61.0546 45.3205 61.3829 45.8986C61.4564 46.0257 61.5399 46.1467 61.6327 46.2605C61.6686 46.3028 61.713 46.3371 61.763 46.3612C61.813 46.3853 61.8674 46.3987 61.9229 46.4004C61.9782 46.4027 62.0332 46.3911 62.083 46.3669C62.1328 46.3427 62.1758 46.3066 62.2082 46.2617C62.2406 46.2168 62.2614 46.1646 62.2687 46.1097C62.276 46.0548 62.2696 45.999 62.2501 45.9472C62.2146 45.8625 62.1688 45.7825 62.1137 45.709C61.7687 45.1863 61.4511 44.6459 61.1621 44.0903C60.8719 43.5572 60.584 43.0207 60.2949 42.4889C60.1573 42.238 59.955 42.1582 59.7549 42.2576C59.5549 42.3571 59.4924 42.6172 59.6694 42.8716C59.9538 43.2809 60.1642 43.7318 60.407 44.1643Z" fill="black"/>
<path d="M59.4034 45.6233C59.7626 46.1159 60.1238 46.6073 60.4868 47.0976C60.5506 47.188 60.6226 47.2724 60.7019 47.3496C60.7535 47.4036 60.8216 47.4388 60.8955 47.4499C60.9694 47.461 61.0448 47.4473 61.11 47.4109C61.1747 47.375 61.2296 47.3237 61.2699 47.2616C61.3102 47.1995 61.3347 47.1285 61.3413 47.0548C61.3356 46.9994 61.3188 46.9456 61.292 46.8968C61.2652 46.8479 61.2289 46.8049 61.1852 46.7704C61.0132 46.6293 60.8625 46.4642 60.7377 46.2801C60.5065 45.9471 60.2752 45.6095 60.044 45.2765C59.9854 45.1837 59.9151 45.099 59.8347 45.0244C59.7727 44.9835 59.6996 44.9628 59.6253 44.965C59.5511 44.9672 59.4793 44.9923 59.4199 45.0368C59.3604 45.0814 59.3162 45.1432 59.2932 45.2138C59.2701 45.2844 59.2695 45.3604 59.2913 45.4314C59.3199 45.5001 59.3576 45.5647 59.4034 45.6233Z" fill="black"/>
<path d="M59.38 48.6077C59.4603 48.7085 59.5485 48.8029 59.6436 48.8898C59.6867 48.9322 59.7397 48.963 59.7978 48.9795C59.8559 48.996 59.9172 48.9975 59.9761 48.984C60.035 48.9706 60.0895 48.9425 60.1347 48.9024C60.1798 48.8622 60.2141 48.8114 60.2345 48.7545C60.2748 48.6797 60.2843 48.592 60.2607 48.5103C60.2371 48.4286 60.1825 48.3593 60.1084 48.3175C59.7616 48.0619 59.5927 47.6989 59.4239 47.33C59.3627 47.1959 59.3152 47.0548 59.2459 46.9265C59.2161 46.8715 59.1718 46.8258 59.1177 46.7944C59.0636 46.763 59.002 46.7471 58.9395 46.7484C58.8776 46.7466 58.8163 46.7611 58.7617 46.7903C58.7071 46.8195 58.6611 46.8625 58.6283 46.9149C58.5954 46.9674 58.5769 47.0276 58.5745 47.0894C58.5721 47.1513 58.5859 47.2127 58.6146 47.2676C58.8412 47.7301 59.0401 48.2111 59.38 48.6077Z" fill="black"/>
<path d="M57.9394 49.1662C57.9426 49.2027 57.9511 49.2386 57.9649 49.2726C58.1429 49.6541 58.3118 50.038 58.5072 50.4126C58.5712 50.5234 58.6555 50.6211 58.7558 50.7006C58.7915 50.7298 58.8328 50.7513 58.8772 50.7637C58.9217 50.776 58.9682 50.7791 59.0138 50.7726C59.0595 50.766 59.1033 50.7501 59.1425 50.7258C59.1816 50.7014 59.2153 50.6692 59.2414 50.6312C59.2718 50.5965 59.295 50.5562 59.3096 50.5124C59.3242 50.4687 59.3299 50.4225 59.3265 50.3766C59.323 50.3306 59.3105 50.2858 59.2895 50.2447C59.2685 50.2037 59.2396 50.1672 59.2044 50.1375C58.9743 49.8751 58.8084 49.5627 58.7199 49.2252C58.6915 49.1202 58.6528 49.0184 58.6043 48.9211C58.5758 48.8681 58.5326 48.8244 58.4799 48.7952C58.4272 48.7661 58.3672 48.7528 58.3071 48.7569C58.2541 48.7528 58.2009 48.761 58.1515 48.7807C58.1021 48.8005 58.058 48.8314 58.0224 48.8709C57.9869 48.9105 57.9609 48.9577 57.9465 49.0089C57.9321 49.0601 57.9297 49.1139 57.9394 49.1662Z" fill="black"/>
<path d="M23.5804 33.98C24.3695 35.6907 25.0447 37.4516 25.6015 39.2514C25.6259 39.34 25.6573 39.4266 25.6952 39.5104C25.7269 39.5671 25.7761 39.6122 25.8355 39.6389C25.8948 39.6655 25.9612 39.6723 26.0247 39.6584C26.0922 39.6312 26.1487 39.5824 26.1853 39.5196C26.222 39.4568 26.2366 39.3836 26.227 39.3115C26.2166 39.2733 26.1958 39.1831 26.1658 39.0964C25.8802 38.2766 25.5876 37.4603 25.3078 36.6382C24.9463 35.5132 24.5121 34.4129 24.0082 33.3441C23.9659 33.2424 23.9136 33.1452 23.8521 33.0539C23.8212 33.0134 23.7809 32.9808 23.7349 32.9591C23.6888 32.9373 23.6381 32.9269 23.5872 32.9287C23.5362 32.9305 23.4864 32.9445 23.442 32.9695C23.3976 32.9945 23.3598 33.0298 23.3318 33.0724C23.2928 33.125 23.2696 33.1875 23.2646 33.2528C23.2597 33.318 23.2734 33.3834 23.304 33.4412C23.3942 33.6158 23.4948 33.7927 23.5804 33.98Z" fill="black"/>
<path d="M22.8419 35.5272C23.2165 36.6071 23.6039 37.6824 23.9634 38.7647C24.219 39.5347 24.471 40.306 24.7844 41.0552C24.8399 41.1905 24.8746 41.3396 24.9971 41.4379C25.0367 41.4769 25.088 41.5019 25.1431 41.509C25.1983 41.5161 25.2542 41.5049 25.3024 41.4772C25.3478 41.4492 25.3847 41.4093 25.4092 41.3618C25.4336 41.3143 25.4447 41.2611 25.4411 41.2078C25.4244 41.1328 25.3992 41.0598 25.366 40.9905C25.1099 40.5206 24.9156 40.0197 24.7879 39.5001C24.397 38.0964 23.9623 36.7066 23.5021 35.3237C23.4768 35.235 23.4455 35.148 23.4084 35.0635C23.3735 34.9877 23.3124 34.9271 23.2364 34.8927C23.1604 34.8583 23.0745 34.8524 22.9945 34.8762C22.9142 34.8993 22.8456 34.952 22.8027 35.0237C22.7597 35.0954 22.7456 35.1807 22.7633 35.2624C22.7827 35.3525 22.809 35.441 22.8419 35.5272Z" fill="black"/>
<path d="M25.5413 35.8416C25.6916 36.1965 25.8454 36.5504 25.9934 36.9065C26.3402 37.7552 26.6698 38.6166 27.1195 39.4213C27.1784 39.535 27.2477 39.643 27.3265 39.7439C27.3756 39.7868 27.437 39.8128 27.5019 39.8182C27.5669 39.8236 27.6318 39.8081 27.6873 39.774C27.7289 39.7453 27.763 39.707 27.7865 39.6623C27.8101 39.6176 27.8225 39.5678 27.8225 39.5173C27.7962 39.4387 27.7617 39.3632 27.7196 39.2918C27.3057 38.7137 27.0756 38.0569 26.8397 37.399C26.6293 36.8105 26.4073 36.2266 26.1865 35.6415C26.1494 35.5381 26.0993 35.4398 26.0373 35.349C25.9882 35.2814 25.9158 35.2342 25.834 35.2167C25.7523 35.1992 25.667 35.2126 25.5945 35.2542C25.5309 35.2924 25.4825 35.3513 25.4574 35.421C25.4324 35.4908 25.4322 35.567 25.4569 35.6369C25.4788 35.7074 25.5124 35.7734 25.5413 35.8416Z" fill="black"/>
<path d="M27.6063 37.3332C27.7604 37.6675 27.9499 37.9842 28.1717 38.2779C28.2381 38.3649 28.3159 38.4427 28.403 38.5091C28.4405 38.5364 28.4854 38.5518 28.5318 38.5533C28.5782 38.5547 28.6239 38.5421 28.6631 38.5172C28.7141 38.4935 28.7573 38.4558 28.7878 38.4085C28.8183 38.3613 28.8348 38.3064 28.8354 38.2501C28.8287 38.1592 28.7873 38.0743 28.7198 38.0131C28.3151 37.6339 28.122 37.1413 27.9589 36.6256C27.8595 36.3099 27.7369 36.0012 27.619 35.6925C27.5846 35.5678 27.519 35.454 27.4282 35.3618C27.3798 35.3195 27.3203 35.2919 27.2567 35.2825C27.1931 35.273 27.1281 35.282 27.0695 35.3085C27.0109 35.3349 26.9611 35.3777 26.9261 35.4316C26.8911 35.4855 26.8723 35.5484 26.8721 35.6127C26.872 35.6871 26.8857 35.7608 26.9125 35.8301C27.1438 36.3354 27.375 36.8349 27.6063 37.3332Z" fill="black"/>
<path d="M49.1338 71.5767C49.0532 71.5567 48.9681 71.5675 48.895 71.6068C48.8219 71.6461 48.7661 71.7112 48.7384 71.7895C48.7301 71.8057 48.7235 71.8228 48.7187 71.8404C48.5915 72.3757 48.4643 72.9099 48.3637 73.3307C48.3337 73.6568 48.4123 73.7932 48.573 73.8383C48.6539 73.8578 48.739 73.8485 48.8137 73.812C48.8884 73.7755 48.948 73.7141 48.9823 73.6383C49.0426 73.5242 49.0713 73.3961 49.0656 73.2672C49.0431 72.8265 49.1222 72.3866 49.2968 71.9814C49.3158 71.9446 49.3267 71.9042 49.3286 71.8628C49.3306 71.8214 49.3235 71.7801 49.3081 71.7417C49.2926 71.7033 49.269 71.6687 49.2389 71.6402C49.2089 71.6117 49.173 71.5901 49.1338 71.5767Z" fill="black"/>
<path d="M39.8538 70.972C39.7925 71.0111 39.7426 71.0658 39.7093 71.1304C39.5 71.6195 39.2607 72.0994 39.1312 72.6208C39.1103 72.7099 39.0953 72.8 39.0872 72.844C39.0803 73.0856 39.1924 73.2348 39.3555 73.2521C39.429 73.2544 39.5013 73.2332 39.562 73.1916C39.6227 73.15 39.6686 73.0903 39.6931 73.0209C39.7059 72.9865 39.7148 72.9508 39.7197 72.9145C39.7646 72.4182 39.9072 71.9356 40.1394 71.4946C40.2013 71.3797 40.2213 71.2469 40.1961 71.1188C40.1878 71.0836 40.1714 71.0507 40.1481 71.0229C40.1249 70.9951 40.0954 70.9732 40.0621 70.9589C40.0288 70.9446 39.9926 70.9384 39.9564 70.9406C39.9202 70.9429 39.8851 70.9537 39.8538 70.972Z" fill="black"/>
<path d="M56.1058 69.4977C56.0323 69.2485 56.0072 68.9875 56.0318 68.7289C56.0408 68.6204 56.0408 68.5113 56.0318 68.4028C56.0219 68.3574 55.9978 68.3163 55.9632 68.2854C55.9285 68.2545 55.885 68.2353 55.8387 68.2305C55.8023 68.2238 55.7648 68.2268 55.7299 68.2392C55.695 68.2516 55.6639 68.2729 55.6399 68.301C55.6013 68.3406 55.5689 68.3859 55.5439 68.4352C55.3786 68.7959 55.4502 69.9868 55.6688 70.3279C55.8214 70.5661 55.9 70.5592 56.1093 70.3857C56.1602 70.3452 56.1987 70.2912 56.2204 70.2299C56.242 70.1685 56.246 70.1023 56.2319 70.0389C56.1937 69.8562 56.1567 69.6746 56.1058 69.4977Z" fill="black"/>
<path d="M57.2275 68.1785C57.2245 68.1239 57.2095 68.0706 57.1835 68.0224C57.1633 67.9806 57.1328 67.9446 57.0948 67.9178C57.0569 67.8909 57.0128 67.8741 56.9666 67.8689C56.9205 67.8637 56.8737 67.8703 56.8308 67.888C56.7878 67.9058 56.7501 67.9341 56.721 67.9704C56.6786 68.0191 56.6484 68.0773 56.6329 68.14C56.6175 68.2028 56.6171 68.2683 56.632 68.3312C56.7476 68.811 56.8632 69.2908 57.0008 69.7649C57.0113 69.8052 57.0299 69.843 57.0554 69.8759C57.0809 69.9088 57.1129 69.9362 57.1494 69.9563C57.1859 69.9764 57.226 69.9889 57.2675 69.993C57.309 69.9971 57.3508 69.9926 57.3905 69.98C57.4608 69.9592 57.5219 69.9151 57.5639 69.8551C57.6059 69.795 57.6263 69.7224 57.6217 69.6493C57.6143 69.4841 57.5704 69.3227 57.4934 69.1764C57.3639 68.8561 57.2136 68.5404 57.2275 68.1785Z" fill="black"/>
<path d="M62.3057 66.8302C62.0872 66.5365 62.0271 66.1931 61.982 65.8439C61.9704 65.7526 61.975 65.6589 61.9623 65.5687C61.9566 65.4944 61.9233 65.4248 61.869 65.3737C61.8146 65.3226 61.7432 65.2936 61.6686 65.2924C61.5947 65.2865 61.5207 65.3039 61.4572 65.3423C61.3937 65.3807 61.3439 65.4381 61.3148 65.5063C61.2954 65.5665 61.28 65.6279 61.2686 65.6901C61.2692 65.7374 61.2731 65.7845 61.2801 65.8312C61.3996 66.2963 61.5949 66.7385 61.8582 67.1401C61.9169 67.2103 61.9931 67.2638 62.0791 67.295C62.1183 67.3077 62.1601 67.3102 62.2006 67.3024C62.2411 67.2945 62.2789 67.2765 62.3106 67.2501C62.3422 67.2236 62.3666 67.1896 62.3816 67.1512C62.3965 67.1127 62.4014 67.0711 62.3959 67.0302C62.3791 66.9584 62.3485 66.8904 62.3057 66.8302Z" fill="black"/>
<path d="M43.3742 72.0102C43.3179 71.9809 43.2535 71.9708 43.1909 71.9814C43.1283 71.9921 43.0708 72.0229 43.0273 72.0692C42.9815 72.1263 42.9448 72.1903 42.9187 72.2588C42.803 72.5849 42.6782 72.9132 42.5637 73.2428C42.5346 73.3389 42.5111 73.4365 42.4932 73.5353C42.4932 73.6012 42.4932 73.6382 42.4932 73.6752C42.4989 73.7489 42.5291 73.8185 42.5789 73.873C42.6288 73.9274 42.6955 73.9637 42.7683 73.9758C42.8325 73.9871 42.8986 73.9772 42.9566 73.9476C43.0146 73.918 43.0613 73.8702 43.0898 73.8116C43.1389 73.7134 43.1725 73.608 43.1892 73.4995C43.2447 73.1352 43.3048 72.7722 43.4829 72.4426C43.5066 72.3926 43.52 72.3384 43.5222 72.2831C43.5305 72.2277 43.5206 72.1711 43.4939 72.1219C43.4672 72.0726 43.4252 72.0334 43.3742 72.0102Z" fill="black"/>
<path d="M58.6523 66.8372C58.3906 66.6335 58.2036 66.3489 58.1205 66.0279C58.1005 65.9765 58.0741 65.928 58.0418 65.8833C58.0114 65.8371 57.9696 65.7996 57.9203 65.7745C57.8711 65.7494 57.8161 65.7375 57.7609 65.74C57.7105 65.7334 57.6594 65.7402 57.6125 65.7597C57.5657 65.7792 57.5248 65.8107 57.494 65.851C57.4632 65.8914 57.4435 65.9391 57.437 65.9894C57.4304 66.0397 57.4373 66.0909 57.4568 66.1377C57.4666 66.173 57.4802 66.2071 57.4972 66.2395C57.6947 66.5693 57.9273 66.8767 58.191 67.1564C58.2313 67.1941 58.2764 67.2264 58.3251 67.2523C58.3548 67.2739 58.3885 67.2892 58.4242 67.2973C58.46 67.3054 58.497 67.3062 58.5331 67.2994C58.5691 67.2927 58.6034 67.2787 58.6339 67.2583C58.6643 67.2379 58.6903 67.2115 58.7102 67.1806C58.731 67.1551 58.7462 67.1254 58.7547 67.0935C58.7631 67.0617 58.7647 67.0283 58.7592 66.9958C58.7537 66.9633 58.7414 66.9323 58.7229 66.905C58.7045 66.8776 58.6804 66.8545 58.6523 66.8372Z" fill="black"/>
<path d="M57.7291 67.1703C57.4886 66.9651 57.3161 66.6917 57.2342 66.3864C57.2132 66.3157 57.1732 66.2521 57.1186 66.2025C57.071 66.1666 57.0184 66.1377 56.9625 66.1169C56.9136 66.1196 56.8658 66.1327 56.8223 66.1552C56.7788 66.1777 56.7406 66.2091 56.7101 66.2475C56.6796 66.2858 56.6576 66.3301 56.6455 66.3776C56.6334 66.4251 56.6315 66.4745 56.6399 66.5228C56.7001 66.7376 56.8093 66.9355 56.959 67.1009C57.1278 67.2963 57.2955 67.4917 57.4759 67.679C57.5146 67.72 57.5677 67.7444 57.624 67.747C57.6803 67.7496 57.7354 67.7302 57.7777 67.6929C57.8334 67.6568 57.873 67.6005 57.8881 67.5358C57.9032 67.4711 57.8926 67.4031 57.8586 67.346C57.8249 67.281 57.7812 67.2217 57.7291 67.1703Z" fill="black"/>
<path d="M65.8285 65.1883C65.813 65.1245 65.7763 65.0679 65.7244 65.0278C65.6725 64.9876 65.6085 64.9664 65.5429 64.9674C65.4921 64.96 65.4403 64.9643 65.3915 64.9801C65.3426 64.9959 65.2981 65.0227 65.2613 65.0585C65.2245 65.0943 65.1965 65.138 65.1793 65.1864C65.1622 65.2348 65.1564 65.2865 65.1625 65.3374C65.2128 65.6836 65.3206 66.0189 65.4816 66.3295C65.5186 66.3841 65.5741 66.4235 65.6378 66.4405C65.7015 66.4574 65.7692 66.4509 65.8285 66.422C65.8816 66.4042 65.9273 66.3691 65.9583 66.3224C65.9892 66.2757 66.0038 66.22 65.9996 66.1641C65.9533 65.8381 65.8921 65.5132 65.8285 65.1883Z" fill="black"/>
<path d="M29.1365 33.9349C29.1419 33.9898 29.1543 34.0438 29.1735 34.0956C29.1957 34.1861 29.2527 34.2641 29.3322 34.3126C29.4117 34.3611 29.5072 34.3762 29.5978 34.3546C29.7285 34.3269 29.814 34.2101 29.8094 34.0077C29.7909 33.151 29.984 32.3277 30.2233 31.516C30.3586 31.0535 30.5321 30.6118 30.6928 30.1621C30.7413 30.0633 30.7652 29.9541 30.7622 29.8441C30.7581 29.7885 30.737 29.7355 30.7016 29.6924C30.6661 29.6493 30.6182 29.6183 30.5644 29.6036C30.5108 29.585 30.4526 29.5846 30.3987 29.6024C30.3448 29.6201 30.2982 29.6551 30.2661 29.7019C30.2239 29.7615 30.1915 29.8274 30.1701 29.8973C29.9181 30.6465 29.6649 31.3946 29.4197 32.1462C29.2644 32.638 29.1678 33.1464 29.1318 33.6609C29.1341 33.7487 29.1307 33.8435 29.1365 33.9349Z" fill="black"/>
<path d="M30.3993 35.194C30.4317 35.5028 30.5265 35.6369 30.7103 35.6404C30.8942 35.6438 30.9948 35.4981 31.0052 35.1975C31.026 34.6078 31.0484 34.0185 31.0723 33.4296C31.0834 32.8368 31.1957 32.2503 31.4041 31.6952C31.444 31.593 31.4685 31.4855 31.4769 31.3761C31.4761 31.3145 31.4538 31.255 31.4139 31.208C31.374 31.161 31.3191 31.1292 31.2584 31.1183C31.209 31.1103 31.1583 31.117 31.1127 31.1375C31.0671 31.1581 31.0285 31.1916 31.0017 31.2339C30.9444 31.3493 30.8965 31.4692 30.8583 31.5923C30.6435 32.2792 30.502 32.9869 30.4363 33.7036C30.3697 34.1976 30.3573 34.6974 30.3993 35.194Z" fill="black"/>
<path d="M28.052 32.9532C28.1023 32.9498 28.151 32.9345 28.1943 32.9086C28.2375 32.8826 28.2739 32.8468 28.3006 32.804C28.3448 32.7235 28.3834 32.64 28.4162 32.5543C28.6405 31.953 28.8059 31.3275 29.162 30.7817C29.1789 30.7494 29.191 30.7147 29.1978 30.6788C29.2154 30.617 29.2112 30.551 29.1859 30.4918C29.1607 30.4327 29.1159 30.384 29.0591 30.3539C29.0019 30.3239 28.9365 30.313 28.8727 30.3228C28.8088 30.3326 28.7497 30.3625 28.7041 30.4083C28.6469 30.4793 28.5984 30.557 28.5596 30.6395C28.3137 31.1529 28.0697 31.667 27.8277 32.1819C27.7694 32.2966 27.7226 32.4166 27.6878 32.5404C27.6798 32.5923 27.6833 32.6453 27.6981 32.6957C27.7128 32.7461 27.7385 32.7926 27.7733 32.832C27.808 32.8714 27.851 32.9026 27.8991 32.9236C27.9473 32.9445 27.9995 32.9546 28.052 32.9532Z" fill="black"/>
<path d="M27.0949 31.6965C27.1613 31.7002 27.2267 31.6792 27.2786 31.6376C27.3305 31.596 27.3651 31.5366 27.3759 31.471C27.4158 31.1428 27.5133 30.8242 27.6638 30.5298C27.6788 30.5021 27.6638 30.457 27.6638 30.4211C27.6581 30.3801 27.6428 30.3411 27.619 30.3072C27.5952 30.2734 27.5636 30.2458 27.5269 30.2266C27.4903 30.2075 27.4495 30.1974 27.4081 30.1973C27.3668 30.1971 27.326 30.2069 27.2891 30.2257C27.2383 30.2468 27.1937 30.2807 27.1596 30.324C27.0128 30.5784 26.8694 30.8362 26.7376 31.0987C26.7118 31.1585 26.6994 31.2233 26.7014 31.2884C26.7034 31.3536 26.7197 31.4175 26.7492 31.4756C26.7758 31.5444 26.8237 31.6029 26.8859 31.6426C26.9481 31.6823 27.0213 31.7012 27.0949 31.6965Z" fill="black"/>
<path d="M53.9856 31.4282C54.7834 32.9487 55.676 34.4148 56.5374 35.8983C56.5829 35.9995 56.6558 36.086 56.7478 36.148C56.8124 36.1843 56.8865 36.1995 56.9601 36.1916C57.0337 36.1837 57.1029 36.1531 57.1583 36.1041C57.2084 36.0622 57.244 36.0055 57.26 35.9422C57.276 35.8789 57.2716 35.8121 57.2473 35.7514C57.2281 35.6997 57.2029 35.6504 57.1722 35.6046C56.6704 34.7871 56.1709 33.9685 55.6691 33.1533C54.7692 31.7358 53.9583 30.2638 53.241 28.7457C53.2045 28.6616 53.1554 28.5836 53.0953 28.5145C53.0463 28.4744 52.9913 28.4424 52.9322 28.4197C52.8638 28.417 52.7966 28.4388 52.7428 28.4811C52.6889 28.5235 52.652 28.5837 52.6386 28.6509C52.6329 28.7432 52.6551 28.835 52.7021 28.9145C53.1253 29.7551 53.5497 30.5946 53.9856 31.4282Z" fill="black"/>
<path d="M54.9238 35.3512C54.9009 35.3154 54.8692 35.286 54.8318 35.2658C54.7944 35.2456 54.7524 35.2352 54.7099 35.2356C54.6676 35.2305 54.6247 35.2353 54.5845 35.2495C54.5443 35.2637 54.5079 35.287 54.4782 35.3175C54.4484 35.348 54.4261 35.385 54.413 35.4255C54.3998 35.4661 54.3962 35.5091 54.4023 35.5513C54.4175 35.6227 54.4453 35.6908 54.4844 35.7525C54.7804 36.1779 54.9539 36.6624 55.14 37.1399C55.1731 37.2637 55.2332 37.3785 55.3158 37.4764C55.3742 37.5247 55.4469 37.5525 55.5227 37.5556C55.5984 37.5586 55.6731 37.5368 55.7353 37.4934C55.7974 37.45 55.8437 37.3874 55.8669 37.3152C55.8901 37.243 55.889 37.1652 55.8638 37.0937C55.6106 36.4774 55.2233 35.9374 54.9238 35.3512Z" fill="black"/>
<path d="M26.9436 70.1256C26.899 70.1576 26.8599 70.1966 26.828 70.2412C26.6129 70.5881 26.3874 70.9234 26.192 71.2818C26.0465 71.5695 25.9638 71.8848 25.9492 72.2068C25.9492 72.245 25.9492 72.3005 25.9596 72.3548C25.9708 72.4278 26.006 72.4948 26.0596 72.5455C26.1132 72.5962 26.1822 72.6275 26.2556 72.6347C26.3207 72.6355 26.3841 72.6137 26.4349 72.573C26.4858 72.5323 26.5209 72.4752 26.5343 72.4115C26.5632 72.3051 26.5771 72.1941 26.6002 72.0854C26.7158 71.5385 26.8835 71.0148 27.302 70.6101C27.3295 70.5819 27.354 70.5509 27.3749 70.5176C27.4098 70.463 27.4261 70.3986 27.4213 70.3339C27.4165 70.2693 27.3909 70.208 27.3483 70.1591C27.2952 70.1074 27.2258 70.0758 27.152 70.0697C27.0781 70.0636 27.0045 70.0833 26.9436 70.1256Z" fill="black"/>
<path d="M37.7488 70.0089C37.7589 69.9733 37.7589 69.9356 37.7487 69.9C37.7384 69.8644 37.7184 69.8325 37.6909 69.8077C37.657 69.7766 37.6145 69.7564 37.569 69.7496C37.5235 69.7428 37.477 69.7498 37.4354 69.7695C37.3011 69.8337 37.1968 69.9472 37.144 70.0864C36.9444 70.5199 36.7834 70.9703 36.663 71.4322C36.6524 71.4879 36.6462 71.5444 36.6445 71.601C36.6506 71.6537 36.6602 71.7058 36.6734 71.7571C36.6929 71.8189 36.732 71.8725 36.7848 71.9099C36.8377 71.9473 36.9013 71.9663 36.966 71.9641C37.0214 71.9616 37.0747 71.9419 37.1184 71.9077C37.1622 71.8735 37.1941 71.8265 37.2099 71.7733C37.2347 71.7043 37.2476 71.6316 37.2481 71.5583C37.2537 71.0966 37.3891 70.6458 37.6389 70.2575C37.6867 70.18 37.7237 70.0964 37.7488 70.0089Z" fill="black"/>
<path d="M38.4995 70.1349C38.4573 70.0982 38.4041 70.0768 38.3483 70.074C38.2925 70.0713 38.2374 70.0874 38.1919 70.1199C38.1443 70.1481 38.1045 70.1878 38.0763 70.2355C37.8072 70.7384 37.6243 71.2828 37.5352 71.8461C37.5429 71.9033 37.5553 71.9598 37.5722 72.0149C37.5868 72.0686 37.6193 72.1157 37.6642 72.1485C37.7092 72.1813 37.764 72.1978 37.8196 72.1953C37.8662 72.1967 37.912 72.1839 37.9512 72.1588C37.9904 72.1336 38.0211 72.0972 38.0393 72.0543C38.0682 71.9866 38.088 71.9155 38.0982 71.8427C38.1907 71.3547 38.2393 70.8529 38.5515 70.4344C38.5767 70.3854 38.5852 70.3296 38.5758 70.2753C38.5664 70.2211 38.5396 70.1714 38.4995 70.1337V70.1349Z" fill="black"/>
<path d="M26.0916 70.3257C26.213 69.9545 26.4384 69.6412 26.6281 69.3058C26.7132 69.1848 26.7581 69.0399 26.7564 68.8919C26.7528 68.846 26.7356 68.8022 26.7069 68.7662C26.6783 68.7301 26.6396 68.7035 26.5957 68.6896C26.5607 68.6776 26.5231 68.676 26.4872 68.6848C26.4514 68.6936 26.4188 68.7125 26.3933 68.7393C26.3529 68.774 26.3161 68.8127 26.2835 68.8549C26.1078 69.1116 25.9239 69.3637 25.762 69.6284C25.6666 69.7854 25.589 69.9525 25.5308 70.1268C25.4753 70.2933 25.6522 70.4945 25.8777 70.5037C25.9249 70.4931 25.9689 70.4715 26.0061 70.4405C26.0433 70.4095 26.0726 70.3702 26.0916 70.3257Z" fill="black"/>
<path d="M25.7124 61.3589C25.6628 61.3332 25.6058 61.3251 25.551 61.336C25.4961 61.347 25.4466 61.3762 25.4106 61.419C25.3491 61.4878 25.2953 61.563 25.2499 61.6434C24.9771 62.1059 24.703 62.5684 24.4406 63.0309C24.1649 63.4904 23.9274 63.9719 23.7306 64.4704C23.5674 64.8874 23.4635 65.3253 23.4219 65.7712C23.4216 65.8411 23.4251 65.9109 23.4323 65.9805C23.4406 66.0604 23.4782 66.1344 23.5379 66.1882C23.5976 66.2421 23.6751 66.2718 23.7555 66.2718C23.8358 66.2718 23.9134 66.2421 23.973 66.1882C24.0327 66.1344 24.0704 66.0604 24.0786 65.9805C24.0881 65.9259 24.0912 65.8704 24.0879 65.8151C24.0625 65.474 24.1631 65.1572 24.2648 64.8404C24.5986 63.859 25.0605 62.9259 25.6384 62.0654C25.7224 61.9453 25.7962 61.8184 25.8593 61.6861C25.8798 61.6231 25.8761 61.5547 25.8489 61.4942C25.8218 61.4337 25.7731 61.3855 25.7124 61.3589Z" fill="black"/>
<path d="M71.0557 63.557C71.0604 63.4829 71.0378 63.4097 70.9922 63.3511C70.9467 63.2926 70.8812 63.2527 70.8083 63.239C70.6765 63.2124 70.6048 63.2991 70.5424 63.3905C70.3227 63.7108 70.2995 64.0773 70.2949 64.3848C70.3377 64.9237 70.3735 65.4 70.4175 65.8764C70.4277 65.986 70.4526 66.0937 70.4915 66.1967C70.524 66.2629 70.5782 66.3159 70.6452 66.3469C70.7121 66.3778 70.7877 66.3848 70.8592 66.3666C70.9216 66.3482 70.9753 66.3079 71.0105 66.2531C71.0458 66.1984 71.0602 66.1328 71.0511 66.0683C71.0496 66.0134 71.0422 65.9587 71.0291 65.9053C70.8453 65.2116 70.8846 64.5178 71.0187 63.8241C71.0377 63.7361 71.05 63.6468 71.0557 63.557Z" fill="black"/>
<path d="M72.1421 63.3094C72.1306 63.2461 72.0989 63.1881 72.0518 63.1442C72.0048 63.1002 71.9448 63.0726 71.8808 63.0655C71.8166 63.0604 71.7524 63.0747 71.6965 63.1067C71.6406 63.1387 71.5956 63.1868 71.5674 63.2447C71.54 63.3121 71.5236 63.3836 71.5189 63.4563C71.5039 63.9697 71.49 64.483 71.4854 64.9964C71.4859 65.1241 71.5046 65.251 71.5408 65.3734C71.5513 65.4285 71.5829 65.4775 71.6289 65.5097C71.6749 65.5419 71.7317 65.5548 71.7871 65.5456C71.8423 65.5392 71.8937 65.5145 71.9333 65.4756C71.9729 65.4366 71.9983 65.3856 72.0057 65.3306C72.0179 65.2771 72.0211 65.222 72.0149 65.1675C71.9802 64.7831 72.0115 64.3956 72.1074 64.0217C72.1287 63.9023 72.1434 63.7819 72.1514 63.6609C72.1514 63.5303 72.1514 63.4748 72.1514 63.4204C72.1512 63.3832 72.1482 63.3461 72.1421 63.3094Z" fill="black"/>
</svg>
