<svg width="94" height="94" viewBox="0 0 94 94" fill="none" xmlns="http://www.w3.org/2000/svg">
<rect width="94" height="94" rx="47" fill="#FF9999"/>
<mask id="path-3-inside-1_34045_1759" fill="white">
<path d="M69.2729 48.8501C69.2729 49.8664 69.2729 50.8828 69.2729 51.8991C69.2729 52.3616 69.3064 52.8241 69.3075 53.2866C69.3062 53.5086 69.2845 53.73 69.2428 53.948C69.1191 54.6001 68.993 55.2522 68.8474 55.8997C68.7756 56.1491 68.6532 56.3809 68.4878 56.5808C68.1594 57.0271 67.8426 57.4838 67.498 57.9162C66.7977 58.8234 66.1443 59.7658 65.5405 60.7398C64.9115 61.7191 64.2767 62.6939 63.5818 63.6304C62.5897 64.9659 61.7168 66.3835 60.8403 67.7929C59.8367 69.4117 58.8319 71.0304 57.6907 72.5544C57.1924 73.2204 56.6501 73.8494 56.1957 74.5512C55.488 75.6566 54.77 76.7481 54.0774 77.8685C53.8751 78.1945 53.6473 78.3668 53.2495 78.4085C52.424 78.4963 51.6042 78.6397 50.7833 78.7727C50.4572 78.8247 50.123 78.8374 49.8097 78.9704C49.5969 79.0606 49.4154 78.9704 49.2605 78.8131C49.0766 78.6316 48.8997 78.4431 48.7055 78.272C47.9238 77.5841 47.0185 77.0776 46.1305 76.548C45.9397 76.4324 45.7478 76.3168 45.5524 76.2278C45.2483 76.0856 45.1257 75.8451 45.1014 75.5236C45.0683 75.0611 45.0259 74.6013 44.9742 74.1442C44.9396 73.832 44.8667 73.5245 44.9349 73.2088C44.9355 73.1543 44.9232 73.1004 44.8991 73.0516C44.8918 73.0348 44.8808 73.0199 44.8671 73.0079C44.8533 72.9959 44.837 72.9871 44.8195 72.9821C44.8019 72.9772 44.7834 72.9761 44.7654 72.9791C44.7474 72.9822 44.7303 72.9891 44.7152 72.9995C44.6697 73.0332 44.6306 73.0747 44.5996 73.1221C44.2527 73.8979 43.6399 74.4749 43.1289 75.127C42.7415 75.6207 42.3195 76.0821 41.9021 76.5573C41.7856 76.6764 41.6902 76.8144 41.62 76.9655C41.5228 77.1967 41.3378 77.2742 41.0846 77.2638C39.9029 77.2129 38.7201 77.2638 37.5384 77.2996C37.2982 77.2981 37.059 77.3316 36.8285 77.399C36.7154 77.4383 36.5942 77.4476 36.4764 77.4261C36.3587 77.4047 36.2486 77.3531 36.1567 77.2765C35.552 76.8515 34.9707 76.3941 34.4154 75.9063C34.331 75.8335 34.25 75.7583 34.1679 75.6832C33.9506 75.4831 33.68 75.3155 33.5331 75.0727C33.3863 74.8299 33.325 74.4853 33.2476 74.1824C32.7457 72.2329 32.2474 70.2827 31.7525 68.3317C31.275 66.4517 30.7928 64.5739 30.3292 62.6904C30.0736 61.6498 29.847 60.6034 29.6146 59.557C29.2874 58.0793 28.9463 56.6039 28.6503 55.1193C28.3716 53.7248 28.1531 52.3177 27.8872 50.9198C27.7322 50.1104 27.5634 49.2918 27.3484 48.4916C27.0709 47.458 26.8512 46.4104 26.5991 45.3698C26.5662 45.2735 26.5614 45.17 26.5851 45.0711C26.6089 44.9722 26.6603 44.8821 26.7332 44.8113C26.8211 44.7173 26.8948 44.611 26.9518 44.4956C27.7993 42.8896 28.8087 41.3876 29.8667 39.9157C30.8587 38.534 31.8681 37.1662 32.8371 35.7683C33.6465 34.5993 34.4281 33.4084 35.034 32.1122C35.0651 32.0451 35.1039 31.9819 35.1496 31.9237C35.1917 31.8748 35.2439 31.8356 35.3025 31.8087C35.3612 31.7818 35.425 31.7679 35.4895 31.7679C35.5541 31.7679 35.6178 31.7818 35.6765 31.8087C35.7352 31.8356 35.7873 31.8748 35.8295 31.9237C35.8782 31.9791 35.9155 32.0435 35.9393 32.1134C36.211 33.058 36.8088 33.8235 37.3361 34.6213C37.7141 35.1925 38.0888 35.7636 38.4079 36.3684C38.7617 37.039 39.1595 37.683 39.5526 38.334C39.7919 38.7283 39.9897 39.1434 40.207 39.5538C40.254 39.6529 40.3089 39.7481 40.3712 39.8383C40.3906 39.8559 40.414 39.8685 40.4394 39.8752C40.4647 39.8818 40.4913 39.8823 40.5169 39.8764C40.5412 39.8653 40.563 39.8493 40.5809 39.8294C40.5988 39.8095 40.6125 39.7862 40.621 39.7608C40.636 39.7071 40.636 39.6503 40.621 39.5966C40.4302 38.7791 40.4522 37.9443 40.4244 37.1141C40.3816 35.8215 40.3516 34.5288 40.325 33.2349C40.3053 32.3296 40.2995 31.4242 40.2891 30.5189C40.3007 30.4272 40.3007 30.3343 40.2891 30.2426C40.1596 29.7986 40.3539 29.4656 40.6152 29.1291C41.3089 28.2388 41.9749 27.3311 42.6641 26.4385C43.004 25.9991 43.3139 25.5401 43.6133 25.0741C44.7314 23.3316 45.8692 21.6054 47.0624 19.9115C47.9382 18.6511 48.8986 17.4516 49.9369 16.3213C50.1381 16.1051 50.345 15.8946 50.5462 15.6784C50.9116 15.283 51.1868 15.2922 51.4712 15.7478C51.9104 16.4325 52.3976 17.0851 52.9293 17.7007C53.7814 18.724 54.6972 19.6895 55.6199 20.6503C56.7842 21.8632 57.959 23.0669 58.9984 24.3942C59.5338 25.0776 60.1015 25.7366 60.668 26.3946C60.7425 26.4751 60.7994 26.5702 60.8351 26.6739C60.8707 26.7777 60.8843 26.8877 60.875 26.997C60.8126 27.826 60.7594 28.6562 60.6935 29.4852C60.6854 29.6008 60.6669 29.7061 60.66 29.8159C60.5721 31.1618 60.485 32.508 60.3986 33.8547C60.283 35.5891 60.1766 37.3234 60.0518 39.0578C59.9142 40.9564 59.7708 42.8538 59.6066 44.7489C59.5604 45.2796 59.5985 45.8242 59.4158 46.341C59.3996 46.3946 59.4021 46.4521 59.4228 46.5041C59.4276 46.5218 59.436 46.5383 59.4475 46.5526C59.4591 46.5669 59.4734 46.5787 59.4897 46.5871C59.506 46.5956 59.5239 46.6006 59.5422 46.6018C59.5605 46.6031 59.5789 46.6005 59.5962 46.5942C59.632 46.5853 59.666 46.5705 59.6968 46.5503C60.1789 46.1502 60.7686 45.9826 61.3433 45.7802C62.3203 45.4334 63.339 45.2437 64.338 44.9813C65.3613 44.713 66.3533 44.3731 67.239 43.7718C67.5011 43.5984 67.7465 43.401 67.9721 43.1821C68.0606 43.0881 68.1573 43.0022 68.2611 42.9255C68.3387 42.8735 68.4315 42.8493 68.5245 42.8568C68.6175 42.8644 68.7053 42.9033 68.7734 42.9671C68.9141 43.0874 69.0129 43.2494 69.0555 43.4296C69.1435 43.7697 69.1912 44.119 69.1977 44.4702C69.2255 45.8577 69.2463 47.2452 69.2694 48.6258C69.2694 48.6998 69.2694 48.7738 69.2694 48.8478L69.2729 48.8501ZM46.1906 68.1733H46.1675C46.1675 68.3213 46.1606 68.4693 46.1675 68.615C46.1743 68.6395 46.186 68.6624 46.2019 68.6823C46.2178 68.7022 46.2376 68.7186 46.26 68.7306C46.3375 68.7734 46.4011 68.7214 46.4473 68.6613C46.4802 68.6172 46.5056 68.568 46.5225 68.5156C46.6707 68.0967 46.8646 67.6954 47.1006 67.3189C47.4001 66.8101 47.6787 66.2886 47.9747 65.7764C48.8997 64.1762 49.812 62.5713 50.7497 60.978C51.9191 58.9869 53.0992 57.0024 54.2902 55.0245C54.6 54.5088 54.8683 53.9954 54.7712 53.3687C54.7689 53.3503 54.7689 53.3316 54.7712 53.3132C54.8556 52.3188 54.9492 51.3268 54.9897 50.3289C55.014 49.7392 55.066 49.1496 55.1053 48.5599C55.1654 47.7308 55.2337 46.903 55.2892 46.0739C55.3817 44.6864 55.4638 43.3082 55.5539 41.9265C55.6175 40.9494 55.6881 39.9724 55.7551 38.9954C55.806 38.2403 55.8557 37.4841 55.9089 36.7291C55.9598 36.0099 56.0107 35.2907 56.0685 34.5727C56.1344 33.746 56.1286 32.9123 56.2882 32.0937C56.3275 31.8879 56.2211 31.8023 55.9933 31.8382C55.8476 31.8613 55.7031 31.8902 55.5563 31.9052C54.1052 32.0567 52.6529 32.2036 51.2018 32.3573C49.6224 32.525 48.0453 32.7135 46.4612 32.8615C45.9663 32.9077 45.4714 32.9863 44.9696 32.9597C44.7083 32.947 44.6517 33.0222 44.6517 33.287C44.6517 34.1183 44.6517 34.9496 44.6424 35.781C44.632 36.5383 44.6158 37.2968 44.5857 38.053C44.5395 39.2532 44.4701 40.4522 44.4285 41.6524C44.395 42.759 44.3984 43.8678 44.3788 44.9755C44.3398 46.0823 44.3599 47.1904 44.4389 48.2951C44.5414 49.4513 44.6401 50.6111 44.7349 51.7742C44.8505 53.2276 44.9662 54.6834 45.0818 56.1379C45.172 57.2606 45.261 58.3845 45.3604 59.5061C45.4876 60.9236 45.6241 62.3389 45.7582 63.7553C45.8491 64.7296 45.9428 65.704 46.0392 66.6783C46.0877 67.1813 46.1386 67.6773 46.1906 68.1733ZM43.5486 48.0661C43.5486 47.8569 43.5486 47.7262 43.5486 47.5979C43.5486 47.4695 43.6064 47.3192 43.4653 47.251C43.3243 47.1828 43.2422 47.3319 43.1612 47.4221C42.999 47.5995 42.8184 47.7592 42.6224 47.8985C40.9574 49.0975 39.2901 50.2931 37.5581 51.3938C37.4764 51.4366 37.4111 51.5051 37.3722 51.5887C37.3333 51.6723 37.3231 51.7663 37.343 51.8563C37.4147 52.4244 37.4787 52.9933 37.5349 53.563C37.6644 54.8684 37.7824 56.1749 37.9119 57.4803C37.9751 58.1248 38.0468 58.7672 38.1269 59.4078C38.2067 60.0495 38.2784 60.6947 38.3963 61.3295C38.6715 62.8187 38.9745 64.3034 39.2658 65.7891C39.4493 66.7141 39.642 67.6364 39.844 68.556C40.0983 69.7296 40.3874 70.8951 40.6175 72.0734C40.8487 73.2296 41.2303 74.3581 41.3251 75.5421C41.3237 75.5791 41.3353 75.6155 41.3579 75.6449C41.3805 75.6742 41.4127 75.6947 41.4488 75.7028C41.4855 75.7098 41.5235 75.7052 41.5575 75.6896C41.5914 75.6741 41.6197 75.6484 41.6385 75.6161C41.8596 75.275 42.1058 74.9507 42.375 74.646C43.2207 73.6661 43.9991 72.6301 44.7048 71.545C44.9442 71.1726 45.1454 70.7749 45.3489 70.3818C45.4651 70.1702 45.5132 69.9279 45.4865 69.688C45.357 68.6243 45.2263 67.5605 45.1199 66.4945C44.9662 64.9682 44.8286 63.4408 44.6921 61.9134C44.5326 60.1281 44.3784 58.3421 44.2296 56.5553C44.136 55.4511 44.0504 54.3457 43.9602 53.2404C43.8712 52.1535 43.7787 51.0666 43.6931 49.9797C43.6307 49.3126 43.5867 48.6501 43.5451 48.0661H43.5486ZM49.5345 77.8084C49.5839 77.8073 49.6316 77.7904 49.6708 77.7603C49.7099 77.7301 49.7383 77.6882 49.7519 77.6407C49.9963 77.1844 50.2869 76.7543 50.6191 76.3573C50.8367 76.1045 51.0219 75.8256 51.1706 75.5271C51.4443 74.9404 51.7755 74.3823 52.1592 73.8609C52.6557 73.1487 53.115 72.4111 53.5351 71.6513C54.4231 70.1147 55.3238 68.5861 56.3483 67.1362C56.9993 66.2112 57.6491 65.2943 58.3139 64.3878C59.3696 62.9586 60.3755 61.5029 61.223 59.9362C61.7491 58.9638 62.2833 57.9868 63.021 57.1462C63.1366 57.0178 63.0927 56.8895 62.9146 56.7912C61.8474 56.2061 60.971 55.391 60.1535 54.5065C59.905 54.2572 59.6967 53.9709 59.5361 53.6578C59.4366 53.4462 59.2829 53.4439 59.1672 53.6266C58.9996 53.8913 58.8354 54.1584 58.6643 54.4221C58.1821 55.1655 57.6664 55.8905 57.2189 56.6548C56.3044 58.2169 55.4175 59.7963 54.5353 61.3769C53.9051 62.5066 53.3004 63.6524 52.6067 64.7439C51.5568 66.3973 50.4861 68.0381 49.4143 69.6788C48.4255 71.1964 47.5482 72.7839 46.7896 74.4286C46.6358 74.764 46.5167 75.1143 46.3895 75.4612C46.3756 75.4908 46.3681 75.523 46.3675 75.5557C46.367 75.5883 46.3733 75.6208 46.3862 75.6508C46.3991 75.6809 46.4182 75.7079 46.4423 75.73C46.4664 75.7521 46.4949 75.7689 46.5259 75.7791C46.7292 75.8671 46.9276 75.9659 47.1202 76.0751C47.9065 76.592 48.7251 77.0672 49.4027 77.7344C49.4415 77.7653 49.4848 77.7903 49.531 77.8084H49.5345ZM39.1884 76.3746C39.4636 76.3746 39.8891 76.3746 40.3134 76.3746C40.6441 76.3746 40.688 76.3133 40.6025 75.9746C40.4776 75.4739 40.3504 74.9721 40.2394 74.4714C39.7619 72.3069 39.2809 70.1447 38.8195 67.9768C38.4229 66.1164 38.0448 64.2525 37.6633 62.3875C37.3973 61.0647 37.2597 59.7211 37.1094 58.3822C36.9291 56.7854 36.7868 55.184 36.6331 53.5849C36.5845 53.0704 36.5544 52.5536 36.5174 52.0379C36.4989 51.8066 36.4504 51.7442 36.218 51.7234C35.7768 51.676 35.3402 51.5929 34.9126 51.4748C33.6996 51.1626 32.4613 50.9313 31.3085 50.4122C31.291 50.4059 31.2727 50.402 31.2542 50.4006C31.2316 50.3971 31.2086 50.3987 31.1867 50.4053C31.1649 50.4119 31.1448 50.4233 31.1281 50.4388C31.1113 50.4543 31.0982 50.4733 31.0898 50.4945C31.0814 50.5157 31.0779 50.5386 31.0796 50.5613C31.0886 50.6531 31.1096 50.7433 31.142 50.8296C31.258 51.1218 31.3402 51.4264 31.3871 51.7372C31.5953 52.8241 31.7895 53.9145 31.9942 55.0036C32.1954 56.0743 32.3653 57.152 32.6128 58.2111C33.0649 60.1536 33.5574 62.0857 34.0431 64.0201C34.3761 65.3451 34.7264 66.6656 35.0652 67.9895C35.3392 69.0625 35.619 70.1343 35.8746 71.2108C36.0434 71.9046 36.2677 72.5983 36.3371 73.3186C36.366 73.6146 36.3995 73.6285 36.729 73.5314C36.7649 73.521 36.7984 73.506 36.8342 73.499C36.9672 73.4701 37.099 73.4666 37.1811 73.595C37.2148 73.6507 37.2335 73.7141 37.2354 73.7792C37.2372 73.8443 37.2221 73.9087 37.1915 73.9661C37.1661 74.0253 37.1206 74.0736 37.0631 74.1026C37.0056 74.1315 36.9397 74.1393 36.877 74.1246C36.8238 74.113 36.7753 74.076 36.7221 74.0656C36.6727 74.0483 36.6189 74.0483 36.5695 74.0656C36.5409 74.0895 36.5221 74.1232 36.5168 74.1601C36.5114 74.197 36.5199 74.2346 36.5406 74.2656C36.6957 74.6419 36.7969 75.0381 36.8412 75.4427C36.8793 75.6982 36.8863 75.9572 36.9152 76.215C36.9372 76.4047 37.0308 76.5018 37.2042 76.4683C37.8159 76.3503 38.4276 76.4128 39.1849 76.3746H39.1884ZM55.6071 31.0034V31.0276C55.6996 31.0276 55.7921 31.0276 55.8846 31.0276C56.087 31.0184 56.1772 30.9051 56.0823 30.7467C55.8627 30.3767 55.7517 29.9651 55.6025 29.5685C55.0568 28.1178 54.5106 26.6659 53.9641 25.2129C53.2195 23.2241 52.4768 21.2342 51.736 19.2431C51.5256 18.6743 51.2261 18.132 51.1671 17.5088C51.1673 17.4902 51.1616 17.472 51.1509 17.4567C51.1139 17.4174 51.0781 17.3596 51.0353 17.3492C50.9991 17.3416 50.9613 17.348 50.9296 17.3671C50.8978 17.3862 50.8745 17.4165 50.8642 17.4521C50.774 17.6938 50.7023 17.9447 50.5959 18.1794C49.7773 19.9785 48.946 21.7719 48.132 23.5721C47.7435 24.4301 47.3469 25.288 47.0231 26.1714C46.6358 27.2282 46.3294 28.3162 45.9732 29.3835C45.6911 30.2206 45.4761 31.0855 45.0344 31.8648C45.0134 31.8906 45.0012 31.9224 44.9995 31.9556C44.9977 31.9888 45.0065 32.0217 45.0246 32.0495C45.0427 32.0774 45.0692 32.0988 45.1003 32.1107C45.1313 32.1226 45.1653 32.1243 45.1974 32.1157C45.4714 32.0845 45.7432 32.0243 46.0183 32.0001C46.9746 31.9099 47.9331 31.844 48.887 31.7411C50.5959 31.5572 52.3026 31.3502 54.0092 31.1629C54.5399 31.0993 55.0741 31.0554 55.6071 31.0034ZM67.2749 56.8039C67.2922 56.6964 67.2529 56.6513 67.1997 56.6386C67.0896 56.6239 66.9778 56.645 66.8806 56.6987C66.5383 56.8387 66.1838 56.9463 65.8215 57.0201C65.3312 57.1115 64.8456 57.241 64.3519 57.293C64.2051 57.305 64.0633 57.3523 63.9387 57.4308C63.8141 57.5093 63.7103 57.6167 63.6361 57.744C63.391 58.1128 63.1285 58.4712 62.9008 58.8516C62.5007 59.5165 62.1261 60.1964 61.7329 60.8647C61.3676 61.4856 61.0265 62.1238 60.6149 62.7147C59.5742 64.1993 58.5047 65.6573 57.4514 67.1304C56.6451 68.2581 55.8858 69.4167 55.1735 70.6061C54.5665 71.6201 53.9722 72.6422 53.3548 73.6493C52.824 74.5165 52.2633 75.3629 51.7476 76.2405C51.4689 76.7146 51.1694 77.1875 50.7532 77.5667C50.7035 77.6207 50.6643 77.6834 50.6376 77.7517C50.6302 77.7874 50.6369 77.8245 50.6563 77.8553C50.6757 77.8861 50.7063 77.9083 50.7416 77.9171C50.7963 77.9259 50.8521 77.9235 50.9058 77.9101C51.2885 77.7633 51.6944 77.7193 52.0933 77.6488C52.3835 77.5979 52.6795 77.576 52.9732 77.5459C53.0649 77.5395 53.1535 77.5098 53.2306 77.4596C53.3077 77.4094 53.3707 77.3404 53.4137 77.2591C53.8346 76.5654 54.2613 75.8716 54.7029 75.1906C55.266 74.3234 55.8349 73.4562 56.4824 72.6469C56.8678 72.172 57.2317 71.6829 57.5739 71.1796C58.5163 69.8094 59.4066 68.4046 60.2842 66.9928C61.0334 65.7834 61.778 64.5705 62.6221 63.4246C63.258 62.5609 63.8593 61.6741 64.4536 60.7826C65.3335 59.4621 66.0805 58.0481 67.2182 56.9115C67.2453 56.8806 67.2647 56.8437 67.2749 56.8039ZM37.2054 50.0156H37.1881C37.1881 50.1312 37.1811 50.2376 37.1881 50.3474C37.192 50.4006 37.2155 50.4504 37.254 50.4873C37.2843 50.509 37.3213 50.5193 37.3584 50.5166C37.3956 50.5139 37.4306 50.4982 37.4575 50.4723C37.661 50.3127 37.8529 50.1393 38.0645 49.9913C39.0912 49.2686 40.1296 48.5599 41.1517 47.8291C41.7992 47.3666 42.4236 46.8787 43.0583 46.3977C43.2191 46.2751 43.2295 46.1861 43.1335 46.0173C43.0179 45.808 42.8942 45.601 42.7727 45.3929C42.3102 44.5962 41.8477 43.795 41.3667 43.0052C40.6175 41.7738 39.8451 40.5575 39.0993 39.3237C38.3536 38.09 37.6112 36.8124 36.8712 35.5544C36.6932 35.2514 36.5244 34.9427 36.3532 34.6386C36.3099 34.5581 36.2608 34.4809 36.2064 34.4074C36.1897 34.3855 36.1664 34.3698 36.1399 34.3626C36.1134 34.3554 36.0852 34.3572 36.0598 34.3676C36.0344 34.378 36.0132 34.3965 35.9993 34.4202C35.9855 34.4439 35.9798 34.4715 35.9832 34.4987C35.9828 34.5907 35.9917 34.6825 36.0098 34.7727C36.1391 35.3504 36.2043 35.9406 36.2041 36.5326C36.2087 36.7916 36.2195 37.0502 36.2365 37.3084C36.292 38.1756 36.359 39.0428 36.4099 39.9088C36.4677 40.9043 36.5116 41.901 36.5637 42.8977C36.5637 42.9902 36.5776 43.0816 36.5856 43.1741C36.6851 44.2216 36.7868 45.2703 36.8851 46.3179C36.9491 46.9978 37.0104 47.6784 37.069 48.3598C37.1187 48.9102 37.1603 49.4629 37.2054 50.0156ZM56.5148 41.1275C56.5148 41.1853 56.5055 41.2963 56.4974 41.4073C56.4339 42.2918 56.3668 43.1764 56.3055 44.0609C56.2284 45.1493 56.1548 46.2373 56.0847 47.325C56.0396 48.0072 56.0118 48.6905 55.9609 49.3727C55.8916 50.2977 55.8754 51.2227 55.6615 52.1246C55.6454 52.1778 55.6419 52.234 55.6511 52.2888C55.667 52.3384 55.6976 52.382 55.7389 52.4136C55.7625 52.4287 55.791 52.434 55.8185 52.4284C55.8459 52.4228 55.87 52.4067 55.8858 52.3836C55.9534 52.2966 56.009 52.2009 56.0511 52.0991C56.2392 51.636 56.4602 51.187 56.7125 50.7556C57.2802 49.715 57.8306 48.6743 58.3868 47.6268C58.4596 47.4978 58.5038 47.3546 58.5163 47.2071C58.5463 46.8024 58.5903 46.3977 58.6226 45.993C58.7383 44.4818 58.8678 42.9717 58.9834 41.4605C59.0882 40.0784 59.188 38.6959 59.2829 37.313C59.3777 35.9255 59.4609 34.5473 59.5511 33.1644C59.6135 32.2244 59.676 31.2832 59.7454 30.3431C59.787 29.7731 59.787 29.1973 59.9454 28.64C59.9566 28.586 59.9585 28.5305 59.9512 28.4758C59.9512 28.4215 59.9304 28.3602 59.8679 28.3498C59.8162 28.3364 59.7613 28.343 59.7141 28.3683C59.6462 28.4293 59.5874 28.4998 59.5395 28.5776C59.3765 28.8467 59.185 29.0975 58.9684 29.3256C58.3787 29.9153 57.8849 30.5871 57.3415 31.2173C57.0999 31.4959 57.1103 31.8243 57.064 32.1504C57.0559 32.2128 57.1727 32.266 57.234 32.2371C57.2837 32.2141 57.3309 32.1862 57.375 32.1538C57.708 31.8902 58.0387 31.6231 58.3717 31.3595C58.4292 31.314 58.4917 31.2752 58.5579 31.2439C58.619 31.2202 58.6864 31.2175 58.7492 31.2364C58.812 31.2552 58.8668 31.2945 58.9048 31.3479C58.9445 31.3999 58.9644 31.4643 58.9608 31.5296C58.9572 31.5949 58.9303 31.6568 58.8851 31.7041C58.8081 31.7831 58.7228 31.8537 58.6307 31.9145C58.2957 32.1455 57.977 32.3993 57.6768 32.6741C57.5783 32.7853 57.4609 32.8781 57.33 32.9482C57.0016 33.0707 56.9565 33.3216 56.9646 33.6153C56.9624 33.6476 56.9699 33.6797 56.9861 33.7077C57.0023 33.7356 57.0264 33.7581 57.0553 33.7724C57.0843 33.7866 57.1169 33.792 57.1489 33.7877C57.1809 33.7834 57.2109 33.7697 57.2351 33.7483C57.3126 33.6986 57.3797 33.6327 57.4537 33.5795C57.708 33.3945 57.9624 33.2095 58.2214 33.0314C58.3115 32.9682 58.4095 32.9169 58.5128 32.8788C58.5748 32.8578 58.6423 32.86 58.7027 32.8852C58.7631 32.9103 58.8123 32.9565 58.8412 33.0152C58.8691 33.0738 58.8785 33.1394 58.8682 33.2035C58.8579 33.2675 58.8283 33.3269 58.7834 33.3737C58.7261 33.4195 58.6636 33.4583 58.5972 33.4893C58.2155 33.682 57.8648 33.9306 57.5566 34.227C57.3681 34.4016 57.1033 34.5265 56.9877 34.7369C56.8721 34.9473 56.8998 35.2376 56.8594 35.4908C56.842 35.6006 56.8119 35.707 56.7865 35.8157C56.7744 35.8507 56.7736 35.8886 56.7842 35.924C56.7948 35.9595 56.8162 35.9908 56.8455 36.0134C56.9438 36.0862 57.0143 36.0134 57.0837 35.9533C57.1118 35.9294 57.1377 35.9031 57.1611 35.8746C57.5254 35.4422 58.0353 35.1971 58.47 34.856C58.4977 34.8307 58.5306 34.8117 58.5664 34.8004C58.6022 34.7891 58.64 34.7858 58.6772 34.7906C58.7144 34.7955 58.7502 34.8084 58.7819 34.8285C58.8136 34.8485 58.8405 34.8753 58.8608 34.9069C58.9098 34.9633 58.9352 35.0365 58.9317 35.1112C58.9283 35.1859 58.8963 35.2563 58.8423 35.3081C58.7962 35.3643 58.7406 35.412 58.6781 35.4491C58.233 35.6584 57.9023 36.0099 57.5531 36.3406C57.3808 36.5048 57.2201 36.6944 56.9657 36.7407C56.8108 36.7673 56.7564 36.8667 56.7495 37.0147C56.7414 37.1801 56.7171 37.3442 56.709 37.5107C56.7056 37.5384 56.7122 37.5664 56.7277 37.5895C56.7432 37.6127 56.7666 37.6295 56.7934 37.6368C56.8457 37.6485 56.9004 37.6407 56.9472 37.6148C57.1022 37.4841 57.2455 37.3396 57.3958 37.2032C57.4818 37.1055 57.593 37.0335 57.7173 36.9951C57.7709 36.9795 57.8278 36.9799 57.8812 36.9961C57.9345 37.0123 57.982 37.0437 58.0179 37.0864C58.0578 37.1379 58.0794 37.2011 58.0794 37.2662C58.0794 37.3313 58.0578 37.3945 58.0179 37.446C57.9695 37.5016 57.913 37.5495 57.8503 37.5882C57.6101 37.7288 57.4015 37.9173 57.2374 38.1421C57.0802 38.356 56.7599 38.4138 56.6767 38.6543C56.5934 38.8948 56.6362 39.1653 56.6165 39.422C56.6073 39.5469 56.5009 39.6764 56.5923 39.7932C56.7322 39.9631 56.8536 39.7712 56.9819 39.7435C57.0344 39.725 57.0916 39.7252 57.1439 39.7442C57.1962 39.7632 57.2403 39.7997 57.2687 39.8475C57.2972 39.896 57.3094 39.9524 57.3036 40.0084C57.2978 40.0643 57.2742 40.1169 57.2363 40.1586C57.1874 40.2141 57.1305 40.262 57.0675 40.3008C56.9449 40.384 56.8212 40.4638 56.6929 40.532C56.6343 40.5606 56.5857 40.606 56.5534 40.6625C56.521 40.719 56.5064 40.7839 56.5113 40.8488C56.5067 40.9275 56.5113 41.0015 56.5171 41.1275H56.5148ZM36.1023 75.8936C36.0815 75.8277 36.0526 75.741 36.0283 75.6543C35.9543 75.3872 35.8722 75.1224 35.8098 74.853C35.5866 73.9002 35.3866 72.9406 35.1496 71.9913C34.5981 69.7944 34.0326 67.5883 33.4696 65.3879C33.0614 63.7958 32.6324 62.2094 32.2358 60.6138C31.7282 58.5695 31.3733 56.4929 30.9813 54.4244C30.7165 53.0276 30.4356 51.6332 30.1719 50.2376C30.1326 49.9816 30.0197 49.7426 29.847 49.5496C29.6158 49.3068 29.4204 49.0397 29.2099 48.7819C28.8289 48.3053 28.49 47.7966 28.197 47.2614C28.1242 47.1319 27.9797 47.066 27.9311 47.1238C27.9021 47.16 27.8833 47.2034 27.8766 47.2493C27.8699 47.2952 27.8755 47.3421 27.893 47.3851C27.9323 47.5088 27.982 47.6279 28.0236 47.7505C28.0953 47.9598 28.1681 48.1691 28.2317 48.3818C28.5786 49.5381 28.7752 50.7197 28.9775 51.9026C29.2088 53.2496 29.4527 54.5932 29.7256 55.9321C30.2297 58.3938 30.8125 60.8369 31.3987 63.2789C31.9456 65.559 32.5399 67.8276 33.1169 70.1008C33.4765 71.5137 33.8453 72.9255 34.2026 74.3408C34.2327 74.5039 34.3215 74.6504 34.4524 74.7524C34.914 75.0942 35.3401 75.4816 35.7242 75.9086C35.7733 75.9634 35.8336 76.0068 35.9011 76.0358C35.9521 76.0483 36.0058 76.0422 36.0526 76.0185C36.07 76.0046 36.0757 75.9526 36.1023 75.8936ZM45.7177 72.9001H45.7651C45.7651 73.2689 45.7651 73.6389 45.7651 74.0089C45.7651 74.1696 45.8345 74.2621 45.9235 74.2541C46.0392 74.2448 46.0704 74.1569 46.1016 74.0702C46.1288 74.0016 46.1516 73.9313 46.1698 73.8598C46.2832 73.411 46.455 72.9791 46.6809 72.5752C47.5249 70.9715 48.4927 69.4406 49.4859 67.9259C50.2768 66.7211 51.0862 65.5267 51.8297 64.293C52.7165 62.8211 53.5409 61.3121 54.3919 59.8194C55.1053 58.5672 55.8025 57.3057 56.5356 56.0651C57.1934 54.9504 57.9181 53.8765 58.7059 52.8496C58.84 52.6738 58.9129 52.5085 58.8574 52.2911C58.8384 52.2007 58.8253 52.1091 58.818 52.0171C58.7163 51.2296 58.5787 50.4446 58.6284 49.6444C58.6295 49.571 58.6202 49.4978 58.6007 49.4271C58.587 49.3945 58.5613 49.3684 58.529 49.3542C58.5059 49.339 58.4777 49.3333 58.4505 49.3385C58.4233 49.3437 58.3992 49.3593 58.3833 49.382C58.3303 49.4563 58.2878 49.5376 58.2573 49.6236C58.155 49.9206 58.0269 50.208 57.8745 50.4827C57.4837 51.1961 57.1056 51.9153 56.6998 52.6195C55.8129 54.155 54.9134 55.6835 54.0161 57.2144C53.2029 58.6019 52.3885 59.9894 51.573 61.3769C50.6838 62.8904 49.7808 64.3959 48.9136 65.9198C48.0244 67.475 47.1653 69.0486 46.2958 70.6153C46.0993 70.9703 45.8333 71.3091 45.7408 71.6918C45.6483 72.0745 45.7177 72.4931 45.7177 72.9001ZM35.293 36.2909H35.3219C35.3219 36.0516 35.3219 35.8111 35.3219 35.5717C35.3202 35.4801 35.3109 35.3889 35.2941 35.2988C35.2941 35.2711 35.2513 35.2422 35.2224 35.2271C35.1978 35.2153 35.1699 35.2124 35.1434 35.2192C35.1169 35.226 35.0937 35.2419 35.0779 35.2641C35.029 35.3418 34.9902 35.4253 34.9623 35.5127C34.8675 35.8307 34.7923 36.1545 34.6871 36.4701C34.3564 37.468 34.0303 38.467 33.7459 39.4764C33.5066 40.3285 33.2325 41.1726 32.9365 42.0074C32.1144 44.3419 31.4184 46.7099 30.9709 49.1461C30.9362 49.3334 30.9859 49.4282 31.1628 49.4849C31.5849 49.619 32.0104 49.7404 32.4289 49.8826C33.6546 50.2954 34.9287 50.5243 36.1763 50.8527C36.2075 50.8621 36.2405 50.863 36.2721 50.8554C36.3037 50.8479 36.3328 50.8321 36.3563 50.8096C36.3798 50.7872 36.3969 50.7589 36.4059 50.7277C36.4149 50.6964 36.4155 50.6634 36.4076 50.6319C36.3388 50.2888 36.2975 49.9408 36.2839 49.5912C36.1821 48.3263 36.0734 47.0583 35.9578 45.7872C35.8722 44.8506 35.7659 43.9152 35.6872 42.9786C35.6283 42.2606 35.5982 41.5414 35.5577 40.8234C35.53 40.3436 35.5115 39.8649 35.4826 39.385C35.4217 38.3536 35.3585 37.3223 35.293 36.2909ZM63.554 56.19C63.6028 56.1896 63.6501 56.1739 63.6894 56.145C63.7286 56.1161 63.7577 56.0756 63.7726 56.0292C63.894 55.7402 64.0038 55.4511 64.1391 55.1621C64.5785 54.2243 64.96 53.2623 65.3162 52.2922C65.8619 50.8007 66.3568 49.286 66.876 47.7898C67.1535 46.9874 67.357 46.1583 67.7455 45.3964C67.7739 45.3291 67.7929 45.2583 67.8021 45.1859C67.8125 45.1293 67.6865 45.0483 67.6426 45.0819C67.5636 45.1271 67.4928 45.1854 67.4333 45.2541C67.0552 45.8068 66.5823 46.2751 66.1267 46.7573C64.886 48.0777 63.6986 49.4479 62.3943 50.707C61.6775 51.4008 61.0068 52.1361 60.1743 52.7073C60.0286 52.8079 60.0136 52.9386 60.1408 53.0877C60.5455 53.5676 60.927 54.0659 61.3791 54.5076C62.0047 55.1181 62.7412 55.5841 63.4188 56.1264C63.4606 56.1538 63.5062 56.1753 63.554 56.19ZM52.4748 18.4823C52.3951 18.5055 52.3511 18.5552 52.3592 18.6061C52.3813 18.7133 52.4167 18.8174 52.4644 18.9159C52.7234 19.4466 52.9755 19.9808 53.1813 20.5347C53.8612 22.3708 54.5688 24.1954 55.2337 26.0373C55.7332 27.4248 56.3333 28.7811 56.7264 30.209C56.7324 30.2455 56.7507 30.2788 56.7783 30.3034C56.8058 30.328 56.841 30.3424 56.8779 30.3443C56.9319 30.3372 56.983 30.3156 57.0259 30.2819C57.0536 30.2575 57.0754 30.227 57.0894 30.1928C57.295 29.8408 57.544 29.516 57.8306 29.2262C58.4769 28.5163 59.077 27.7636 59.7904 27.1161C59.9315 26.9877 59.9315 26.8848 59.8032 26.7356C59.5719 26.4697 59.3337 26.213 59.1094 25.9401C58.3 24.9319 57.4768 23.9317 56.5876 22.9894C55.8765 22.2367 55.1608 21.4863 54.4509 20.737C53.8728 20.1196 53.268 19.5137 52.8021 18.7957C52.7413 18.7035 52.672 18.6172 52.5951 18.5378C52.559 18.5118 52.5181 18.4929 52.4748 18.4823ZM43.6654 38.5595C43.6885 38.1791 43.7209 37.8299 43.729 37.4795C43.7648 35.9856 43.7937 34.4918 43.8272 32.9979C43.8331 32.9335 43.8209 32.8687 43.7918 32.8109C43.7628 32.753 43.7182 32.7045 43.6631 32.6707C43.6006 32.6314 43.5324 32.6001 43.47 32.5608C42.7531 32.1122 41.9796 31.7434 41.3887 31.1074C41.367 31.0773 41.3358 31.0555 41.3001 31.0454C41.2644 31.0353 41.2264 31.0376 41.1922 31.0519C41.0869 31.0993 41.0858 31.1976 41.0973 31.2832C41.1274 31.5387 41.2049 31.7861 41.2014 32.0486C41.191 33.1945 41.2153 34.338 41.265 35.4827C41.3421 37.3257 41.4107 39.17 41.4708 41.0153C41.477 41.3261 41.5682 41.6292 41.7344 41.8918C42.2698 42.7728 42.8826 43.6134 43.2445 44.5928C43.2666 44.6431 43.2998 44.6878 43.3416 44.7234C43.3547 44.7358 43.3705 44.745 43.3878 44.7503C43.405 44.7555 43.4233 44.7566 43.4411 44.7535C43.4862 44.735 43.5486 44.6991 43.5567 44.6598C43.5708 44.5704 43.5739 44.4795 43.5659 44.3893C43.5509 44.0204 43.5104 43.6516 43.5197 43.2839C43.5636 41.701 43.6168 40.1146 43.6654 38.5595ZM49.7045 18.1285C49.6813 18.1019 49.664 18.0649 49.6351 18.0511C49.6021 18.0377 49.5652 18.0377 49.5322 18.0511C49.3749 18.1297 49.3009 18.2823 49.2073 18.4211C48.3887 19.5842 47.6105 20.7752 46.7179 21.8898C46.6621 21.964 46.6104 22.0412 46.5629 22.1211C45.9351 23.1004 45.3015 24.0774 44.6817 25.0614C44.4861 25.3749 44.2714 25.6761 44.0388 25.9633C43.9325 26.0916 43.8261 26.22 43.7324 26.3564C42.967 27.4664 42.1588 28.5463 41.3355 29.6136C41.1968 29.7928 41.2014 29.8772 41.3864 30.0321C41.6558 30.2576 41.9368 30.468 42.2062 30.6923C42.7346 31.1306 43.3821 31.3861 43.9012 31.8416C44.0342 31.9573 44.1637 31.8995 44.2331 31.7098C44.3661 31.3456 44.5013 30.9826 44.6227 30.6137C45.0008 29.4575 45.3708 28.2954 45.7501 27.138C45.9235 26.6119 46.0819 26.0777 46.3005 25.5713C46.6878 24.6729 47.1179 23.7918 47.5261 22.9027C47.6593 22.6408 47.7752 22.3704 47.873 22.0933C48.1039 21.4114 48.3872 20.7485 48.7205 20.1103C48.9951 19.525 49.3003 18.9545 49.6351 18.4014C49.6667 18.3642 49.6894 18.3203 49.7014 18.273C49.7134 18.2257 49.7145 18.1763 49.7045 18.1285ZM33.9101 35.6769C33.8645 35.6994 33.823 35.7295 33.7875 35.766C33.7043 35.8874 33.6303 36.0146 33.5563 36.1429C32.9128 37.264 32.178 38.3302 31.3594 39.3307C31.1848 39.5446 31.0218 39.7701 30.8657 39.999C30.335 40.776 29.795 41.5495 29.2851 42.3404C28.7752 43.1313 28.278 43.9753 27.7727 44.7916C27.7306 44.8516 27.7067 44.9226 27.7041 44.9958C27.7014 45.0691 27.72 45.1415 27.7577 45.2044C27.9589 45.601 28.1577 45.9965 28.485 46.3098C28.554 46.3713 28.6125 46.4435 28.6584 46.5237C29.0157 47.2175 29.6597 47.7123 29.9892 48.4257C29.9957 48.4434 30.0074 48.4587 30.0228 48.4697C30.0693 48.496 30.1202 48.5137 30.1731 48.5217C30.2575 48.5217 30.3026 48.4604 30.3165 48.3818C30.365 48.1101 30.3165 47.8303 30.3974 47.5574C30.5015 47.1851 30.5755 46.8035 30.6714 46.4277C31.0329 44.9963 31.4542 43.5822 31.9352 42.1855C32.2821 41.1911 32.6151 40.1944 32.8961 39.1792C33.0938 38.4681 33.3343 37.7697 33.5725 37.0714C33.6881 36.7395 33.8407 36.4239 33.9691 36.0966C34.0077 35.9946 34.0311 35.8875 34.0384 35.7787C34.0396 35.729 33.9841 35.6862 33.9101 35.6769ZM68.408 50.152C68.408 49.9925 68.4161 49.9 68.408 49.8051C68.351 49.0688 68.3436 48.3294 68.386 47.5921C68.3964 47.2787 68.4161 46.9654 68.4288 46.6521C68.438 46.4347 68.393 46.326 68.2993 46.3376C68.127 46.3584 68.1421 46.5179 68.0958 46.6289C68.0808 46.682 68.07 46.7361 68.0634 46.7908C67.8604 47.7285 67.5701 48.6452 67.1962 49.5288C67.099 49.7485 67.0216 49.9764 66.965 50.2098C66.845 50.7125 66.6785 51.2029 66.4678 51.6748C66.1706 52.3489 66.0342 53.0866 65.6445 53.7237C65.6364 53.7401 65.6305 53.7576 65.6272 53.7757C65.5297 54.1505 65.3844 54.5111 65.1948 54.8487C64.9635 55.2858 64.8618 55.7853 64.5727 56.1992C64.5265 56.2663 64.6294 56.3935 64.7149 56.3865C64.7699 56.386 64.8245 56.377 64.8768 56.3599C65.2537 56.2004 65.6561 56.1426 66.0504 56.0466C66.6054 55.9101 67.1569 55.761 67.7096 55.6188C67.8012 55.6042 67.8856 55.5602 67.9501 55.4935C68.0145 55.4267 68.0555 55.3408 68.0669 55.2488C68.1166 54.9586 68.1987 54.6706 68.2507 54.3839C68.3317 53.9306 68.4242 53.482 68.4068 53.0137C68.3733 52.0402 68.3363 51.062 68.408 50.152ZM59.6367 51.4655H59.6228C59.617 51.5757 59.617 51.6861 59.6228 51.7962C59.6335 51.8482 59.6637 51.8941 59.7072 51.9246C59.7388 51.9446 59.7769 51.9518 59.8136 51.9447C59.8504 51.9376 59.883 51.9168 59.9049 51.8864C60.3038 51.3961 60.8195 51.0261 61.2554 50.5752C62 49.8051 62.8152 49.1056 63.4985 48.2754C63.5332 48.2338 63.5749 48.1956 63.6142 48.1598C63.9784 47.7667 64.3495 47.3793 64.7034 46.9781C65.0815 46.5239 65.5007 46.1055 65.9556 45.7282C66.0533 45.6449 66.1431 45.5528 66.2238 45.453C66.2316 45.4372 66.2356 45.4198 66.2356 45.4021C66.2356 45.3845 66.2316 45.3671 66.2238 45.3513C66.2145 45.3361 66.2022 45.323 66.1877 45.3126C66.1732 45.3023 66.1568 45.295 66.1394 45.2911C66.0289 45.2801 65.9181 45.3093 65.8272 45.3732C65.2362 45.6811 64.5968 45.8856 63.9368 45.978C63.7366 46.0119 63.5385 46.0575 63.3436 46.1144C62.8464 46.2531 62.35 46.3965 61.8544 46.5445C61.0765 46.7808 60.33 47.1101 59.6309 47.525C59.5221 47.5754 59.433 47.6603 59.3774 47.7665C59.3218 47.8727 59.3028 47.9943 59.3233 48.1124C59.3707 48.5749 59.3881 49.0374 59.4054 49.4999C59.4176 49.9982 59.4776 50.4942 59.5846 50.9811C59.6121 51.1413 59.6294 51.3031 59.6367 51.4655Z"/>
</mask>
<path d="M69.2729 48.8501C69.2729 49.8664 69.2729 50.8828 69.2729 51.8991C69.2729 52.3616 69.3064 52.8241 69.3075 53.2866C69.3062 53.5086 69.2845 53.73 69.2428 53.948C69.1191 54.6001 68.993 55.2522 68.8474 55.8997C68.7756 56.1491 68.6532 56.3809 68.4878 56.5808C68.1594 57.0271 67.8426 57.4838 67.498 57.9162C66.7977 58.8234 66.1443 59.7658 65.5405 60.7398C64.9115 61.7191 64.2767 62.6939 63.5818 63.6304C62.5897 64.9659 61.7168 66.3835 60.8403 67.7929C59.8367 69.4117 58.8319 71.0304 57.6907 72.5544C57.1924 73.2204 56.6501 73.8494 56.1957 74.5512C55.488 75.6566 54.77 76.7481 54.0774 77.8685C53.8751 78.1945 53.6473 78.3668 53.2495 78.4085C52.424 78.4963 51.6042 78.6397 50.7833 78.7727C50.4572 78.8247 50.123 78.8374 49.8097 78.9704C49.5969 79.0606 49.4154 78.9704 49.2605 78.8131C49.0766 78.6316 48.8997 78.4431 48.7055 78.272C47.9238 77.5841 47.0185 77.0776 46.1305 76.548C45.9397 76.4324 45.7478 76.3168 45.5524 76.2278C45.2483 76.0856 45.1257 75.8451 45.1014 75.5236C45.0683 75.0611 45.0259 74.6013 44.9742 74.1442C44.9396 73.832 44.8667 73.5245 44.9349 73.2088C44.9355 73.1543 44.9232 73.1004 44.8991 73.0516C44.8918 73.0348 44.8808 73.0199 44.8671 73.0079C44.8533 72.9959 44.837 72.9871 44.8195 72.9821C44.8019 72.9772 44.7834 72.9761 44.7654 72.9791C44.7474 72.9822 44.7303 72.9891 44.7152 72.9995C44.6697 73.0332 44.6306 73.0747 44.5996 73.1221C44.2527 73.8979 43.6399 74.4749 43.1289 75.127C42.7415 75.6207 42.3195 76.0821 41.9021 76.5573C41.7856 76.6764 41.6902 76.8144 41.62 76.9655C41.5228 77.1967 41.3378 77.2742 41.0846 77.2638C39.9029 77.2129 38.7201 77.2638 37.5384 77.2996C37.2982 77.2981 37.059 77.3316 36.8285 77.399C36.7154 77.4383 36.5942 77.4476 36.4764 77.4261C36.3587 77.4047 36.2486 77.3531 36.1567 77.2765C35.552 76.8515 34.9707 76.3941 34.4154 75.9063C34.331 75.8335 34.25 75.7583 34.1679 75.6832C33.9506 75.4831 33.68 75.3155 33.5331 75.0727C33.3863 74.8299 33.325 74.4853 33.2476 74.1824C32.7457 72.2329 32.2474 70.2827 31.7525 68.3317C31.275 66.4517 30.7928 64.5739 30.3292 62.6904C30.0736 61.6498 29.847 60.6034 29.6146 59.557C29.2874 58.0793 28.9463 56.6039 28.6503 55.1193C28.3716 53.7248 28.1531 52.3177 27.8872 50.9198C27.7322 50.1104 27.5634 49.2918 27.3484 48.4916C27.0709 47.458 26.8512 46.4104 26.5991 45.3698C26.5662 45.2735 26.5614 45.17 26.5851 45.0711C26.6089 44.9722 26.6603 44.8821 26.7332 44.8113C26.8211 44.7173 26.8948 44.611 26.9518 44.4956C27.7993 42.8896 28.8087 41.3876 29.8667 39.9157C30.8587 38.534 31.8681 37.1662 32.8371 35.7683C33.6465 34.5993 34.4281 33.4084 35.034 32.1122C35.0651 32.0451 35.1039 31.9819 35.1496 31.9237C35.1917 31.8748 35.2439 31.8356 35.3025 31.8087C35.3612 31.7818 35.425 31.7679 35.4895 31.7679C35.5541 31.7679 35.6178 31.7818 35.6765 31.8087C35.7352 31.8356 35.7873 31.8748 35.8295 31.9237C35.8782 31.9791 35.9155 32.0435 35.9393 32.1134C36.211 33.058 36.8088 33.8235 37.3361 34.6213C37.7141 35.1925 38.0888 35.7636 38.4079 36.3684C38.7617 37.039 39.1595 37.683 39.5526 38.334C39.7919 38.7283 39.9897 39.1434 40.207 39.5538C40.254 39.6529 40.3089 39.7481 40.3712 39.8383C40.3906 39.8559 40.414 39.8685 40.4394 39.8752C40.4647 39.8818 40.4913 39.8823 40.5169 39.8764C40.5412 39.8653 40.563 39.8493 40.5809 39.8294C40.5988 39.8095 40.6125 39.7862 40.621 39.7608C40.636 39.7071 40.636 39.6503 40.621 39.5966C40.4302 38.7791 40.4522 37.9443 40.4244 37.1141C40.3816 35.8215 40.3516 34.5288 40.325 33.2349C40.3053 32.3296 40.2995 31.4242 40.2891 30.5189C40.3007 30.4272 40.3007 30.3343 40.2891 30.2426C40.1596 29.7986 40.3539 29.4656 40.6152 29.1291C41.3089 28.2388 41.9749 27.3311 42.6641 26.4385C43.004 25.9991 43.3139 25.5401 43.6133 25.0741C44.7314 23.3316 45.8692 21.6054 47.0624 19.9115C47.9382 18.6511 48.8986 17.4516 49.9369 16.3213C50.1381 16.1051 50.345 15.8946 50.5462 15.6784C50.9116 15.283 51.1868 15.2922 51.4712 15.7478C51.9104 16.4325 52.3976 17.0851 52.9293 17.7007C53.7814 18.724 54.6972 19.6895 55.6199 20.6503C56.7842 21.8632 57.959 23.0669 58.9984 24.3942C59.5338 25.0776 60.1015 25.7366 60.668 26.3946C60.7425 26.4751 60.7994 26.5702 60.8351 26.6739C60.8707 26.7777 60.8843 26.8877 60.875 26.997C60.8126 27.826 60.7594 28.6562 60.6935 29.4852C60.6854 29.6008 60.6669 29.7061 60.66 29.8159C60.5721 31.1618 60.485 32.508 60.3986 33.8547C60.283 35.5891 60.1766 37.3234 60.0518 39.0578C59.9142 40.9564 59.7708 42.8538 59.6066 44.7489C59.5604 45.2796 59.5985 45.8242 59.4158 46.341C59.3996 46.3946 59.4021 46.4521 59.4228 46.5041C59.4276 46.5218 59.436 46.5383 59.4475 46.5526C59.4591 46.5669 59.4734 46.5787 59.4897 46.5871C59.506 46.5956 59.5239 46.6006 59.5422 46.6018C59.5605 46.6031 59.5789 46.6005 59.5962 46.5942C59.632 46.5853 59.666 46.5705 59.6968 46.5503C60.1789 46.1502 60.7686 45.9826 61.3433 45.7802C62.3203 45.4334 63.339 45.2437 64.338 44.9813C65.3613 44.713 66.3533 44.3731 67.239 43.7718C67.5011 43.5984 67.7465 43.401 67.9721 43.1821C68.0606 43.0881 68.1573 43.0022 68.2611 42.9255C68.3387 42.8735 68.4315 42.8493 68.5245 42.8568C68.6175 42.8644 68.7053 42.9033 68.7734 42.9671C68.9141 43.0874 69.0129 43.2494 69.0555 43.4296C69.1435 43.7697 69.1912 44.119 69.1977 44.4702C69.2255 45.8577 69.2463 47.2452 69.2694 48.6258C69.2694 48.6998 69.2694 48.7738 69.2694 48.8478L69.2729 48.8501ZM46.1906 68.1733H46.1675C46.1675 68.3213 46.1606 68.4693 46.1675 68.615C46.1743 68.6395 46.186 68.6624 46.2019 68.6823C46.2178 68.7022 46.2376 68.7186 46.26 68.7306C46.3375 68.7734 46.4011 68.7214 46.4473 68.6613C46.4802 68.6172 46.5056 68.568 46.5225 68.5156C46.6707 68.0967 46.8646 67.6954 47.1006 67.3189C47.4001 66.8101 47.6787 66.2886 47.9747 65.7764C48.8997 64.1762 49.812 62.5713 50.7497 60.978C51.9191 58.9869 53.0992 57.0024 54.2902 55.0245C54.6 54.5088 54.8683 53.9954 54.7712 53.3687C54.7689 53.3503 54.7689 53.3316 54.7712 53.3132C54.8556 52.3188 54.9492 51.3268 54.9897 50.3289C55.014 49.7392 55.066 49.1496 55.1053 48.5599C55.1654 47.7308 55.2337 46.903 55.2892 46.0739C55.3817 44.6864 55.4638 43.3082 55.5539 41.9265C55.6175 40.9494 55.6881 39.9724 55.7551 38.9954C55.806 38.2403 55.8557 37.4841 55.9089 36.7291C55.9598 36.0099 56.0107 35.2907 56.0685 34.5727C56.1344 33.746 56.1286 32.9123 56.2882 32.0937C56.3275 31.8879 56.2211 31.8023 55.9933 31.8382C55.8476 31.8613 55.7031 31.8902 55.5563 31.9052C54.1052 32.0567 52.6529 32.2036 51.2018 32.3573C49.6224 32.525 48.0453 32.7135 46.4612 32.8615C45.9663 32.9077 45.4714 32.9863 44.9696 32.9597C44.7083 32.947 44.6517 33.0222 44.6517 33.287C44.6517 34.1183 44.6517 34.9496 44.6424 35.781C44.632 36.5383 44.6158 37.2968 44.5857 38.053C44.5395 39.2532 44.4701 40.4522 44.4285 41.6524C44.395 42.759 44.3984 43.8678 44.3788 44.9755C44.3398 46.0823 44.3599 47.1904 44.4389 48.2951C44.5414 49.4513 44.6401 50.6111 44.7349 51.7742C44.8505 53.2276 44.9662 54.6834 45.0818 56.1379C45.172 57.2606 45.261 58.3845 45.3604 59.5061C45.4876 60.9236 45.6241 62.3389 45.7582 63.7553C45.8491 64.7296 45.9428 65.704 46.0392 66.6783C46.0877 67.1813 46.1386 67.6773 46.1906 68.1733ZM43.5486 48.0661C43.5486 47.8569 43.5486 47.7262 43.5486 47.5979C43.5486 47.4695 43.6064 47.3192 43.4653 47.251C43.3243 47.1828 43.2422 47.3319 43.1612 47.4221C42.999 47.5995 42.8184 47.7592 42.6224 47.8985C40.9574 49.0975 39.2901 50.2931 37.5581 51.3938C37.4764 51.4366 37.4111 51.5051 37.3722 51.5887C37.3333 51.6723 37.3231 51.7663 37.343 51.8563C37.4147 52.4244 37.4787 52.9933 37.5349 53.563C37.6644 54.8684 37.7824 56.1749 37.9119 57.4803C37.9751 58.1248 38.0468 58.7672 38.1269 59.4078C38.2067 60.0495 38.2784 60.6947 38.3963 61.3295C38.6715 62.8187 38.9745 64.3034 39.2658 65.7891C39.4493 66.7141 39.642 67.6364 39.844 68.556C40.0983 69.7296 40.3874 70.8951 40.6175 72.0734C40.8487 73.2296 41.2303 74.3581 41.3251 75.5421C41.3237 75.5791 41.3353 75.6155 41.3579 75.6449C41.3805 75.6742 41.4127 75.6947 41.4488 75.7028C41.4855 75.7098 41.5235 75.7052 41.5575 75.6896C41.5914 75.6741 41.6197 75.6484 41.6385 75.6161C41.8596 75.275 42.1058 74.9507 42.375 74.646C43.2207 73.6661 43.9991 72.6301 44.7048 71.545C44.9442 71.1726 45.1454 70.7749 45.3489 70.3818C45.4651 70.1702 45.5132 69.9279 45.4865 69.688C45.357 68.6243 45.2263 67.5605 45.1199 66.4945C44.9662 64.9682 44.8286 63.4408 44.6921 61.9134C44.5326 60.1281 44.3784 58.3421 44.2296 56.5553C44.136 55.4511 44.0504 54.3457 43.9602 53.2404C43.8712 52.1535 43.7787 51.0666 43.6931 49.9797C43.6307 49.3126 43.5867 48.6501 43.5451 48.0661H43.5486ZM49.5345 77.8084C49.5839 77.8073 49.6316 77.7904 49.6708 77.7603C49.7099 77.7301 49.7383 77.6882 49.7519 77.6407C49.9963 77.1844 50.2869 76.7543 50.6191 76.3573C50.8367 76.1045 51.0219 75.8256 51.1706 75.5271C51.4443 74.9404 51.7755 74.3823 52.1592 73.8609C52.6557 73.1487 53.115 72.4111 53.5351 71.6513C54.4231 70.1147 55.3238 68.5861 56.3483 67.1362C56.9993 66.2112 57.6491 65.2943 58.3139 64.3878C59.3696 62.9586 60.3755 61.5029 61.223 59.9362C61.7491 58.9638 62.2833 57.9868 63.021 57.1462C63.1366 57.0178 63.0927 56.8895 62.9146 56.7912C61.8474 56.2061 60.971 55.391 60.1535 54.5065C59.905 54.2572 59.6967 53.9709 59.5361 53.6578C59.4366 53.4462 59.2829 53.4439 59.1672 53.6266C58.9996 53.8913 58.8354 54.1584 58.6643 54.4221C58.1821 55.1655 57.6664 55.8905 57.2189 56.6548C56.3044 58.2169 55.4175 59.7963 54.5353 61.3769C53.9051 62.5066 53.3004 63.6524 52.6067 64.7439C51.5568 66.3973 50.4861 68.0381 49.4143 69.6788C48.4255 71.1964 47.5482 72.7839 46.7896 74.4286C46.6358 74.764 46.5167 75.1143 46.3895 75.4612C46.3756 75.4908 46.3681 75.523 46.3675 75.5557C46.367 75.5883 46.3733 75.6208 46.3862 75.6508C46.3991 75.6809 46.4182 75.7079 46.4423 75.73C46.4664 75.7521 46.4949 75.7689 46.5259 75.7791C46.7292 75.8671 46.9276 75.9659 47.1202 76.0751C47.9065 76.592 48.7251 77.0672 49.4027 77.7344C49.4415 77.7653 49.4848 77.7903 49.531 77.8084H49.5345ZM39.1884 76.3746C39.4636 76.3746 39.8891 76.3746 40.3134 76.3746C40.6441 76.3746 40.688 76.3133 40.6025 75.9746C40.4776 75.4739 40.3504 74.9721 40.2394 74.4714C39.7619 72.3069 39.2809 70.1447 38.8195 67.9768C38.4229 66.1164 38.0448 64.2525 37.6633 62.3875C37.3973 61.0647 37.2597 59.7211 37.1094 58.3822C36.9291 56.7854 36.7868 55.184 36.6331 53.5849C36.5845 53.0704 36.5544 52.5536 36.5174 52.0379C36.4989 51.8066 36.4504 51.7442 36.218 51.7234C35.7768 51.676 35.3402 51.5929 34.9126 51.4748C33.6996 51.1626 32.4613 50.9313 31.3085 50.4122C31.291 50.4059 31.2727 50.402 31.2542 50.4006C31.2316 50.3971 31.2086 50.3987 31.1867 50.4053C31.1649 50.4119 31.1448 50.4233 31.1281 50.4388C31.1113 50.4543 31.0982 50.4733 31.0898 50.4945C31.0814 50.5157 31.0779 50.5386 31.0796 50.5613C31.0886 50.6531 31.1096 50.7433 31.142 50.8296C31.258 51.1218 31.3402 51.4264 31.3871 51.7372C31.5953 52.8241 31.7895 53.9145 31.9942 55.0036C32.1954 56.0743 32.3653 57.152 32.6128 58.2111C33.0649 60.1536 33.5574 62.0857 34.0431 64.0201C34.3761 65.3451 34.7264 66.6656 35.0652 67.9895C35.3392 69.0625 35.619 70.1343 35.8746 71.2108C36.0434 71.9046 36.2677 72.5983 36.3371 73.3186C36.366 73.6146 36.3995 73.6285 36.729 73.5314C36.7649 73.521 36.7984 73.506 36.8342 73.499C36.9672 73.4701 37.099 73.4666 37.1811 73.595C37.2148 73.6507 37.2335 73.7141 37.2354 73.7792C37.2372 73.8443 37.2221 73.9087 37.1915 73.9661C37.1661 74.0253 37.1206 74.0736 37.0631 74.1026C37.0056 74.1315 36.9397 74.1393 36.877 74.1246C36.8238 74.113 36.7753 74.076 36.7221 74.0656C36.6727 74.0483 36.6189 74.0483 36.5695 74.0656C36.5409 74.0895 36.5221 74.1232 36.5168 74.1601C36.5114 74.197 36.5199 74.2346 36.5406 74.2656C36.6957 74.6419 36.7969 75.0381 36.8412 75.4427C36.8793 75.6982 36.8863 75.9572 36.9152 76.215C36.9372 76.4047 37.0308 76.5018 37.2042 76.4683C37.8159 76.3503 38.4276 76.4128 39.1849 76.3746H39.1884ZM55.6071 31.0034V31.0276C55.6996 31.0276 55.7921 31.0276 55.8846 31.0276C56.087 31.0184 56.1772 30.9051 56.0823 30.7467C55.8627 30.3767 55.7517 29.9651 55.6025 29.5685C55.0568 28.1178 54.5106 26.6659 53.9641 25.2129C53.2195 23.2241 52.4768 21.2342 51.736 19.2431C51.5256 18.6743 51.2261 18.132 51.1671 17.5088C51.1673 17.4902 51.1616 17.472 51.1509 17.4567C51.1139 17.4174 51.0781 17.3596 51.0353 17.3492C50.9991 17.3416 50.9613 17.348 50.9296 17.3671C50.8978 17.3862 50.8745 17.4165 50.8642 17.4521C50.774 17.6938 50.7023 17.9447 50.5959 18.1794C49.7773 19.9785 48.946 21.7719 48.132 23.5721C47.7435 24.4301 47.3469 25.288 47.0231 26.1714C46.6358 27.2282 46.3294 28.3162 45.9732 29.3835C45.6911 30.2206 45.4761 31.0855 45.0344 31.8648C45.0134 31.8906 45.0012 31.9224 44.9995 31.9556C44.9977 31.9888 45.0065 32.0217 45.0246 32.0495C45.0427 32.0774 45.0692 32.0988 45.1003 32.1107C45.1313 32.1226 45.1653 32.1243 45.1974 32.1157C45.4714 32.0845 45.7432 32.0243 46.0183 32.0001C46.9746 31.9099 47.9331 31.844 48.887 31.7411C50.5959 31.5572 52.3026 31.3502 54.0092 31.1629C54.5399 31.0993 55.0741 31.0554 55.6071 31.0034ZM67.2749 56.8039C67.2922 56.6964 67.2529 56.6513 67.1997 56.6386C67.0896 56.6239 66.9778 56.645 66.8806 56.6987C66.5383 56.8387 66.1838 56.9463 65.8215 57.0201C65.3312 57.1115 64.8456 57.241 64.3519 57.293C64.2051 57.305 64.0633 57.3523 63.9387 57.4308C63.8141 57.5093 63.7103 57.6167 63.6361 57.744C63.391 58.1128 63.1285 58.4712 62.9008 58.8516C62.5007 59.5165 62.1261 60.1964 61.7329 60.8647C61.3676 61.4856 61.0265 62.1238 60.6149 62.7147C59.5742 64.1993 58.5047 65.6573 57.4514 67.1304C56.6451 68.2581 55.8858 69.4167 55.1735 70.6061C54.5665 71.6201 53.9722 72.6422 53.3548 73.6493C52.824 74.5165 52.2633 75.3629 51.7476 76.2405C51.4689 76.7146 51.1694 77.1875 50.7532 77.5667C50.7035 77.6207 50.6643 77.6834 50.6376 77.7517C50.6302 77.7874 50.6369 77.8245 50.6563 77.8553C50.6757 77.8861 50.7063 77.9083 50.7416 77.9171C50.7963 77.9259 50.8521 77.9235 50.9058 77.9101C51.2885 77.7633 51.6944 77.7193 52.0933 77.6488C52.3835 77.5979 52.6795 77.576 52.9732 77.5459C53.0649 77.5395 53.1535 77.5098 53.2306 77.4596C53.3077 77.4094 53.3707 77.3404 53.4137 77.2591C53.8346 76.5654 54.2613 75.8716 54.7029 75.1906C55.266 74.3234 55.8349 73.4562 56.4824 72.6469C56.8678 72.172 57.2317 71.6829 57.5739 71.1796C58.5163 69.8094 59.4066 68.4046 60.2842 66.9928C61.0334 65.7834 61.778 64.5705 62.6221 63.4246C63.258 62.5609 63.8593 61.6741 64.4536 60.7826C65.3335 59.4621 66.0805 58.0481 67.2182 56.9115C67.2453 56.8806 67.2647 56.8437 67.2749 56.8039ZM37.2054 50.0156H37.1881C37.1881 50.1312 37.1811 50.2376 37.1881 50.3474C37.192 50.4006 37.2155 50.4504 37.254 50.4873C37.2843 50.509 37.3213 50.5193 37.3584 50.5166C37.3956 50.5139 37.4306 50.4982 37.4575 50.4723C37.661 50.3127 37.8529 50.1393 38.0645 49.9913C39.0912 49.2686 40.1296 48.5599 41.1517 47.8291C41.7992 47.3666 42.4236 46.8787 43.0583 46.3977C43.2191 46.2751 43.2295 46.1861 43.1335 46.0173C43.0179 45.808 42.8942 45.601 42.7727 45.3929C42.3102 44.5962 41.8477 43.795 41.3667 43.0052C40.6175 41.7738 39.8451 40.5575 39.0993 39.3237C38.3536 38.09 37.6112 36.8124 36.8712 35.5544C36.6932 35.2514 36.5244 34.9427 36.3532 34.6386C36.3099 34.5581 36.2608 34.4809 36.2064 34.4074C36.1897 34.3855 36.1664 34.3698 36.1399 34.3626C36.1134 34.3554 36.0852 34.3572 36.0598 34.3676C36.0344 34.378 36.0132 34.3965 35.9993 34.4202C35.9855 34.4439 35.9798 34.4715 35.9832 34.4987C35.9828 34.5907 35.9917 34.6825 36.0098 34.7727C36.1391 35.3504 36.2043 35.9406 36.2041 36.5326C36.2087 36.7916 36.2195 37.0502 36.2365 37.3084C36.292 38.1756 36.359 39.0428 36.4099 39.9088C36.4677 40.9043 36.5116 41.901 36.5637 42.8977C36.5637 42.9902 36.5776 43.0816 36.5856 43.1741C36.6851 44.2216 36.7868 45.2703 36.8851 46.3179C36.9491 46.9978 37.0104 47.6784 37.069 48.3598C37.1187 48.9102 37.1603 49.4629 37.2054 50.0156ZM56.5148 41.1275C56.5148 41.1853 56.5055 41.2963 56.4974 41.4073C56.4339 42.2918 56.3668 43.1764 56.3055 44.0609C56.2284 45.1493 56.1548 46.2373 56.0847 47.325C56.0396 48.0072 56.0118 48.6905 55.9609 49.3727C55.8916 50.2977 55.8754 51.2227 55.6615 52.1246C55.6454 52.1778 55.6419 52.234 55.6511 52.2888C55.667 52.3384 55.6976 52.382 55.7389 52.4136C55.7625 52.4287 55.791 52.434 55.8185 52.4284C55.8459 52.4228 55.87 52.4067 55.8858 52.3836C55.9534 52.2966 56.009 52.2009 56.0511 52.0991C56.2392 51.636 56.4602 51.187 56.7125 50.7556C57.2802 49.715 57.8306 48.6743 58.3868 47.6268C58.4596 47.4978 58.5038 47.3546 58.5163 47.2071C58.5463 46.8024 58.5903 46.3977 58.6226 45.993C58.7383 44.4818 58.8678 42.9717 58.9834 41.4605C59.0882 40.0784 59.188 38.6959 59.2829 37.313C59.3777 35.9255 59.4609 34.5473 59.5511 33.1644C59.6135 32.2244 59.676 31.2832 59.7454 30.3431C59.787 29.7731 59.787 29.1973 59.9454 28.64C59.9566 28.586 59.9585 28.5305 59.9512 28.4758C59.9512 28.4215 59.9304 28.3602 59.8679 28.3498C59.8162 28.3364 59.7613 28.343 59.7141 28.3683C59.6462 28.4293 59.5874 28.4998 59.5395 28.5776C59.3765 28.8467 59.185 29.0975 58.9684 29.3256C58.3787 29.9153 57.8849 30.5871 57.3415 31.2173C57.0999 31.4959 57.1103 31.8243 57.064 32.1504C57.0559 32.2128 57.1727 32.266 57.234 32.2371C57.2837 32.2141 57.3309 32.1862 57.375 32.1538C57.708 31.8902 58.0387 31.6231 58.3717 31.3595C58.4292 31.314 58.4917 31.2752 58.5579 31.2439C58.619 31.2202 58.6864 31.2175 58.7492 31.2364C58.812 31.2552 58.8668 31.2945 58.9048 31.3479C58.9445 31.3999 58.9644 31.4643 58.9608 31.5296C58.9572 31.5949 58.9303 31.6568 58.8851 31.7041C58.8081 31.7831 58.7228 31.8537 58.6307 31.9145C58.2957 32.1455 57.977 32.3993 57.6768 32.6741C57.5783 32.7853 57.4609 32.8781 57.33 32.9482C57.0016 33.0707 56.9565 33.3216 56.9646 33.6153C56.9624 33.6476 56.9699 33.6797 56.9861 33.7077C57.0023 33.7356 57.0264 33.7581 57.0553 33.7724C57.0843 33.7866 57.1169 33.792 57.1489 33.7877C57.1809 33.7834 57.2109 33.7697 57.2351 33.7483C57.3126 33.6986 57.3797 33.6327 57.4537 33.5795C57.708 33.3945 57.9624 33.2095 58.2214 33.0314C58.3115 32.9682 58.4095 32.9169 58.5128 32.8788C58.5748 32.8578 58.6423 32.86 58.7027 32.8852C58.7631 32.9103 58.8123 32.9565 58.8412 33.0152C58.8691 33.0738 58.8785 33.1394 58.8682 33.2035C58.8579 33.2675 58.8283 33.3269 58.7834 33.3737C58.7261 33.4195 58.6636 33.4583 58.5972 33.4893C58.2155 33.682 57.8648 33.9306 57.5566 34.227C57.3681 34.4016 57.1033 34.5265 56.9877 34.7369C56.8721 34.9473 56.8998 35.2376 56.8594 35.4908C56.842 35.6006 56.8119 35.707 56.7865 35.8157C56.7744 35.8507 56.7736 35.8886 56.7842 35.924C56.7948 35.9595 56.8162 35.9908 56.8455 36.0134C56.9438 36.0862 57.0143 36.0134 57.0837 35.9533C57.1118 35.9294 57.1377 35.9031 57.1611 35.8746C57.5254 35.4422 58.0353 35.1971 58.47 34.856C58.4977 34.8307 58.5306 34.8117 58.5664 34.8004C58.6022 34.7891 58.64 34.7858 58.6772 34.7906C58.7144 34.7955 58.7502 34.8084 58.7819 34.8285C58.8136 34.8485 58.8405 34.8753 58.8608 34.9069C58.9098 34.9633 58.9352 35.0365 58.9317 35.1112C58.9283 35.1859 58.8963 35.2563 58.8423 35.3081C58.7962 35.3643 58.7406 35.412 58.6781 35.4491C58.233 35.6584 57.9023 36.0099 57.5531 36.3406C57.3808 36.5048 57.2201 36.6944 56.9657 36.7407C56.8108 36.7673 56.7564 36.8667 56.7495 37.0147C56.7414 37.1801 56.7171 37.3442 56.709 37.5107C56.7056 37.5384 56.7122 37.5664 56.7277 37.5895C56.7432 37.6127 56.7666 37.6295 56.7934 37.6368C56.8457 37.6485 56.9004 37.6407 56.9472 37.6148C57.1022 37.4841 57.2455 37.3396 57.3958 37.2032C57.4818 37.1055 57.593 37.0335 57.7173 36.9951C57.7709 36.9795 57.8278 36.9799 57.8812 36.9961C57.9345 37.0123 57.982 37.0437 58.0179 37.0864C58.0578 37.1379 58.0794 37.2011 58.0794 37.2662C58.0794 37.3313 58.0578 37.3945 58.0179 37.446C57.9695 37.5016 57.913 37.5495 57.8503 37.5882C57.6101 37.7288 57.4015 37.9173 57.2374 38.1421C57.0802 38.356 56.7599 38.4138 56.6767 38.6543C56.5934 38.8948 56.6362 39.1653 56.6165 39.422C56.6073 39.5469 56.5009 39.6764 56.5923 39.7932C56.7322 39.9631 56.8536 39.7712 56.9819 39.7435C57.0344 39.725 57.0916 39.7252 57.1439 39.7442C57.1962 39.7632 57.2403 39.7997 57.2687 39.8475C57.2972 39.896 57.3094 39.9524 57.3036 40.0084C57.2978 40.0643 57.2742 40.1169 57.2363 40.1586C57.1874 40.2141 57.1305 40.262 57.0675 40.3008C56.9449 40.384 56.8212 40.4638 56.6929 40.532C56.6343 40.5606 56.5857 40.606 56.5534 40.6625C56.521 40.719 56.5064 40.7839 56.5113 40.8488C56.5067 40.9275 56.5113 41.0015 56.5171 41.1275H56.5148ZM36.1023 75.8936C36.0815 75.8277 36.0526 75.741 36.0283 75.6543C35.9543 75.3872 35.8722 75.1224 35.8098 74.853C35.5866 73.9002 35.3866 72.9406 35.1496 71.9913C34.5981 69.7944 34.0326 67.5883 33.4696 65.3879C33.0614 63.7958 32.6324 62.2094 32.2358 60.6138C31.7282 58.5695 31.3733 56.4929 30.9813 54.4244C30.7165 53.0276 30.4356 51.6332 30.1719 50.2376C30.1326 49.9816 30.0197 49.7426 29.847 49.5496C29.6158 49.3068 29.4204 49.0397 29.2099 48.7819C28.8289 48.3053 28.49 47.7966 28.197 47.2614C28.1242 47.1319 27.9797 47.066 27.9311 47.1238C27.9021 47.16 27.8833 47.2034 27.8766 47.2493C27.8699 47.2952 27.8755 47.3421 27.893 47.3851C27.9323 47.5088 27.982 47.6279 28.0236 47.7505C28.0953 47.9598 28.1681 48.1691 28.2317 48.3818C28.5786 49.5381 28.7752 50.7197 28.9775 51.9026C29.2088 53.2496 29.4527 54.5932 29.7256 55.9321C30.2297 58.3938 30.8125 60.8369 31.3987 63.2789C31.9456 65.559 32.5399 67.8276 33.1169 70.1008C33.4765 71.5137 33.8453 72.9255 34.2026 74.3408C34.2327 74.5039 34.3215 74.6504 34.4524 74.7524C34.914 75.0942 35.3401 75.4816 35.7242 75.9086C35.7733 75.9634 35.8336 76.0068 35.9011 76.0358C35.9521 76.0483 36.0058 76.0422 36.0526 76.0185C36.07 76.0046 36.0757 75.9526 36.1023 75.8936ZM45.7177 72.9001H45.7651C45.7651 73.2689 45.7651 73.6389 45.7651 74.0089C45.7651 74.1696 45.8345 74.2621 45.9235 74.2541C46.0392 74.2448 46.0704 74.1569 46.1016 74.0702C46.1288 74.0016 46.1516 73.9313 46.1698 73.8598C46.2832 73.411 46.455 72.9791 46.6809 72.5752C47.5249 70.9715 48.4927 69.4406 49.4859 67.9259C50.2768 66.7211 51.0862 65.5267 51.8297 64.293C52.7165 62.8211 53.5409 61.3121 54.3919 59.8194C55.1053 58.5672 55.8025 57.3057 56.5356 56.0651C57.1934 54.9504 57.9181 53.8765 58.7059 52.8496C58.84 52.6738 58.9129 52.5085 58.8574 52.2911C58.8384 52.2007 58.8253 52.1091 58.818 52.0171C58.7163 51.2296 58.5787 50.4446 58.6284 49.6444C58.6295 49.571 58.6202 49.4978 58.6007 49.4271C58.587 49.3945 58.5613 49.3684 58.529 49.3542C58.5059 49.339 58.4777 49.3333 58.4505 49.3385C58.4233 49.3437 58.3992 49.3593 58.3833 49.382C58.3303 49.4563 58.2878 49.5376 58.2573 49.6236C58.155 49.9206 58.0269 50.208 57.8745 50.4827C57.4837 51.1961 57.1056 51.9153 56.6998 52.6195C55.8129 54.155 54.9134 55.6835 54.0161 57.2144C53.2029 58.6019 52.3885 59.9894 51.573 61.3769C50.6838 62.8904 49.7808 64.3959 48.9136 65.9198C48.0244 67.475 47.1653 69.0486 46.2958 70.6153C46.0993 70.9703 45.8333 71.3091 45.7408 71.6918C45.6483 72.0745 45.7177 72.4931 45.7177 72.9001ZM35.293 36.2909H35.3219C35.3219 36.0516 35.3219 35.8111 35.3219 35.5717C35.3202 35.4801 35.3109 35.3889 35.2941 35.2988C35.2941 35.2711 35.2513 35.2422 35.2224 35.2271C35.1978 35.2153 35.1699 35.2124 35.1434 35.2192C35.1169 35.226 35.0937 35.2419 35.0779 35.2641C35.029 35.3418 34.9902 35.4253 34.9623 35.5127C34.8675 35.8307 34.7923 36.1545 34.6871 36.4701C34.3564 37.468 34.0303 38.467 33.7459 39.4764C33.5066 40.3285 33.2325 41.1726 32.9365 42.0074C32.1144 44.3419 31.4184 46.7099 30.9709 49.1461C30.9362 49.3334 30.9859 49.4282 31.1628 49.4849C31.5849 49.619 32.0104 49.7404 32.4289 49.8826C33.6546 50.2954 34.9287 50.5243 36.1763 50.8527C36.2075 50.8621 36.2405 50.863 36.2721 50.8554C36.3037 50.8479 36.3328 50.8321 36.3563 50.8096C36.3798 50.7872 36.3969 50.7589 36.4059 50.7277C36.4149 50.6964 36.4155 50.6634 36.4076 50.6319C36.3388 50.2888 36.2975 49.9408 36.2839 49.5912C36.1821 48.3263 36.0734 47.0583 35.9578 45.7872C35.8722 44.8506 35.7659 43.9152 35.6872 42.9786C35.6283 42.2606 35.5982 41.5414 35.5577 40.8234C35.53 40.3436 35.5115 39.8649 35.4826 39.385C35.4217 38.3536 35.3585 37.3223 35.293 36.2909ZM63.554 56.19C63.6028 56.1896 63.6501 56.1739 63.6894 56.145C63.7286 56.1161 63.7577 56.0756 63.7726 56.0292C63.894 55.7402 64.0038 55.4511 64.1391 55.1621C64.5785 54.2243 64.96 53.2623 65.3162 52.2922C65.8619 50.8007 66.3568 49.286 66.876 47.7898C67.1535 46.9874 67.357 46.1583 67.7455 45.3964C67.7739 45.3291 67.7929 45.2583 67.8021 45.1859C67.8125 45.1293 67.6865 45.0483 67.6426 45.0819C67.5636 45.1271 67.4928 45.1854 67.4333 45.2541C67.0552 45.8068 66.5823 46.2751 66.1267 46.7573C64.886 48.0777 63.6986 49.4479 62.3943 50.707C61.6775 51.4008 61.0068 52.1361 60.1743 52.7073C60.0286 52.8079 60.0136 52.9386 60.1408 53.0877C60.5455 53.5676 60.927 54.0659 61.3791 54.5076C62.0047 55.1181 62.7412 55.5841 63.4188 56.1264C63.4606 56.1538 63.5062 56.1753 63.554 56.19ZM52.4748 18.4823C52.3951 18.5055 52.3511 18.5552 52.3592 18.6061C52.3813 18.7133 52.4167 18.8174 52.4644 18.9159C52.7234 19.4466 52.9755 19.9808 53.1813 20.5347C53.8612 22.3708 54.5688 24.1954 55.2337 26.0373C55.7332 27.4248 56.3333 28.7811 56.7264 30.209C56.7324 30.2455 56.7507 30.2788 56.7783 30.3034C56.8058 30.328 56.841 30.3424 56.8779 30.3443C56.9319 30.3372 56.983 30.3156 57.0259 30.2819C57.0536 30.2575 57.0754 30.227 57.0894 30.1928C57.295 29.8408 57.544 29.516 57.8306 29.2262C58.4769 28.5163 59.077 27.7636 59.7904 27.1161C59.9315 26.9877 59.9315 26.8848 59.8032 26.7356C59.5719 26.4697 59.3337 26.213 59.1094 25.9401C58.3 24.9319 57.4768 23.9317 56.5876 22.9894C55.8765 22.2367 55.1608 21.4863 54.4509 20.737C53.8728 20.1196 53.268 19.5137 52.8021 18.7957C52.7413 18.7035 52.672 18.6172 52.5951 18.5378C52.559 18.5118 52.5181 18.4929 52.4748 18.4823ZM43.6654 38.5595C43.6885 38.1791 43.7209 37.8299 43.729 37.4795C43.7648 35.9856 43.7937 34.4918 43.8272 32.9979C43.8331 32.9335 43.8209 32.8687 43.7918 32.8109C43.7628 32.753 43.7182 32.7045 43.6631 32.6707C43.6006 32.6314 43.5324 32.6001 43.47 32.5608C42.7531 32.1122 41.9796 31.7434 41.3887 31.1074C41.367 31.0773 41.3358 31.0555 41.3001 31.0454C41.2644 31.0353 41.2264 31.0376 41.1922 31.0519C41.0869 31.0993 41.0858 31.1976 41.0973 31.2832C41.1274 31.5387 41.2049 31.7861 41.2014 32.0486C41.191 33.1945 41.2153 34.338 41.265 35.4827C41.3421 37.3257 41.4107 39.17 41.4708 41.0153C41.477 41.3261 41.5682 41.6292 41.7344 41.8918C42.2698 42.7728 42.8826 43.6134 43.2445 44.5928C43.2666 44.6431 43.2998 44.6878 43.3416 44.7234C43.3547 44.7358 43.3705 44.745 43.3878 44.7503C43.405 44.7555 43.4233 44.7566 43.4411 44.7535C43.4862 44.735 43.5486 44.6991 43.5567 44.6598C43.5708 44.5704 43.5739 44.4795 43.5659 44.3893C43.5509 44.0204 43.5104 43.6516 43.5197 43.2839C43.5636 41.701 43.6168 40.1146 43.6654 38.5595ZM49.7045 18.1285C49.6813 18.1019 49.664 18.0649 49.6351 18.0511C49.6021 18.0377 49.5652 18.0377 49.5322 18.0511C49.3749 18.1297 49.3009 18.2823 49.2073 18.4211C48.3887 19.5842 47.6105 20.7752 46.7179 21.8898C46.6621 21.964 46.6104 22.0412 46.5629 22.1211C45.9351 23.1004 45.3015 24.0774 44.6817 25.0614C44.4861 25.3749 44.2714 25.6761 44.0388 25.9633C43.9325 26.0916 43.8261 26.22 43.7324 26.3564C42.967 27.4664 42.1588 28.5463 41.3355 29.6136C41.1968 29.7928 41.2014 29.8772 41.3864 30.0321C41.6558 30.2576 41.9368 30.468 42.2062 30.6923C42.7346 31.1306 43.3821 31.3861 43.9012 31.8416C44.0342 31.9573 44.1637 31.8995 44.2331 31.7098C44.3661 31.3456 44.5013 30.9826 44.6227 30.6137C45.0008 29.4575 45.3708 28.2954 45.7501 27.138C45.9235 26.6119 46.0819 26.0777 46.3005 25.5713C46.6878 24.6729 47.1179 23.7918 47.5261 22.9027C47.6593 22.6408 47.7752 22.3704 47.873 22.0933C48.1039 21.4114 48.3872 20.7485 48.7205 20.1103C48.9951 19.525 49.3003 18.9545 49.6351 18.4014C49.6667 18.3642 49.6894 18.3203 49.7014 18.273C49.7134 18.2257 49.7145 18.1763 49.7045 18.1285ZM33.9101 35.6769C33.8645 35.6994 33.823 35.7295 33.7875 35.766C33.7043 35.8874 33.6303 36.0146 33.5563 36.1429C32.9128 37.264 32.178 38.3302 31.3594 39.3307C31.1848 39.5446 31.0218 39.7701 30.8657 39.999C30.335 40.776 29.795 41.5495 29.2851 42.3404C28.7752 43.1313 28.278 43.9753 27.7727 44.7916C27.7306 44.8516 27.7067 44.9226 27.7041 44.9958C27.7014 45.0691 27.72 45.1415 27.7577 45.2044C27.9589 45.601 28.1577 45.9965 28.485 46.3098C28.554 46.3713 28.6125 46.4435 28.6584 46.5237C29.0157 47.2175 29.6597 47.7123 29.9892 48.4257C29.9957 48.4434 30.0074 48.4587 30.0228 48.4697C30.0693 48.496 30.1202 48.5137 30.1731 48.5217C30.2575 48.5217 30.3026 48.4604 30.3165 48.3818C30.365 48.1101 30.3165 47.8303 30.3974 47.5574C30.5015 47.1851 30.5755 46.8035 30.6714 46.4277C31.0329 44.9963 31.4542 43.5822 31.9352 42.1855C32.2821 41.1911 32.6151 40.1944 32.8961 39.1792C33.0938 38.4681 33.3343 37.7697 33.5725 37.0714C33.6881 36.7395 33.8407 36.4239 33.9691 36.0966C34.0077 35.9946 34.0311 35.8875 34.0384 35.7787C34.0396 35.729 33.9841 35.6862 33.9101 35.6769ZM68.408 50.152C68.408 49.9925 68.4161 49.9 68.408 49.8051C68.351 49.0688 68.3436 48.3294 68.386 47.5921C68.3964 47.2787 68.4161 46.9654 68.4288 46.6521C68.438 46.4347 68.393 46.326 68.2993 46.3376C68.127 46.3584 68.1421 46.5179 68.0958 46.6289C68.0808 46.682 68.07 46.7361 68.0634 46.7908C67.8604 47.7285 67.5701 48.6452 67.1962 49.5288C67.099 49.7485 67.0216 49.9764 66.965 50.2098C66.845 50.7125 66.6785 51.2029 66.4678 51.6748C66.1706 52.3489 66.0342 53.0866 65.6445 53.7237C65.6364 53.7401 65.6305 53.7576 65.6272 53.7757C65.5297 54.1505 65.3844 54.5111 65.1948 54.8487C64.9635 55.2858 64.8618 55.7853 64.5727 56.1992C64.5265 56.2663 64.6294 56.3935 64.7149 56.3865C64.7699 56.386 64.8245 56.377 64.8768 56.3599C65.2537 56.2004 65.6561 56.1426 66.0504 56.0466C66.6054 55.9101 67.1569 55.761 67.7096 55.6188C67.8012 55.6042 67.8856 55.5602 67.9501 55.4935C68.0145 55.4267 68.0555 55.3408 68.0669 55.2488C68.1166 54.9586 68.1987 54.6706 68.2507 54.3839C68.3317 53.9306 68.4242 53.482 68.4068 53.0137C68.3733 52.0402 68.3363 51.062 68.408 50.152ZM59.6367 51.4655H59.6228C59.617 51.5757 59.617 51.6861 59.6228 51.7962C59.6335 51.8482 59.6637 51.8941 59.7072 51.9246C59.7388 51.9446 59.7769 51.9518 59.8136 51.9447C59.8504 51.9376 59.883 51.9168 59.9049 51.8864C60.3038 51.3961 60.8195 51.0261 61.2554 50.5752C62 49.8051 62.8152 49.1056 63.4985 48.2754C63.5332 48.2338 63.5749 48.1956 63.6142 48.1598C63.9784 47.7667 64.3495 47.3793 64.7034 46.9781C65.0815 46.5239 65.5007 46.1055 65.9556 45.7282C66.0533 45.6449 66.1431 45.5528 66.2238 45.453C66.2316 45.4372 66.2356 45.4198 66.2356 45.4021C66.2356 45.3845 66.2316 45.3671 66.2238 45.3513C66.2145 45.3361 66.2022 45.323 66.1877 45.3126C66.1732 45.3023 66.1568 45.295 66.1394 45.2911C66.0289 45.2801 65.9181 45.3093 65.8272 45.3732C65.2362 45.6811 64.5968 45.8856 63.9368 45.978C63.7366 46.0119 63.5385 46.0575 63.3436 46.1144C62.8464 46.2531 62.35 46.3965 61.8544 46.5445C61.0765 46.7808 60.33 47.1101 59.6309 47.525C59.5221 47.5754 59.433 47.6603 59.3774 47.7665C59.3218 47.8727 59.3028 47.9943 59.3233 48.1124C59.3707 48.5749 59.3881 49.0374 59.4054 49.4999C59.4176 49.9982 59.4776 50.4942 59.5846 50.9811C59.6121 51.1413 59.6294 51.3031 59.6367 51.4655Z" fill="black" stroke="black" stroke-width="2" mask="url(#path-3-inside-1_34045_1759)"/>
<mask id="path-4-inside-2_34045_1759" fill="white">
<path d="M42.1901 51.2782C42.2405 51.2826 42.2888 51.3006 42.3298 51.3302C42.3709 51.3598 42.4032 51.3999 42.4233 51.4463C42.4434 51.4927 42.4507 51.5437 42.4442 51.5939C42.4377 51.6441 42.4179 51.6916 42.3866 51.7314C42.3108 51.8113 42.2235 51.8795 42.1276 51.9338C41.3876 52.4148 40.6457 52.8938 39.9018 53.371C39.5415 53.5938 39.2021 53.8488 38.8878 54.1329C38.8354 54.1847 38.7789 54.2322 38.719 54.2752C38.6504 54.3227 38.5673 54.3448 38.4841 54.3376C38.401 54.3304 38.3229 54.2944 38.2634 54.2358C38.2058 54.1638 38.1762 54.0733 38.18 53.9811C38.1838 53.8888 38.2209 53.8011 38.2843 53.734C38.335 53.6803 38.3908 53.6316 38.4508 53.5884C38.8701 53.2577 39.3125 52.9575 39.7747 52.69C40.5019 52.2945 41.2396 51.9153 41.8814 51.3823C41.9672 51.3095 42.0777 51.2723 42.1901 51.2782Z"/>
</mask>
<path d="M42.1901 51.2782C42.2405 51.2826 42.2888 51.3006 42.3298 51.3302C42.3709 51.3598 42.4032 51.3999 42.4233 51.4463C42.4434 51.4927 42.4507 51.5437 42.4442 51.5939C42.4377 51.6441 42.4179 51.6916 42.3866 51.7314C42.3108 51.8113 42.2235 51.8795 42.1276 51.9338C41.3876 52.4148 40.6457 52.8938 39.9018 53.371C39.5415 53.5938 39.2021 53.8488 38.8878 54.1329C38.8354 54.1847 38.7789 54.2322 38.719 54.2752C38.6504 54.3227 38.5673 54.3448 38.4841 54.3376C38.401 54.3304 38.3229 54.2944 38.2634 54.2358C38.2058 54.1638 38.1762 54.0733 38.18 53.9811C38.1838 53.8888 38.2209 53.8011 38.2843 53.734C38.335 53.6803 38.3908 53.6316 38.4508 53.5884C38.8701 53.2577 39.3125 52.9575 39.7747 52.69C40.5019 52.2945 41.2396 51.9153 41.8814 51.3823C41.9672 51.3095 42.0777 51.2723 42.1901 51.2782Z" fill="black"/>
<path d="M42.3866 51.7314L43.1116 52.4202L43.1443 52.3858L43.1736 52.3484L42.3866 51.7314ZM42.1276 51.9338L41.6348 51.0637L41.6082 51.0787L41.5827 51.0953L42.1276 51.9338ZM39.9018 53.371L40.4277 54.2216L40.4348 54.2172L40.4418 54.2127L39.9018 53.371ZM38.8878 54.1329L38.2171 53.3912L38.2011 53.4057L38.1856 53.421L38.8878 54.1329ZM38.719 54.2752L39.2883 55.0973L39.2949 55.0927L39.3014 55.088L38.719 54.2752ZM38.2634 54.2358L37.4823 54.8602L37.5194 54.9066L37.5617 54.9483L38.2634 54.2358ZM38.2843 53.734L37.5578 53.0468L37.5575 53.0472L38.2843 53.734ZM38.4508 53.5884L39.0355 54.3996L39.053 54.387L39.07 54.3736L38.4508 53.5884ZM39.7747 52.69L39.297 51.8114L39.2853 51.8178L39.2737 51.8245L39.7747 52.69ZM41.8814 51.3823L42.5203 52.1515L42.5277 52.1453L41.8814 51.3823ZM42.1027 52.2744C41.9737 52.2631 41.8501 52.2171 41.7451 52.1414L42.9145 50.5189C42.7274 50.384 42.5073 50.3022 42.2775 50.282L42.1027 52.2744ZM41.7451 52.1414C41.64 52.0657 41.5574 51.963 41.5059 51.8442L43.3407 51.0484C43.2489 50.8368 43.1017 50.6538 42.9145 50.5189L41.7451 52.1414ZM41.5059 51.8442C41.4543 51.7254 41.4358 51.5949 41.4524 51.4664L43.436 51.7214C43.4655 51.4926 43.4325 51.2601 43.3407 51.0484L41.5059 51.8442ZM41.4524 51.4664C41.4689 51.3379 41.5198 51.2163 41.5997 51.1144L43.1736 52.3484C43.3159 52.1669 43.4066 51.9503 43.436 51.7214L41.4524 51.4664ZM41.6616 51.0427C41.6538 51.051 41.6447 51.058 41.6348 51.0637L42.6205 52.8039C42.8022 52.7009 42.9678 52.5716 43.1116 52.4202L41.6616 51.0427ZM41.5827 51.0953C40.8443 51.5752 40.1041 52.0532 39.3619 52.5293L40.4418 54.2127C41.1873 53.7345 41.9309 53.2543 42.6726 52.7722L41.5827 51.0953ZM39.376 52.5204C38.9642 52.775 38.5763 53.0665 38.2171 53.3912L39.5585 54.8747C39.8279 54.6311 40.1188 54.4125 40.4277 54.2216L39.376 52.5204ZM38.1856 53.421C38.1704 53.436 38.154 53.4498 38.1366 53.4623L39.3014 55.088C39.4038 55.0147 39.5003 54.9334 39.59 54.8449L38.1856 53.421ZM38.1497 53.453C38.2726 53.3679 38.4213 53.3284 38.5701 53.3413L38.3982 55.3339C38.7133 55.3611 39.0281 55.2774 39.2883 55.0973L38.1497 53.453ZM38.5701 53.3413C38.719 53.3541 38.8587 53.4185 38.9651 53.5234L37.5617 54.9483C37.7872 55.1703 38.083 55.3067 38.3982 55.3339L38.5701 53.3413ZM39.0446 53.6115C39.1375 53.7278 39.1853 53.8737 39.1792 54.0225L37.1809 53.9396C37.1671 54.2728 37.2741 54.5997 37.4823 54.8602L39.0446 53.6115ZM39.1792 54.0225C39.173 54.1712 39.1133 54.3127 39.011 54.4209L37.5575 53.0472C37.3284 53.2895 37.1947 53.6065 37.1809 53.9396L39.1792 54.0225ZM39.0107 54.4213C39.0182 54.4133 39.0265 54.406 39.0355 54.3996L37.866 52.7771C37.7551 52.8571 37.6519 52.9474 37.5578 53.0468L39.0107 54.4213ZM39.07 54.3736C39.4518 54.0725 39.8547 53.799 40.2756 53.5554L39.2737 51.8245C38.7703 52.1159 38.2883 52.4429 37.8315 52.8031L39.07 54.3736ZM40.2523 53.5685C40.9441 53.1924 41.7856 52.7618 42.5203 52.1515L41.2424 50.613C40.6937 51.0688 40.0598 51.3967 39.297 51.8114L40.2523 53.5685ZM42.5277 52.1453C42.4191 52.2373 42.2796 52.2843 42.1375 52.2768L42.2426 50.2796C41.8758 50.2603 41.5153 50.3817 41.235 50.6192L42.5277 52.1453Z" fill="black" mask="url(#path-4-inside-2_34045_1759)"/>
<mask id="path-6-inside-3_34045_1759" fill="white">
<path d="M42.0662 53.7721C42.0695 53.8184 42.0596 53.8647 42.0377 53.9056C42.0158 53.9465 41.9828 53.9804 41.9425 54.0034C41.3123 54.2439 40.7966 54.6625 40.259 55.0498C40.1202 55.1504 39.919 55.0764 39.8207 54.9342C39.7716 54.8662 39.7487 54.7827 39.7563 54.6992C39.764 54.6156 39.8017 54.5377 39.8624 54.4798C39.9026 54.4421 39.9463 54.4084 39.993 54.3792C40.0855 54.319 40.178 54.2554 40.2752 54.2046C40.7007 53.9849 41.1273 53.7664 41.5574 53.5559C41.6425 53.5216 41.7341 53.5062 41.8257 53.5108C41.8905 53.5183 41.9504 53.5488 41.9945 53.5967C42.0387 53.6447 42.0641 53.707 42.0662 53.7721Z"/>
</mask>
<path d="M42.0662 53.7721C42.0695 53.8184 42.0596 53.8647 42.0377 53.9056C42.0158 53.9465 41.9828 53.9804 41.9425 54.0034C41.3123 54.2439 40.7966 54.6625 40.259 55.0498C40.1202 55.1504 39.919 55.0764 39.8207 54.9342C39.7716 54.8662 39.7487 54.7827 39.7563 54.6992C39.764 54.6156 39.8017 54.5377 39.8624 54.4798C39.9026 54.4421 39.9463 54.4084 39.993 54.3792C40.0855 54.319 40.178 54.2554 40.2752 54.2046C40.7007 53.9849 41.1273 53.7664 41.5574 53.5559C41.6425 53.5216 41.7341 53.5062 41.8257 53.5108C41.8905 53.5183 41.9504 53.5488 41.9945 53.5967C42.0387 53.6447 42.0641 53.707 42.0662 53.7721Z" fill="black"/>
<path d="M42.0662 53.7721L41.0667 53.8039L41.0673 53.8231L41.0687 53.8423L42.0662 53.7721ZM41.9425 54.0034L42.299 54.9377L42.3709 54.9102L42.4377 54.8722L41.9425 54.0034ZM40.259 55.0498L39.6744 54.2384L39.672 54.2402L40.259 55.0498ZM39.8207 54.9342L40.6434 54.3657L40.6372 54.3567L40.6309 54.3479L39.8207 54.9342ZM39.8624 54.4798L39.1786 53.75L39.1723 53.7561L39.8624 54.4798ZM39.993 54.3792L40.5237 55.2268L40.5309 55.2223L40.538 55.2176L39.993 54.3792ZM40.2752 54.2046L39.8164 53.316L39.8112 53.3187L40.2752 54.2046ZM41.5574 53.5559L41.1831 52.6286L41.15 52.642L41.118 52.6577L41.5574 53.5559ZM41.8257 53.5108L41.9401 52.5174L41.9083 52.5137L41.8763 52.5121L41.8257 53.5108ZM41.0687 53.8423C41.0587 53.7007 41.089 53.5591 41.1559 53.4339L42.9194 54.3773C43.0302 54.1703 43.0802 53.9362 43.0637 53.702L41.0687 53.8423ZM41.1559 53.4339C41.2229 53.3087 41.3239 53.2049 41.4473 53.1346L42.4377 54.8722C42.6417 54.7559 42.8087 54.5844 42.9194 54.3773L41.1559 53.4339ZM41.5859 53.0691C40.7996 53.3692 40.1447 53.8997 39.6744 54.2384L40.8435 55.8612C41.4486 55.4252 41.825 55.1186 42.299 54.9377L41.5859 53.0691ZM39.672 54.2402C39.906 54.0705 40.1585 54.0797 40.309 54.1243C40.4504 54.1663 40.5645 54.2514 40.6434 54.3657L38.9981 55.5027C39.1753 55.7592 39.4391 55.9524 39.7404 56.0418C40.0508 56.1338 40.4732 56.1297 40.8459 55.8594L39.672 54.2402ZM40.6309 54.3479C40.7235 54.4759 40.7666 54.6331 40.7522 54.7904L38.7605 54.6079C38.7308 54.9323 38.8196 55.2565 39.0106 55.5205L40.6309 54.3479ZM40.7522 54.7904C40.7378 54.9477 40.6668 55.0945 40.5525 55.2035L39.1723 53.7561C38.9365 53.9809 38.7902 54.2835 38.7605 54.6079L40.7522 54.7904ZM40.5461 55.2095C40.5392 55.216 40.5317 55.2217 40.5237 55.2268L39.4624 53.5316C39.361 53.5951 39.2659 53.6682 39.1786 53.7501L40.5461 55.2095ZM40.538 55.2176C40.6618 55.1372 40.6962 55.1129 40.7392 55.0904L39.8112 53.3187C39.6598 53.398 39.5093 53.5009 39.448 53.5407L40.538 55.2176ZM40.7339 55.0931C41.1583 54.874 41.577 54.6596 41.9969 54.4542L41.118 52.6577C40.6776 52.8731 40.243 53.0957 39.8164 53.316L40.7339 55.0931ZM41.9318 54.4832C41.8821 54.5033 41.8286 54.5122 41.7751 54.5095L41.8763 52.5121C41.6395 52.5001 41.4029 52.5399 41.1831 52.6286L41.9318 54.4832ZM41.7113 54.5043C41.5377 54.4843 41.3771 54.4025 41.2587 54.2739L42.7303 52.9196C42.5237 52.695 42.2432 52.5523 41.9401 52.5174L41.7113 54.5043ZM41.2587 54.2739C41.1404 54.1454 41.0722 53.9785 41.0667 53.8039L43.0657 53.7404C43.056 53.4354 42.937 53.1441 42.7303 52.9196L41.2587 54.2739Z" fill="black" mask="url(#path-6-inside-3_34045_1759)"/>
<path d="M41.2988 50.5621L41.2921 50.5682M41.2988 50.5621L41.2921 50.5682M41.2988 50.5621L41.3048 50.5566M41.2988 50.5621L41.3048 50.5566M41.2988 50.5621L41.3031 50.5702L41.3048 50.5566M41.2988 50.5621L41.3096 50.519L41.3048 50.5566M41.2921 50.5682L41.3026 50.5738L41.2921 50.5682ZM41.3059 50.5755L41.4374 50.8239L41.3412 50.5944L41.3322 50.5728L41.3315 50.5711L41.3197 50.543L41.3059 50.5755Z" fill="black" stroke="black"/>
<mask id="path-9-inside-4_34045_1759" fill="white">
<path d="M41.8823 55.9494C41.8684 55.9772 41.8511 56.0651 41.8002 56.0974C41.5262 56.2766 41.2498 56.4536 40.9631 56.6085C40.8947 56.6366 40.8187 56.6405 40.7479 56.6194C40.677 56.5984 40.6154 56.5537 40.5734 56.4929C40.5295 56.423 40.5101 56.3404 40.5185 56.2583C40.5269 56.1761 40.5625 56.0992 40.6197 56.0396C40.6448 56.0131 40.6741 55.9908 40.7064 55.9737C40.9735 55.8581 41.2383 55.7332 41.5158 55.6361C41.71 55.5563 41.8927 55.7089 41.8823 55.9494Z"/>
</mask>
<path d="M41.8823 55.9494C41.8684 55.9772 41.8511 56.0651 41.8002 56.0974C41.5262 56.2766 41.2498 56.4536 40.9631 56.6085C40.8947 56.6366 40.8187 56.6405 40.7479 56.6194C40.677 56.5984 40.6154 56.5537 40.5734 56.4929C40.5295 56.423 40.5101 56.3404 40.5185 56.2583C40.5269 56.1761 40.5625 56.0992 40.6197 56.0396C40.6448 56.0131 40.6741 55.9908 40.7064 55.9737C40.9735 55.8581 41.2383 55.7332 41.5158 55.6361C41.71 55.5563 41.8927 55.7089 41.8823 55.9494Z" fill="black"/>
<path d="M41.8823 55.9494L42.7767 56.3966L42.8721 56.2058L42.8814 55.9927L41.8823 55.9494ZM41.8002 56.0974L41.2633 55.2537L41.2529 55.2605L41.8002 56.0974ZM40.9631 56.6085L41.3434 57.5333L41.3921 57.5133L41.4385 57.4883L40.9631 56.6085ZM40.7479 56.6194L41.0323 55.6608L40.7479 56.6194ZM40.5734 56.4929L39.727 57.0254L39.7382 57.0432L39.7502 57.0606L40.5734 56.4929ZM40.6197 56.0396L41.3411 56.7321L41.3453 56.7277L40.6197 56.0396ZM40.7064 55.9737L40.3091 55.056L40.2727 55.0718L40.2377 55.0904L40.7064 55.9737ZM41.5158 55.6361L41.8461 56.5799L41.8712 56.5712L41.8957 56.5611L41.5158 55.6361ZM40.9879 55.5022C40.9616 55.5548 40.9449 55.5996 40.9394 55.6144C40.9327 55.6324 40.9267 55.6501 40.9257 55.653C40.9204 55.6683 40.9253 55.6532 40.9337 55.6333C40.9419 55.6136 40.9642 55.5632 41.0057 55.5021C41.0466 55.442 41.1271 55.3405 41.2633 55.2538L42.3371 56.9411C42.4987 56.8382 42.6005 56.7135 42.6594 56.627C42.7189 56.5395 42.7559 56.4592 42.7766 56.4101C42.7974 56.3607 42.8124 56.3164 42.8159 56.3064C42.8193 56.2967 42.8172 56.3027 42.8144 56.3104C42.8127 56.315 42.7996 56.351 42.7767 56.3966L40.9879 55.5022ZM41.2529 55.2605C40.9807 55.4385 40.7346 55.5953 40.4877 55.7287L41.4385 57.4883C41.7651 57.3118 42.0717 57.1148 42.3476 56.9343L41.2529 55.2605ZM40.5827 55.6836C40.7256 55.6249 40.8843 55.6168 41.0323 55.6608L40.4634 57.5781C40.7532 57.6641 41.0638 57.6483 41.3434 57.5333L40.5827 55.6836ZM41.0323 55.6608C41.1804 55.7047 41.309 55.798 41.3967 55.9252L39.7502 57.0606C39.9219 57.3095 40.1735 57.4921 40.4634 57.5781L41.0323 55.6608ZM41.4199 55.9604C41.4947 56.0793 41.5276 56.2199 41.5133 56.3598L39.5237 56.1568C39.4926 56.4609 39.5642 56.7666 39.727 57.0254L41.4199 55.9604ZM41.5133 56.3598C41.4991 56.4997 41.4384 56.6307 41.3411 56.7321L39.8983 55.3471C39.6866 55.5676 39.5547 55.8526 39.5237 56.1568L41.5133 56.3598ZM41.3453 56.7277C41.2959 56.7798 41.2385 56.8234 41.1751 56.857L40.2377 55.0904C40.1097 55.1582 39.9937 55.2464 39.8941 55.3515L41.3453 56.7277ZM41.1037 56.8914C41.41 56.7588 41.6138 56.6613 41.8461 56.5799L41.1854 54.6922C40.8627 54.8052 40.537 54.9574 40.3091 55.056L41.1037 56.8914ZM41.8957 56.5611C41.6522 56.6611 41.3494 56.6223 41.1288 56.4352C40.9264 56.2635 40.8772 56.0447 40.8832 55.9062L42.8814 55.9927C42.8978 55.6136 42.7624 55.1983 42.4227 54.9101C42.0649 54.6065 41.5736 54.5313 41.1359 54.7111L41.8957 56.5611Z" fill="black" mask="url(#path-9-inside-4_34045_1759)"/>
<mask id="path-11-inside-5_34045_1759" fill="white">
<path d="M50.7984 75.2438C50.7212 75.5166 50.5783 75.7663 50.3821 75.9711C50.3346 76.013 50.2741 76.037 50.2108 76.0391C50.1475 76.0412 50.0854 76.0213 50.0353 75.9827C49.9719 75.9446 49.9236 75.8859 49.8983 75.8165C49.8731 75.747 49.8724 75.671 49.8965 75.6011C50.0242 75.3374 50.2248 75.1159 50.4746 74.9629C50.5995 74.8773 50.8157 75.0507 50.7984 75.2438Z"/>
</mask>
<path d="M50.7984 75.2438C50.7212 75.5166 50.5783 75.7663 50.3821 75.9711C50.3346 76.013 50.2741 76.037 50.2108 76.0391C50.1475 76.0412 50.0854 76.0213 50.0353 75.9827C49.9719 75.9446 49.9236 75.8859 49.8983 75.8165C49.8731 75.747 49.8724 75.671 49.8965 75.6011C50.0242 75.3374 50.2248 75.1159 50.4746 74.9629C50.5995 74.8773 50.8157 75.0507 50.7984 75.2438Z" fill="black"/>
<path d="M50.7984 75.2438L51.7606 75.5162L51.786 75.4263L51.7944 75.3333L50.7984 75.2438ZM50.3821 75.9711L51.0434 76.7212L51.0751 76.6933L51.1043 76.6628L50.3821 75.9711ZM50.0353 75.9827L50.6451 75.1902L50.5997 75.1552L50.5506 75.1257L50.0353 75.9827ZM49.8965 75.6011L48.9965 75.1653L48.9705 75.219L48.9511 75.2753L49.8965 75.6011ZM50.4746 74.9629L50.9971 75.8156L51.0188 75.8022L51.0399 75.7878L50.4746 74.9629ZM49.8362 74.9715C49.8035 75.087 49.743 75.1927 49.66 75.2794L51.1043 76.6628C51.4135 76.34 51.6389 75.9463 51.7606 75.5162L49.8362 74.9715ZM49.7209 75.221C49.8474 75.1094 50.0088 75.0453 50.1775 75.0397L50.2441 77.0386C50.5393 77.0287 50.8219 76.9165 51.0434 76.7212L49.7209 75.221ZM50.1775 75.0397C50.3462 75.0341 50.5115 75.0873 50.6451 75.1902L49.4254 76.7752C49.6594 76.9553 49.9488 77.0484 50.2441 77.0386L50.1775 75.0397ZM50.5506 75.1257C50.6835 75.2056 50.7851 75.3288 50.8381 75.4747L48.9585 76.1582C49.0621 76.443 49.2603 76.6835 49.5199 76.8397L50.5506 75.1257ZM50.8381 75.4747C50.8912 75.6205 50.8925 75.7802 50.8419 75.9269L48.9511 75.2753C48.8524 75.5618 48.855 75.8734 48.9585 76.1582L50.8381 75.4747ZM50.7966 76.0369C50.8408 75.9455 50.9104 75.8686 50.9971 75.8156L49.9522 74.1102C49.5393 74.3632 49.2075 74.7294 48.9965 75.1653L50.7966 76.0369ZM51.0399 75.7878C50.8111 75.9446 50.5647 75.9589 50.391 75.9254C50.2289 75.8941 50.1152 75.8222 50.046 75.764C49.9222 75.6598 49.7756 75.4525 49.8024 75.1544L51.7944 75.3333C51.8385 74.842 51.5925 74.4515 51.3337 74.2337C51.1194 74.0534 50.5188 73.7204 49.9094 74.1379L51.0399 75.7878Z" fill="black" mask="url(#path-11-inside-5_34045_1759)"/>
<mask id="path-13-inside-6_34045_1759" fill="white">
<path d="M47.2185 75.3803C47.1537 75.3865 47.0886 75.3723 47.0323 75.3398C46.9759 75.3072 46.9311 75.258 46.904 75.1988C46.8759 75.1397 46.8695 75.0726 46.8857 75.0093C46.902 74.9459 46.94 74.8902 46.993 74.8519C47.0894 74.768 47.1953 74.6958 47.3087 74.6369C47.3769 74.6077 47.4529 74.6022 47.5245 74.6213C47.5962 74.6403 47.6594 74.6829 47.7041 74.7421C47.7496 74.8115 47.7704 74.8942 47.763 74.9769C47.7557 75.0596 47.7207 75.1373 47.6636 75.1977C47.6054 75.2563 47.536 75.3027 47.4596 75.3341C47.3831 75.3654 47.3011 75.3812 47.2185 75.3803Z"/>
</mask>
<path d="M47.2185 75.3803C47.1537 75.3865 47.0886 75.3723 47.0323 75.3398C46.9759 75.3072 46.9311 75.258 46.904 75.1988C46.8759 75.1397 46.8695 75.0726 46.8857 75.0093C46.902 74.9459 46.94 74.8902 46.993 74.8519C47.0894 74.768 47.1953 74.6958 47.3087 74.6369C47.3769 74.6077 47.4529 74.6022 47.5245 74.6213C47.5962 74.6403 47.6594 74.6829 47.7041 74.7421C47.7496 74.8115 47.7704 74.8942 47.763 74.9769C47.7557 75.0596 47.7207 75.1373 47.6636 75.1977C47.6054 75.2563 47.536 75.3027 47.4596 75.3341C47.3831 75.3654 47.3011 75.3812 47.2185 75.3803Z" fill="black"/>
<path d="M46.904 75.1988L47.8133 74.7826L47.8074 74.77L46.904 75.1988ZM46.993 74.8519L47.5782 75.6628L47.6152 75.6361L47.6496 75.6061L46.993 74.8519ZM47.3087 74.6369L46.9153 73.7175L46.8806 73.7323L46.847 73.7498L47.3087 74.6369ZM47.7041 74.7421L48.5405 74.194L48.5223 74.1662L48.5024 74.1398L47.7041 74.7421ZM47.6636 75.1977L48.3732 75.9023L48.3819 75.8936L48.3903 75.8846L47.6636 75.1977ZM47.1241 74.3848C47.266 74.3713 47.4087 74.4024 47.5322 74.4737L46.5323 76.2059C46.7686 76.3422 47.0414 76.4016 47.3129 76.3759L47.1241 74.3848ZM47.5322 74.4737C47.6557 74.545 47.7539 74.653 47.8133 74.7826L45.9947 75.615C46.1082 75.863 46.2961 76.0695 46.5323 76.2059L47.5322 74.4737ZM47.8074 74.77C47.8796 74.9222 47.8962 75.0948 47.8543 75.2579L45.9171 74.7607C45.8427 75.0505 45.8723 75.3572 46.0006 75.6276L47.8074 74.77ZM47.8543 75.2579C47.8125 75.421 47.7148 75.5643 47.5782 75.6628L46.4078 74.0411C46.1652 74.2162 45.9915 74.4708 45.9171 74.7607L47.8543 75.2579ZM47.6496 75.6061C47.6865 75.5741 47.727 75.5465 47.7703 75.5239L46.847 73.7498C46.6637 73.8452 46.4923 73.962 46.3364 74.0977L47.6496 75.6061ZM47.702 75.5562C47.5648 75.615 47.4117 75.626 47.2674 75.5876L47.7817 73.6549C47.494 73.5783 47.189 73.6004 46.9153 73.7175L47.702 75.5562ZM47.2674 75.5876C47.1231 75.5493 46.9958 75.4636 46.9058 75.3444L48.5024 74.1398C48.3231 73.9021 48.0693 73.7314 47.7817 73.6549L47.2674 75.5876ZM46.8677 75.2902C46.7898 75.1714 46.7544 75.0298 46.7669 74.8884L48.7591 75.0654C48.7863 74.7586 48.7094 74.4516 48.5405 74.194L46.8677 75.2902ZM46.7669 74.8884C46.7795 74.747 46.8394 74.6139 46.937 74.5107L48.3903 75.8846C48.6019 75.6608 48.7318 75.3722 48.7591 75.0654L46.7669 74.8884ZM46.9541 74.493C46.99 74.4569 47.0328 74.4283 47.0799 74.4089L47.8392 76.2592C48.0393 76.1771 48.2209 76.0557 48.3732 75.9023L46.9541 74.493ZM47.0799 74.4089C47.127 74.3896 47.1776 74.3799 47.2285 74.3804L47.2084 76.3803C47.4247 76.3825 47.6392 76.3413 47.8392 76.2592L47.0799 74.4089Z" fill="black" mask="url(#path-13-inside-6_34045_1759)"/>
<path d="M49.3494 76.6843L49.3574 76.629L49.3624 76.5943C49.3782 76.5966 49.3932 76.602 49.4067 76.61M49.3494 76.6843L49.415 76.629L49.4067 76.61M49.3494 76.6843C49.3607 76.684 49.3719 76.6829 49.383 76.6809C49.3995 76.6779 49.4157 76.673 49.4312 76.6662C49.4381 76.6633 49.4448 76.6599 49.4513 76.6563C49.4471 76.6486 49.442 76.6413 49.4362 76.6346C49.4345 76.6327 49.4328 76.6308 49.431 76.629C49.4238 76.6216 49.4156 76.6152 49.4067 76.61M49.3494 76.6843L49.4067 76.61M49.2104 76.6331C49.212 76.6317 49.2136 76.6303 49.2152 76.629C49.2316 76.6158 49.2501 76.6057 49.2701 76.5992C49.2872 76.5937 49.3049 76.5908 49.3228 76.5908C49.3242 76.5908 49.3257 76.5908 49.3272 76.5908C49.3315 76.5909 49.3358 76.5912 49.3401 76.5916L49.3364 76.629L49.331 76.6839C49.3248 76.6835 49.3186 76.6829 49.3124 76.682C49.3115 76.6818 49.3107 76.6817 49.3098 76.6816C49.3089 76.6814 49.308 76.6813 49.3071 76.6811C49.3034 76.6804 49.2996 76.6796 49.296 76.6786C49.2642 76.6707 49.2348 76.6551 49.2104 76.6331Z" fill="black" stroke="black"/>
<mask id="path-16-inside-7_34045_1759" fill="white">
<path d="M48.5503 75.7907C48.5499 75.8552 48.5296 75.9181 48.4921 75.9707C48.4546 76.0232 48.4019 76.0629 48.341 76.0844C48.2908 76.106 48.2379 76.1204 48.1837 76.1272C47.9733 76.1457 47.7698 76.0381 47.7363 75.8959C47.6923 75.6993 47.8218 75.593 47.9536 75.4901C48.0237 75.4304 48.1115 75.3954 48.2034 75.3906C48.2532 75.3919 48.3022 75.4035 48.3473 75.4248C48.3923 75.4461 48.4324 75.4765 48.4651 75.5141C48.4977 75.5518 48.5222 75.5958 48.5368 75.6434C48.5515 75.6911 48.5561 75.7412 48.5503 75.7907Z"/>
</mask>
<path d="M48.5503 75.7907C48.5499 75.8552 48.5296 75.9181 48.4921 75.9707C48.4546 76.0232 48.4019 76.0629 48.341 76.0844C48.2908 76.106 48.2379 76.1204 48.1837 76.1272C47.9733 76.1457 47.7698 76.0381 47.7363 75.8959C47.6923 75.6993 47.8218 75.593 47.9536 75.4901C48.0237 75.4304 48.1115 75.3954 48.2034 75.3906C48.2532 75.3919 48.3022 75.4035 48.3473 75.4248C48.3923 75.4461 48.4324 75.4765 48.4651 75.5141C48.4977 75.5518 48.5222 75.5958 48.5368 75.6434C48.5515 75.6911 48.5561 75.7412 48.5503 75.7907Z" fill="black"/>
<path d="M48.341 76.0844L48.0089 75.1411L47.9766 75.1525L47.9451 75.1661L48.341 76.0844ZM48.1837 76.1272L48.2713 77.1233L48.2895 77.1217L48.3076 77.1194L48.1837 76.1272ZM47.7363 75.8959L46.7603 76.1141L46.763 76.1254L47.7363 75.8959ZM47.9536 75.4901L48.569 76.2783L48.586 76.2651L48.6023 76.2511L47.9536 75.4901ZM48.2034 75.3906L48.2288 74.3909L48.1901 74.39L48.1514 74.392L48.2034 75.3906ZM47.5503 75.7847C47.5511 75.6433 47.5956 75.5056 47.6777 75.3903L49.3065 76.551C49.4635 76.3306 49.5486 76.0672 49.5502 75.7967L47.5503 75.7847ZM47.6777 75.3903C47.7598 75.2751 47.8755 75.1881 48.0089 75.1411L48.6731 77.0276C48.9282 76.9378 49.1495 76.7713 49.3065 76.551L47.6777 75.3903ZM47.9451 75.1661C47.9817 75.1503 48.0203 75.1398 48.0598 75.1349L48.3076 77.1194C48.4555 77.101 48.6 77.0617 48.7369 77.0027L47.9451 75.1661ZM48.0962 75.131C48.1788 75.1237 48.266 75.1383 48.3553 75.1847C48.4243 75.2206 48.636 75.3543 48.7096 75.6664L46.763 76.1254C46.8701 76.5797 47.2003 76.8383 47.432 76.9589C47.684 77.09 47.9783 77.1491 48.2713 77.1233L48.0962 75.131ZM48.7122 75.6778C48.7291 75.7534 48.7357 75.8531 48.7129 75.9644C48.6904 76.0745 48.6465 76.1603 48.6071 76.2186C48.5705 76.2726 48.5382 76.3022 48.5339 76.3061C48.5312 76.3087 48.535 76.3048 48.569 76.2783L47.3383 74.7018C47.2916 74.7383 47.0969 74.8818 46.9511 75.0971C46.7648 75.3721 46.6739 75.7273 46.7604 76.114L48.7122 75.6778ZM48.6023 76.2511C48.505 76.3341 48.3831 76.3826 48.2554 76.3893L48.1514 74.392C47.8398 74.4082 47.5424 74.5267 47.305 74.729L48.6023 76.2511ZM48.1779 76.3903C48.0887 76.388 48.001 76.3672 47.9204 76.3291L48.7741 74.5205C48.6034 74.4399 48.4177 74.3958 48.2288 74.3909L48.1779 76.3903ZM47.9204 76.3291C47.8398 76.2911 47.7679 76.2366 47.7095 76.1692L49.2206 74.859C49.0969 74.7164 48.9448 74.6011 48.7741 74.5205L47.9204 76.3291ZM47.7095 76.1692C47.6511 76.1019 47.6074 76.0231 47.5811 75.9378L49.4925 75.3491C49.4369 75.1685 49.3443 75.0017 49.2206 74.859L47.7095 76.1692ZM47.5811 75.9378C47.5549 75.8525 47.5467 75.7627 47.5571 75.6742L49.5435 75.9071C49.5654 75.7197 49.5481 75.5296 49.4925 75.3491L47.5811 75.9378Z" fill="black" mask="url(#path-16-inside-7_34045_1759)"/>
<path d="M52.0536 72.7163C52.0694 72.7304 52.0819 72.7476 52.0906 72.7666L52.0888 72.8014L52.0864 72.8455L52.0853 72.8675C52.0432 72.8652 52.003 72.8509 51.9693 72.8265C51.9663 72.8244 51.9634 72.8222 51.9606 72.82L52.0228 72.7506L52.0536 72.7163ZM51.9368 72.7978C51.9076 72.7661 51.8886 72.7268 51.8818 72.6849C51.9051 72.6744 51.9307 72.6698 51.9564 72.6718C51.9614 72.6722 51.9664 72.6728 51.9713 72.6737C51.9958 72.678 52.019 72.6882 52.0387 72.7036C52.0405 72.705 52.0423 72.7064 52.044 72.7079L52.0161 72.7406L51.9536 72.8141C51.951 72.8118 51.9485 72.8095 51.946 72.8072C51.9429 72.8041 51.9398 72.801 51.9368 72.7978Z" fill="black" stroke="black"/>
<path d="M39.0219 74.2043C39.0104 74.0603 39.0409 73.9161 39.1098 73.7892C39.131 73.7596 39.158 73.7347 39.1892 73.716C39.2203 73.6972 39.255 73.685 39.2911 73.6801C39.3271 73.6753 39.3638 73.6778 39.3988 73.6876C39.4339 73.6974 39.4665 73.7143 39.4948 73.7372C39.6209 73.8723 39.7041 74.0416 39.7342 74.2239C39.7455 74.3063 39.7269 74.3901 39.6817 74.4599C39.6365 74.5297 39.5677 74.581 39.4879 74.6043C39.4443 74.6196 39.398 74.6256 39.352 74.622C39.3059 74.6185 39.2611 74.6055 39.2204 74.5837C39.1797 74.562 39.1439 74.5321 39.1153 74.4958C39.0867 74.4596 39.0659 74.4178 39.0543 74.3731C39.04 74.3175 39.0292 74.2612 39.0219 74.2043Z" fill="black"/>
<path d="M40.1154 75.5004C40.0979 75.5722 40.0739 75.6423 40.0437 75.7097C40.0144 75.7761 39.9655 75.8319 39.9034 75.8696C39.8414 75.9072 39.7692 75.9249 39.6968 75.9201C39.6264 75.9038 39.562 75.8681 39.5109 75.817C39.4598 75.7659 39.4241 75.7015 39.4078 75.6311C39.3864 75.5518 39.3931 75.4676 39.4266 75.3926C39.46 75.3176 39.5183 75.2565 39.5916 75.2195C39.6733 75.1839 39.7615 75.1658 39.8506 75.1663C40.0021 75.1674 40.1142 75.2981 40.1154 75.5004Z" fill="black"/>
<path d="M38.0426 75.5826C38.0531 75.6738 38.0269 75.7654 37.9699 75.8374C37.9129 75.9093 37.8297 75.9557 37.7385 75.9665C37.6294 75.9702 37.5232 75.9308 37.4429 75.8568C37.3626 75.7828 37.3147 75.6801 37.3096 75.571C37.3211 75.3976 37.5165 75.2577 37.7536 75.2554C37.7943 75.2573 37.8341 75.2673 37.8709 75.2849C37.9076 75.3025 37.9404 75.3273 37.9674 75.3578C37.9943 75.3883 38.0149 75.424 38.0278 75.4626C38.0407 75.5012 38.0458 75.542 38.0426 75.5826Z" fill="black"/>
<path d="M38.7607 75.2786C38.8556 75.2949 38.9412 75.3454 39.0013 75.4206C39.0614 75.4959 39.0918 75.5906 39.0867 75.6867C39.0899 75.7614 39.0638 75.8345 39.0139 75.8902C38.964 75.9459 38.8943 75.98 38.8196 75.985C38.7278 75.9895 38.6359 75.9782 38.5479 75.9515C38.5074 75.9415 38.47 75.9218 38.4389 75.894C38.4077 75.8662 38.3839 75.8312 38.3694 75.7921C38.3549 75.753 38.3502 75.7109 38.3558 75.6696C38.3613 75.6282 38.3768 75.5889 38.4011 75.5549C38.4866 75.4046 38.5907 75.2809 38.7607 75.2786Z" fill="black"/>
<path d="M31.9995 47.9459C32.4377 48.0361 32.9499 48.1113 33.4436 48.2488C34.0218 48.4107 34.608 48.5853 35.1988 48.7194C35.3067 48.7377 35.4104 48.7749 35.5052 48.8293C35.5535 48.8579 35.5903 48.9023 35.6095 48.955C35.6286 49.0077 35.629 49.0654 35.6105 49.1184C35.5983 49.172 35.5693 49.2204 35.5277 49.2563C35.4861 49.2923 35.4341 49.3141 35.3792 49.3184C35.288 49.3239 35.1966 49.3142 35.1086 49.2895C34.0706 48.9745 33.0046 48.7603 31.9255 48.6501C31.861 48.6515 31.7972 48.6356 31.7409 48.6041C31.6846 48.5726 31.6378 48.5266 31.6052 48.4709C31.5734 48.4148 31.5566 48.3515 31.5566 48.287C31.5566 48.2226 31.5734 48.1592 31.6052 48.1032C31.678 47.9737 31.7948 47.939 31.9995 47.9459Z" fill="black"/>
<path d="M32.6535 46.0752C32.9114 46.1376 33.2317 46.2128 33.5543 46.2949C33.8769 46.377 34.1578 46.4568 34.4585 46.5412C34.5469 46.5627 34.6329 46.5933 34.7151 46.6325C34.7729 46.6625 34.8178 46.7124 34.8416 46.773C34.8654 46.8336 34.8665 46.9007 34.8446 46.962C34.8201 47.0215 34.7781 47.0721 34.7243 47.1072C34.6704 47.1422 34.6071 47.1602 34.5429 47.1586C34.5062 47.155 34.4702 47.1473 34.4353 47.1355C33.8234 46.9327 33.1873 46.8122 32.5437 46.777C32.5049 46.775 32.4663 46.7704 32.4281 46.7632C32.3472 46.7445 32.2753 46.6983 32.2247 46.6325C32.1741 46.5667 32.1479 46.4854 32.1506 46.4024C32.1589 46.3197 32.1952 46.2424 32.2534 46.1831C32.3117 46.1238 32.3884 46.0862 32.4709 46.0764C32.5136 46.0752 32.5472 46.0752 32.6535 46.0752Z" fill="black"/>
<path d="M34.2075 44.854C34.2105 44.8999 34.1998 44.9456 34.1767 44.9853C34.1537 45.0251 34.1193 45.0571 34.078 45.0772C34.0148 45.1139 33.941 45.1282 33.8687 45.1177C33.5519 45.0257 33.2238 44.9783 32.894 44.9766C32.8481 44.9711 32.8039 44.9562 32.764 44.9328C32.7242 44.9095 32.6895 44.8782 32.6623 44.8409C32.6351 44.8035 32.6158 44.761 32.6058 44.7159C32.5957 44.6709 32.595 44.6242 32.6037 44.5788C32.6384 44.3753 32.8061 44.2193 32.9865 44.2655C33.3426 44.358 33.6929 44.4713 34.041 44.5892C34.093 44.6103 34.1371 44.6472 34.167 44.6947C34.1969 44.7423 34.2111 44.798 34.2075 44.854Z" fill="black"/>
<path d="M34.2479 43.3452C33.9947 43.3117 33.7403 43.2851 33.4882 43.2412C33.4421 43.237 33.3975 43.2226 33.3576 43.199C33.3178 43.1754 33.2837 43.1432 33.2579 43.1048C33.2321 43.0663 33.2152 43.0226 33.2084 42.9768C33.2016 42.931 33.2052 42.8842 33.2188 42.8399C33.2249 42.7895 33.2419 42.7411 33.2688 42.698C33.2956 42.6549 33.3316 42.6182 33.3741 42.5905C33.4167 42.5628 33.4648 42.5448 33.5151 42.5378C33.5654 42.5307 33.6166 42.5348 33.6651 42.5497C33.9103 42.6191 34.1508 42.7058 34.3913 42.7914C34.4612 42.8131 34.5219 42.8576 34.5638 42.9177C34.6057 42.9777 34.6263 43.0501 34.6225 43.1232C34.604 43.2793 34.4491 43.3753 34.2479 43.3452Z" fill="black"/>
<path d="M34.678 41.6074C34.6693 41.647 34.6569 41.6857 34.641 41.723C34.5253 41.9219 34.0929 42.0098 33.9067 41.8745C33.8577 41.8337 33.8195 41.7815 33.7954 41.7225C33.7713 41.6635 33.7621 41.5995 33.7686 41.5361C33.7751 41.4727 33.7972 41.4118 33.8327 41.3589C33.8683 41.306 33.9164 41.2627 33.9726 41.2328C34.0943 41.1949 34.2249 41.197 34.3453 41.2386C34.4657 41.2802 34.5697 41.3592 34.6421 41.464C34.6611 41.5098 34.6731 41.5581 34.678 41.6074Z" fill="black"/>
<path d="M42.4344 30.0495C42.1256 30.0322 41.9857 29.75 42.1488 29.4829C42.4355 29.0127 42.7288 28.5456 43.0287 28.0816C43.3582 27.5717 43.6993 27.0699 43.9884 26.5334C44.0393 26.4362 44.1057 26.3479 44.1849 26.272C44.2256 26.2334 44.2784 26.2102 44.3344 26.2064C44.3903 26.2026 44.4458 26.2184 44.4913 26.2512C44.5397 26.2792 44.5755 26.3245 44.5917 26.378C44.6078 26.4315 44.6029 26.4891 44.578 26.5391C44.5507 26.6071 44.5174 26.6725 44.4786 26.7345C43.8635 27.6757 43.3663 28.6828 42.8367 29.6714C42.7968 29.7542 42.752 29.8345 42.7026 29.9119C42.6731 29.9556 42.633 29.991 42.5861 30.0151C42.5392 30.0391 42.487 30.051 42.4344 30.0495Z" fill="black"/>
<path d="M45.6433 25.2695C45.5971 25.2729 45.5507 25.2657 45.5076 25.2486C45.4646 25.2316 45.4259 25.205 45.3945 25.1708C45.3632 25.1367 45.3399 25.0959 45.3266 25.0515C45.3132 25.0071 45.31 24.9603 45.3173 24.9145C45.3369 24.8252 45.3717 24.74 45.4202 24.6625C45.9806 23.7722 46.5437 22.883 47.1095 21.995C47.1601 21.8959 47.2379 21.8133 47.3338 21.7568C47.3661 21.7393 47.4026 21.7309 47.4393 21.7326C47.476 21.7344 47.5115 21.7461 47.542 21.7666C47.5725 21.7871 47.5968 21.8156 47.6123 21.8489C47.6278 21.8822 47.6338 21.9192 47.6298 21.9557C47.6187 22.0277 47.5927 22.0966 47.5535 22.158C46.9464 23.046 46.5186 24.0312 45.9983 24.9666C45.9648 25.0324 45.9261 25.0954 45.8827 25.155C45.8528 25.1895 45.8161 25.2174 45.7749 25.2371C45.7337 25.2568 45.689 25.2678 45.6433 25.2695Z" fill="black"/>
<path d="M43.5775 30.5813C43.2722 30.5813 43.115 30.3928 43.1809 30.1766C43.222 30.056 43.2751 29.9398 43.3393 29.8297C43.5551 29.4227 43.7736 29.0169 43.9949 28.6122C44.0301 28.5477 44.0732 28.4879 44.1232 28.4341C44.1602 28.3922 44.2095 28.3629 44.2641 28.3504C44.3186 28.338 44.3757 28.343 44.4273 28.3648C44.4857 28.3933 44.5328 28.4406 44.5611 28.4991C44.5894 28.5576 44.5972 28.6239 44.5834 28.6873C44.5744 28.7421 44.556 28.7949 44.5291 28.8434C44.2481 29.262 44.1093 29.7442 43.9116 30.2009C43.8757 30.2852 43.8344 30.3671 43.7879 30.446C43.7655 30.4831 43.7349 30.5147 43.6984 30.5381C43.6619 30.5616 43.6206 30.5763 43.5775 30.5813Z" fill="black"/>
<path d="M31.9528 39.9539C31.9181 40.0429 31.8834 40.147 31.8371 40.2453C31.0648 41.8409 30.2126 43.3937 29.2934 44.9142C29.1327 45.1825 28.9951 45.4657 28.8367 45.7363C28.8024 45.792 28.7502 45.8344 28.6886 45.8565C28.627 45.8785 28.5598 45.879 28.4979 45.8577C28.4272 45.8353 28.3648 45.7921 28.319 45.7337C28.2732 45.6754 28.2461 45.6045 28.2412 45.5305C28.2491 45.4007 28.2914 45.2754 28.3638 45.1674C28.5287 44.8784 28.6979 44.5924 28.8714 44.3095C29.2564 43.6793 29.6507 43.055 30.0276 42.4225C30.4999 41.6507 30.931 40.8545 31.3191 40.0372C31.3643 39.9372 31.4222 39.8436 31.4914 39.7585C31.521 39.7225 31.5608 39.6962 31.6056 39.6832C31.6504 39.6702 31.698 39.6711 31.7423 39.6856C31.8707 39.7261 31.9158 39.8232 31.9528 39.9539Z" fill="black"/>
<path d="M30.5267 45.312C30.5045 45.3886 30.4743 45.4626 30.4365 45.5328C30.2494 45.8477 30.1037 46.1854 30.0029 46.5376C29.9835 46.6079 29.96 46.677 29.9323 46.7446C29.8387 46.9492 29.6641 47.0313 29.4918 46.9585C29.3983 46.9196 29.323 46.8465 29.2814 46.7542C29.2397 46.6619 29.2348 46.5571 29.2675 46.4613C29.3039 46.3573 29.3524 46.2579 29.412 46.1653C29.6123 45.8808 29.7839 45.5771 29.9242 45.2588C29.9541 45.1916 29.9961 45.1305 30.048 45.0784C30.0831 45.0353 30.1317 45.0052 30.186 44.9928C30.2402 44.9805 30.297 44.9866 30.3474 45.0102C30.4029 45.0383 30.4492 45.0816 30.4809 45.135C30.5127 45.1884 30.5285 45.2498 30.5267 45.312Z" fill="black"/>
<path d="M66.9871 54.7065C67.0923 54.7169 67.1293 54.7169 67.1651 54.725C67.211 54.7305 67.2545 54.7487 67.2906 54.7775C67.3268 54.8063 67.3542 54.8446 67.3698 54.8881C67.3875 54.9406 67.3891 54.9972 67.3743 55.0506C67.3594 55.104 67.3288 55.1517 67.2865 55.1876C67.2458 55.2254 67.1976 55.2542 67.145 55.2721C67.0924 55.29 67.0366 55.2967 66.9813 55.2916C66.6205 55.2754 66.2933 55.3992 65.9661 55.5229C65.8462 55.5699 65.7224 55.6063 65.5961 55.6316C65.5421 55.6463 65.4847 55.643 65.4327 55.6222C65.3807 55.6013 65.337 55.564 65.3082 55.5159C65.2723 55.4511 65.2575 55.3767 65.266 55.3031C65.2745 55.2295 65.3058 55.1604 65.3556 55.1055C65.478 54.9905 65.631 54.9134 65.7961 54.8835C66.2124 54.8118 66.6333 54.7597 66.9871 54.7065Z" fill="black"/>
<path d="M66.2588 54.2948C66.0484 54.2948 65.9258 54.2127 65.8842 54.0901C65.8651 54.0099 65.873 53.9257 65.9067 53.8504C65.9403 53.7752 65.9979 53.7131 66.0704 53.6739C66.1378 53.6463 66.2092 53.6295 66.282 53.6242C66.5005 53.601 66.719 53.5814 66.9387 53.5675C67.0113 53.5622 67.0842 53.5704 67.1537 53.5918C67.2069 53.6078 67.2541 53.6393 67.2891 53.6824C67.3242 53.7255 67.3455 53.7781 67.3503 53.8334C67.3552 53.8885 67.3432 53.9438 67.3159 53.9919C67.2886 54.04 67.2474 54.0787 67.1977 54.1028C67.1822 54.113 67.1655 54.1212 67.148 54.1271C66.8288 54.2069 66.4901 54.1688 66.2588 54.2948Z" fill="black"/>
<path d="M67.1185 52.0136C67.2387 52.0386 67.3566 52.0734 67.4711 52.1176C67.6423 52.1928 67.6584 52.498 67.4908 52.5801C67.2973 52.6891 67.0765 52.7401 66.8549 52.727C66.7986 52.7216 66.7455 52.6981 66.7038 52.6599C66.6621 52.6217 66.6339 52.571 66.6236 52.5154C66.6007 52.4442 66.5995 52.3679 66.6201 52.296C66.6406 52.2242 66.6821 52.1601 66.7392 52.1119C66.7919 52.0697 66.853 52.0391 66.9183 52.0221C66.9837 52.0052 67.0519 52.0023 67.1185 52.0136Z" fill="black"/>
<path d="M68.1488 50.1128C68.1297 50.1659 68.0984 50.2138 68.0574 50.2527C67.9504 50.3234 67.8335 50.378 67.7106 50.4145C67.6718 50.4284 67.6305 50.434 67.5894 50.431C67.5483 50.4281 67.5083 50.4166 67.4719 50.3974C67.4355 50.3781 67.4034 50.3515 67.3779 50.3193C67.3523 50.287 67.3337 50.2497 67.3232 50.2099C67.2985 50.1316 67.2999 50.0475 67.3272 49.9701C67.3546 49.8927 67.4063 49.8263 67.4747 49.7809C67.5722 49.7317 67.6825 49.7139 67.7906 49.7298C67.8986 49.7457 67.9991 49.7947 68.0783 49.87C68.1096 49.9011 68.1325 49.9398 68.1448 49.9823C68.1572 50.0247 68.1585 50.0696 68.1488 50.1128Z" fill="black"/>
<path d="M59.885 49.3125C59.885 48.9818 59.8792 48.6499 59.885 48.3193C59.8887 48.1907 59.9093 48.0632 59.9463 47.94C59.974 47.8617 60.0283 47.7957 60.0997 47.7534C60.1712 47.7111 60.2552 47.6953 60.3371 47.7088C60.4198 47.7235 60.4938 47.7693 60.5439 47.8368C60.594 47.9043 60.6164 47.9884 60.6065 48.0718C60.5741 48.4002 60.5452 48.732 60.4816 49.0558C60.4094 49.4371 60.3707 49.824 60.366 50.212C60.3782 50.3415 60.35 50.4716 60.2851 50.5843C60.2607 50.6225 60.2261 50.6529 60.1852 50.6721C60.1442 50.6914 60.0987 50.6986 60.0538 50.693C60.0072 50.6915 59.9624 50.6748 59.9263 50.6453C59.8901 50.6159 59.8647 50.5753 59.8538 50.53C59.8337 50.4035 59.8264 50.2753 59.8318 50.1473C59.8411 49.8721 59.8596 49.5958 59.8746 49.3206L59.885 49.3125Z" fill="black"/>
<path d="M63.2118 47.6499C63.1854 47.6382 63.1567 47.6327 63.1279 47.6338C63.0991 47.6348 63.0709 47.6424 63.0455 47.656C63.0201 47.6696 62.9981 47.6889 62.9812 47.7122C62.9644 47.7356 62.953 47.7625 62.9481 47.7909C62.8776 48.0222 62.8059 48.2534 62.7377 48.4766C62.711 48.6033 62.646 48.7187 62.5515 48.8073C62.5171 48.8376 62.4744 48.857 62.4289 48.8629C62.3834 48.8689 62.3371 48.8612 62.296 48.8408C62.2631 48.8241 62.2351 48.7991 62.2148 48.7683C62.1945 48.7375 62.1827 48.7019 62.1804 48.665C62.1711 48.6104 62.1734 48.5545 62.1873 48.5009C62.2739 48.1816 62.3228 47.8533 62.333 47.5227C62.3596 47.2035 62.5226 47.1145 62.8256 47.2255C62.8764 47.244 62.9181 47.2903 62.9689 47.3041C63.0041 47.3163 63.0426 47.3144 63.0764 47.2989C63.1102 47.2834 63.1367 47.2555 63.1505 47.2209C63.2303 47.0347 63.3008 46.8463 63.3736 46.6578C63.3964 46.5874 63.4372 46.5242 63.4919 46.4745C63.5467 46.4248 63.6136 46.3903 63.6858 46.3745C63.7486 46.358 63.8149 46.3601 63.8765 46.3807C63.9381 46.4012 63.9924 46.4392 64.0327 46.4901C64.0698 46.5323 64.0924 46.5854 64.0969 46.6414C64.1015 46.6975 64.0879 46.7535 64.0581 46.8012C63.8963 47.0683 63.7309 47.333 63.5517 47.5886C63.4673 47.71 63.3274 47.6938 63.2118 47.6499Z" fill="black"/>
<path d="M61.1873 48.9253C61.2404 48.6073 61.252 48.2443 61.2774 47.8847C61.2773 47.8427 61.2859 47.8012 61.3025 47.7627C61.3191 47.7242 61.3434 47.6895 61.374 47.6608C61.4046 47.632 61.4407 47.6099 61.4802 47.5957C61.5197 47.5815 61.5616 47.5756 61.6035 47.5783C61.6861 47.5862 61.7631 47.6234 61.8206 47.6832C61.8781 47.743 61.9122 47.8215 61.9168 47.9043C61.9178 47.9586 61.9135 48.0128 61.9041 48.0662C61.8579 48.3923 61.8116 48.7172 61.7631 49.0421C61.7342 49.2375 61.6058 49.3693 61.4555 49.3647C61.2821 49.3647 61.1422 49.197 61.1873 48.9253Z" fill="black"/>
</svg>
