<svg width="158" height="54" viewBox="0 0 158 54" fill="none" xmlns="http://www.w3.org/2000/svg">
<path d="M39.6503 20.9942C39.6334 21.3992 39.6553 21.897 39.5524 22.3914C39.489 22.7088 39.3905 23.0181 39.2588 23.3136C38.8816 24.1498 38.5964 25.0222 38.2463 25.8711C37.778 27.0186 37.3308 28.1762 36.8541 29.3203C36.2381 30.8011 35.6045 32.2734 34.9725 33.7491C34.6215 34.5667 34.2562 35.3776 33.901 36.196C33.4597 37.2085 33.0226 38.221 32.5822 39.2377C32.2177 40.0815 31.849 40.9176 31.4853 41.7606C31.1444 42.5526 30.8069 43.3468 30.4728 44.1433C30.099 45.0385 29.7252 45.9346 29.3666 46.8357C29.0291 47.6871 28.6916 48.5409 28.3862 49.4041C28.2495 49.7862 28.0051 50.1206 27.6825 50.3668C27.2904 50.677 26.8768 50.959 26.4447 51.2106C25.212 51.9337 23.9498 52.6036 22.6538 53.2069C22.5076 53.2761 22.3578 53.3373 22.2049 53.39C21.9307 53.4828 21.848 53.4617 21.6877 53.2313C21.4725 52.9217 21.2658 52.6061 21.065 52.2855C20.4266 51.2347 19.7892 50.1862 19.1531 49.14C18.7675 48.5063 18.3937 47.8668 18.0039 47.2348C17.7727 46.8577 17.6799 46.4392 17.6073 46.0122C17.5291 45.5325 17.4932 45.0469 17.5001 44.561C17.5078 43.914 17.468 43.2674 17.3812 42.6262C17.2968 41.9867 17.247 41.3395 17.1989 40.6949C17.1483 40.0098 17.0985 39.323 17.0791 38.6361C17.0513 37.6523 17.031 36.6677 17.0462 35.683C17.0673 34.3086 17.1247 32.9341 17.166 31.5588C17.1795 31.1006 17.193 30.6425 17.2006 30.1843C17.2116 29.5633 17.2167 28.9431 17.2251 28.323C17.231 27.8918 17.2808 27.4615 17.2293 27.0295C17.2298 26.9485 17.2395 26.8679 17.258 26.7891C17.3711 25.8255 17.4706 24.8602 17.5423 23.8916C17.5997 23.1111 17.5997 22.3281 17.6622 21.5485C17.6875 21.2262 17.6875 20.9014 17.6841 20.5782C17.679 20.1049 17.717 19.6357 17.7491 19.1641C17.7987 18.5311 17.9748 17.9145 18.2671 17.3509C18.5456 16.7931 18.9101 16.2886 19.2796 15.7916C20.1014 14.688 20.9772 13.6266 21.8834 12.5904C22.3981 11.9998 22.9111 11.4092 23.4401 10.8354C23.9692 10.2617 24.537 9.67865 25.0888 9.10912C25.6077 8.5784 26.1283 8.05021 26.6641 7.53805C27.1999 7.0259 27.734 6.54918 28.274 6.06065C28.7549 5.62612 29.2392 5.19665 29.7236 4.76718C30.4703 4.10484 31.2153 3.43996 32.0017 2.82655C32.3105 2.58693 32.6387 2.37177 32.9652 2.15662C33.1116 2.06017 33.2684 1.98063 33.4327 1.91952C33.798 1.78537 34.0857 1.86384 34.2435 2.21315C34.3659 2.48315 34.5034 2.74724 34.6114 3.0223C35.2088 4.54105 35.7415 6.08202 36.2095 7.64521C36.6136 8.98846 37.0692 10.3131 37.5266 11.6387C37.8733 12.6453 38.2016 13.6578 38.5272 14.6711C38.6504 15.0559 38.7601 15.4465 38.858 15.838C39.1044 16.8176 39.3524 17.7964 39.479 18.8038C39.5794 19.5299 39.6366 20.2613 39.6503 20.9942ZM20.9114 44.5669C20.9114 44.6462 20.9114 44.6858 20.9114 44.7263C20.9096 44.75 20.9125 44.7738 20.9201 44.7964C20.9277 44.8189 20.9397 44.8396 20.9554 44.8574C20.9711 44.8752 20.9903 44.8897 21.0117 44.8999C21.0332 44.9101 21.0565 44.916 21.0802 44.917C21.1468 44.9263 21.2152 44.9238 21.2818 44.928C21.8346 44.9514 22.3848 45.016 22.928 45.1212C23.2546 45.2038 23.5856 45.2683 23.9194 45.3144C24.2265 45.3473 24.5328 45.3988 24.8399 45.4385C25.1214 45.4686 25.3993 45.5251 25.6702 45.6072C25.7934 45.6494 25.8761 45.5903 25.9039 45.4579C25.9284 45.3397 25.9334 45.2157 25.9663 45.1001C26.184 44.3213 26.3983 43.5417 26.6295 42.7663C26.9906 41.5521 27.4151 40.3574 27.8192 39.1567C28.2065 38.0076 28.5786 36.8525 28.9389 35.6974C29.2181 34.8097 29.4839 33.9187 29.743 33.0261C30.099 31.7959 30.445 30.5631 30.7917 29.3304C31.1416 28.0845 31.4887 26.838 31.8329 25.5909C32.0413 24.8375 32.2362 24.0806 32.443 23.3271C32.621 22.6766 32.7973 22.0269 32.9906 21.3806C33.3635 20.1302 33.6402 18.8494 34.1718 17.6487C34.1801 17.6301 34.184 17.6099 34.1831 17.5896C34.1823 17.5692 34.1767 17.5494 34.1669 17.5316C34.1571 17.5137 34.1433 17.4984 34.1266 17.4868C34.1099 17.4753 34.0907 17.4677 34.0706 17.4648C33.8967 17.442 33.7196 17.4437 33.5483 17.4108C32.8733 17.2783 32.1831 17.2521 31.4996 17.1897C30.8162 17.1273 30.1277 17.0842 29.4476 16.9737C28.2664 16.7822 27.097 16.4978 25.9039 16.3375C25.3976 16.2692 24.9083 16.3257 24.4113 16.3232C24.3873 16.3214 24.3632 16.3247 24.3405 16.3327C24.3178 16.3408 24.297 16.3535 24.2795 16.37C24.262 16.3865 24.2481 16.4064 24.2387 16.4286C24.2292 16.4507 24.2245 16.4746 24.2248 16.4987C24.1734 16.9265 24.1244 17.3551 24.0755 17.7837C24.0021 18.4266 23.9329 19.0696 23.8561 19.7125C23.8013 20.1673 23.727 20.6204 23.6756 21.076C23.5768 21.9594 23.4941 22.8479 23.3929 23.7296C23.2334 25.1226 23.0638 26.514 22.9001 27.907C22.8478 28.3491 22.8031 28.7921 22.75 29.2334C22.658 29.9928 22.5576 30.7572 22.4681 31.52C22.3669 32.3899 22.2775 33.2606 22.1762 34.1305C22.0496 35.2274 21.9155 36.3243 21.7864 37.4212C21.6604 38.4927 21.5366 39.5646 21.4151 40.6367C21.3195 41.4669 21.2256 42.2975 21.1333 43.1283C21.1099 43.3835 21.0713 43.637 21.0177 43.8876C20.9688 44.1214 20.9443 44.3635 20.9114 44.5669ZM18.1431 44.6116H18.149C18.1633 45.0292 18.1743 45.4477 18.1929 45.8654C18.1913 45.8926 18.1982 45.9197 18.2125 45.9429C18.2268 45.9661 18.2479 45.9843 18.2729 45.9952C18.2979 46.006 18.3257 46.0089 18.3524 46.0035C18.3791 45.9981 18.4035 45.9847 18.4224 45.965C18.5709 45.8485 18.6949 45.7034 18.8628 45.6106C19.2636 45.3887 19.6568 45.1499 20.109 45.0411C20.1625 45.032 20.2111 45.0045 20.2464 44.9633C20.2817 44.9222 20.3014 44.87 20.3022 44.8158C20.3951 43.9855 20.4904 43.1553 20.5832 42.3242C20.6541 41.6812 20.7174 41.0375 20.7916 40.3954C20.8819 39.6056 20.9831 38.8167 21.0743 38.027C21.216 36.8077 21.3519 35.5885 21.4961 34.3701C21.594 33.5264 21.6978 32.6826 21.7982 31.8389C21.8522 31.3841 21.9079 30.9285 21.9585 30.4729C22.0336 29.8029 22.1003 29.1321 22.1762 28.4631C22.2395 27.9003 22.3121 27.3383 22.3779 26.7756C22.4791 25.9191 22.577 25.0611 22.6799 24.2046C22.7643 23.5086 22.8563 22.8133 22.9381 22.1172C23.0368 21.2735 23.1161 20.4297 23.2258 19.586C23.3549 18.5979 23.4064 17.5998 23.6089 16.621C23.6163 16.5979 23.617 16.5732 23.6109 16.5498C23.6049 16.5263 23.5923 16.505 23.5746 16.4884C23.5569 16.4718 23.5349 16.4606 23.5111 16.456C23.4873 16.4514 23.4627 16.4536 23.4401 16.4624C22.8495 16.6624 22.2386 16.7602 21.6345 16.8944C20.7506 17.0781 19.8774 17.3102 19.0189 17.5896C18.9261 17.6209 18.8333 17.647 18.7945 17.7424C18.6527 18.0917 18.4738 18.4317 18.4165 18.8063C18.3743 19.114 18.3504 19.4239 18.3447 19.7345C18.3034 20.9604 18.2764 22.1872 18.2275 23.4132C18.2055 23.9515 18.1498 24.489 18.0992 25.0256C18.0401 25.6432 17.9465 26.2575 17.9127 26.876C17.8714 27.6294 17.8773 28.3854 17.8621 29.1406C17.8503 29.7742 17.8461 30.4062 17.8241 31.0416C17.7592 32.875 17.6959 34.7076 17.6875 36.542C17.6799 37.9856 17.7465 39.4267 17.8562 40.8653C17.8866 41.2687 17.9465 41.6694 17.9802 42.0719C18.0326 42.703 18.149 43.3291 18.1414 43.9653C18.1406 44.1804 18.1406 44.3964 18.1406 44.6116H18.1431ZM31.0896 31.3647C31.2415 31.3234 31.3267 31.4027 31.3967 31.5115C31.7013 31.9882 32.0236 32.4548 32.2548 32.9754C32.513 33.5542 32.7805 34.128 33.0437 34.7043C33.0674 34.7525 33.085 34.8035 33.096 34.8561C33.1043 34.896 33.1 34.9373 33.0838 34.9746C33.0677 35.0119 33.0404 35.0433 33.0057 35.0646C32.966 35.089 32.919 35.0988 32.8728 35.0923C32.8266 35.0858 32.7841 35.0635 32.7526 35.0291C32.7014 34.9498 32.6595 34.8649 32.6277 34.776C32.2059 33.6589 31.6043 32.6396 30.9402 31.6541C30.9328 31.6434 30.9246 31.6333 30.9158 31.6237C30.8812 31.5824 30.796 31.5866 30.7782 31.6347C30.7519 31.6961 30.7343 31.7608 30.7259 31.8271C30.7071 32.0421 30.6621 32.2541 30.5918 32.4582C30.495 32.767 30.4045 33.0764 30.3201 33.3863C30.2806 33.5436 30.224 33.6961 30.1513 33.8411C30.0262 34.0809 29.9481 34.3424 29.921 34.6115C29.8911 34.8662 29.8267 35.1157 29.7295 35.3531C29.5607 35.7792 29.392 36.2036 29.3261 36.6626C29.3143 36.7291 29.2938 36.7937 29.2654 36.855C29.0831 37.2769 28.9794 37.7241 28.8359 38.1577C28.6495 38.7197 28.4891 39.2934 28.2706 39.841C28.0175 40.4806 27.8774 41.159 27.583 41.7816C27.5231 41.9091 27.5686 41.9631 27.7382 41.9504C27.804 41.9356 27.8729 41.9444 27.9329 41.9752C27.9929 42.0061 28.0402 42.057 28.0664 42.1191C28.0884 42.1685 28.1129 42.2167 28.1398 42.2634C28.4883 42.8406 28.749 43.4666 29.127 44.0269C29.1643 44.083 29.1944 44.1437 29.2165 44.2074C29.2285 44.2531 29.2256 44.3015 29.2083 44.3455C29.191 44.3895 29.1602 44.4268 29.1203 44.4521C29.0736 44.4797 29.0184 44.489 28.9652 44.4782C28.9121 44.4675 28.8648 44.4374 28.8326 44.3939C28.8002 44.3502 28.7719 44.3036 28.7482 44.2547C28.5562 43.8682 28.3394 43.4945 28.0993 43.1359C27.9306 42.8743 27.7542 42.6203 27.6403 42.3284C27.6235 42.2926 27.6016 42.2593 27.5754 42.2297C27.5484 42.1951 27.4488 42.2001 27.4328 42.2381C27.4095 42.2861 27.3925 42.3368 27.3821 42.3891C27.3317 42.75 27.2273 43.1013 27.0725 43.4312C26.9763 43.6402 26.917 43.8643 26.897 44.0935C26.87 44.28 26.823 44.463 26.7569 44.6394C26.6616 44.9567 26.5106 45.2596 26.5038 45.6005C26.5034 45.6681 26.4902 45.7351 26.465 45.7979C26.3764 45.9979 26.4439 46.1616 26.562 46.3236C26.8632 46.7387 27.1526 47.1589 27.4581 47.5732C27.6242 47.7856 27.7631 48.0181 27.8715 48.265C27.8937 48.3137 27.9221 48.3594 27.9559 48.4009C27.9837 48.438 28.0799 48.4304 28.0968 48.3882C28.1322 48.3038 28.1626 48.2136 28.1921 48.1241C28.2512 47.9452 28.2985 47.7621 28.3685 47.5875C28.7442 46.6492 29.1236 45.7124 29.5067 44.777C29.6906 44.3289 29.8805 43.8817 30.0821 43.4405C30.1849 43.2359 30.2725 43.0241 30.3446 42.8068C30.3796 42.6907 30.421 42.5766 30.4686 42.4651C30.6871 41.9588 30.9107 41.4526 31.1301 40.9463C31.5587 39.9563 31.9859 38.9666 32.4117 37.9772C33.026 36.5428 33.7027 35.1312 34.2874 33.6808C34.5844 32.9434 34.9202 32.222 35.2375 31.4921C35.4948 30.9015 35.7547 30.3066 36.0044 29.7101C36.2795 29.0511 36.5402 28.3863 36.8127 27.7265C36.9865 27.3046 37.1874 26.8895 37.3451 26.4608C37.7814 25.272 38.1973 24.0747 38.7272 22.9221C38.775 22.8344 38.7984 22.7354 38.795 22.6356C38.7916 22.5357 38.7615 22.4386 38.7078 22.3543C38.3446 21.7073 37.9181 21.098 37.4346 20.5352C36.9283 19.9538 36.3841 19.413 35.8315 18.8781C35.5125 18.5676 35.1565 18.2959 34.8637 17.9592C34.8503 17.9441 34.8332 17.9326 34.8142 17.9259C34.7951 17.9192 34.7747 17.9174 34.7547 17.9208C34.7348 17.9242 34.7161 17.9326 34.7003 17.9452C34.6845 17.9578 34.6722 17.9743 34.6646 17.993C34.6429 18.0422 34.6257 18.0933 34.6131 18.1457C34.5076 18.6072 34.3346 19.046 34.1912 19.4957C34.0039 20.0863 33.8318 20.6769 33.6529 21.2676C33.6456 21.2935 33.6406 21.3201 33.6377 21.3469C33.5972 21.6273 33.5273 21.9028 33.4293 22.1687C33.242 22.7171 33.1652 23.2976 32.9399 23.8342C32.9297 23.8592 32.9223 23.8852 32.918 23.9119C32.7231 24.975 32.3636 25.9951 32.1021 27.0405C31.8903 27.8893 31.5798 28.712 31.406 29.5717C31.3959 29.6249 31.3789 29.6766 31.3554 29.7253C31.1183 30.2147 31.1208 30.7783 30.8812 31.2668C30.8777 31.2798 30.8777 31.2935 30.8812 31.3065C30.8879 31.3656 30.9116 31.4094 30.9807 31.3959C31.0179 31.3877 31.0543 31.3764 31.0896 31.3622V31.3647ZM33.5592 3.64752C33.5592 3.52349 33.5592 3.41549 33.5592 3.31002C33.562 3.28333 33.555 3.25654 33.5395 3.23465C33.5239 3.21276 33.501 3.19726 33.4749 3.19105C33.4482 3.18744 33.4211 3.19166 33.3969 3.2032C33.3726 3.21473 33.3522 3.23309 33.3382 3.25602C33.3061 3.29905 33.2766 3.3404 33.2462 3.38934C33.1466 3.53362 33.0572 3.68634 32.9441 3.81965C32.4725 4.37905 32.1063 5.01018 31.7089 5.61937C31.3773 6.12562 31.0786 6.65718 30.7386 7.15921C30.0214 8.22065 29.2944 9.27562 28.5575 10.3241C27.6142 11.6741 26.6644 13.0179 25.7081 14.3556C25.4348 14.7395 25.1867 15.1436 24.8543 15.4828C24.8373 15.5038 24.8233 15.5271 24.8129 15.552C24.8077 15.5675 24.8057 15.5839 24.8072 15.6002C24.8087 15.6165 24.8135 15.6323 24.8215 15.6466C24.8294 15.6609 24.8403 15.6734 24.8533 15.6833C24.8664 15.6931 24.8814 15.7001 24.8973 15.7039C24.9642 15.7077 25.0314 15.7035 25.0973 15.6912C25.2831 15.6536 25.4738 15.647 25.6617 15.6718C26.4799 15.7548 27.293 15.8816 28.0976 16.0515C28.9892 16.2671 29.8971 16.4082 30.812 16.4734C31.3233 16.5021 31.8329 16.5577 32.3426 16.616C32.7712 16.6615 33.199 16.724 33.6276 16.7746C33.775 16.7851 33.9209 16.8108 34.063 16.8514C34.2899 16.9265 34.3439 16.8767 34.3507 16.6269C34.3507 16.5999 34.3507 16.5729 34.3507 16.5426C34.3507 15.4912 34.3718 14.4399 34.3178 13.3869C34.2739 12.512 34.2334 11.6361 34.1786 10.7612C34.1237 9.88621 34.0511 8.98931 33.9735 8.09999C33.874 6.9719 33.7525 5.84634 33.6563 4.71824C33.6259 4.3529 33.5398 3.99515 33.5592 3.64499V3.64752ZM19.5167 16.81C19.5636 16.7993 19.6091 16.7834 19.6526 16.7628C19.8693 16.6532 20.0997 16.5732 20.3377 16.5248C21.4658 16.2624 22.5956 16.0026 23.7355 15.7925C23.7949 15.7825 23.8515 15.7604 23.9019 15.7274C23.9523 15.6944 23.9953 15.6514 24.0282 15.6009C24.3818 15.0947 24.7446 14.5884 25.1032 14.0822C25.6657 13.2891 26.2254 12.4956 26.7822 11.702C27.3881 10.8419 27.995 9.98127 28.6031 9.12009C28.9119 8.67796 29.2122 8.22909 29.5194 7.78527C29.9876 7.11027 30.4475 6.42684 30.8761 5.72399C31.3402 4.96462 31.7975 4.19934 32.4176 3.54965C32.4431 3.52786 32.4638 3.501 32.4783 3.47079C32.4929 3.44057 32.5009 3.40766 32.502 3.37415C32.5004 3.34755 32.4894 3.3224 32.4708 3.30327C32.4614 3.29488 32.4502 3.2887 32.4381 3.28519C32.426 3.28169 32.4132 3.28095 32.4008 3.28302C32.2919 3.31255 32.2227 3.39946 32.1426 3.47118C31.4203 4.12087 30.6978 4.76999 29.975 5.41855C29.4628 5.87755 28.9524 6.33993 28.4335 6.79049C27.8825 7.26805 27.356 7.77093 26.8362 8.2814C26.2971 8.81043 25.7512 9.33355 25.2331 9.88452C24.2037 10.9687 23.1845 12.0656 22.2074 13.2055C21.5738 13.9421 20.9511 14.6863 20.3571 15.4558C20.0609 15.8406 19.8011 16.2531 19.4416 16.5864C19.416 16.617 19.396 16.6518 19.3826 16.6894C19.3623 16.7324 19.4129 16.8092 19.5167 16.81ZM39.0656 21.3317C39.047 21.1461 39.02 20.9461 39.0065 20.7411C38.9812 20.3782 38.9778 20.0129 38.9415 19.6518C38.8049 18.3785 38.557 17.1196 38.2007 15.8895C37.9256 14.9175 37.6379 13.9489 37.303 12.9963C36.9992 12.1323 36.7199 11.2607 36.4128 10.3975C36.2086 9.82715 36.0255 9.24918 35.8424 8.67121C35.6425 8.04262 35.4661 7.40559 35.2518 6.78121C34.9767 5.96446 34.6932 5.15024 34.4747 4.31577C34.4081 4.06265 34.311 3.93609 34.2469 3.99937C34.1313 4.11159 34.1954 4.25249 34.2191 4.37568C34.4283 5.47255 34.4882 6.5939 34.6046 7.70596C34.689 8.48221 34.6654 9.26268 34.7666 10.0406C34.9076 11.1215 34.9286 12.2166 34.9708 13.3068C34.9902 13.8054 34.9978 14.3041 35.0012 14.8027C35.0071 15.5436 35.0316 16.2852 34.9506 17.0235C34.942 17.0767 34.9482 17.1313 34.9684 17.1813C34.9886 17.2312 35.0222 17.2747 35.0653 17.307C35.0974 17.3323 35.1295 17.3576 35.1598 17.3838C36.1065 18.2064 37.0355 19.0493 37.8505 20.0053C38.199 20.4145 38.5728 20.8086 38.7896 21.314C38.8085 21.3631 38.8372 21.4079 38.874 21.4456C38.9064 21.4661 38.9448 21.4751 38.9829 21.4709C39.0326 21.4709 39.0386 21.4203 39.0521 21.3865C39.0583 21.3687 39.0628 21.3503 39.0656 21.3317ZM20.9064 45.8004C20.9175 46.0166 20.9457 46.2316 20.9907 46.4434C21.0861 46.8914 21.184 47.3386 21.2793 47.7866C21.513 48.8835 21.7923 49.9627 22.0733 51.0452C22.1441 51.3194 22.2302 51.5894 22.2251 51.8771C22.2228 51.9041 22.2277 51.9312 22.2395 51.9556C22.2614 51.9885 22.2901 52.029 22.3239 52.04C22.3433 52.0428 22.3632 52.0411 22.3818 52.0348C22.4005 52.0284 22.4173 52.0178 22.431 52.0037C22.4769 51.9377 22.5157 51.867 22.5466 51.7927C22.6509 51.5606 22.7775 51.339 22.9246 51.1312C23.3433 50.5526 23.7128 49.9398 24.0291 49.2995C24.505 48.3182 25.0348 47.3639 25.5419 46.3978C25.6061 46.2746 25.5647 46.1894 25.4246 46.1708C25.05 46.1202 24.6754 46.078 24.3016 46.0257C23.9818 45.9818 23.6612 45.9413 23.344 45.8781C22.642 45.7447 21.9459 45.5819 21.2346 45.5237C21.1681 45.5143 21.1009 45.5104 21.0338 45.5119C20.9998 45.5138 20.9679 45.5285 20.9444 45.5531C20.9209 45.5777 20.9076 45.6103 20.9072 45.6443C20.8996 45.6941 20.903 45.7481 20.903 45.8013L20.9064 45.8004ZM27.6631 49.3146C27.6783 49.1594 27.6083 49.0421 27.5467 48.9223C27.1611 48.1773 26.6304 47.5284 26.1638 46.8357C26.1521 46.8193 26.1362 46.8062 26.1177 46.7979C26.0993 46.7896 26.079 46.7864 26.0589 46.7885C26.0388 46.7907 26.0196 46.7981 26.0034 46.8101C25.9871 46.8221 25.9743 46.8382 25.9663 46.8568C25.8315 47.1805 25.6674 47.4911 25.4761 47.7849C25.4263 47.8583 25.455 47.9376 25.5605 47.9646C25.6318 47.9851 25.6971 48.0224 25.751 48.0733C25.8049 48.1243 25.8457 48.1874 25.8701 48.2574C25.9199 48.368 25.9722 48.4776 26.0229 48.5873C26.1688 48.9054 26.2616 49.2472 26.465 49.5391C26.4937 49.5845 26.5138 49.6348 26.5241 49.6876C26.5353 49.7336 26.531 49.782 26.512 49.8253C26.4929 49.8686 26.4601 49.9044 26.4186 49.9272C26.3756 49.947 26.327 49.9509 26.2815 49.9382C26.2359 49.9255 26.1963 49.8971 26.1697 49.858C26.146 49.8254 26.1253 49.7907 26.1081 49.7542C25.9182 49.367 25.7318 48.978 25.5386 48.5924C25.4795 48.4768 25.4702 48.2861 25.3234 48.276C25.1352 48.2633 25.1428 48.4802 25.0753 48.5992C24.9724 48.778 24.9817 48.7882 25.2103 48.8599C25.2557 48.8731 25.2971 48.8972 25.3309 48.9302C25.3648 48.9631 25.39 49.0039 25.4044 49.0489C25.558 49.4665 25.7098 49.8842 25.8566 50.3035C25.874 50.3684 25.8783 50.4361 25.8693 50.5027C25.8626 50.5971 25.7934 50.6402 25.7081 50.6562C25.675 50.664 25.6401 50.661 25.6088 50.6474C25.5775 50.6339 25.5514 50.6107 25.5343 50.5811C25.5035 50.522 25.4788 50.4598 25.4609 50.3955C25.428 50.2516 25.3837 50.1105 25.3285 49.9736C25.1925 49.7257 25.0795 49.4659 24.991 49.1974C24.9766 49.1467 24.953 49.0953 24.8863 49.0894C24.8592 49.0875 24.8323 49.0954 24.8105 49.1116C24.7886 49.1279 24.7733 49.1514 24.7674 49.178C24.6568 49.529 24.4425 49.8277 24.2864 50.1559C24.1961 50.3474 24.1902 50.3432 24.4105 50.4579C24.4594 50.4784 24.5026 50.5105 24.5362 50.5516C24.6222 50.6883 24.7016 50.8289 24.7741 50.9735C24.787 50.9973 24.7948 51.0236 24.7971 51.0507C24.7993 51.0778 24.7959 51.105 24.7871 51.1307C24.7784 51.1563 24.7643 51.1799 24.746 51.1999C24.7276 51.2199 24.7053 51.2359 24.6805 51.2468C24.6378 51.2703 24.5877 51.2765 24.5406 51.2641C24.4935 51.2517 24.4529 51.2217 24.4273 51.1802C24.3311 51.0351 24.2476 50.8798 24.1565 50.7305C24.0907 50.6233 24.0004 50.6208 23.9472 50.7305C23.705 51.213 23.4018 51.6624 23.0453 52.0678C23.0096 52.1089 22.9811 52.1557 22.9609 52.2062C22.9556 52.2148 22.9521 52.2243 22.9506 52.2343C22.9491 52.2443 22.9497 52.2545 22.9522 52.2642C22.9547 52.274 22.9592 52.2831 22.9653 52.2911C22.9714 52.2992 22.9791 52.3058 22.9879 52.3108C23.0107 52.3226 23.0419 52.3412 23.0613 52.3344C23.1241 52.3122 23.1845 52.2839 23.2419 52.2501C23.4621 52.1201 23.6705 51.9632 23.9025 51.8602C24.5699 51.5666 25.1766 51.1591 25.833 50.8477C25.9181 50.8067 25.9982 50.756 26.0718 50.6967C26.3611 50.4758 26.6644 50.2737 26.9797 50.0917C27.176 49.9737 27.357 49.832 27.5188 49.6699C27.5654 49.6236 27.602 49.5683 27.6262 49.5074C27.6504 49.4464 27.6619 49.3811 27.6597 49.3155L27.6631 49.3146ZM21.6303 51.6771C21.6092 51.6029 21.5864 51.4974 21.5459 51.3979C21.404 51.0337 21.2864 50.6605 21.1941 50.2807C20.9899 49.4294 20.7722 48.5806 20.6035 47.7225C20.4786 47.104 20.3098 46.4881 20.3276 45.8468C20.3277 45.8198 20.3231 45.793 20.3141 45.7675C20.3109 45.751 20.3044 45.7352 20.2949 45.7213C20.2854 45.7074 20.2732 45.6955 20.259 45.6865C20.2447 45.6775 20.2288 45.6715 20.2121 45.6689C20.1955 45.6663 20.1785 45.6671 20.1622 45.6713C20.0979 45.69 20.0359 45.7157 19.9774 45.7481L19.2239 46.1371C18.982 46.2549 18.7522 46.3962 18.538 46.559C18.5142 46.5726 18.4937 46.5911 18.4779 46.6134C18.462 46.6357 18.4512 46.6612 18.4462 46.688C18.4411 46.7149 18.442 46.7425 18.4486 46.7691C18.4553 46.7956 18.4676 46.8203 18.4848 46.8416C18.5177 46.9007 18.5574 46.9555 18.5953 47.0104C18.7396 47.2213 18.8932 47.4272 19.0273 47.6449C19.3454 48.1612 19.6542 48.6827 19.9664 49.2024C20.4322 49.9753 20.941 50.7212 21.324 51.5447C21.3547 51.6341 21.4096 51.7132 21.4826 51.7733C21.5042 51.7869 21.53 51.7923 21.5552 51.7885C21.5923 51.7843 21.6193 51.7548 21.6269 51.678L21.6303 51.6771Z" fill="black"/>
<path d="M23.0342 32.2676C23.0342 32.1528 23.0342 32.0718 23.0342 31.9908C23.0355 31.9375 23.0431 31.8845 23.057 31.833C23.0744 31.7891 23.1052 31.7518 23.145 31.7265C23.1849 31.7012 23.2318 31.6892 23.2789 31.6921C23.3198 31.6978 23.3582 31.715 23.3896 31.7417C23.421 31.7685 23.4441 31.8037 23.4561 31.8432C23.4855 31.9474 23.4841 32.0579 23.4519 32.1613C23.4286 32.2665 23.4301 32.3756 23.4562 32.4801C23.4822 32.5847 23.5322 32.6817 23.602 32.7637C23.6755 32.8598 23.7357 32.9654 23.7809 33.0776C23.8008 33.1347 23.799 33.1971 23.776 33.253C23.7529 33.309 23.7101 33.3545 23.6558 33.381C23.6014 33.4075 23.5392 33.4131 23.4809 33.3969C23.4227 33.3806 23.3724 33.3436 23.3396 33.2927C23.1557 32.9637 22.9355 32.643 23.0342 32.2676Z" fill="black"/>
<path d="M32.9752 18.2174C32.9499 18.403 32.9297 18.5895 32.8984 18.7743C32.8863 18.8198 32.8585 18.8596 32.8199 18.8866C32.7813 18.9136 32.7344 18.9261 32.6875 18.9219C32.6406 18.9185 32.5963 18.8987 32.5624 18.866C32.5285 18.8334 32.5071 18.7899 32.5019 18.7431C32.5047 18.6631 32.5143 18.5835 32.5306 18.5051C32.5652 18.2883 32.5534 18.263 32.3534 18.1676C32.2913 18.1431 32.2307 18.115 32.172 18.0833C32.1213 18.0499 32.0843 17.9994 32.0677 17.941C32.0512 17.8826 32.0561 17.8202 32.0817 17.7652C32.1067 17.7097 32.1522 17.6661 32.2088 17.6436C32.2653 17.6211 32.3283 17.6214 32.3846 17.6445C32.5612 17.7101 32.7249 17.8064 32.8681 17.9289C32.9099 17.9632 32.9418 18.008 32.9607 18.0587C32.9795 18.1094 32.9845 18.1641 32.9752 18.2174Z" fill="black"/>
<path d="M21.6971 44.7019C21.6566 44.7019 21.6128 44.6952 21.5765 44.6968C21.2997 44.7095 21.2449 44.6023 21.1436 44.3593C21.1247 44.3162 21.1204 44.2681 21.1316 44.2223C21.1427 44.1766 21.1686 44.1358 21.2052 44.1062C21.2406 44.0743 21.2852 44.0545 21.3326 44.0498C21.3799 44.0451 21.4276 44.0557 21.4685 44.0801C21.5046 44.0978 21.5386 44.1196 21.5697 44.145C21.6096 44.1812 21.6564 44.2089 21.7073 44.2263C21.7583 44.2437 21.8122 44.2505 21.8659 44.2463C21.8939 44.2421 21.9223 44.2421 21.9503 44.2463C22.0109 44.2504 22.0679 44.2768 22.1103 44.3204C22.1527 44.364 22.1774 44.4218 22.1798 44.4825C22.1755 44.615 22.065 44.7078 21.9022 44.7103C21.8355 44.7103 21.768 44.7036 21.7014 44.7002L21.6971 44.7019Z" fill="black"/>
<path d="M24.5369 21.1444C24.5462 21.3132 24.5571 21.4051 24.5546 21.4988C24.5544 21.5529 24.5343 21.6049 24.498 21.645C24.4616 21.685 24.4118 21.7102 24.358 21.7156C24.3106 21.7209 24.2628 21.7087 24.2237 21.6814C24.1846 21.6541 24.1568 21.6135 24.1454 21.5671C24.104 21.3292 24.0703 21.0904 24.0483 20.8499C24.0482 20.7951 24.069 20.7424 24.1065 20.7024C24.144 20.6624 24.1953 20.6382 24.25 20.6348C24.3101 20.6248 24.3717 20.638 24.4224 20.6716C24.4732 20.7053 24.5092 20.757 24.5234 20.8162C24.5339 20.8823 24.5382 20.9493 24.536 21.0162C24.5377 21.0837 24.5369 21.1503 24.5369 21.1444Z" fill="black"/>
<path d="M22.6378 36.6779C22.6327 36.585 22.6218 36.4914 22.6251 36.3977C22.6279 36.3305 22.6563 36.2668 22.7044 36.2198C22.7526 36.1727 22.8169 36.1458 22.8842 36.1446C22.9179 36.1446 22.9513 36.1513 22.9824 36.1644C23.0135 36.1775 23.0417 36.1967 23.0653 36.2208C23.0889 36.245 23.1074 36.2736 23.1198 36.305C23.1321 36.3364 23.1381 36.3699 23.1373 36.4036C23.1151 36.6304 23.0804 36.8557 23.0335 37.0786C23.0228 37.1182 22.9981 37.1526 22.9639 37.1752C22.9298 37.1979 22.8885 37.2073 22.8479 37.2018C22.8005 37.2049 22.7538 37.19 22.7169 37.1601C22.68 37.1303 22.6557 37.0876 22.6488 37.0407C22.637 36.9217 22.6488 36.801 22.6488 36.6812L22.6378 36.6779Z" fill="black"/>
<path d="M27.9025 17.3981C27.9021 17.4251 27.896 17.4517 27.8847 17.4763C27.8734 17.5008 27.8571 17.5227 27.8369 17.5406C27.8166 17.5584 27.7929 17.5719 27.7671 17.58C27.7414 17.5882 27.7142 17.5909 27.6874 17.588C27.4528 17.5356 27.2208 17.4715 26.9921 17.3981C26.9439 17.3737 26.9048 17.3344 26.8805 17.2861C26.8562 17.2379 26.848 17.1831 26.8571 17.1298C26.8702 17.0703 26.9042 17.0175 26.953 16.9811C27.0018 16.9447 27.0622 16.9271 27.1229 16.9315C27.1764 16.9358 27.2288 16.9486 27.2782 16.9695C27.4376 17.037 27.5946 17.1121 27.754 17.1804C27.7981 17.1971 27.8361 17.2269 27.8626 17.2658C27.8892 17.3048 27.9031 17.351 27.9025 17.3981Z" fill="black"/>
<path d="M24.6518 23.4909C24.4662 23.506 24.2982 23.3432 24.3413 23.1905C24.4018 22.9873 24.4742 22.7878 24.5581 22.5931C24.5771 22.5501 24.6116 22.5158 24.6548 22.497C24.6979 22.4782 24.7466 22.4764 24.791 22.4919C24.837 22.5032 24.8775 22.5305 24.9054 22.5687C24.9333 22.607 24.9469 22.6538 24.9437 22.7011C24.9163 22.911 24.8783 23.1194 24.8298 23.3255C24.8207 23.368 24.7987 23.4067 24.7669 23.4362C24.735 23.4658 24.6948 23.4849 24.6518 23.4909Z" fill="black"/>
<path d="M22.0106 42.4896C22.0165 42.5967 22.0165 42.704 22.0106 42.8111C22.0085 42.8449 21.999 42.8779 21.983 42.9077C21.9669 42.9376 21.9445 42.9636 21.9174 42.984C21.8903 43.0043 21.8591 43.0186 21.8259 43.0257C21.7928 43.0329 21.7585 43.0328 21.7254 43.0254C21.6649 43.0186 21.6095 42.9882 21.5713 42.9408C21.533 42.8934 21.515 42.8328 21.5212 42.7723C21.5406 42.5723 21.5727 42.3732 21.6005 42.1732C21.6058 42.1467 21.6161 42.1215 21.6309 42.0989C21.6471 42.0618 21.6745 42.0305 21.7093 42.0097C21.7441 41.9888 21.7845 41.9793 21.825 41.9825C21.8646 41.9885 21.9017 42.0058 21.9317 42.0325C21.9616 42.0592 21.9832 42.094 21.9937 42.1327C22.0393 42.2483 21.9988 42.369 22.0106 42.4896Z" fill="black"/>
<path d="M25.2215 18.3246C25.1776 18.4976 25.1321 18.7203 25.062 18.9346C25.0224 19.0561 24.8511 19.0958 24.7136 19.041C24.6852 19.0302 24.6593 19.014 24.6374 18.9931C24.6154 18.9723 24.5978 18.9472 24.5856 18.9195C24.5735 18.8918 24.5669 18.8619 24.5664 18.8316C24.5659 18.8013 24.5715 18.7712 24.5828 18.7431C24.6671 18.5482 24.7667 18.3567 24.8705 18.1702C24.8912 18.1346 24.9238 18.1075 24.9625 18.0936C25.0013 18.0797 25.0437 18.0799 25.0823 18.0943C25.1641 18.1204 25.2131 18.1845 25.2215 18.3246Z" fill="black"/>
<path d="M23.2073 40.3194C23.2001 40.1992 23.2001 40.0786 23.2073 39.9583C23.225 39.8124 23.3507 39.739 23.506 39.7643C23.5397 39.7664 23.5725 39.7759 23.6021 39.792C23.6317 39.8082 23.6575 39.8307 23.6775 39.8579C23.6975 39.885 23.7114 39.9163 23.718 39.9494C23.7247 39.9825 23.724 40.0166 23.7161 40.0494C23.6764 40.2325 23.6317 40.4148 23.5794 40.5962C23.5701 40.6361 23.549 40.6723 23.5189 40.7001C23.4888 40.7279 23.4511 40.7461 23.4106 40.7523C23.3848 40.76 23.3577 40.762 23.3311 40.7582C23.3045 40.7545 23.2789 40.745 23.2563 40.7305C23.2336 40.7161 23.2144 40.6969 23.1998 40.6743C23.1852 40.6517 23.1757 40.6262 23.1718 40.5996C23.1642 40.5068 23.1718 40.4131 23.1718 40.3194H23.2073Z" fill="black"/>
<path d="M22.448 40.7C22.4537 40.8071 22.4537 40.9144 22.448 41.0215C22.4391 41.0816 22.4084 41.1363 22.3617 41.1752C22.315 41.2141 22.2556 41.2345 22.1949 41.2324C22.1647 41.2338 22.1346 41.229 22.1063 41.2185C22.078 41.208 22.0522 41.192 22.0302 41.1713C22.0082 41.1506 21.9907 41.1257 21.9785 41.0981C21.9664 41.0704 21.9599 41.0407 21.9595 41.0105C21.9734 40.7986 21.9987 40.5877 22.0354 40.3785C22.0487 40.3332 22.0778 40.2941 22.1174 40.2684C22.1571 40.2427 22.2046 40.2321 22.2514 40.2385C22.2918 40.2412 22.3303 40.2571 22.3607 40.2838C22.3912 40.3104 22.4121 40.3464 22.4202 40.3861C22.4348 40.4902 22.4441 40.595 22.448 40.7Z" fill="black"/>
<path d="M22.8404 38.6235C22.8426 38.6369 22.8426 38.6506 22.8404 38.664C22.7653 38.8505 22.6978 39.0403 22.6101 39.2209C22.5779 39.2725 22.528 39.3105 22.4698 39.3279C22.4115 39.3452 22.3489 39.3406 22.2938 39.315C22.2387 39.2893 22.1949 39.2444 22.1706 39.1887C22.1463 39.133 22.1433 39.0703 22.162 39.0125C22.2432 38.8132 22.3551 38.6279 22.4936 38.4632C22.5211 38.4326 22.5586 38.4127 22.5993 38.407C22.6401 38.4013 22.6815 38.4101 22.7164 38.432C22.7522 38.45 22.7826 38.4772 22.8045 38.5109C22.8263 38.5446 22.8387 38.5834 22.8404 38.6235Z" fill="black"/>
<path d="M23.9208 44.5036C23.9116 44.6588 23.7723 44.7643 23.6576 44.7112C23.4754 44.6257 23.2982 44.53 23.1269 44.4243C23.0754 44.3903 23.0394 44.3375 23.0266 44.2771C23.0138 44.2168 23.0253 44.1539 23.0585 44.102C23.0878 44.0482 23.1356 44.0069 23.193 43.9856C23.2504 43.9644 23.3135 43.9646 23.3707 43.9864C23.4087 44 23.4445 44.019 23.477 44.0429C23.5935 44.134 23.7091 44.2277 23.823 44.3222C23.8524 44.3426 23.8767 44.3696 23.8937 44.4011C23.9107 44.4327 23.92 44.4678 23.9208 44.5036Z" fill="black"/>
<path d="M25.7687 17.1282C25.5999 17.0826 25.4059 17.0379 25.216 16.9738C25.1636 16.9579 25.1188 16.9234 25.09 16.8768C25.0613 16.8301 25.0506 16.7746 25.0599 16.7206C25.0656 16.6908 25.0771 16.6623 25.0939 16.637C25.1107 16.6116 25.1324 16.5899 25.1577 16.5731C25.183 16.5562 25.2115 16.5447 25.2413 16.539C25.2712 16.5333 25.3019 16.5337 25.3316 16.5401C25.5371 16.599 25.7389 16.6702 25.9357 16.7535C25.9801 16.7716 26.0164 16.8049 26.0383 16.8475C26.0601 16.8901 26.0659 16.9391 26.0547 16.9856C26.0277 17.0817 25.9222 17.14 25.7687 17.1282Z" fill="black"/>
<path d="M19.2205 19.0688C19.1133 19.0688 19.0053 19.0755 18.899 19.0688C18.8385 19.0639 18.782 19.0365 18.7408 18.9919C18.6995 18.9474 18.6765 18.889 18.6763 18.8283C18.6763 18.6916 18.7961 18.5532 18.9294 18.5693C19.1539 18.5985 19.3767 18.6396 19.5968 18.6925C19.6414 18.7091 19.6781 18.742 19.6994 18.7846C19.7207 18.8272 19.725 18.8763 19.7116 18.922C19.7032 18.9614 19.6822 18.9969 19.6517 19.0233C19.6212 19.0496 19.583 19.0653 19.5428 19.0679C19.4898 19.0734 19.4363 19.0734 19.3833 19.0679C19.3293 19.0679 19.2762 19.0603 19.223 19.0561L19.2205 19.0688Z" fill="black"/>
<path d="M37.1165 26.3554C37.1206 26.4025 37.1093 26.4497 37.0841 26.4898C37.059 26.5298 37.0215 26.5606 36.9772 26.5773C36.9514 26.5853 36.9243 26.5879 36.8974 26.5851C36.8706 26.5824 36.8445 26.5742 36.8209 26.5611C36.7973 26.548 36.7765 26.5303 36.7599 26.509C36.7433 26.4878 36.7311 26.4633 36.7241 26.4373C36.5248 25.9672 36.2995 25.5086 36.0491 25.0636C35.6568 24.3431 35.2459 23.6293 34.8493 22.9138C34.5759 22.4193 34.3118 21.9198 34.0477 21.4203C34.0045 21.3373 33.9719 21.2491 33.9507 21.1579C33.9398 21.112 33.9419 21.0641 33.9568 21.0193C33.9717 20.9746 33.9988 20.9349 34.0351 20.9048C34.0535 20.8852 34.0759 20.8697 34.1007 20.8593C34.1255 20.8489 34.1523 20.8438 34.1792 20.8445C34.2061 20.8451 34.2326 20.8514 34.2569 20.863C34.2812 20.8745 34.3028 20.8911 34.3203 20.9115C34.3604 20.9645 34.3957 21.021 34.4257 21.0803C34.6507 21.5089 34.8757 21.9378 35.1007 22.367C35.7347 23.5837 36.3681 24.8004 37.0009 26.0171C37.066 26.1189 37.1057 26.235 37.1165 26.3554Z" fill="black"/>
<path d="M34.5092 19.6931C34.5514 19.7046 34.592 19.7216 34.6298 19.7438C34.6721 19.7773 34.7084 19.8178 34.737 19.8636C35.1673 20.4998 35.6001 21.1351 35.9427 21.8261C36.3502 22.6463 36.7493 23.4714 37.2244 24.2561C37.2456 24.2906 37.2628 24.3274 37.2758 24.3658C37.2907 24.4108 37.2899 24.4596 37.2737 24.5041C37.2575 24.5486 37.2267 24.5864 37.1864 24.6113C37.1396 24.639 37.0842 24.6481 37.0311 24.6368C36.978 24.6256 36.931 24.5948 36.8995 24.5506C36.8688 24.5058 36.8406 24.4593 36.8151 24.4114C36.2549 23.382 35.7242 22.3358 35.1276 21.3258C34.928 20.9744 34.7059 20.6361 34.4628 20.3133C34.3809 20.2233 34.3204 20.116 34.2856 19.9994C34.2765 19.9643 34.2754 19.9276 34.2822 19.892C34.2891 19.8564 34.3037 19.8228 34.3251 19.7935C34.3464 19.7642 34.374 19.74 34.4059 19.7227C34.4377 19.7053 34.473 19.6952 34.5092 19.6931Z" fill="black"/>
<path d="M34.9238 19.0164C34.9709 19.0193 35.0168 19.0331 35.0577 19.0568C35.0986 19.0806 35.1333 19.1135 35.1592 19.1531C35.2891 19.3219 35.4224 19.4948 35.5524 19.6661C36.2063 20.5267 36.7699 21.4464 37.32 22.3737C37.4888 22.6631 37.6423 22.9643 37.8415 23.2402C37.8794 23.295 37.9063 23.3566 37.9208 23.4217C37.9284 23.4685 37.9199 23.5166 37.8968 23.5581C37.8737 23.5996 37.8372 23.6321 37.7934 23.6503C37.7559 23.6663 37.7144 23.6705 37.6745 23.6624C37.6345 23.6542 37.598 23.6341 37.5698 23.6047C37.5323 23.566 37.5008 23.5219 37.4761 23.474C36.872 22.3087 36.1261 21.2363 35.3541 20.1791C35.1955 19.9614 35.0166 19.7572 34.8478 19.5514C34.7924 19.4937 34.744 19.4297 34.7035 19.3607C34.6879 19.3236 34.6816 19.2833 34.685 19.2433C34.6884 19.2032 34.7015 19.1646 34.7232 19.1307C34.7448 19.0968 34.7744 19.0687 34.8094 19.0488C34.8443 19.0289 34.8836 19.0178 34.9238 19.0164Z" fill="black"/>
<path d="M33.3902 23.6562C33.4326 23.6695 33.4729 23.6885 33.51 23.7128C33.5507 23.7475 33.5845 23.7896 33.6096 23.8368C34.1302 24.8425 34.7774 25.7707 35.3747 26.73C35.6279 27.1291 35.8666 27.5324 36.1079 27.9366C36.1568 28.0155 36.1949 28.1006 36.221 28.1897C36.233 28.2428 36.2239 28.2985 36.1956 28.345C36.1672 28.3914 36.1219 28.425 36.0691 28.4386C36.0234 28.4517 35.9745 28.4485 35.9309 28.4294C35.8873 28.4103 35.8517 28.3765 35.8304 28.334C35.8169 28.3109 35.805 28.287 35.7949 28.2623C35.4574 27.5096 34.9773 26.8422 34.5141 26.1639C34.1277 25.5977 33.7547 25.0189 33.3877 24.4409C33.3042 24.3031 33.2327 24.1583 33.1742 24.0081C33.1535 23.9571 33.1506 23.9007 33.1659 23.8479C33.1812 23.7951 33.2139 23.749 33.2586 23.717C33.2993 23.6904 33.3436 23.6699 33.3902 23.6562Z" fill="black"/>
<path d="M35.7274 29.5903C35.7222 29.637 35.7035 29.6811 35.6735 29.7173C35.6435 29.7534 35.6036 29.78 35.5587 29.7937C35.5188 29.8035 35.4768 29.7997 35.4395 29.7827C35.4021 29.7657 35.3716 29.7366 35.3528 29.7C35.1621 29.3895 34.9765 29.0773 34.7926 28.7635C34.6086 28.4496 34.4416 28.1577 34.2711 27.8514C33.8897 27.1696 33.5103 26.4865 33.1329 25.8019C33.0926 25.7321 33.0603 25.6579 33.0367 25.5808C33.0216 25.5217 33.0283 25.459 33.0558 25.4044C33.0832 25.3498 33.1295 25.307 33.1861 25.2838C33.2414 25.2572 33.3049 25.2531 33.3632 25.2725C33.4215 25.2918 33.4699 25.3331 33.4982 25.3876C33.5615 25.5058 33.6046 25.6348 33.667 25.7538C34.1943 26.7553 34.6795 27.7788 35.2701 28.7483C35.395 28.9558 35.5291 29.1575 35.6582 29.3634C35.7066 29.4289 35.731 29.509 35.7274 29.5903Z" fill="black"/>
<path d="M33.8344 22.4944C33.8681 22.4944 33.9013 22.502 33.9317 22.5166C33.9621 22.5312 33.9888 22.5525 34.0099 22.5788C34.0428 22.6215 34.0672 22.6702 34.0816 22.7222C34.2326 23.3601 34.5752 23.9136 34.8638 24.4941C35.2139 25.1927 35.6518 25.8441 36.0534 26.5106C36.1226 26.6254 36.2138 26.7266 36.288 26.8389C36.3172 26.8837 36.3362 26.9344 36.3437 26.9874C36.3488 27.0277 36.3416 27.0687 36.3229 27.1049C36.3042 27.1411 36.275 27.1707 36.2391 27.1899C36.2047 27.2119 36.1636 27.2212 36.1231 27.2161C36.0825 27.211 36.045 27.1919 36.0172 27.162C35.9773 27.1262 35.9435 27.0844 35.9168 27.038C35.3548 26.1191 34.7878 25.2037 34.2368 24.2789C34.0189 23.9226 33.835 23.5466 33.6876 23.1559C33.6425 23.0436 33.6075 22.9276 33.5829 22.8091C33.5775 22.7717 33.5798 22.7336 33.5897 22.6972C33.5996 22.6608 33.6169 22.6267 33.6404 22.5972C33.664 22.5677 33.6934 22.5434 33.7267 22.5257C33.7601 22.508 33.7967 22.4973 33.8344 22.4944Z" fill="black"/>
<path d="M31.4355 30.3269C31.4355 30.1978 31.4634 30.1143 31.5545 30.0578C31.5764 30.0422 31.6012 30.0312 31.6275 30.0254C31.6537 30.0195 31.6809 30.0191 31.7073 30.0239C31.7338 30.0288 31.759 30.039 31.7814 30.0538C31.8039 30.0686 31.8231 30.0877 31.838 30.1101C31.8679 30.1549 31.8912 30.2038 31.9072 30.2552C32.1435 31.088 32.5316 31.8583 32.9121 32.6278C33.1264 33.0624 33.3525 33.491 33.566 33.9247C33.6341 34.0708 33.693 34.221 33.7424 34.3744C33.7534 34.4136 33.7534 34.4551 33.7426 34.4943C33.7317 34.5336 33.7103 34.5692 33.6808 34.5972C33.6656 34.6151 33.6466 34.6295 33.6253 34.6394C33.6039 34.6493 33.5807 34.6544 33.5572 34.6544C33.5336 34.6544 33.5104 34.6493 33.489 34.6394C33.4677 34.6295 33.4488 34.6151 33.4335 34.5972C33.4085 34.5659 33.3875 34.5316 33.3711 34.4951C32.9965 33.5846 32.497 32.7384 32.0422 31.8685C31.8186 31.4407 31.59 31.0112 31.4828 30.5328C31.4659 30.4594 31.4474 30.375 31.4355 30.3269Z" fill="black"/>
<path d="M32.876 26.4162C32.9095 26.412 32.9434 26.4164 32.9747 26.4289C33.006 26.4415 33.0336 26.4618 33.0549 26.4879C33.1097 26.564 33.1582 26.6444 33.2 26.7284C33.643 27.6329 34.0817 28.5399 34.5281 29.4427C34.6766 29.7439 34.8462 30.0333 35.0048 30.3303C35.0387 30.3867 35.067 30.4464 35.0892 30.5084C35.1026 30.5609 35.097 30.6165 35.0734 30.6653C35.0498 30.7141 35.0096 30.7529 34.9601 30.775C34.9157 30.7916 34.867 30.7929 34.8219 30.7785C34.7767 30.7641 34.7377 30.7349 34.7112 30.6957C34.6787 30.6524 34.6504 30.606 34.6268 30.5573C34.0801 29.4039 33.4396 28.2986 32.8676 27.1587C32.8195 27.0625 32.7537 26.9764 32.6988 26.8853C32.6728 26.846 32.6548 26.8018 32.6459 26.7555C32.6371 26.7091 32.6376 26.6615 32.6474 26.6153C32.6589 26.5619 32.6874 26.5136 32.7286 26.4777C32.7698 26.4418 32.8215 26.4202 32.876 26.4162Z" fill="black"/>
<path d="M34.5843 31.3664C34.5801 31.4105 34.5644 31.4527 34.5388 31.4889C34.5132 31.525 34.4786 31.5538 34.4384 31.5723C34.407 31.5852 34.3728 31.5892 34.3393 31.584C34.3059 31.5788 34.2744 31.5646 34.2485 31.5428C34.1676 31.4711 34.1058 31.3803 34.0688 31.2787C33.7836 30.7277 33.5085 30.1717 33.2107 29.6283C32.9458 29.144 32.68 28.6572 32.3104 28.2387C32.2591 28.177 32.2196 28.1063 32.194 28.0303C32.1825 27.977 32.1876 27.9214 32.2088 27.8712C32.2299 27.8209 32.266 27.7783 32.3121 27.7493C32.3573 27.7192 32.4116 27.7061 32.4655 27.7122C32.5194 27.7184 32.5694 27.7435 32.6066 27.783C32.6624 27.8413 32.7132 27.9043 32.7584 27.9712C33.1072 28.4679 33.4124 28.9938 33.6705 29.5431C33.9355 30.1033 34.1886 30.6703 34.5143 31.2002C34.5421 31.2536 34.5655 31.3092 34.5843 31.3664Z" fill="black"/>
<path d="M33.8412 32.2979C33.8416 32.3433 33.8286 32.3877 33.8038 32.4257C33.7791 32.4636 33.7436 32.4935 33.702 32.5114C33.6656 32.5297 33.6243 32.5358 33.5842 32.5288C33.5441 32.5218 33.5073 32.5021 33.4793 32.4726C33.4276 32.4117 33.3858 32.3431 33.3552 32.2692C32.9204 31.3158 32.453 30.379 31.9529 29.4587C31.8951 29.3526 31.846 29.242 31.8061 29.128C31.7937 29.0827 31.7945 29.0348 31.8084 28.9899C31.8223 28.9451 31.8487 28.9052 31.8846 28.8748C31.9045 28.852 31.9292 28.8337 31.9569 28.8213C31.9846 28.809 32.0147 28.8028 32.045 28.8032C32.0754 28.8036 32.1053 28.8106 32.1326 28.8237C32.16 28.8368 32.1842 28.8557 32.2035 28.8791C32.2286 28.9104 32.2498 28.9447 32.2668 28.9811C32.4769 29.403 32.698 29.8165 32.892 30.2468C33.1797 30.883 33.4303 31.5352 33.7771 32.1435C33.8022 32.1933 33.8237 32.245 33.8412 32.2979Z" fill="black"/>
<path d="M30.4139 34.0217C30.4499 34.0187 30.4859 34.0256 30.5183 34.0415C30.5507 34.0574 30.5782 34.0817 30.5979 34.112C30.624 34.1584 30.6455 34.2073 30.662 34.2579C31.0117 35.2744 31.4664 36.2517 32.0187 37.1739C32.0535 37.231 32.0802 37.2926 32.098 37.357C32.1112 37.4025 32.1073 37.4513 32.0871 37.4941C32.0669 37.537 32.0318 37.571 31.9884 37.5899C31.9454 37.6075 31.8982 37.6115 31.8529 37.6013C31.8077 37.5912 31.7666 37.5675 31.7352 37.5334C31.7052 37.4891 31.6787 37.4426 31.6559 37.3941C31.3184 36.7537 30.9809 36.1125 30.6341 35.4738C30.4733 35.1787 30.3475 34.8658 30.2595 34.5414C30.2328 34.4378 30.2203 34.3311 30.2224 34.2242C30.2233 34.1726 30.2435 34.1233 30.2789 34.0858C30.3143 34.0483 30.3625 34.0255 30.4139 34.0217Z" fill="black"/>
<path d="M31.0404 32.7426C31.0878 32.745 31.1336 32.7605 31.1727 32.7873C31.2119 32.8141 31.2429 32.8512 31.2623 32.8944C31.4564 33.2632 31.6522 33.6302 31.8352 34.004C32.0766 34.4984 32.3069 34.9987 32.5415 35.4966C32.5721 35.5564 32.5984 35.6185 32.6199 35.6822C32.6341 35.7342 32.6292 35.7896 32.6062 35.8383C32.5831 35.887 32.5434 35.9259 32.4942 35.948C32.45 35.9656 32.4009 35.9668 32.3558 35.9513C32.3108 35.9358 32.2728 35.9047 32.2487 35.8636C32.2253 35.8309 32.2061 35.7955 32.1913 35.7581C31.8952 34.9296 31.4193 34.1955 30.9839 33.4395C30.9204 33.3369 30.864 33.23 30.8151 33.1197C30.7925 33.0702 30.7853 33.015 30.7943 32.9613C30.8033 32.9077 30.8282 32.8579 30.8658 32.8185C30.8871 32.7933 30.914 32.7733 30.9442 32.7602C30.9745 32.747 31.0074 32.741 31.0404 32.7426Z" fill="black"/>
<path d="M29.4992 37.3503C29.5462 37.3553 29.5909 37.3733 29.6282 37.4024C29.6655 37.4315 29.6939 37.4704 29.7102 37.5148C29.862 37.8135 30.0148 38.1122 30.1607 38.4134C30.4138 38.945 30.667 39.4782 30.9201 40.0115C30.9503 40.0711 30.9738 40.1339 30.9901 40.1988C31.0016 40.2516 30.9937 40.3067 30.968 40.3542C30.9423 40.4017 30.9005 40.4385 30.8501 40.4578C30.8055 40.4736 30.7568 40.4728 30.7128 40.4556C30.6688 40.4384 30.6325 40.406 30.6104 40.3642C30.5821 40.3188 30.5584 40.2708 30.5396 40.2207C30.2896 39.6126 29.9899 39.0262 29.6435 38.4674C29.5212 38.2598 29.4115 38.0455 29.2959 37.8321C29.2495 37.7495 29.2309 37.6543 29.2427 37.5604C29.2513 37.4996 29.2824 37.4442 29.33 37.4053C29.3775 37.3663 29.4379 37.3467 29.4992 37.3503Z" fill="black"/>
<path d="M30.0465 43.0178C30.0434 43.0594 30.0286 43.0993 30.0038 43.1329C29.979 43.1664 29.9453 43.1924 29.9065 43.2076C29.8751 43.2209 29.8403 43.2239 29.8071 43.2162C29.7739 43.2085 29.744 43.1904 29.7217 43.1646C29.667 43.1055 29.6184 43.041 29.5766 42.9722C29.4137 42.7242 29.2458 42.4795 29.0939 42.2247C28.8587 41.8327 28.6018 41.4541 28.3244 41.0907C28.2582 41.0232 28.213 40.9379 28.1945 40.8451C28.1877 40.7915 28.1975 40.737 28.2227 40.6892C28.2479 40.6413 28.2873 40.6024 28.3354 40.5777C28.3586 40.5632 28.3845 40.5535 28.4115 40.5491C28.4385 40.5447 28.4661 40.5457 28.4927 40.5521C28.5193 40.5584 28.5444 40.57 28.5665 40.5861C28.5886 40.6023 28.6073 40.6226 28.6214 40.646C28.8366 40.954 29.0695 41.2535 29.2391 41.5918C29.4324 42.0073 29.6658 42.403 29.936 42.7731C29.9978 42.8409 30.0365 42.9266 30.0465 43.0178Z" fill="black"/>
<path d="M30.3861 41.2223C30.3891 41.2747 30.3749 41.3266 30.3457 41.3702C30.3164 41.4137 30.2737 41.4466 30.2241 41.4636C30.1858 41.4774 30.1442 41.4788 30.1051 41.4676C30.066 41.4564 30.0315 41.4331 30.0064 41.4012C29.9729 41.3597 29.9446 41.3144 29.922 41.2662C29.6194 40.6208 29.2629 40.0021 28.8564 39.4166C28.8165 39.3631 28.7842 39.3043 28.7602 39.242C28.738 39.178 28.7396 39.1082 28.7647 39.0452C28.7898 38.9823 28.8367 38.9306 28.8969 38.8994C29.0015 38.8505 29.1221 38.8901 29.2006 39.0209C29.3812 39.3205 29.5668 39.6166 29.7229 39.928C29.922 40.3237 30.0781 40.7405 30.3363 41.105C30.3585 41.1415 30.3753 41.181 30.3861 41.2223Z" fill="black"/>
<path d="M29.8604 35.8991C29.9045 35.8994 29.9476 35.912 29.985 35.9354C30.0224 35.9588 30.0526 35.9921 30.0722 36.0315C30.2274 36.2847 30.3953 36.5302 30.5261 36.7909C30.7286 37.201 30.905 37.6237 31.0906 38.0422C31.1123 38.0912 31.1262 38.1433 31.1319 38.1966C31.1384 38.2369 31.1316 38.2781 31.1126 38.3142C31.0936 38.3503 31.0633 38.3792 31.0265 38.3966C30.9845 38.4173 30.9368 38.4234 30.8909 38.4139C30.8451 38.4045 30.8037 38.3799 30.7733 38.3443C30.7412 38.3015 30.7162 38.254 30.6991 38.2033C30.5067 37.606 30.1684 37.0879 29.8317 36.5673C29.7651 36.4665 29.7086 36.3594 29.663 36.2475C29.6449 36.2034 29.6396 36.155 29.6478 36.1079C29.656 36.0609 29.6774 36.0172 29.7094 35.9818C29.7263 35.957 29.7487 35.9367 29.775 35.9223C29.8012 35.9079 29.8305 35.9 29.8604 35.8991Z" fill="black"/>
<path d="M28.2767 46.7438C28.2707 46.7793 28.2555 46.8127 28.2327 46.8406C28.21 46.8685 28.1804 46.8901 28.1468 46.9033C28.1161 46.9178 28.082 46.9238 28.0482 46.9207C28.0144 46.9176 27.982 46.9054 27.9544 46.8855C27.9108 46.8545 27.8742 46.8145 27.8473 46.7683C27.6463 46.4327 27.4105 46.1193 27.1436 45.8334C26.9773 45.6383 26.8494 45.4136 26.7664 45.171C26.7183 45.0419 26.7335 44.9972 26.8365 44.9339C26.9732 44.8496 27.0828 44.8546 27.1596 44.9508C27.1847 44.9825 27.2067 45.0164 27.2254 45.0521C27.497 45.5333 27.803 45.9943 28.1409 46.4316C28.2042 46.521 28.2843 46.5995 28.2767 46.7438Z" fill="black"/>
<path d="M27.4049 43.5173C27.4461 43.5307 27.4843 43.5523 27.5171 43.5806C27.5671 43.6433 27.6104 43.7112 27.6462 43.7831C27.8943 44.2286 28.1465 44.6715 28.49 45.0537C28.5417 45.1149 28.583 45.1842 28.6123 45.2588C28.6289 45.3029 28.6296 45.3514 28.6142 45.396C28.5988 45.4405 28.5683 45.4782 28.5279 45.5026C28.4931 45.5233 28.4529 45.5333 28.4124 45.5314C28.3719 45.5294 28.3328 45.5156 28.3001 45.4916C28.2474 45.4503 28.2023 45.4 28.1668 45.3431C27.9632 45.0439 27.7426 44.7565 27.5061 44.4825C27.3545 44.2933 27.24 44.0772 27.1686 43.8455C27.157 43.808 27.1542 43.7684 27.1605 43.7297C27.1668 43.691 27.182 43.6543 27.2049 43.6225C27.2278 43.5906 27.2578 43.5646 27.2925 43.5463C27.3272 43.5281 27.3657 43.5181 27.4049 43.5173Z" fill="black"/>
<path d="M31.5563 15.8187C31.38 15.8237 31.2931 15.7073 31.3665 15.5554C31.4154 15.455 31.4643 15.3698 31.4171 15.2567C31.4009 15.2122 31.3993 15.1637 31.4125 15.1182C31.4257 15.0727 31.453 15.0326 31.4905 15.0036C31.612 14.8796 31.7386 14.7598 31.866 14.6416C31.8966 14.6162 31.9314 14.5962 31.9689 14.5826C32.0124 14.5646 32.0608 14.5624 32.1057 14.5763C32.1507 14.5901 32.1894 14.6192 32.2153 14.6585C32.2389 14.6915 32.2503 14.7317 32.2476 14.7722C32.2448 14.8127 32.228 14.851 32.2001 14.8804C32.1478 14.9403 32.0837 14.9893 32.0313 15.0492C31.9149 15.1665 31.9242 15.2179 32.0693 15.2685C32.1073 15.2829 32.1478 15.2871 32.1849 15.3015C32.2235 15.3134 32.2574 15.3371 32.282 15.3691C32.3067 15.4011 32.3208 15.44 32.3224 15.4803C32.3224 15.5205 32.3116 15.56 32.2913 15.5947C32.271 15.6294 32.2419 15.658 32.2068 15.6778C32.1856 15.6944 32.1612 15.7064 32.1351 15.7132C31.9368 15.7486 31.7402 15.7841 31.5563 15.8187Z" fill="black"/>
<path d="M29.6668 15.903C29.5483 15.8907 29.4335 15.8545 29.3293 15.7967C29.2289 15.7562 29.1294 15.6946 29.0205 15.7267C28.8518 15.7773 28.705 15.7267 28.559 15.6423C28.489 15.6035 28.4071 15.5858 28.3346 15.5503C28.3033 15.5374 28.2749 15.5183 28.2511 15.4942C28.2273 15.47 28.2086 15.4414 28.1961 15.4099C28.1836 15.3785 28.1775 15.3448 28.1783 15.3109C28.179 15.2771 28.1865 15.2437 28.2004 15.2128C28.2161 15.1792 28.2386 15.1492 28.2664 15.1246C28.2942 15.1001 28.3268 15.0815 28.3621 15.0701C28.3974 15.0587 28.4347 15.0547 28.4716 15.0583C28.5085 15.062 28.5443 15.0732 28.5767 15.0913C28.6554 15.1426 28.7272 15.2039 28.7902 15.2736C28.8317 15.3262 28.8891 15.364 28.9539 15.3815C29.0186 15.399 29.0872 15.3952 29.1496 15.3706C29.3597 15.298 29.5715 15.3951 29.7833 15.4212C29.8938 15.4347 29.9664 15.5959 29.9444 15.7123C29.9225 15.8288 29.8179 15.9106 29.6668 15.903Z" fill="black"/>
<path d="M33.4692 11.7855C33.4739 11.8297 33.4642 11.8743 33.4416 11.9127C33.4189 11.951 33.3845 11.9809 33.3435 11.9981C33.307 12.0165 33.266 12.0239 33.2254 12.0194C33.1848 12.0149 33.1464 11.9987 33.1148 11.9728C32.9545 11.8311 32.7975 11.6842 32.6482 11.5307C32.6226 11.5065 32.6023 11.4772 32.5886 11.4447C32.575 11.4122 32.5682 11.3773 32.5689 11.342C32.5695 11.3068 32.5775 11.2721 32.5924 11.2401C32.6072 11.2081 32.6285 11.1796 32.655 11.1564C32.6815 11.1331 32.7126 11.1157 32.7462 11.1051C32.7798 11.0946 32.8153 11.0912 32.8503 11.0951C32.8853 11.099 32.9191 11.1102 32.9496 11.128C32.98 11.1458 33.0064 11.1697 33.027 11.1982C33.1587 11.3501 33.2844 11.5071 33.4076 11.6648C33.4329 11.7024 33.4536 11.7429 33.4692 11.7855Z" fill="black"/>
<path d="M33.1061 14.3337C33.1424 14.1303 33.1669 13.943 33.2099 13.7608C33.2271 13.7022 33.2645 13.6516 33.3155 13.6181C33.3665 13.5845 33.4278 13.5702 33.4883 13.5777C33.5251 13.5824 33.5604 13.5953 33.5917 13.6152C33.623 13.6351 33.6495 13.6617 33.6694 13.693C33.6893 13.7243 33.702 13.7596 33.7067 13.7964C33.7115 13.8332 33.7081 13.8706 33.6968 13.9059C33.6402 14.0848 33.5744 14.2611 33.5027 14.4341C33.4863 14.4854 33.4511 14.5286 33.4041 14.5551C33.3572 14.5815 33.302 14.5892 33.2496 14.5767C33.2008 14.5596 33.1596 14.5259 33.1334 14.4814C33.1071 14.4369 33.0975 14.3846 33.1061 14.3337Z" fill="black"/>
<path d="M26.5369 14.85C26.3926 14.8441 26.3277 14.8036 26.2922 14.7235C26.2723 14.6876 26.2661 14.6458 26.2748 14.6057C26.2835 14.5657 26.3065 14.5301 26.3395 14.5058C26.5182 14.3678 26.7175 14.2587 26.9301 14.1826C26.9882 14.1644 27.051 14.1685 27.1062 14.1941C27.1614 14.2197 27.2051 14.2649 27.2288 14.321C27.2659 14.4189 27.2415 14.5674 27.1512 14.6079C26.9352 14.7058 26.7099 14.7834 26.5369 14.85Z" fill="black"/>
<path d="M32.6631 9.34117C32.7057 9.34892 32.7459 9.36655 32.7804 9.39264C32.9222 9.55295 33.0639 9.7158 33.1896 9.88876C33.274 10.0027 33.2208 10.1486 33.0926 10.2372C33.0688 10.2565 33.0411 10.2705 33.0115 10.2783C32.9819 10.2861 32.951 10.2875 32.9208 10.2825C32.8905 10.2774 32.8617 10.2661 32.8362 10.2491C32.8107 10.2322 32.7891 10.21 32.7728 10.1841C32.6593 9.98694 32.5571 9.78355 32.4665 9.57489C32.4252 9.48123 32.5323 9.35045 32.6631 9.34117Z" fill="black"/>
<path d="M33.5626 16.4455L33.0462 16.3738C33.0198 16.3699 32.9941 16.3616 32.9703 16.3493C32.9327 16.3342 32.9007 16.3079 32.8785 16.2739C32.8563 16.24 32.8451 16.2 32.8463 16.1595C32.8458 16.1188 32.8601 16.0793 32.8864 16.0483C32.9128 16.0173 32.9495 15.9969 32.9897 15.9908C33.2163 15.9743 33.4435 15.9692 33.6706 15.9756C33.7237 15.9855 33.7717 16.0132 33.8068 16.0542C33.8418 16.0952 33.8618 16.147 33.8634 16.2009C33.865 16.2548 33.848 16.3077 33.8154 16.3506C33.7828 16.3936 33.7365 16.4241 33.6841 16.4371C33.6439 16.4433 33.6033 16.4461 33.5626 16.4455Z" fill="black"/>
<path d="M25.5497 12.0766C25.3598 12.0766 25.2122 11.8843 25.3008 11.7206C25.4285 11.5027 25.5694 11.2927 25.7227 11.092C25.7542 11.0573 25.7973 11.0353 25.8438 11.03C25.8904 11.0247 25.9373 11.0366 25.9758 11.0633C26.0142 11.09 26.0426 11.1287 26.0565 11.1733C26.0704 11.2179 26.069 11.2659 26.0526 11.3097C25.9555 11.5282 25.8543 11.745 25.7471 11.9585C25.7284 11.9945 25.7 12.0247 25.6651 12.0455C25.6303 12.0664 25.5903 12.0772 25.5497 12.0766Z" fill="black"/>
<path d="M24.0753 14.0637C24.0347 14.0648 23.9947 14.0533 23.9608 14.0308C23.927 14.0083 23.901 13.9759 23.8863 13.9379C23.8663 13.9018 23.8603 13.8596 23.8693 13.8194C23.8783 13.7791 23.9018 13.7435 23.9353 13.7194C24.1251 13.5963 24.3224 13.485 24.5259 13.3861C24.6398 13.3321 24.768 13.4114 24.8187 13.5329C24.842 13.5891 24.845 13.6515 24.8271 13.7096C24.8092 13.7677 24.7716 13.8177 24.7208 13.851C24.5128 13.9421 24.2967 14.0133 24.0753 14.0637Z" fill="black"/>
<path d="M21.8132 15.1318C21.8111 15.1618 21.8025 15.1909 21.7879 15.2171C21.7733 15.2434 21.7531 15.2661 21.7288 15.2837C21.5811 15.4001 21.4352 15.5183 21.2816 15.6254C21.2329 15.6623 21.1725 15.6803 21.1116 15.6761C21.0506 15.6719 20.9932 15.6458 20.95 15.6026C20.9063 15.5423 20.8878 15.4673 20.8985 15.3935C20.9092 15.3198 20.9483 15.2531 21.0074 15.2078C21.1764 15.0996 21.3526 15.0032 21.5347 14.9192C21.5675 14.9051 21.6034 14.8999 21.6388 14.9042C21.6743 14.9086 21.7079 14.9223 21.7362 14.944C21.7646 14.9656 21.7867 14.9944 21.8002 15.0275C21.8137 15.0605 21.8182 15.0965 21.8132 15.1318Z" fill="black"/>
<path d="M35.5488 16.0557C35.5964 16.0541 35.6435 16.0658 35.6847 16.0897C35.7258 16.1136 35.7595 16.1486 35.7817 16.1907C36.1318 16.7982 36.6794 17.2184 37.1848 17.6791C37.4827 17.9517 37.7805 18.2233 38.0767 18.4976C38.1263 18.5425 38.1707 18.5929 38.2091 18.6477C38.2358 18.6867 38.2491 18.7332 38.2472 18.7804C38.2452 18.8275 38.228 18.8727 38.1982 18.9093C38.1608 18.9484 38.1111 18.9733 38.0574 18.9799C38.0037 18.9865 37.9494 18.9744 37.9037 18.9456C37.8711 18.9223 37.8426 18.8938 37.8193 18.8612C37.4776 18.4208 37.0346 18.0909 36.606 17.7441C36.3765 17.5585 36.1538 17.3636 35.931 17.1687C35.7277 16.9898 35.58 16.762 35.4129 16.5519C35.374 16.5059 35.3471 16.451 35.3346 16.3921C35.3221 16.3333 35.3244 16.2722 35.3412 16.2144C35.3554 16.1698 35.3829 16.1307 35.42 16.1024C35.4571 16.074 35.5021 16.0577 35.5488 16.0557Z" fill="black"/>
<path d="M37.2767 13.7911C37.2919 14.0249 37.14 14.1388 37.0135 14.0637C36.4963 13.7549 35.958 13.473 35.5538 13.0081C35.5361 12.9879 35.5167 12.9685 35.5006 12.9465C35.3952 12.8048 35.407 12.658 35.5327 12.5542C35.6407 12.4648 35.7723 12.4774 35.8879 12.6031C36.0179 12.7372 36.1407 12.878 36.2558 13.025C36.3899 13.1937 36.56 13.3303 36.7536 13.4249C36.8954 13.5 37.032 13.5861 37.1687 13.6705C37.2143 13.701 37.2514 13.7425 37.2767 13.7911Z" fill="black"/>
<path d="M36.4499 11.5248C36.4503 11.5524 36.445 11.5798 36.4345 11.6053C36.424 11.6308 36.4084 11.6539 36.3886 11.6733C36.3689 11.6926 36.3455 11.7077 36.3198 11.7177C36.294 11.7277 36.2666 11.7324 36.239 11.7315C36.2129 11.7277 36.1876 11.72 36.1639 11.7087C35.985 11.6243 35.8044 11.54 35.6289 11.4455C35.5996 11.4305 35.5736 11.4097 35.5525 11.3845C35.5314 11.3592 35.5156 11.33 35.5061 11.2984C35.4966 11.2669 35.4935 11.2338 35.497 11.2011C35.5006 11.1684 35.5107 11.1367 35.5268 11.108C35.5943 10.9814 35.7504 10.9114 35.8643 10.9823C36.0666 11.1081 36.2518 11.2595 36.4153 11.4328C36.433 11.4608 36.4448 11.4921 36.4499 11.5248Z" fill="black"/>
<path d="M35.5655 9.70315C35.5605 9.74529 35.5433 9.78504 35.516 9.81755C35.4887 9.85006 35.4526 9.87393 35.412 9.88625C35.3801 9.8987 35.3452 9.90117 35.3119 9.89333C35.2786 9.8855 35.2485 9.86772 35.2255 9.84237C35.0999 9.6845 34.9825 9.52032 34.8737 9.35047C34.8465 9.29509 34.8422 9.23128 34.8616 9.17274C34.881 9.1142 34.9226 9.06562 34.9774 9.03743C35.0005 9.02316 35.0263 9.01367 35.0531 9.00951C35.08 9.00535 35.1074 9.00661 35.1337 9.01322C35.1601 9.01982 35.1848 9.03164 35.2065 9.04797C35.2282 9.06431 35.2465 9.08482 35.2601 9.10831C35.363 9.26525 35.4533 9.43147 35.5444 9.59684C35.5568 9.63101 35.5639 9.66685 35.5655 9.70315Z" fill="black"/>
<path d="M24.4293 47.5124C24.2605 47.5192 24.1306 47.3437 24.2023 47.234C24.3449 47.0079 24.4984 46.7877 24.6588 46.5734C24.6952 46.5328 24.7451 46.5068 24.7992 46.5002C24.8533 46.4935 24.908 46.5066 24.9532 46.5371C24.9968 46.5693 25.0286 46.6148 25.0438 46.6667C25.059 46.7187 25.0569 46.7742 25.0376 46.8248C25.0159 46.8735 24.9875 46.9189 24.9532 46.9598C24.8351 47.1066 24.7136 47.25 24.5955 47.3952C24.5529 47.4498 24.4951 47.4907 24.4293 47.5124Z" fill="black"/>
<path d="M21.9906 46.3573C21.9931 46.3848 21.99 46.4125 21.9813 46.4386C21.9726 46.4648 21.9586 46.4889 21.9401 46.5093C21.9216 46.5298 21.8991 46.5462 21.8739 46.5575C21.8488 46.5688 21.8215 46.5748 21.794 46.575C21.5525 46.5642 21.3223 46.4699 21.1426 46.3084C21.1093 46.2758 21.0887 46.2325 21.0843 46.1861C21.08 46.1398 21.0923 46.0934 21.119 46.0553C21.1402 46.013 21.1755 45.9796 21.2188 45.9608C21.2622 45.942 21.3107 45.939 21.356 45.9523C21.5408 46.0283 21.7214 46.1143 21.9003 46.2054C21.9266 46.2214 21.9486 46.2436 21.9643 46.2701C21.9801 46.2966 21.9891 46.3265 21.9906 46.3573Z" fill="black"/>
<path d="M27.1777 49.475C27.1777 49.6117 27.117 49.7079 27.0334 49.7332C26.9874 49.7443 26.9388 49.7385 26.8967 49.7168C26.8546 49.6951 26.8216 49.659 26.8039 49.6151C26.7965 49.6038 26.7906 49.5916 26.7862 49.5788C26.6411 48.967 26.2918 48.4498 26.0066 47.9039C25.9548 47.8251 25.9221 47.7352 25.9112 47.6415C25.9079 47.5942 25.919 47.547 25.9431 47.5062C25.9672 47.4653 26.0032 47.4328 26.0462 47.4129C26.0901 47.3948 26.139 47.3927 26.1843 47.4069C26.2296 47.421 26.2685 47.4506 26.2943 47.4905C26.332 47.5444 26.3662 47.6008 26.3964 47.6592C26.4597 47.7774 26.5272 47.8946 26.5812 48.017C26.7606 48.422 26.9367 48.8284 27.1094 49.2362C27.1375 49.3142 27.1603 49.3939 27.1777 49.475Z" fill="black"/>
<path d="M24.7969 49.7813C24.8297 49.7776 24.8629 49.7831 24.8927 49.7973C24.9225 49.8115 24.9478 49.8337 24.9656 49.8614C25.0871 50.1 25.1791 50.3525 25.2399 50.6132C25.2451 50.6474 25.238 50.6823 25.2197 50.7117C25.2014 50.7411 25.1733 50.763 25.1403 50.7735C25.1102 50.7899 25.0754 50.7952 25.0418 50.7885C25.0082 50.7819 24.978 50.7638 24.9564 50.7372C24.807 50.5296 24.6911 50.2998 24.613 50.0563C24.6058 50.0261 24.605 49.9948 24.6105 49.9642C24.6161 49.9337 24.6278 49.9046 24.6451 49.8788C24.6623 49.853 24.6847 49.831 24.7108 49.8142C24.737 49.7974 24.7663 49.7862 24.7969 49.7813Z" fill="black"/>
<path d="M18.9751 46.9902C18.9229 46.9926 18.8714 46.9773 18.8291 46.9466C18.7868 46.9159 18.7562 46.8718 18.7422 46.8214C18.7317 46.7825 18.7342 46.7412 18.7495 46.7038C18.7647 46.6664 18.7918 46.6351 18.8266 46.6147C19.001 46.5185 19.19 46.4515 19.386 46.4164C19.4254 46.4067 19.4669 46.4108 19.5036 46.428C19.5403 46.4452 19.5699 46.4745 19.5877 46.5109C19.609 46.5456 19.6171 46.5868 19.6104 46.627C19.6038 46.6671 19.5828 46.7035 19.5514 46.7295C19.3812 46.8583 19.1843 46.9474 18.9751 46.9902Z" fill="black"/>
<path d="M69.64 29C69.64 30.1467 69.46 31.2067 69.1 32.18C68.74 33.14 68.2133 33.9467 67.52 34.6L69.24 36.88H66.8L65.88 35.66C65.0933 35.9933 64.2133 36.16 63.24 36.16C61.8667 36.16 60.6933 35.8467 59.72 35.22C58.76 34.58 58.0333 33.72 57.54 32.64C57.06 31.5467 56.82 30.3333 56.82 29C56.82 27.6533 57.0667 26.4333 57.56 25.34C58.0533 24.2333 58.78 23.3533 59.74 22.7C60.7133 22.0467 61.88 21.72 63.24 21.72C64.6 21.72 65.76 22.0467 66.72 22.7C67.68 23.34 68.4067 24.2133 68.9 25.32C69.3933 26.4133 69.64 27.64 69.64 29ZM63.24 33.68C63.6 33.68 63.94 33.6267 64.26 33.52L61.98 30.48H64.42L65.8 32.32C66.3867 31.4533 66.68 30.3333 66.68 28.96C66.68 28.08 66.5467 27.28 66.28 26.56C66.0267 25.84 65.64 25.2667 65.12 24.84C64.6 24.4133 63.9733 24.2 63.24 24.2C62.5067 24.2 61.8733 24.42 61.34 24.86C60.82 25.2867 60.4267 25.86 60.16 26.58C59.8933 27.3 59.76 28.1 59.76 28.98C59.76 30.3267 60.06 31.4467 60.66 32.34C61.2733 33.2333 62.1333 33.68 63.24 33.68ZM80.4236 36H77.6436V34.32H77.5036C77.2636 34.84 76.8836 35.2867 76.3636 35.66C75.8569 36.02 75.2303 36.2 74.4836 36.2C73.1369 36.2 72.1903 35.76 71.6436 34.88C71.0969 33.9867 70.8236 32.9867 70.8236 31.88V25.44H73.5836V31.42C73.5836 32.18 73.7569 32.7867 74.1036 33.24C74.4503 33.68 74.9436 33.9 75.5836 33.9C76.2769 33.9 76.7903 33.6667 77.1236 33.2C77.4703 32.7333 77.6436 32.14 77.6436 31.42V25.44H80.4236V36ZM85.63 36.16C84.3233 36.16 83.3033 35.66 82.57 34.66C81.8367 33.66 81.47 32.34 81.47 30.7C81.47 29.0333 81.8367 27.7 82.57 26.7C83.3167 25.6867 84.3567 25.18 85.69 25.18C86.5833 25.18 87.2833 25.3867 87.79 25.8C88.2967 26.2 88.6567 26.6267 88.87 27.08H89.03V25.44H91.81V36H89.03V34.18H88.87C88.63 34.6733 88.2567 35.1267 87.75 35.54C87.2433 35.9533 86.5367 36.16 85.63 36.16ZM86.65 33.92C87.4367 33.92 88.03 33.6 88.43 32.96C88.83 32.32 89.03 31.5533 89.03 30.66C89.03 29.7667 88.83 29.0067 88.43 28.38C88.0433 27.7533 87.45 27.44 86.65 27.44C85.85 27.44 85.2567 27.7533 84.87 28.38C84.4833 29.0067 84.29 29.7667 84.29 30.66C84.29 31.5667 84.4833 32.34 84.87 32.98C85.2567 33.6067 85.85 33.92 86.65 33.92ZM93.5638 25.44H96.3038V27.12H96.4438C96.6171 26.6533 96.9371 26.26 97.4038 25.94C97.8704 25.6067 98.4704 25.44 99.2038 25.44C99.4838 25.44 99.7238 25.4667 99.9238 25.52L99.8038 28.06C99.4704 27.9667 99.1171 27.92 98.7438 27.92C97.9171 27.92 97.3038 28.14 96.9038 28.58C96.5038 29.0067 96.3038 29.72 96.3038 30.72V36H93.5638V25.44ZM104.428 27.6V32.3C104.428 32.7667 104.448 33.1133 104.488 33.34C104.541 33.5667 104.675 33.7467 104.888 33.88C105.101 34.0133 105.448 34.08 105.928 34.08C106.208 34.08 106.495 34.0533 106.788 34V35.92C106.641 35.9467 106.375 35.98 105.988 36.02C105.615 36.06 105.248 36.08 104.888 36.08C103.915 36.08 103.188 35.94 102.708 35.66C102.241 35.3667 101.948 35.0067 101.828 34.58C101.708 34.14 101.648 33.58 101.648 32.9V27.6H99.8881V25.44H101.668V22H104.428V25.44H106.788V27.6H104.428ZM108.016 33.82L113.136 27.64V27.58H108.236V25.4H116.076V27.58L110.976 33.76V33.82H116.076V36H108.016V33.82ZM119.368 36.16C118.928 36.16 118.555 36.0133 118.248 35.72C117.955 35.4133 117.808 35.04 117.808 34.6C117.808 34.16 117.955 33.7867 118.248 33.48C118.555 33.1733 118.928 33.02 119.368 33.02C119.821 33.02 120.195 33.1733 120.488 33.48C120.795 33.7867 120.948 34.16 120.948 34.6C120.948 35.0267 120.795 35.3933 120.488 35.7C120.195 36.0067 119.821 36.16 119.368 36.16ZM126.804 36.16C125.471 36.16 124.438 35.66 123.704 34.66C122.984 33.66 122.624 32.34 122.624 30.7C122.624 29.02 122.984 27.68 123.704 26.68C124.438 25.68 125.478 25.18 126.824 25.18C127.731 25.18 128.438 25.3867 128.944 25.8C129.451 26.2 129.811 26.6267 130.024 27.08H130.184V20.98H132.964V36H130.184V34.18H130.024C129.784 34.6733 129.411 35.1267 128.904 35.54C128.398 35.9533 127.698 36.16 126.804 36.16ZM127.804 33.96C128.591 33.96 129.184 33.64 129.584 33C129.984 32.36 130.184 31.5933 130.184 30.7C130.184 29.82 129.984 29.06 129.584 28.42C129.184 27.78 128.591 27.46 127.804 27.46C127.004 27.46 126.404 27.78 126.004 28.42C125.618 29.0467 125.424 29.8 125.424 30.68C125.424 31.5867 125.618 32.36 126.004 33C126.404 33.64 127.004 33.96 127.804 33.96ZM139.219 36.16C138.113 36.16 137.179 35.9067 136.419 35.4C135.659 34.88 135.093 34.2067 134.719 33.38C134.359 32.54 134.179 31.64 134.179 30.68C134.179 29.72 134.359 28.8267 134.719 28C135.093 27.16 135.659 26.48 136.419 25.96C137.179 25.44 138.119 25.18 139.239 25.18C140.719 25.18 141.893 25.6533 142.759 26.6C143.639 27.5467 144.079 28.9133 144.079 30.7V31.46H136.839V31.62C136.839 32.26 137.059 32.8133 137.499 33.28C137.939 33.7333 138.493 33.96 139.159 33.96C139.679 33.96 140.119 33.84 140.479 33.6C140.839 33.36 141.099 33.0333 141.259 32.62H143.979C143.699 33.66 143.153 34.5133 142.339 35.18C141.526 35.8333 140.486 36.16 139.219 36.16ZM141.419 29.66C141.393 28.82 141.179 28.2 140.779 27.8C140.379 27.4 139.853 27.2 139.199 27.2C138.506 27.2 137.959 27.42 137.559 27.86C137.159 28.3 136.946 28.9 136.919 29.66H141.419ZM154.873 23.62C154.433 23.62 154.066 23.4733 153.773 23.18C153.479 22.8733 153.333 22.5067 153.333 22.08C153.333 21.64 153.479 21.2733 153.773 20.98C154.066 20.6867 154.433 20.54 154.873 20.54C155.313 20.54 155.679 20.6933 155.973 21C156.266 21.2933 156.413 21.6533 156.413 22.08C156.413 22.5067 156.266 22.8733 155.973 23.18C155.679 23.4733 155.313 23.62 154.873 23.62ZM156.113 36H153.353V27.6H148.993V36H146.233V27.6H144.893V25.44H146.233V24.14C146.233 23.46 146.453 22.8067 146.893 22.18C147.346 21.54 148.239 21.22 149.573 21.22C149.906 21.22 150.253 21.24 150.613 21.28C150.986 21.32 151.233 21.3667 151.353 21.42V23.24C151.033 23.1867 150.693 23.16 150.333 23.16C149.919 23.16 149.613 23.2467 149.413 23.42C149.226 23.58 149.106 23.78 149.053 24.02C149.013 24.2467 148.993 24.5533 148.993 24.94V25.44H156.113V36Z" fill="black"/>
</svg>
