<svg width="150" height="17" viewBox="0 0 150 17" fill="none" xmlns="http://www.w3.org/2000/svg">
<path d="M10.728 13.342C12.798 12.1 14.67 10.012 14.67 6.646C14.67 2.722 11.88 0.129999 7.74 0.129999C3.6 0.129999 0.81 2.992 0.81 6.682C0.81 10.624 3.528 13 6.48 13C8.406 13 9.216 12.586 9.972 11.92L10.458 12.712C8.388 13.864 5.706 13.99 3.906 14.152L4.176 16.942C8.73 16.258 11.61 15.988 17.01 16.654V13.63C14.13 13.288 12.402 13.198 10.728 13.342ZM7.74 10.21C5.526 10.21 4.248 8.878 4.248 6.682C4.248 4.504 5.526 3.154 7.74 3.154C9.954 3.154 11.232 4.468 11.232 6.646C11.232 8.824 9.954 10.21 7.74 10.21ZM20.7236 10.156C19.4096 10.156 19.0136 9.562 19.0136 7.996V3.856H15.5756V8.554C15.5756 11.506 17.0336 13.18 19.4636 13.18C21.4076 13.18 22.5416 11.848 22.8836 10.228H23.7296L23.0636 12.082V13H26.5196V3.856H23.0636V7.006C23.0636 9.616 22.1456 10.156 20.7236 10.156ZM27.4015 10.516C27.4015 11.452 27.9055 13.18 30.8575 13.18C33.5035 13.18 34.3495 11.902 34.6735 10.39H35.5015L34.9615 11.524C34.9615 12.478 35.5195 13 36.4555 13H38.6515V9.976H37.3375V7.924C37.3375 4.702 34.8535 3.676 32.3515 3.676C29.8135 3.676 27.6355 4.9 27.6355 7.384H30.8395C30.8395 6.898 31.2715 6.466 32.3515 6.466C33.4855 6.466 33.8995 6.754 33.8815 7.366L31.2895 7.654C28.3375 7.942 27.4015 8.896 27.4015 10.516ZM30.7675 9.922C30.7675 9.49 31.1995 9.454 31.9375 9.328L33.8815 9.004C33.8815 9.886 32.8915 10.39 31.7755 10.39C31.2895 10.39 30.7675 10.336 30.7675 9.922ZM39.5037 13H42.9417V6.79L47.5317 6.88V3.856L41.1777 3.712C40.1157 3.712 39.5037 4.288 39.5037 5.35V13ZM53.5373 10.156V6.88H56.6153V3.856H53.5373V1.3L50.0993 2.38V3.856H47.8673V6.88H50.0993V11.524C50.0993 12.586 50.6933 13.216 51.7553 13.18L56.9753 13V9.976L53.5373 10.156ZM57.8644 13H67.0984V10.084H60.5644L58.6924 10.75V9.904L67.0984 8.896V3.856H57.8644V6.754H64.3984L66.2704 6.106V6.934L57.8644 7.942V13ZM73.3767 13H76.8147V9.49L82.4847 9.13V6.07L76.8147 6.43V3.334H82.7187V0.309999H73.3767V13ZM86.9272 3.082C88.0072 3.082 88.7452 2.65 88.7452 1.606C88.7452 0.598 88.0072 0.129999 86.9272 0.129999C85.8472 0.129999 85.1812 0.598 85.1812 1.606C85.1812 2.65 85.8472 3.082 86.9272 3.082ZM82.9132 13H91.4272V9.976H88.8892V5.386C88.8892 4.252 88.2412 3.622 87.1432 3.676L83.1472 3.856V6.88L85.4332 6.79V9.976H82.9132V13ZM97.9809 6.7C99.3129 6.7 99.6909 7.276 99.6909 8.86V13H103.147V8.302C103.147 5.332 101.671 3.676 99.2409 3.676C97.2969 3.676 96.1809 5.008 95.8209 6.628H94.9749L95.6409 4.774V3.856H92.2029V13H95.6409V9.85C95.6409 7.24 96.5769 6.7 97.9809 6.7ZM104.077 10.516C104.077 11.452 104.581 13.18 107.533 13.18C110.179 13.18 111.025 11.902 111.349 10.39H112.177L111.637 11.524C111.637 12.478 112.195 13 113.131 13H115.327V9.976H114.013V7.924C114.013 4.702 111.529 3.676 109.027 3.676C106.489 3.676 104.311 4.9 104.311 7.384H107.515C107.515 6.898 107.947 6.466 109.027 6.466C110.161 6.466 110.575 6.754 110.557 7.366L107.965 7.654C105.013 7.942 104.077 8.896 104.077 10.516ZM107.443 9.922C107.443 9.49 107.875 9.454 108.613 9.328L110.557 9.004C110.557 9.886 109.567 10.39 108.451 10.39C107.965 10.39 107.443 10.336 107.443 9.922ZM121.957 6.7C123.289 6.7 123.667 7.276 123.667 8.86V13H127.123V8.302C127.123 5.332 125.647 3.676 123.217 3.676C121.273 3.676 120.157 5.008 119.797 6.628H118.951L119.617 4.774V3.856H116.179V13H119.617V9.85C119.617 7.24 120.553 6.7 121.957 6.7ZM127.825 8.41C127.825 11.632 130.057 13.18 132.955 13.18C135.745 13.18 138.031 11.65 138.121 9.094H134.665C134.611 9.544 134.053 10.156 132.955 10.156C132.091 10.156 131.263 9.634 131.263 8.41C131.263 7.204 132.091 6.7 132.955 6.7C134.053 6.7 134.611 7.312 134.665 7.762H138.121C138.031 5.206 135.745 3.676 132.955 3.676C130.057 3.676 127.825 5.206 127.825 8.41ZM138.689 8.32C138.689 10.894 140.381 13.18 143.999 13.18C147.275 13.18 148.931 11.056 149.039 9.76H145.601C145.475 10.192 144.809 10.534 143.999 10.534C142.577 10.534 141.857 9.922 141.893 9.004H148.715V8.122C148.715 5.494 146.627 3.676 143.675 3.676C140.723 3.676 138.689 5.476 138.689 8.32ZM141.893 7.546C141.893 6.97 142.181 6.466 143.675 6.466C145.151 6.466 145.511 6.97 145.511 7.546H141.893Z" fill="black"/>
</svg>
