<svg width="96" height="96" viewBox="0 0 96 96" fill="none" xmlns="http://www.w3.org/2000/svg">
<path d="M96 13.9355C96 6.23913 89.7609 0 82.0645 0H13.9355C6.23913 0 0 6.23913 0 13.9355V82.0645C0 89.7609 6.23913 96 13.9355 96H82.0645C89.7609 96 96 89.7609 96 82.0645V13.9355Z" fill="#161A67"/>
<path d="M10.183 49.5267C13.2141 49.5267 15.9182 48.3895 18.2269 46.1491C20.0134 44.4114 21.3312 42.2784 22.6052 40.2186C25.9438 34.8153 27.1982 34.2199 29.0872 34.2199C30.9761 34.2199 32.2306 34.8105 35.5692 40.2186C36.8431 42.2784 38.161 44.4114 39.9475 46.1491C42.2562 48.3895 44.9603 49.5267 47.9914 49.5267C51.0225 49.5267 53.7266 48.3895 56.0353 46.1491C57.8218 44.4114 59.1397 42.2784 60.4136 40.2186C63.7522 34.8153 65.0066 34.2199 66.8956 34.2199C68.7846 34.2199 70.039 34.8105 73.3776 40.2186C74.6515 42.2784 75.9694 44.4114 77.7559 46.1491C80.0646 48.3895 82.7687 49.5267 85.7998 49.5267V42.5469C83.9108 42.5469 82.6564 41.9563 79.3178 36.5481C78.0439 34.4883 76.726 32.3553 74.9395 30.6177C72.6308 28.3773 69.9267 27.24 66.8956 27.24C63.8645 27.24 61.1604 28.3773 58.8517 30.6177C57.0652 32.3553 55.7473 34.4883 54.4734 36.5481C51.1348 41.9514 49.8804 42.5469 47.9914 42.5469C46.1024 42.5469 44.848 41.9563 41.5094 36.5481C40.2354 34.4883 38.9176 32.3553 37.1311 30.6177C34.8224 28.3773 32.1183 27.24 29.0872 27.24C26.0561 27.24 23.352 28.3773 21.0433 30.6177C19.2568 32.3553 17.9389 34.4883 16.665 36.5481C13.3264 41.9514 12.0719 42.5469 10.183 42.5469V49.5267Z" fill="#03E1D0"/>
<path d="M10.183 68.88C13.2141 68.88 15.9182 67.7427 18.2269 65.5023C20.0134 63.7647 21.3312 61.6317 22.6052 59.5719C25.9438 54.1686 27.1982 53.5731 29.0872 53.5731C30.9761 53.5731 32.2306 54.1637 35.5692 59.5719C36.8431 61.6317 38.161 63.7647 39.9475 65.5023C42.2562 67.7427 44.9603 68.88 47.9914 68.88C51.0225 68.88 53.7266 67.7427 56.0353 65.5023C57.8218 63.7647 59.1397 61.6317 60.4136 59.5719C63.7522 54.1686 65.0066 53.5731 66.8956 53.5731C68.7846 53.5731 70.039 54.1637 73.3776 59.5719C74.6515 61.6317 75.9694 63.7647 77.7559 65.5023C80.0646 67.7427 82.7687 68.88 85.7998 68.88V61.9002C83.9108 61.9002 82.6564 61.3095 79.3178 55.9014C78.0439 53.8416 76.726 51.7086 74.9395 49.9709C72.6308 47.7305 69.9267 46.5933 66.8956 46.5933C63.8645 46.5933 61.1604 47.7305 58.8517 49.9709C57.0652 51.7086 55.7473 53.8416 54.4734 55.9014C51.1348 61.3047 49.8804 61.9002 47.9914 61.9002C46.1024 61.9002 44.848 61.3095 41.5094 55.9014C40.2354 53.8416 38.9176 51.7086 37.1311 49.9709C34.8224 47.7305 32.1183 46.5933 29.0872 46.5933C26.0561 46.5933 23.352 47.7305 21.0433 49.9709C19.2568 51.7086 17.9389 53.8416 16.665 55.9014C13.3264 61.3047 12.0719 61.9002 10.183 61.9002V68.88V68.88Z" fill="#03E1D0"/>
</svg>
