<svg id="Layer_1" data-name="Layer 1" xmlns="http://www.w3.org/2000/svg" viewBox="0 0 60 60">
    <defs>
        <style>
            .cls-1{fill:#272838;}.cls-2{fill:none;stroke:#fff;stroke-miterlimit:10;stroke-width:4px;}.cls-3{fill:#fff;}
            .grad{fill:#FFCC99;stroke:#140406}
            .path{fill:#140406}
        </style>
    </defs>
    <polygon class="cls-2 grad" points="42.5 8.35 17.5 8.35 5 30 17.5 51.65 42.5 51.65 55 30 42.5 8.35"/>
    <path class="cls-3 path" d="M32.48,39.64C35.14,38.72,37,36.08,37,32a10.51,10.51,0,0,0-.31-2.44l-2.08.72a9.22,9.22,0,0,1,.2,1.82c0,3.66-1.85,6.65-5.15,6.65-2.77,0-4.53-2.26-5-5l-2.1.73a7.07,7.07,0,0,0,6.83,6,3.12,3.12,0,0,1,1,.24c1.85.64,4,1.28,6.12,1.85l.6-1.73c-1.36-.24-3.09-.62-4.68-1Z"/>
    <path class="cls-3 path" d="M24.62,28.87c0-3.47,1.68-6.7,5.17-6.7,2.75,0,4.34,2.17,4.86,4.69l2.08-.72a6.87,6.87,0,0,0-6.86-5.65c-4.33,0-7.46,3.3-7.46,8.43a10.74,10.74,0,0,0,.22,2.1l2.1-.73A8.33,8.33,0,0,1,24.62,28.87Z"/>
</svg>