<svg width="64" height="64" viewBox="0 0 64 64" fill="none" xmlns="http://www.w3.org/2000/svg">
<path d="M46.9931 24.882C46.9731 25.362 46.9991 25.952 46.8771 26.538C46.8019 26.9141 46.6852 27.2807 46.5291 27.631C46.0821 28.622 45.7441 29.656 45.3291 30.662C44.7741 32.022 44.2441 33.394 43.6791 34.75C42.9491 36.505 42.1981 38.25 41.4491 39.999C41.0331 40.968 40.6001 41.929 40.1791 42.899C39.6561 44.099 39.1381 45.299 38.6161 46.504C38.1841 47.504 37.7471 48.495 37.3161 49.494C36.9121 50.4327 36.5121 51.374 36.1161 52.318C35.6731 53.379 35.2301 54.441 34.8051 55.509C34.4051 56.518 34.0051 57.53 33.6431 58.553C33.481 59.0059 33.1914 59.4022 32.8091 59.694C32.3443 60.0616 31.8541 60.3958 31.3421 60.694C29.8811 61.551 28.3851 62.345 26.8491 63.06C26.6759 63.1421 26.4983 63.2145 26.3171 63.277C25.9921 63.387 25.8941 63.362 25.7041 63.089C25.4491 62.722 25.2041 62.348 24.9661 61.968C24.2094 60.7227 23.4541 59.48 22.7001 58.24C22.2431 57.489 21.8001 56.731 21.3381 55.982C21.0641 55.535 20.9541 55.039 20.8681 54.533C20.7753 53.9645 20.7328 53.3889 20.7411 52.813C20.7501 52.0462 20.7029 51.2799 20.6001 50.52C20.5001 49.762 20.4411 48.995 20.3841 48.231C20.3241 47.419 20.2651 46.605 20.2421 45.791C20.2091 44.625 20.1851 43.458 20.2031 42.291C20.2281 40.662 20.2961 39.033 20.3451 37.403C20.3611 36.86 20.3771 36.317 20.3861 35.774C20.3991 35.038 20.4051 34.303 20.4151 33.568C20.4221 33.057 20.4811 32.547 20.4201 32.035C20.4207 31.939 20.4321 31.8434 20.4541 31.75C20.5881 30.608 20.7061 29.464 20.7911 28.316C20.8591 27.391 20.8591 26.463 20.9331 25.539C20.9631 25.157 20.9631 24.772 20.9591 24.389C20.9531 23.828 20.9981 23.272 21.0361 22.713C21.0948 21.9628 21.3036 21.232 21.6501 20.564C21.9801 19.903 22.4121 19.305 22.8501 18.716C23.8241 17.408 24.8621 16.15 25.9361 14.922C26.5461 14.222 27.1541 13.522 27.7811 12.842C28.4081 12.162 29.0811 11.471 29.7351 10.796C30.3501 10.167 30.9671 9.54099 31.6021 8.93399C32.2371 8.32699 32.8701 7.76199 33.5101 7.18299C34.0801 6.66799 34.6541 6.15899 35.2281 5.64999C36.1131 4.86499 36.9961 4.07699 37.9281 3.34999C38.2941 3.06599 38.6831 2.81099 39.0701 2.55599C39.2435 2.44169 39.4294 2.34742 39.6241 2.27499C40.0571 2.11599 40.3981 2.20899 40.5851 2.62299C40.7301 2.94299 40.8931 3.25599 41.0211 3.58199C41.7291 5.38199 42.3604 7.20833 42.9151 9.06099C43.3941 10.653 43.9341 12.223 44.4761 13.794C44.8871 14.987 45.2761 16.187 45.6621 17.388C45.8081 17.844 45.9381 18.307 46.0541 18.771C46.3461 19.932 46.6401 21.092 46.7901 22.286C46.9091 23.1465 46.9769 24.0134 46.9931 24.882ZM24.7841 52.82C24.7841 52.914 24.7841 52.961 24.7841 53.009C24.7819 53.0371 24.7854 53.0653 24.7943 53.092C24.8033 53.1187 24.8175 53.1433 24.8362 53.1644C24.8548 53.1855 24.8775 53.2026 24.9029 53.2147C24.9283 53.2268 24.9559 53.2337 24.9841 53.235C25.0631 53.246 25.1441 53.243 25.2231 53.248C25.8782 53.2758 26.5303 53.3523 27.1741 53.477C27.5612 53.5749 27.9535 53.6514 28.3491 53.706C28.7131 53.745 29.0761 53.806 29.4401 53.853C29.7736 53.8887 30.103 53.9557 30.4241 54.053C30.5701 54.103 30.6681 54.033 30.7011 53.876C30.7301 53.736 30.7361 53.589 30.7751 53.452C31.0331 52.529 31.2871 51.605 31.5611 50.686C31.9891 49.247 32.4921 47.831 32.9711 46.408C33.4301 45.046 33.8711 43.677 34.2981 42.308C34.6291 41.256 34.9441 40.2 35.2511 39.142C35.6731 37.684 36.0831 36.223 36.4941 34.762C36.9087 33.2853 37.3201 31.808 37.7281 30.33C37.9751 29.437 38.2061 28.54 38.4511 27.647C38.6621 26.876 38.8711 26.106 39.1001 25.34C39.5421 23.858 39.8701 22.34 40.5001 20.917C40.5099 20.895 40.5145 20.871 40.5135 20.8469C40.5125 20.8228 40.5059 20.7993 40.4943 20.7781C40.4827 20.757 40.4663 20.7389 40.4465 20.7251C40.4266 20.7114 40.4039 20.7025 40.3801 20.699C40.1741 20.672 39.9641 20.674 39.7611 20.635C38.9611 20.478 38.1431 20.447 37.3331 20.373C36.5231 20.299 35.7071 20.248 34.9011 20.117C33.5011 19.89 32.1151 19.553 30.7011 19.363C30.1011 19.282 29.5211 19.349 28.9321 19.346C28.9036 19.3439 28.875 19.3478 28.8481 19.3573C28.8212 19.3669 28.7966 19.3819 28.7759 19.4014C28.7551 19.421 28.7386 19.4446 28.7274 19.4709C28.7163 19.4972 28.7107 19.5255 28.7111 19.554C28.6501 20.061 28.5921 20.569 28.5341 21.077C28.4471 21.839 28.3651 22.601 28.2741 23.363C28.2091 23.902 28.1211 24.439 28.0601 24.979C27.9431 26.026 27.8451 27.079 27.7251 28.124C27.5361 29.775 27.3351 31.424 27.1411 33.075C27.0791 33.599 27.0261 34.124 26.9631 34.647C26.8541 35.547 26.7351 36.453 26.6291 37.357C26.5091 38.388 26.4031 39.42 26.2831 40.451C26.1331 41.751 25.9741 43.051 25.8211 44.351C25.6717 45.621 25.5251 46.8913 25.3811 48.162C25.2677 49.146 25.1564 50.1303 25.0471 51.115C25.0193 51.4175 24.9736 51.718 24.9101 52.015C24.8521 52.292 24.8231 52.579 24.7841 52.82ZM21.5031 52.873H21.5101C21.5271 53.368 21.5401 53.864 21.5621 54.359C21.5602 54.3913 21.5684 54.4233 21.5853 54.4508C21.6023 54.4783 21.6273 54.4999 21.6569 54.5128C21.6866 54.5257 21.7194 54.5291 21.7511 54.5227C21.7828 54.5163 21.8117 54.5004 21.8341 54.477C22.0101 54.339 22.1571 54.167 22.3561 54.057C22.8311 53.794 23.2971 53.511 23.8331 53.382C23.8964 53.3713 23.954 53.3387 23.9958 53.2899C24.0377 53.2411 24.0611 53.1792 24.0621 53.115C24.1721 52.131 24.2851 51.147 24.3951 50.162C24.4791 49.4 24.5541 48.637 24.6421 47.876C24.7491 46.94 24.8691 46.005 24.9771 45.069C25.1451 43.624 25.3061 42.179 25.4771 40.735C25.5931 39.735 25.7161 38.735 25.8351 37.735C25.8991 37.196 25.9651 36.656 26.0251 36.116C26.1141 35.322 26.1931 34.527 26.2831 33.734C26.3581 33.067 26.4441 32.401 26.5221 31.734C26.6421 30.719 26.7581 29.702 26.8801 28.687C26.9801 27.862 27.0891 27.038 27.1861 26.213C27.3031 25.213 27.3971 24.213 27.5271 23.213C27.6801 22.042 27.7411 20.859 27.9811 19.699C27.9898 19.6716 27.9907 19.6424 27.9835 19.6145C27.9763 19.5867 27.9614 19.5615 27.9404 19.5418C27.9195 19.5222 27.8934 19.5088 27.8652 19.5034C27.837 19.4979 27.8078 19.5005 27.7811 19.511C27.0811 19.748 26.3571 19.864 25.6411 20.023C24.5934 20.2408 23.5585 20.5158 22.5411 20.847C22.4311 20.884 22.3211 20.915 22.2751 21.028C22.1071 21.442 21.8951 21.845 21.8271 22.289C21.7771 22.6537 21.7488 23.021 21.7421 23.389C21.6931 24.842 21.6611 26.296 21.6031 27.749C21.5771 28.387 21.5111 29.024 21.4511 29.66C21.3811 30.392 21.2701 31.12 21.2301 31.853C21.1811 32.746 21.1881 33.642 21.1701 34.537C21.1561 35.288 21.1511 36.037 21.1251 36.79C21.0481 38.963 20.9731 41.135 20.9631 43.309C20.9541 45.02 21.0331 46.728 21.1631 48.433C21.1991 48.911 21.2701 49.386 21.3101 49.863C21.3721 50.611 21.5101 51.353 21.5011 52.107C21.5001 52.362 21.5001 52.618 21.5001 52.873H21.5031ZM36.8471 37.173C37.0271 37.124 37.1281 37.218 37.2111 37.347C37.5721 37.912 37.9541 38.465 38.2281 39.082C38.5341 39.768 38.8511 40.448 39.1631 41.131C39.1911 41.1882 39.2119 41.2486 39.2251 41.311C39.2348 41.3582 39.2298 41.4072 39.2106 41.4514C39.1915 41.4956 39.1591 41.5328 39.1181 41.558C39.071 41.5869 39.0152 41.5985 38.9605 41.5909C38.9058 41.5832 38.8554 41.5567 38.8181 41.516C38.7573 41.422 38.7077 41.3214 38.6701 41.216C38.1701 39.892 37.4571 38.684 36.6701 37.516C36.6613 37.5033 36.6516 37.4913 36.6411 37.48C36.6001 37.431 36.4991 37.436 36.4781 37.493C36.4469 37.5657 36.426 37.6425 36.4161 37.721C36.3938 37.9759 36.3404 38.2271 36.2571 38.469C36.1424 38.835 36.0351 39.2017 35.9351 39.569C35.8883 39.7554 35.8212 39.9362 35.7351 40.108C35.5868 40.3922 35.4941 40.7021 35.4621 41.021C35.4267 41.3229 35.3503 41.6187 35.2351 41.9C35.0351 42.405 34.8351 42.908 34.7571 43.452C34.743 43.5308 34.7188 43.6074 34.6851 43.68C34.4691 44.18 34.3461 44.71 34.1761 45.224C33.9551 45.89 33.7651 46.57 33.5061 47.219C33.2061 47.977 33.0401 48.781 32.6911 49.519C32.6201 49.67 32.6741 49.734 32.8751 49.719C32.9531 49.7014 33.0347 49.7118 33.1058 49.7484C33.177 49.785 33.2329 49.8453 33.2641 49.919C33.29 49.9775 33.3191 50.0346 33.3511 50.09C33.7641 50.774 34.0731 51.516 34.5211 52.18C34.5653 52.2466 34.6009 52.3185 34.6271 52.394C34.6413 52.4482 34.6379 52.5055 34.6174 52.5576C34.5969 52.6097 34.5604 52.654 34.5131 52.684C34.4577 52.7167 34.3923 52.7277 34.3293 52.7149C34.2663 52.7022 34.2103 52.6666 34.1721 52.615C34.1337 52.5632 34.1002 52.508 34.0721 52.45C33.8445 51.9919 33.5876 51.549 33.3031 51.124C33.1031 50.814 32.8941 50.513 32.7591 50.167C32.7391 50.1245 32.7132 50.0851 32.6821 50.05C32.6501 50.009 32.5321 50.015 32.5131 50.06C32.4855 50.1169 32.4653 50.177 32.4531 50.239C32.3933 50.6667 32.2696 51.083 32.0861 51.474C31.9721 51.7217 31.9017 51.9873 31.8781 52.259C31.846 52.48 31.7904 52.6969 31.7121 52.906C31.5991 53.282 31.4201 53.641 31.4121 54.045C31.4116 54.1252 31.396 54.2046 31.3661 54.279C31.2611 54.516 31.3411 54.71 31.4811 54.902C31.8381 55.394 32.1811 55.892 32.5431 56.383C32.74 56.6348 32.9046 56.9103 33.0331 57.203C33.0594 57.2607 33.093 57.3148 33.1331 57.364C33.1661 57.408 33.2801 57.399 33.3001 57.349C33.3421 57.249 33.3781 57.142 33.4131 57.036C33.4831 56.824 33.5391 56.607 33.6221 56.4C34.0674 55.288 34.5171 54.1777 34.9711 53.069C35.1891 52.538 35.4141 52.008 35.6531 51.485C35.7748 51.2425 35.8787 50.9915 35.9641 50.734C36.0056 50.5964 36.0547 50.4612 36.1111 50.329C36.3701 49.729 36.6351 49.129 36.8951 48.529C37.4031 47.3557 37.9094 46.1827 38.4141 45.01C39.1421 43.31 39.9441 41.637 40.6371 39.918C40.9891 39.044 41.3871 38.189 41.7631 37.324C42.0681 36.624 42.3761 35.919 42.6721 35.212C42.9981 34.431 43.3071 33.643 43.6301 32.861C43.8361 32.361 44.0741 31.869 44.2611 31.361C44.7781 29.952 45.2711 28.533 45.8991 27.167C45.9557 27.063 45.9834 26.9457 45.9794 26.8274C45.9753 26.709 45.9396 26.5939 45.8761 26.494C45.4455 25.7272 44.9401 25.005 44.3671 24.338C43.7671 23.649 43.1221 23.008 42.4671 22.374C42.0891 22.006 41.6671 21.684 41.3201 21.285C41.3042 21.2671 41.284 21.2535 41.2614 21.2455C41.2388 21.2376 41.2146 21.2355 41.1909 21.2395C41.1673 21.2435 41.1451 21.2534 41.1264 21.2684C41.1077 21.2834 41.0931 21.3028 41.0841 21.325C41.0584 21.3834 41.038 21.444 41.0231 21.506C40.8981 22.053 40.6931 22.573 40.5231 23.106C40.3011 23.806 40.0971 24.506 39.8851 25.206C39.8765 25.2368 39.8704 25.2682 39.8671 25.3C39.819 25.6324 39.7362 25.9589 39.6201 26.274C39.3981 26.924 39.3071 27.612 39.0401 28.248C39.0279 28.2776 39.0192 28.3084 39.0141 28.34C38.7831 29.6 38.3571 30.809 38.0471 32.048C37.7961 33.054 37.4281 34.029 37.2221 35.048C37.2101 35.111 37.1899 35.1722 37.1621 35.23C36.8811 35.81 36.8841 36.478 36.6001 37.057C36.596 37.0724 36.596 37.0886 36.6001 37.104C36.6081 37.174 36.6361 37.226 36.7181 37.21C36.7621 37.2002 36.8052 37.1869 36.8471 37.17V37.173ZM39.7741 4.32299C39.7741 4.17599 39.7741 4.04799 39.7741 3.92299C39.7773 3.89136 39.769 3.8596 39.7506 3.83366C39.7322 3.80771 39.705 3.78935 39.6741 3.78199C39.6425 3.77771 39.6104 3.78271 39.5816 3.79638C39.5528 3.81006 39.5287 3.83181 39.5121 3.85899C39.4741 3.90999 39.4391 3.95899 39.4031 4.01699C39.2851 4.18799 39.1791 4.36899 39.0451 4.52699C38.4861 5.18999 38.0521 5.93799 37.5811 6.65999C37.1881 7.25999 36.8341 7.88999 36.4311 8.48499C35.5811 9.74299 34.7194 10.9933 33.8461 12.236C32.7281 13.836 31.6024 15.4287 30.4691 17.014C30.1451 17.469 29.8511 17.948 29.4571 18.35C29.4369 18.3749 29.4204 18.4025 29.4081 18.432C29.4018 18.4504 29.3995 18.4698 29.4013 18.4891C29.403 18.5085 29.4088 18.5272 29.4182 18.5441C29.4276 18.5611 29.4405 18.5759 29.4559 18.5876C29.4714 18.5993 29.4892 18.6076 29.5081 18.612C29.5874 18.6165 29.6669 18.6115 29.7451 18.597C29.9653 18.5524 30.1913 18.5446 30.4141 18.574C31.3837 18.6724 32.3474 18.8226 33.3011 19.024C34.3577 19.2795 35.4337 19.4467 36.5181 19.524C37.1241 19.558 37.7281 19.624 38.3321 19.693C38.8401 19.747 39.3471 19.821 39.8551 19.881C40.0297 19.8934 40.2027 19.9239 40.3711 19.972C40.6401 20.061 40.7041 20.002 40.7121 19.706C40.7121 19.674 40.7121 19.642 40.7121 19.606C40.7121 18.36 40.7371 17.114 40.6731 15.866C40.6211 14.829 40.5731 13.791 40.5081 12.754C40.4431 11.717 40.3571 10.654 40.2651 9.59999C40.1471 8.26299 40.0031 6.92899 39.8891 5.59199C39.8531 5.15899 39.7511 4.73499 39.7741 4.31999V4.32299ZM23.1311 19.923C23.1866 19.9103 23.2406 19.8915 23.2921 19.867C23.5489 19.7371 23.822 19.6423 24.1041 19.585C25.4411 19.274 26.7801 18.966 28.1311 18.717C28.2014 18.7052 28.2686 18.679 28.3284 18.6399C28.3881 18.6008 28.4391 18.5498 28.4781 18.49C28.8971 17.89 29.3271 17.29 29.7521 16.69C30.4187 15.75 31.0821 14.8097 31.7421 13.869C32.4601 12.8497 33.1794 11.8297 33.9001 10.809C34.2661 10.285 34.6221 9.75299 34.9861 9.22699C35.5411 8.42699 36.0861 7.61699 36.5941 6.78399C37.1441 5.88399 37.6861 4.97699 38.4211 4.20699C38.4513 4.18117 38.4757 4.14934 38.493 4.11353C38.5102 4.07772 38.5198 4.03871 38.5211 3.99899C38.5192 3.96747 38.506 3.93767 38.4841 3.91499C38.4729 3.90504 38.4596 3.89772 38.4453 3.89357C38.4309 3.88941 38.4158 3.88853 38.4011 3.89099C38.2721 3.92599 38.1901 4.02899 38.0951 4.11399C37.2391 4.88399 36.3827 5.65333 35.5261 6.42199C34.9191 6.96599 34.3141 7.51399 33.6991 8.04799C33.0461 8.61399 32.4221 9.20999 31.8061 9.81499C31.1671 10.442 30.5201 11.062 29.9061 11.715C28.6861 13 27.4781 14.3 26.3201 15.651C25.5691 16.524 24.8311 17.406 24.1271 18.318C23.7761 18.774 23.4681 19.263 23.0421 19.658C23.0117 19.6942 22.988 19.7355 22.9721 19.78C22.9481 19.831 23.0081 19.922 23.1311 19.923ZM46.3001 25.282C46.2781 25.062 46.2461 24.825 46.2301 24.582C46.2001 24.152 46.1961 23.719 46.1531 23.291C45.9911 21.7819 45.6973 20.2899 45.2751 18.832C44.9491 17.68 44.6081 16.532 44.2111 15.403C43.8511 14.379 43.5201 13.346 43.1561 12.323C42.9141 11.647 42.6971 10.962 42.4801 10.277C42.2431 9.53199 42.0341 8.77699 41.7801 8.03699C41.4541 7.06899 41.1181 6.10399 40.8591 5.11499C40.7801 4.81499 40.6651 4.66499 40.5891 4.73999C40.4521 4.87299 40.5281 5.03999 40.5561 5.18599C40.8041 6.48599 40.8751 7.81499 41.0131 9.13299C41.1131 10.053 41.0851 10.978 41.2051 11.9C41.3721 13.181 41.3971 14.479 41.4471 15.771C41.4701 16.362 41.4791 16.953 41.4831 17.544C41.4901 18.422 41.5191 19.301 41.4231 20.176C41.4129 20.2391 41.4202 20.3037 41.4442 20.363C41.4681 20.4222 41.5079 20.4737 41.5591 20.512C41.5971 20.542 41.6351 20.572 41.6711 20.603C42.7931 21.578 43.8941 22.577 44.8601 23.71C45.2731 24.195 45.7161 24.662 45.9731 25.261C45.9954 25.3193 46.0295 25.3723 46.0731 25.417C46.1114 25.4414 46.1569 25.4519 46.2021 25.447C46.2611 25.447 46.2681 25.387 46.2841 25.347C46.2914 25.3259 46.2968 25.3041 46.3001 25.282ZM24.7781 54.282C24.7913 54.5382 24.8247 54.793 24.8781 55.044C24.9911 55.575 25.1071 56.105 25.2201 56.636C25.4971 57.936 25.8281 59.215 26.1611 60.498C26.2451 60.823 26.3471 61.143 26.3411 61.484C26.3382 61.516 26.3441 61.5481 26.3581 61.577C26.3841 61.616 26.4181 61.664 26.4581 61.677C26.4811 61.6804 26.5047 61.6783 26.5267 61.6708C26.5488 61.6633 26.5688 61.6507 26.5851 61.634C26.6394 61.5558 26.6854 61.472 26.7221 61.384C26.8457 61.1088 26.9957 60.8462 27.1701 60.6C27.6663 59.9142 28.1041 59.188 28.4791 58.429C29.0431 57.266 29.6711 56.135 30.2721 54.99C30.3481 54.844 30.2991 54.743 30.1331 54.721C29.6891 54.661 29.2451 54.611 28.8021 54.549C28.4231 54.497 28.0431 54.449 27.6671 54.374C26.8351 54.216 26.0101 54.023 25.1671 53.954C25.0882 53.9429 25.0086 53.9382 24.9291 53.94C24.8888 53.9423 24.8509 53.9598 24.8231 53.9889C24.7952 54.0181 24.7795 54.0567 24.7791 54.097C24.7701 54.156 24.7741 54.22 24.7741 54.283L24.7781 54.282ZM32.7861 58.447C32.8041 58.263 32.7211 58.124 32.6481 57.982C32.1911 57.099 31.5621 56.33 31.0091 55.509C30.9952 55.4895 30.9763 55.474 30.9545 55.4642C30.9326 55.4544 30.9086 55.4505 30.8847 55.4531C30.8609 55.4556 30.8382 55.4644 30.8189 55.4787C30.7997 55.4929 30.7845 55.512 30.7751 55.534C30.6153 55.9176 30.4208 56.2858 30.1941 56.634C30.1351 56.721 30.1691 56.815 30.2941 56.847C30.3785 56.8712 30.456 56.9154 30.5198 56.9758C30.5837 57.0362 30.6321 57.111 30.6611 57.194C30.7201 57.325 30.7821 57.455 30.8421 57.585C31.0151 57.962 31.1251 58.367 31.3661 58.713C31.4001 58.7668 31.4239 58.8265 31.4361 58.889C31.4494 58.9435 31.4443 59.0009 31.4217 59.0522C31.3991 59.1035 31.3602 59.146 31.3111 59.173C31.2601 59.1964 31.2025 59.201 31.1485 59.186C31.0945 59.171 31.0476 59.1373 31.0161 59.091C30.9879 59.0524 30.9635 59.0112 30.9431 58.968C30.7181 58.509 30.4971 58.048 30.2681 57.591C30.1981 57.454 30.1871 57.228 30.0131 57.216C29.7901 57.201 29.7991 57.458 29.7191 57.599C29.5971 57.811 29.6081 57.823 29.8791 57.908C29.9328 57.9237 29.9819 57.9523 30.022 57.9913C30.0621 58.0304 30.092 58.0787 30.1091 58.132C30.2911 58.627 30.4711 59.122 30.6451 59.619C30.6657 59.6959 30.6708 59.7761 30.6601 59.855C30.6521 59.967 30.5701 60.018 30.4691 60.037C30.4297 60.0463 30.3884 60.0426 30.3513 60.0266C30.3142 60.0106 30.2833 59.983 30.2631 59.948C30.2265 59.8779 30.1973 59.8042 30.1761 59.728C30.137 59.5575 30.0845 59.3903 30.0191 59.228C29.8579 58.9342 29.724 58.6262 29.6191 58.308C29.6021 58.248 29.5741 58.187 29.4951 58.18C29.4629 58.1778 29.431 58.1871 29.4051 58.2064C29.3793 58.2257 29.3611 58.2535 29.3541 58.285C29.2231 58.701 28.9691 59.055 28.7841 59.444C28.6771 59.671 28.6701 59.666 28.9311 59.802C28.9891 59.8262 29.0402 59.8644 29.0801 59.913C29.1821 60.075 29.2761 60.2417 29.3621 60.413C29.3774 60.4413 29.3866 60.4725 29.3893 60.5045C29.3919 60.5366 29.3879 60.5689 29.3775 60.5993C29.3671 60.6297 29.3505 60.6577 29.3287 60.6814C29.3069 60.7051 29.2805 60.724 29.2511 60.737C29.2005 60.7648 29.1411 60.7722 29.0853 60.7575C29.0294 60.7428 28.9814 60.7071 28.9511 60.658C28.8371 60.486 28.7381 60.302 28.6301 60.125C28.5521 59.998 28.4451 59.995 28.3821 60.125C28.0949 60.6968 27.7356 61.2295 27.3131 61.71C27.2708 61.7587 27.237 61.8141 27.2131 61.874C27.2068 61.8842 27.2027 61.8955 27.2009 61.9073C27.1991 61.9192 27.1997 61.9312 27.2027 61.9428C27.2057 61.9544 27.211 61.9652 27.2183 61.9747C27.2255 61.9842 27.2347 61.9921 27.2451 61.998C27.2721 62.012 27.3091 62.034 27.3321 62.026C27.4064 61.9996 27.4781 61.9661 27.5461 61.926C27.8071 61.772 28.0541 61.586 28.3291 61.464C29.1201 61.116 29.8391 60.633 30.6171 60.264C30.7179 60.2153 30.8129 60.1553 30.9001 60.085C31.243 59.8232 31.6024 59.5837 31.9761 59.368C32.2087 59.2281 32.4233 59.0601 32.6151 58.868C32.6703 58.8132 32.7136 58.7477 32.7423 58.6754C32.771 58.6031 32.7846 58.5257 32.7821 58.448L32.7861 58.447ZM25.6361 61.247C25.6111 61.159 25.5841 61.034 25.5361 60.916C25.3678 60.4844 25.2285 60.0421 25.1191 59.592C24.8771 58.583 24.6191 57.577 24.4191 56.56C24.2711 55.827 24.0711 55.097 24.0921 54.337C24.0922 54.305 24.0868 54.2732 24.0761 54.243C24.0723 54.2234 24.0646 54.2047 24.0534 54.1882C24.0421 54.1717 24.0276 54.1577 24.0108 54.147C23.9939 54.1363 23.975 54.1292 23.9553 54.1261C23.9355 54.123 23.9154 54.124 23.8961 54.129C23.8199 54.1511 23.7465 54.1816 23.6771 54.22L22.7841 54.681C22.4973 54.8206 22.225 54.9881 21.9711 55.181C21.9429 55.1971 21.9187 55.2191 21.8999 55.2455C21.8811 55.2719 21.8683 55.3021 21.8623 55.334C21.8563 55.3658 21.8573 55.3986 21.8652 55.43C21.8731 55.4614 21.8877 55.4908 21.9081 55.516C21.9471 55.586 21.9941 55.651 22.0391 55.716C22.2101 55.966 22.3921 56.21 22.5511 56.468C22.9281 57.08 23.2941 57.698 23.6641 58.314C24.2161 59.23 24.8191 60.114 25.2731 61.09C25.3095 61.196 25.3745 61.2898 25.4611 61.361C25.4866 61.3771 25.5172 61.3835 25.5471 61.379C25.5911 61.374 25.6231 61.339 25.6321 61.248L25.6361 61.247Z" fill="black"/>
<path d="M27.3 38.243C27.3 38.107 27.3 38.011 27.3 37.915C27.3014 37.8518 27.3105 37.789 27.327 37.728C27.3476 37.676 27.3841 37.6318 27.4313 37.6018C27.4786 37.5718 27.5341 37.5575 27.59 37.561C27.6384 37.5677 27.6839 37.5881 27.7211 37.6198C27.7584 37.6515 27.7857 37.6932 27.8 37.74C27.8349 37.8635 27.8331 37.9945 27.795 38.117C27.7674 38.2417 27.7692 38.371 27.8001 38.4949C27.8309 38.6188 27.8901 38.7338 27.973 38.831C28.0601 38.9449 28.1314 39.07 28.185 39.203C28.2085 39.2707 28.2064 39.3447 28.1791 39.411C28.1517 39.4772 28.1011 39.5312 28.0366 39.5626C27.9722 39.594 27.8985 39.6007 27.8294 39.5814C27.7604 39.5622 27.7008 39.5182 27.662 39.458C27.444 39.068 27.183 38.688 27.3 38.243Z" fill="black"/>
<path d="M39.082 21.591C39.052 21.811 39.028 22.032 38.991 22.251C38.9766 22.3049 38.9436 22.3521 38.8979 22.3841C38.8521 22.4161 38.7966 22.4309 38.741 22.426C38.6853 22.4219 38.6328 22.3985 38.5927 22.3597C38.5525 22.321 38.5271 22.2695 38.521 22.214C38.5243 22.1192 38.5357 22.0249 38.555 21.932C38.596 21.675 38.582 21.645 38.345 21.532C38.2714 21.5029 38.1996 21.4695 38.13 21.432C38.0699 21.3924 38.026 21.3326 38.0064 21.2634C37.9868 21.1942 37.9926 21.1202 38.023 21.055C38.0526 20.9893 38.1066 20.9376 38.1736 20.9109C38.2405 20.8842 38.3153 20.8846 38.382 20.912C38.5913 20.9898 38.7852 21.1039 38.955 21.249C39.0045 21.2896 39.0424 21.3427 39.0647 21.4028C39.087 21.4629 39.093 21.5278 39.082 21.591Z" fill="black"/>
<path d="M25.715 52.98C25.667 52.98 25.615 52.972 25.572 52.974C25.244 52.989 25.179 52.862 25.059 52.574C25.0365 52.5229 25.0315 52.4659 25.0447 52.4116C25.0579 52.3574 25.0886 52.309 25.132 52.274C25.1739 52.2362 25.2267 52.2127 25.2829 52.2072C25.339 52.2016 25.3955 52.2141 25.444 52.243C25.4868 52.264 25.527 52.2899 25.564 52.32C25.6112 52.3629 25.6667 52.3957 25.7271 52.4163C25.7874 52.437 25.8514 52.445 25.915 52.44C25.9481 52.435 25.9818 52.435 26.015 52.44C26.0869 52.4449 26.1544 52.4762 26.2047 52.5279C26.2549 52.5796 26.2842 52.648 26.287 52.72C26.282 52.877 26.151 52.987 25.958 52.99C25.879 52.99 25.799 52.982 25.72 52.978L25.715 52.98Z" fill="black"/>
<path d="M29.081 25.06C29.092 25.26 29.105 25.369 29.102 25.48C29.1018 25.5441 29.0779 25.6058 29.0348 25.6533C28.9918 25.7007 28.9327 25.7306 28.869 25.737C28.8127 25.7432 28.7562 25.7288 28.7098 25.6964C28.6634 25.6641 28.6304 25.6159 28.617 25.561C28.568 25.279 28.528 24.996 28.502 24.711C28.5018 24.646 28.5265 24.5835 28.5709 24.5361C28.6153 24.4887 28.6761 24.4601 28.7409 24.456C28.8121 24.4441 28.8852 24.4597 28.9453 24.4997C29.0054 24.5396 29.0482 24.6008 29.065 24.671C29.0775 24.7493 29.0825 24.8287 29.08 24.908C29.082 24.988 29.081 25.067 29.081 25.06Z" fill="black"/>
<path d="M26.8301 43.47C26.8241 43.36 26.8111 43.249 26.8151 43.138C26.8184 43.0583 26.852 42.9828 26.9091 42.9271C26.9661 42.8713 27.0423 42.8395 27.1221 42.838C27.1621 42.838 27.2017 42.846 27.2385 42.8615C27.2754 42.877 27.3088 42.8997 27.3367 42.9283C27.3647 42.9569 27.3866 42.9908 27.4013 43.028C27.4159 43.0652 27.423 43.105 27.4221 43.145C27.3958 43.4137 27.3547 43.6808 27.2991 43.945C27.2864 43.9919 27.2571 44.0326 27.2166 44.0595C27.1761 44.0863 27.1272 44.0975 27.0791 44.091C27.0229 44.0946 26.9675 44.077 26.9238 44.0416C26.8801 44.0062 26.8512 43.9556 26.8431 43.9C26.8291 43.759 26.8431 43.616 26.8431 43.474L26.8301 43.47Z" fill="black"/>
<path d="M33.0701 20.62C33.0696 20.652 33.0624 20.6835 33.049 20.7126C33.0356 20.7417 33.0163 20.7676 32.9923 20.7888C32.9683 20.81 32.9401 20.8259 32.9096 20.8356C32.8791 20.8453 32.8469 20.8485 32.8151 20.845C32.5371 20.783 32.2621 20.707 31.9911 20.62C31.9339 20.591 31.8876 20.5445 31.8588 20.4873C31.83 20.4301 31.8203 20.3651 31.8311 20.302C31.8465 20.2315 31.8869 20.1689 31.9447 20.1257C32.0026 20.0826 32.0741 20.0617 32.1461 20.067C32.2094 20.072 32.2715 20.0872 32.3301 20.112C32.5191 20.192 32.7051 20.281 32.8941 20.362C32.9463 20.3817 32.9913 20.417 33.0228 20.4632C33.0543 20.5094 33.0708 20.5641 33.0701 20.62Z" fill="black"/>
<path d="M29.217 27.841C28.997 27.859 28.798 27.666 28.849 27.485C28.9208 27.2442 29.0066 27.0078 29.106 26.777C29.1285 26.726 29.1694 26.6853 29.2206 26.6631C29.2717 26.6409 29.3293 26.6387 29.382 26.657C29.4365 26.6705 29.4845 26.7027 29.5176 26.7481C29.5507 26.7934 29.5668 26.849 29.563 26.905C29.5305 27.1538 29.4854 27.4008 29.428 27.645C29.4172 27.6954 29.3912 27.7412 29.3534 27.7763C29.3157 27.8113 29.268 27.8339 29.217 27.841Z" fill="black"/>
<path d="M26.087 50.358C26.094 50.4849 26.094 50.6121 26.087 50.739C26.0845 50.7791 26.0733 50.8182 26.0543 50.8536C26.0352 50.8889 26.0087 50.9198 25.9766 50.9439C25.9444 50.968 25.9075 50.9849 25.8682 50.9934C25.8289 51.0019 25.7882 51.0017 25.749 50.993C25.6773 50.9849 25.6117 50.9489 25.5664 50.8927C25.521 50.8366 25.4997 50.7648 25.507 50.693C25.53 50.456 25.568 50.22 25.601 49.983C25.6072 49.9516 25.6195 49.9217 25.637 49.895C25.6562 49.8509 25.6887 49.8139 25.7299 49.7892C25.7712 49.7644 25.8191 49.7532 25.867 49.757C25.914 49.7641 25.958 49.7846 25.9935 49.8163C26.029 49.8479 26.0545 49.8891 26.067 49.935C26.121 50.072 26.073 50.215 26.087 50.358Z" fill="black"/>
<path d="M29.892 21.718C29.84 21.923 29.786 22.187 29.703 22.441C29.656 22.585 29.453 22.632 29.29 22.567C29.2564 22.5543 29.2257 22.535 29.1997 22.5103C29.1737 22.4856 29.1528 22.4559 29.1384 22.423C29.124 22.3902 29.1162 22.3548 29.1156 22.3189C29.1151 22.283 29.1216 22.2473 29.135 22.214C29.235 21.983 29.353 21.756 29.476 21.535C29.5005 21.4928 29.5392 21.4607 29.5851 21.4442C29.631 21.4277 29.6813 21.428 29.727 21.445C29.824 21.476 29.882 21.552 29.892 21.718Z" fill="black"/>
<path d="M27.505 47.786C27.4965 47.6435 27.4965 47.5005 27.505 47.358C27.526 47.185 27.675 47.098 27.859 47.128C27.8989 47.1305 27.9378 47.1418 27.9729 47.1609C28.0081 47.1801 28.0386 47.2067 28.0623 47.2389C28.086 47.2712 28.1024 47.3082 28.1103 47.3474C28.1182 47.3866 28.1174 47.4271 28.108 47.466C28.061 47.683 28.008 47.899 27.946 48.114C27.935 48.1613 27.91 48.2042 27.8743 48.2372C27.8387 48.2701 27.794 48.2917 27.746 48.299C27.7154 48.3081 27.6833 48.3105 27.6517 48.306C27.6202 48.3016 27.5899 48.2904 27.5631 48.2732C27.5362 48.2561 27.5134 48.2333 27.4961 48.2065C27.4788 48.1797 27.4675 48.1495 27.463 48.118C27.454 48.008 27.463 47.897 27.463 47.786H27.505Z" fill="black"/>
<path d="M26.605 48.237C26.6117 48.3639 26.6117 48.4911 26.605 48.618C26.5945 48.6892 26.5581 48.7541 26.5027 48.8003C26.4474 48.8464 26.377 48.8705 26.305 48.868C26.2693 48.8696 26.2336 48.864 26.2001 48.8516C26.1665 48.8391 26.1358 48.8201 26.1098 48.7955C26.0838 48.771 26.063 48.7415 26.0486 48.7088C26.0342 48.676 26.0265 48.6407 26.026 48.605C26.0425 48.3539 26.0725 48.1039 26.116 47.856C26.1318 47.8023 26.1663 47.756 26.2132 47.7255C26.2602 47.6951 26.3165 47.6825 26.372 47.69C26.4199 47.6932 26.4654 47.7121 26.5016 47.7437C26.5377 47.7753 26.5625 47.8179 26.572 47.865C26.5893 47.9884 26.6003 48.1125 26.605 48.237Z" fill="black"/>
<path d="M27.07 45.776C27.0725 45.7919 27.0725 45.8081 27.07 45.824C26.981 46.045 26.901 46.27 26.797 46.484C26.7589 46.5451 26.6998 46.5902 26.6307 46.6108C26.5617 46.6313 26.4875 46.6259 26.4222 46.5955C26.3569 46.5651 26.3049 46.5119 26.2761 46.4459C26.2474 46.3798 26.2438 46.3055 26.266 46.237C26.3622 46.0008 26.4948 45.7811 26.659 45.586C26.6916 45.5497 26.7359 45.5261 26.7842 45.5193C26.8325 45.5126 26.8817 45.5231 26.923 45.549C26.9655 45.5703 27.0015 45.6026 27.0274 45.6425C27.0532 45.6824 27.0679 45.7285 27.07 45.776Z" fill="black"/>
<path d="M28.3509 52.745C28.3399 52.929 28.1749 53.054 28.0389 52.991C27.823 52.8898 27.6129 52.7762 27.4099 52.651C27.3489 52.6108 27.3062 52.5481 27.2911 52.4766C27.2759 52.4051 27.2895 52.3305 27.3289 52.269C27.3636 52.2053 27.4202 52.1563 27.4883 52.1311C27.5563 52.1059 27.6311 52.1062 27.6989 52.132C27.744 52.1481 27.7864 52.1707 27.8249 52.199C27.9629 52.307 28.0999 52.418 28.2349 52.53C28.2699 52.5541 28.2986 52.5862 28.3188 52.6236C28.3389 52.6609 28.3499 52.7025 28.3509 52.745Z" fill="black"/>
<path d="M30.541 20.3C30.341 20.246 30.111 20.193 29.886 20.117C29.8239 20.0982 29.7708 20.0573 29.7367 20.002C29.7027 19.9468 29.69 19.881 29.7011 19.817C29.7077 19.7816 29.7214 19.7479 29.7413 19.7178C29.7612 19.6878 29.7869 19.6621 29.8169 19.6421C29.8469 19.6222 29.8806 19.6084 29.916 19.6017C29.9514 19.595 29.9878 19.5954 30.023 19.603C30.2666 19.6728 30.5057 19.7573 30.739 19.856C30.7916 19.8774 30.8347 19.9169 30.8605 19.9673C30.8864 20.0178 30.8933 20.0759 30.88 20.131C30.848 20.245 30.723 20.314 30.541 20.3Z" fill="black"/>
<path d="M22.78 22.6C22.653 22.6 22.525 22.608 22.399 22.6C22.3273 22.5942 22.2604 22.5617 22.2115 22.509C22.1626 22.4562 22.1353 22.3869 22.135 22.315C22.135 22.153 22.277 21.989 22.435 22.008C22.7011 22.0426 22.9651 22.0914 23.226 22.154C23.2789 22.1737 23.3223 22.2127 23.3476 22.2632C23.3728 22.3137 23.378 22.3719 23.362 22.426C23.3521 22.4727 23.3272 22.5149 23.2911 22.5461C23.255 22.5773 23.2096 22.5959 23.162 22.599C23.0992 22.6055 23.0358 22.6055 22.973 22.599C22.909 22.599 22.846 22.59 22.783 22.585L22.78 22.6Z" fill="black"/>
<path d="M43.99 31.236C43.9949 31.2918 43.9815 31.3477 43.9517 31.3952C43.9219 31.4427 43.8774 31.4791 43.825 31.499C43.7944 31.5084 43.7622 31.5116 43.7304 31.5083C43.6985 31.505 43.6677 31.4953 43.6397 31.4798C43.6117 31.4643 43.5871 31.4433 43.5674 31.4181C43.5477 31.3929 43.5333 31.3639 43.525 31.333C43.2888 30.7759 43.0217 30.2324 42.725 29.705C42.26 28.851 41.773 28.005 41.303 27.157C40.979 26.571 40.666 25.979 40.353 25.387C40.3017 25.2886 40.2631 25.1841 40.238 25.076C40.2251 25.0216 40.2276 24.9648 40.2453 24.9118C40.2629 24.8587 40.295 24.8117 40.338 24.776C40.3598 24.7528 40.3863 24.7344 40.4158 24.7221C40.4452 24.7097 40.4769 24.7038 40.5088 24.7045C40.5407 24.7053 40.572 24.7127 40.6009 24.7264C40.6297 24.7401 40.6553 24.7597 40.676 24.784C40.7236 24.8468 40.7654 24.9137 40.801 24.984C41.0677 25.492 41.3343 26.0003 41.601 26.509C42.3523 27.951 43.103 29.393 43.853 30.835C43.9302 30.9557 43.9772 31.0933 43.99 31.236Z" fill="black"/>
<path d="M40.9 23.34C40.9501 23.3536 40.9982 23.3738 41.043 23.4C41.0932 23.4397 41.1362 23.4877 41.17 23.542C41.68 24.296 42.193 25.049 42.599 25.868C43.082 26.84 43.555 27.818 44.118 28.748C44.1432 28.7889 44.1636 28.8325 44.179 28.878C44.1966 28.9314 44.1957 28.9891 44.1765 29.0419C44.1573 29.0947 44.1208 29.1395 44.073 29.169C44.0176 29.2017 43.952 29.2125 43.889 29.1992C43.8261 29.1858 43.7704 29.1494 43.733 29.097C43.6966 29.0439 43.6632 28.9888 43.633 28.932C42.969 27.712 42.34 26.472 41.633 25.275C41.3964 24.8585 41.1332 24.4576 40.845 24.075C40.748 23.9683 40.6763 23.8412 40.635 23.703C40.6243 23.6614 40.623 23.6179 40.6311 23.5757C40.6392 23.5335 40.6565 23.4936 40.6818 23.4589C40.7072 23.4242 40.7399 23.3956 40.7776 23.375C40.8153 23.3544 40.8571 23.3425 40.9 23.34Z" fill="black"/>
<path d="M41.391 22.538C41.4469 22.5414 41.5013 22.5578 41.5497 22.5859C41.5982 22.614 41.6394 22.6531 41.67 22.7C41.824 22.9 41.982 23.105 42.136 23.308C42.911 24.328 43.579 25.418 44.231 26.517C44.431 26.86 44.613 27.217 44.849 27.544C44.894 27.6089 44.9259 27.6819 44.943 27.759C44.952 27.8146 44.942 27.8716 44.9146 27.9207C44.8872 27.9699 44.844 28.0084 44.792 28.03C44.7476 28.0489 44.6984 28.0539 44.6511 28.0443C44.6038 28.0346 44.5605 28.0108 44.527 27.976C44.4826 27.93 44.4452 27.8778 44.416 27.821C43.7 26.44 42.816 25.169 41.901 23.916C41.713 23.658 41.501 23.416 41.301 23.172C41.2354 23.1036 41.178 23.0278 41.13 22.946C41.1115 22.9021 41.1039 22.8543 41.108 22.8068C41.1121 22.7593 41.1276 22.7135 41.1533 22.6734C41.179 22.6332 41.214 22.5999 41.2554 22.5764C41.2968 22.5528 41.3434 22.5396 41.391 22.538Z" fill="black"/>
<path d="M39.5741 28.037C39.6243 28.0527 39.672 28.0752 39.7161 28.104C39.7642 28.1452 39.8043 28.1951 39.8341 28.251C40.4511 29.443 41.2181 30.543 41.9261 31.68C42.2261 32.153 42.5091 32.631 42.7951 33.11C42.853 33.2035 42.8981 33.3044 42.9291 33.41C42.9433 33.4729 42.9325 33.5389 42.8989 33.594C42.8653 33.6491 42.8115 33.6889 42.7491 33.705C42.6948 33.7206 42.6369 33.7167 42.5852 33.694C42.5335 33.6714 42.4914 33.6314 42.4661 33.581C42.4501 33.5537 42.436 33.5253 42.4241 33.496C42.0241 32.604 41.4551 31.813 40.9061 31.009C40.4481 30.338 40.0061 29.652 39.5711 28.967C39.472 28.8036 39.3874 28.632 39.3181 28.454C39.2935 28.3936 39.2901 28.3267 39.3082 28.2641C39.3264 28.2016 39.3651 28.1469 39.4181 28.109C39.4663 28.0775 39.5188 28.0532 39.5741 28.037Z" fill="black"/>
<path d="M42.344 35.07C42.3378 35.1253 42.3156 35.1776 42.2801 35.2204C42.2445 35.2633 42.1972 35.2947 42.144 35.311C42.0968 35.3227 42.047 35.3181 42.0027 35.2979C41.9584 35.2778 41.9222 35.2433 41.9 35.2C41.674 34.832 41.454 34.462 41.236 34.09C41.018 33.718 40.82 33.372 40.618 33.009C40.166 32.201 39.7163 31.3913 39.269 30.58C39.2212 30.4972 39.183 30.4093 39.155 30.318C39.137 30.2478 39.1451 30.1736 39.1776 30.1089C39.2101 30.0442 39.265 29.9934 39.332 29.966C39.3976 29.9344 39.4728 29.9296 39.5419 29.9525C39.611 29.9755 39.6684 30.0244 39.702 30.089C39.777 30.229 39.828 30.382 39.902 30.523C40.527 31.71 41.102 32.923 41.802 34.072C41.95 34.318 42.109 34.557 42.262 34.801C42.3193 34.8787 42.3482 34.9736 42.344 35.07Z" fill="black"/>
<path d="M40.1001 26.66C40.14 26.66 40.1795 26.6691 40.2155 26.6864C40.2515 26.7037 40.2831 26.7288 40.3081 26.76C40.3472 26.8106 40.376 26.8684 40.3931 26.93C40.5721 27.686 40.9781 28.342 41.3201 29.03C41.7351 29.858 42.2541 30.63 42.7301 31.42C42.8121 31.556 42.9201 31.676 43.0081 31.809C43.0427 31.8621 43.0652 31.9222 43.0741 31.985C43.0802 32.0329 43.0716 32.0814 43.0494 32.1243C43.0273 32.1672 42.9927 32.2023 42.9501 32.225C42.9093 32.2511 42.8607 32.2621 42.8126 32.2561C42.7646 32.2501 42.7201 32.2274 42.6871 32.192C42.6399 32.1496 42.5997 32.1 42.5681 32.045C41.9021 30.956 41.2301 29.871 40.5771 28.775C40.3188 28.3527 40.1008 27.9071 39.9261 27.444C39.8727 27.3109 39.8312 27.1734 39.8021 27.033C39.7957 26.9887 39.7984 26.9436 39.8101 26.9004C39.8218 26.8572 39.8423 26.8168 39.8702 26.7819C39.8982 26.7469 39.933 26.7181 39.9725 26.6971C40.0121 26.6761 40.0555 26.6635 40.1001 26.66Z" fill="black"/>
<path d="M37.2571 35.943C37.2571 35.79 37.2901 35.691 37.3981 35.624C37.424 35.6055 37.4535 35.5925 37.4846 35.5856C37.5157 35.5787 37.5479 35.5781 37.5792 35.5839C37.6105 35.5897 37.6404 35.6017 37.667 35.6192C37.6936 35.6368 37.7164 35.6595 37.7341 35.686C37.7696 35.7391 37.7972 35.797 37.8161 35.858C38.0961 36.845 38.5561 37.758 39.0071 38.67C39.2611 39.185 39.5291 39.693 39.7821 40.207C39.8627 40.3801 39.9325 40.5582 39.9911 40.74C40.0041 40.7865 40.0042 40.8356 39.9913 40.8822C39.9785 40.9287 39.9531 40.9708 39.9181 41.004C39.9001 41.0253 39.8776 41.0424 39.8523 41.0541C39.827 41.0658 39.7995 41.0719 39.7716 41.0719C39.7437 41.0719 39.7161 41.0658 39.6908 41.0541C39.6655 41.0424 39.6431 41.0253 39.6251 41.004C39.5954 40.967 39.5705 40.9263 39.5511 40.883C39.1071 39.804 38.5151 38.801 37.9761 37.77C37.7111 37.263 37.4401 36.754 37.3131 36.187C37.2931 36.1 37.2711 36 37.2571 35.943Z" fill="black"/>
<path d="M38.9641 31.308C39.0038 31.3031 39.044 31.3083 39.0811 31.3231C39.1182 31.338 39.1509 31.362 39.1761 31.393C39.2411 31.4832 39.2986 31.5785 39.3481 31.678C39.8731 32.75 40.3931 33.825 40.9221 34.895C41.0981 35.252 41.2991 35.595 41.4871 35.947C41.5273 36.0139 41.5608 36.0845 41.5871 36.158C41.603 36.2203 41.5964 36.2861 41.5684 36.344C41.5404 36.4018 41.4928 36.4479 41.4341 36.474C41.3815 36.4937 41.3238 36.4952 41.2703 36.4782C41.2168 36.4611 41.1706 36.4265 41.1391 36.38C41.1006 36.3287 41.0671 36.2737 41.0391 36.216C40.3911 34.849 39.6321 33.539 38.9541 32.188C38.8971 32.074 38.8191 31.972 38.7541 31.864C38.7232 31.8174 38.7019 31.7651 38.6914 31.7101C38.6809 31.6552 38.6815 31.5987 38.6931 31.544C38.7068 31.4807 38.7405 31.4235 38.7894 31.3809C38.8382 31.3384 38.8995 31.3128 38.9641 31.308Z" fill="black"/>
<path d="M40.989 37.175C40.9841 37.2272 40.9655 37.2773 40.9351 37.3201C40.9047 37.3629 40.8637 37.397 40.816 37.419C40.7789 37.4342 40.7383 37.439 40.6986 37.4329C40.659 37.4267 40.6218 37.4098 40.591 37.384C40.4951 37.299 40.4219 37.1914 40.378 37.071C40.04 36.418 39.714 35.759 39.361 35.115C39.047 34.541 38.732 33.964 38.294 33.468C38.2332 33.3949 38.1864 33.3111 38.156 33.221C38.1424 33.1578 38.1485 33.092 38.1735 33.0324C38.1986 32.9729 38.2413 32.9224 38.296 32.888C38.3495 32.8523 38.414 32.8368 38.4778 32.8441C38.5417 32.8514 38.601 32.8811 38.645 32.928C38.7112 32.9971 38.7715 33.0717 38.825 33.151C39.2384 33.7397 39.6001 34.363 39.906 35.014C40.22 35.678 40.52 36.35 40.906 36.978C40.939 37.0413 40.9668 37.1072 40.989 37.175Z" fill="black"/>
<path d="M40.108 38.279C40.1085 38.3327 40.0931 38.3854 40.0637 38.4304C40.0344 38.4754 39.9924 38.5107 39.943 38.532C39.8999 38.5536 39.851 38.5609 39.8034 38.5526C39.7559 38.5443 39.7123 38.521 39.679 38.486C39.6178 38.4138 39.5682 38.3325 39.532 38.245C39.0167 37.115 38.4627 36.0047 37.87 34.914C37.8015 34.7883 37.7433 34.6572 37.696 34.522C37.6813 34.4683 37.6823 34.4116 37.6988 34.3584C37.7152 34.3053 37.7466 34.2579 37.789 34.222C37.8127 34.1949 37.8419 34.1733 37.8748 34.1586C37.9076 34.1439 37.9432 34.1366 37.9792 34.1371C38.0151 34.1375 38.0506 34.1458 38.083 34.1613C38.1154 34.1769 38.1441 34.1993 38.167 34.227C38.1967 34.2642 38.2219 34.3048 38.242 34.348C38.491 34.848 38.753 35.338 38.983 35.848C39.324 36.602 39.621 37.375 40.032 38.096C40.0618 38.155 40.0872 38.2162 40.108 38.279Z" fill="black"/>
<path d="M36.046 40.322C36.0886 40.3185 36.1313 40.3266 36.1697 40.3454C36.2081 40.3643 36.2407 40.3932 36.264 40.429C36.295 40.484 36.3204 40.542 36.34 40.602C36.7545 41.8067 37.2934 42.965 37.948 44.058C37.9892 44.1256 38.0209 44.1986 38.042 44.275C38.0576 44.3289 38.053 44.3867 38.029 44.4375C38.0051 44.4883 37.9635 44.5286 37.912 44.551C37.8611 44.5718 37.8051 44.5765 37.7515 44.5646C37.6978 44.5526 37.6492 44.5245 37.612 44.484C37.5764 44.4315 37.545 44.3764 37.518 44.319C37.118 43.56 36.718 42.8 36.307 42.043C36.1163 41.6933 35.9673 41.3224 35.863 40.938C35.8314 40.8152 35.8166 40.6887 35.819 40.562C35.8201 40.5009 35.844 40.4424 35.8859 40.398C35.9279 40.3536 35.985 40.3265 36.046 40.322Z" fill="black"/>
<path d="M36.789 38.806C36.8451 38.8089 36.8994 38.8273 36.9458 38.8591C36.9922 38.8908 37.0289 38.9347 37.052 38.986C37.282 39.423 37.514 39.858 37.731 40.301C38.017 40.887 38.29 41.48 38.568 42.07C38.6043 42.141 38.6354 42.2145 38.661 42.29C38.6778 42.3516 38.672 42.4173 38.6447 42.475C38.6173 42.5328 38.5703 42.5789 38.512 42.605C38.4595 42.6259 38.4013 42.6273 38.3479 42.6089C38.2946 42.5906 38.2495 42.5537 38.221 42.505C38.1933 42.4662 38.1705 42.4243 38.153 42.38C37.802 41.398 37.238 40.528 36.722 39.632C36.6467 39.5104 36.5799 39.3837 36.522 39.253C36.4952 39.1943 36.4866 39.1289 36.4973 39.0653C36.508 39.0017 36.5375 38.9427 36.582 38.896C36.6073 38.8661 36.6391 38.8425 36.675 38.8268C36.7109 38.8112 36.7499 38.8041 36.789 38.806Z" fill="black"/>
<path d="M34.962 44.267C35.0178 44.2729 35.0707 44.2943 35.1149 44.3288C35.1591 44.3632 35.1927 44.4094 35.212 44.462C35.392 44.816 35.573 45.17 35.746 45.527C36.046 46.157 36.346 46.789 36.646 47.421C36.6819 47.4917 36.7097 47.5661 36.729 47.643C36.7426 47.7056 36.7333 47.7709 36.7029 47.8272C36.6724 47.8835 36.6228 47.9271 36.563 47.95C36.5103 47.9687 36.4525 47.9678 36.4004 47.9474C36.3482 47.927 36.3051 47.8885 36.279 47.839C36.2455 47.7852 36.2174 47.7283 36.195 47.669C35.8988 46.9483 35.5436 46.2533 35.133 45.591C34.988 45.345 34.858 45.091 34.721 44.838C34.6661 44.7402 34.644 44.6273 34.658 44.516C34.6682 44.4439 34.7051 44.3783 34.7614 44.3322C34.8177 44.286 34.8894 44.2628 34.962 44.267Z" fill="black"/>
<path d="M35.611 50.984C35.6072 51.0333 35.5897 51.0806 35.5603 51.1204C35.531 51.1602 35.491 51.1909 35.445 51.209C35.4078 51.2248 35.3665 51.2283 35.3272 51.2191C35.2878 51.21 35.2524 51.1886 35.226 51.158C35.1612 51.0879 35.1036 51.0115 35.054 50.93C34.861 50.636 34.662 50.346 34.482 50.044C34.2031 49.5794 33.8986 49.1307 33.57 48.7C33.4915 48.62 33.4379 48.5189 33.416 48.409C33.4079 48.3454 33.4195 48.2809 33.4494 48.2241C33.4793 48.1674 33.5259 48.1213 33.583 48.092C33.6105 48.0749 33.6411 48.0634 33.6731 48.0582C33.7051 48.053 33.7378 48.0542 33.7694 48.0617C33.8009 48.0692 33.8306 48.083 33.8568 48.1021C33.883 48.1212 33.9052 48.1453 33.922 48.173C34.177 48.538 34.453 48.893 34.654 49.294C34.8831 49.7864 35.1597 50.2553 35.48 50.694C35.5532 50.7744 35.5991 50.8759 35.611 50.984Z" fill="black"/>
<path d="M36.0131 48.856C36.0166 48.9181 35.9998 48.9796 35.9652 49.0313C35.9305 49.0829 35.8799 49.1218 35.8211 49.142C35.7757 49.1584 35.7264 49.16 35.6801 49.1467C35.6338 49.1335 35.5928 49.1059 35.5631 49.068C35.5234 49.0189 35.4898 48.9652 35.4631 48.908C35.1044 48.1431 34.6819 47.4098 34.2001 46.716C34.1528 46.6525 34.1145 46.5829 34.0861 46.509C34.0598 46.4331 34.0617 46.3504 34.0914 46.2758C34.1212 46.2012 34.1768 46.1399 34.2481 46.103C34.3721 46.045 34.5151 46.092 34.6081 46.247C34.8221 46.602 35.0421 46.953 35.2271 47.322C35.4631 47.791 35.6481 48.285 35.9541 48.717C35.9804 48.7602 36.0003 48.807 36.0131 48.856Z" fill="black"/>
<path d="M35.3901 42.547C35.4424 42.5474 35.4935 42.5623 35.5378 42.5901C35.5821 42.6178 35.6178 42.6572 35.6411 42.704C35.8251 43.004 36.0241 43.295 36.1791 43.604C36.4191 44.09 36.6281 44.591 36.8481 45.087C36.8738 45.1451 36.8904 45.2068 36.8971 45.27C36.9048 45.3177 36.8967 45.3666 36.8742 45.4094C36.8516 45.4521 36.8158 45.4864 36.7721 45.507C36.7223 45.5316 36.6658 45.5388 36.6114 45.5276C36.5571 45.5164 36.508 45.4873 36.4721 45.445C36.4341 45.3944 36.4044 45.338 36.3841 45.278C36.1561 44.57 35.7551 43.956 35.3561 43.339C35.2771 43.2196 35.2101 43.0926 35.1561 42.96C35.1346 42.9077 35.1284 42.8503 35.1381 42.7946C35.1479 42.7388 35.1732 42.687 35.2111 42.645C35.2311 42.6157 35.2578 42.5916 35.2889 42.5745C35.32 42.5575 35.3547 42.5481 35.3901 42.547Z" fill="black"/>
<path d="M33.5131 55.4C33.5059 55.4421 33.4879 55.4816 33.4609 55.5147C33.4339 55.5478 33.3988 55.5734 33.3591 55.589C33.3227 55.6062 33.2823 55.6134 33.2422 55.6097C33.2021 55.606 33.1637 55.5916 33.1311 55.568C33.0793 55.5312 33.036 55.4839 33.0041 55.429C32.7659 55.0313 32.4864 54.6599 32.1701 54.321C31.973 54.0898 31.8214 53.8234 31.7231 53.536C31.6661 53.383 31.6841 53.33 31.8061 53.255C31.9681 53.155 32.0981 53.161 32.1891 53.275C32.2187 53.3125 32.2449 53.3527 32.2671 53.395C32.589 53.9654 32.9516 54.5118 33.3521 55.03C33.4271 55.136 33.5221 55.229 33.5131 55.4Z" fill="black"/>
<path d="M32.48 51.576C32.5289 51.592 32.5741 51.6174 32.6131 51.651C32.6723 51.7254 32.7236 51.8058 32.766 51.891C33.06 52.419 33.359 52.944 33.766 53.397C33.8274 53.4695 33.8764 53.5516 33.911 53.64C33.9308 53.6923 33.9316 53.7498 33.9133 53.8026C33.8951 53.8554 33.8589 53.9001 33.811 53.929C33.7697 53.9535 33.7221 53.9654 33.6741 53.9631C33.6261 53.9608 33.5798 53.9444 33.541 53.916C33.4785 53.867 33.4251 53.8074 33.3831 53.74C33.1418 53.3853 32.8803 53.0447 32.6001 52.72C32.4204 52.4957 32.2847 52.2396 32.2001 51.965C32.1863 51.9206 32.183 51.8736 32.1904 51.8278C32.1979 51.7819 32.2159 51.7384 32.243 51.7007C32.2702 51.6629 32.3057 51.632 32.3469 51.6104C32.388 51.5888 32.4336 51.577 32.48 51.576Z" fill="black"/>
<path d="M37.4 18.748C37.191 18.754 37.088 18.616 37.175 18.436C37.233 18.317 37.291 18.216 37.235 18.082C37.2159 18.0292 37.214 17.9717 37.2296 17.9178C37.2453 17.8639 37.2776 17.8163 37.322 17.782C37.466 17.635 37.616 17.493 37.767 17.353C37.8033 17.3228 37.8446 17.2991 37.889 17.283C37.9406 17.2617 37.9979 17.2591 38.0512 17.2755C38.1045 17.2919 38.1504 17.3264 38.181 17.373C38.209 17.4121 38.2226 17.4597 38.2193 17.5077C38.216 17.5557 38.1961 17.6011 38.163 17.636C38.101 17.707 38.025 17.765 37.963 17.836C37.825 17.975 37.836 18.036 38.008 18.096C38.053 18.113 38.101 18.118 38.145 18.135C38.1907 18.1492 38.231 18.1772 38.2601 18.2151C38.2893 18.2531 38.306 18.2992 38.308 18.347C38.3079 18.3946 38.2952 18.4414 38.2712 18.4825C38.2471 18.5236 38.2125 18.5576 38.171 18.581C38.1459 18.6007 38.1169 18.615 38.086 18.623C37.851 18.665 37.618 18.707 37.4 18.748Z" fill="black"/>
<path d="M35.161 18.848C35.0205 18.8334 34.8845 18.7906 34.761 18.722C34.642 18.674 34.524 18.601 34.395 18.639C34.195 18.699 34.021 18.639 33.848 18.539C33.765 18.493 33.668 18.472 33.582 18.43C33.5449 18.4146 33.5113 18.392 33.4831 18.3634C33.4549 18.3349 33.4328 18.3009 33.4179 18.2636C33.4031 18.2263 33.3959 18.1864 33.3968 18.1463C33.3977 18.1062 33.4066 18.0666 33.423 18.03C33.4416 17.9901 33.4682 17.9546 33.5012 17.9255C33.5342 17.8964 33.5728 17.8744 33.6147 17.8608C33.6565 17.8473 33.7007 17.8426 33.7445 17.8469C33.7882 17.8512 33.8306 17.8645 33.869 17.886C33.9623 17.9468 34.0473 18.0194 34.122 18.102C34.1713 18.1644 34.2393 18.2092 34.316 18.2299C34.3927 18.2507 34.4741 18.2461 34.548 18.217C34.797 18.131 35.048 18.246 35.299 18.277C35.43 18.293 35.516 18.484 35.49 18.622C35.464 18.76 35.34 18.857 35.161 18.848Z" fill="black"/>
<path d="M39.667 13.968C39.6726 14.0204 39.6612 14.0733 39.6343 14.1187C39.6075 14.1641 39.5667 14.1996 39.518 14.22C39.4748 14.2418 39.4262 14.2505 39.3781 14.2452C39.33 14.2399 39.2844 14.2207 39.247 14.19C39.057 14.022 38.871 13.848 38.694 13.666C38.6637 13.6373 38.6396 13.6026 38.6234 13.5641C38.6072 13.5256 38.5993 13.4842 38.6 13.4424C38.6008 13.4006 38.6103 13.3595 38.6278 13.3216C38.6454 13.2837 38.6707 13.2499 38.7021 13.2224C38.7335 13.1948 38.7703 13.1741 38.8102 13.1616C38.85 13.1491 38.892 13.1451 38.9335 13.1497C38.975 13.1544 39.0151 13.1677 39.0512 13.1888C39.0873 13.2098 39.1185 13.2382 39.143 13.272C39.299 13.452 39.448 13.638 39.594 13.825C39.624 13.8695 39.6485 13.9176 39.667 13.968Z" fill="black"/>
<path d="M39.2369 16.988C39.2799 16.747 39.3089 16.525 39.3599 16.309C39.3803 16.2396 39.4246 16.1796 39.4851 16.1399C39.5455 16.1001 39.6181 16.0831 39.69 16.092C39.7335 16.0977 39.7754 16.1128 39.8124 16.1365C39.8495 16.1601 39.8809 16.1916 39.9045 16.2287C39.9281 16.2658 39.9432 16.3076 39.9488 16.3512C39.9544 16.3948 39.9504 16.4391 39.937 16.481C39.87 16.693 39.792 16.902 39.707 17.107C39.6875 17.1678 39.6458 17.2191 39.5901 17.2504C39.5345 17.2817 39.4691 17.2909 39.407 17.276C39.3491 17.2558 39.3004 17.2158 39.2692 17.1631C39.2381 17.1104 39.2267 17.0483 39.2369 16.988Z" fill="black"/>
<path d="M31.451 17.6C31.28 17.593 31.203 17.545 31.161 17.45C31.1374 17.4075 31.1301 17.3579 31.1404 17.3104C31.1507 17.263 31.178 17.2209 31.217 17.192C31.4289 17.0284 31.6651 16.8992 31.917 16.809C31.9859 16.7874 32.0603 16.7922 32.1257 16.8226C32.1912 16.8529 32.243 16.9065 32.271 16.973C32.315 17.089 32.286 17.265 32.179 17.313C31.923 17.429 31.656 17.521 31.451 17.6Z" fill="black"/>
<path d="M38.7121 11.071C38.7625 11.0802 38.8101 11.1011 38.8511 11.132C39.0191 11.322 39.1871 11.515 39.3361 11.72C39.4361 11.855 39.3731 12.028 39.2211 12.133C39.1928 12.1558 39.1601 12.1724 39.125 12.1816C39.0899 12.1909 39.0532 12.1926 39.0174 12.1866C38.9816 12.1807 38.9475 12.1672 38.9172 12.1471C38.887 12.127 38.8614 12.1007 38.8421 12.07C38.7076 11.8364 38.5864 11.5953 38.4791 11.348C38.4301 11.237 38.5571 11.082 38.7121 11.071Z" fill="black"/>
<path d="M39.7781 19.491L39.1661 19.406C39.1347 19.4014 39.1043 19.3916 39.0761 19.377C39.0315 19.359 38.9935 19.3278 38.9672 19.2876C38.9409 19.2473 38.9276 19.2 38.9291 19.152C38.9285 19.1038 38.9454 19.057 38.9767 19.0202C39.0079 18.9834 39.0514 18.9592 39.0991 18.952C39.3676 18.9325 39.6369 18.9265 39.9061 18.934C39.9689 18.9457 40.0258 18.9786 40.0674 19.0272C40.109 19.0758 40.1327 19.1371 40.1345 19.201C40.1364 19.2649 40.1163 19.3276 40.0777 19.3785C40.039 19.4294 39.9841 19.4656 39.9221 19.481C39.8744 19.4884 39.8263 19.4917 39.7781 19.491Z" fill="black"/>
<path d="M30.2811 14.313C30.0561 14.313 29.8811 14.085 29.9861 13.891C30.1375 13.6327 30.3044 13.3839 30.4861 13.146C30.5235 13.1049 30.5745 13.0788 30.6297 13.0726C30.6849 13.0663 30.7405 13.0803 30.7861 13.112C30.8316 13.1436 30.8652 13.1895 30.8817 13.2424C30.8982 13.2953 30.8966 13.3521 30.8771 13.404C30.7621 13.663 30.6421 13.92 30.5151 14.173C30.4929 14.2157 30.4592 14.2514 30.4179 14.2761C30.3766 14.3009 30.3292 14.3136 30.2811 14.313Z" fill="black"/>
<path d="M28.534 16.668C28.4859 16.6694 28.4385 16.6558 28.3983 16.6291C28.3582 16.6024 28.3274 16.5639 28.31 16.519C28.2864 16.4762 28.2792 16.4262 28.2899 16.3785C28.3006 16.3308 28.3284 16.2886 28.368 16.26C28.5931 16.1142 28.8268 15.9822 29.068 15.865C29.203 15.801 29.355 15.895 29.415 16.039C29.4427 16.1055 29.4462 16.1796 29.425 16.2484C29.4038 16.3172 29.3593 16.3765 29.299 16.416C29.0525 16.5239 28.7964 16.6083 28.534 16.668Z" fill="black"/>
<path d="M25.8531 17.934C25.8506 17.9695 25.8404 18.004 25.8231 18.0351C25.8058 18.0662 25.7819 18.0931 25.7531 18.114C25.5781 18.252 25.4051 18.392 25.2231 18.519C25.1654 18.5627 25.0938 18.584 25.0216 18.579C24.9493 18.5741 24.8813 18.5432 24.8301 18.492C24.7782 18.4205 24.7563 18.3316 24.769 18.2442C24.7817 18.1568 24.828 18.0778 24.8981 18.024C25.0984 17.8958 25.3072 17.7815 25.5231 17.682C25.5619 17.6652 25.6045 17.6591 25.6465 17.6643C25.6885 17.6694 25.7283 17.6857 25.7619 17.7113C25.7955 17.737 25.8217 17.7712 25.8377 17.8103C25.8538 17.8494 25.8591 17.8921 25.8531 17.934Z" fill="black"/>
<path d="M42.132 19.029C42.1884 19.027 42.2442 19.041 42.2931 19.0693C42.3419 19.0976 42.3817 19.1391 42.408 19.189C42.823 19.909 43.472 20.407 44.071 20.953C44.424 21.276 44.777 21.598 45.128 21.923C45.1868 21.9763 45.2395 22.036 45.285 22.101C45.3166 22.1471 45.3324 22.2023 45.3301 22.2582C45.3278 22.314 45.3074 22.3677 45.272 22.411C45.2277 22.4573 45.1688 22.4868 45.1052 22.4947C45.0416 22.5025 44.9773 22.4881 44.923 22.454C44.8844 22.4264 44.8506 22.3926 44.823 22.354C44.418 21.832 43.893 21.441 43.385 21.03C43.113 20.81 42.849 20.579 42.585 20.348C42.344 20.136 42.169 19.866 41.971 19.617C41.9249 19.5625 41.893 19.4975 41.8782 19.4277C41.8634 19.3579 41.8661 19.2855 41.886 19.217C41.9028 19.1642 41.9354 19.1179 41.9794 19.0842C42.0234 19.0506 42.0767 19.0313 42.132 19.029Z" fill="black"/>
<path d="M44.18 16.345C44.198 16.622 44.018 16.757 43.868 16.668C43.255 16.302 42.617 15.968 42.138 15.417C42.117 15.393 42.094 15.37 42.075 15.344C41.95 15.176 41.964 15.002 42.113 14.879C42.241 14.773 42.397 14.788 42.534 14.937C42.688 15.0959 42.8336 15.2628 42.97 15.437C43.129 15.6369 43.3306 15.7988 43.56 15.911C43.728 16 43.89 16.102 44.052 16.202C44.106 16.2382 44.15 16.2873 44.18 16.345Z" fill="black"/>
<path d="M43.2 13.659C43.2004 13.6917 43.1942 13.7242 43.1817 13.7544C43.1692 13.7847 43.1508 13.8121 43.1274 13.835C43.104 13.8579 43.0763 13.8758 43.0458 13.8877C43.0153 13.8995 42.9827 13.9051 42.95 13.904C42.9191 13.8995 42.8892 13.8904 42.861 13.877C42.649 13.777 42.435 13.677 42.227 13.565C42.1922 13.5472 42.1614 13.5227 42.1364 13.4927C42.1114 13.4628 42.0927 13.4281 42.0814 13.3907C42.0701 13.3534 42.0665 13.3141 42.0707 13.2754C42.0749 13.2366 42.0869 13.199 42.106 13.165C42.186 13.015 42.371 12.932 42.506 13.016C42.7457 13.1652 42.9652 13.3446 43.159 13.55C43.18 13.5831 43.1939 13.6202 43.2 13.659Z" fill="black"/>
<path d="M42.1521 11.5C42.1461 11.5499 42.1257 11.597 42.0934 11.6356C42.0611 11.6741 42.0182 11.7024 41.9701 11.717C41.9323 11.7318 41.891 11.7347 41.8515 11.7254C41.812 11.7161 41.7763 11.695 41.7491 11.665C41.6002 11.4779 41.4611 11.2833 41.3321 11.082C41.2999 11.0164 41.2948 10.9407 41.3178 10.8714C41.3408 10.802 41.3901 10.7444 41.4551 10.711C41.4825 10.6941 41.513 10.6828 41.5448 10.6779C41.5766 10.673 41.6091 10.6745 41.6403 10.6823C41.6715 10.6901 41.7009 10.7041 41.7266 10.7235C41.7523 10.7428 41.7739 10.7672 41.7901 10.795C41.9121 10.981 42.0191 11.178 42.1271 11.374C42.1417 11.4145 42.1502 11.457 42.1521 11.5Z" fill="black"/>
<path d="M28.9531 56.311C28.7531 56.319 28.5991 56.111 28.6841 55.981C28.8531 55.713 29.035 55.452 29.225 55.198C29.2683 55.15 29.3274 55.1192 29.3915 55.1113C29.4556 55.1034 29.5205 55.1189 29.574 55.155C29.6256 55.1931 29.6633 55.2471 29.6814 55.3087C29.6995 55.3702 29.6969 55.436 29.674 55.496C29.6483 55.5537 29.6146 55.6076 29.574 55.656C29.434 55.83 29.29 56 29.15 56.172C29.0996 56.2368 29.031 56.2852 28.9531 56.311Z" fill="black"/>
<path d="M26.0631 54.942C26.0661 54.9745 26.0624 55.0073 26.0521 55.0384C26.0418 55.0694 26.0251 55.0979 26.0032 55.1222C25.9813 55.1464 25.9546 55.1659 25.9248 55.1793C25.895 55.1927 25.8627 55.1997 25.8301 55.2C25.5439 55.1871 25.2711 55.0755 25.0581 54.884C25.0186 54.8454 24.9942 54.7941 24.989 54.7391C24.9839 54.6842 24.9985 54.6292 25.0301 54.584C25.0552 54.534 25.0971 54.4943 25.1484 54.4721C25.1998 54.4498 25.2574 54.4462 25.3111 54.462C25.5301 54.552 25.7441 54.654 25.9561 54.762C25.9873 54.7809 26.0133 54.8073 26.032 54.8387C26.0507 54.87 26.0613 54.9055 26.0631 54.942Z" fill="black"/>
<path d="M32.211 58.637C32.211 58.799 32.139 58.913 32.04 58.943C31.9855 58.9562 31.9279 58.9493 31.878 58.9236C31.8281 58.8979 31.789 58.8551 31.768 58.803C31.7593 58.7896 31.7522 58.7751 31.747 58.76C31.575 58.035 31.161 57.422 30.823 56.775C30.7617 56.6815 30.723 56.575 30.71 56.464C30.7061 56.4079 30.7192 56.352 30.7478 56.3036C30.7764 56.2552 30.819 56.2166 30.87 56.193C30.9221 56.1716 30.98 56.1691 31.0337 56.1859C31.0874 56.2027 31.1335 56.2377 31.164 56.285C31.2088 56.3489 31.2492 56.4157 31.285 56.485C31.36 56.625 31.44 56.764 31.504 56.909C31.7167 57.389 31.9254 57.8707 32.13 58.354C32.1634 58.4464 32.1905 58.5409 32.211 58.637Z" fill="black"/>
<path d="M29.3891 59C29.428 58.9956 29.4673 59.0022 29.5026 59.019C29.538 59.0358 29.5679 59.0621 29.5891 59.095C29.733 59.3778 29.8421 59.677 29.9141 59.986C29.9203 60.0265 29.9118 60.0679 29.8902 60.1028C29.8685 60.1376 29.8352 60.1636 29.7961 60.176C29.7604 60.1954 29.7191 60.2017 29.6793 60.1938C29.6395 60.186 29.6037 60.1645 29.5781 60.133C29.4011 59.8869 29.2637 59.6146 29.1711 59.326C29.1626 59.2902 29.1617 59.253 29.1682 59.2168C29.1748 59.1806 29.1887 59.1462 29.2092 59.1156C29.2296 59.085 29.2561 59.0589 29.2871 59.0391C29.318 59.0192 29.3528 59.0059 29.3891 59Z" fill="black"/>
<path d="M22.489 55.692C22.4272 55.6949 22.3661 55.6767 22.316 55.6404C22.2658 55.604 22.2295 55.5517 22.213 55.492C22.2005 55.4458 22.2035 55.3969 22.2216 55.3526C22.2397 55.3083 22.2718 55.2712 22.313 55.247C22.5197 55.133 22.7437 55.0536 22.976 55.012C23.0227 55.0005 23.0718 55.0054 23.1153 55.0258C23.1588 55.0461 23.194 55.0808 23.215 55.124C23.2403 55.1651 23.2499 55.2139 23.242 55.2615C23.2341 55.3091 23.2092 55.3523 23.172 55.383C22.9703 55.5357 22.7369 55.6413 22.489 55.692Z" fill="black"/>
</svg>
